<?xml version="1.0" encoding="UTF-8" standalone="no"?>
<!-- Created with Inkscape (http://www.inkscape.org/) -->

<svg
   width="202.5444mm"
   height="295.83456mm"
   viewBox="0 0 202.5444 295.83456"
   version="1.1"
   id="svg5"
   inkscape:version="1.1 (c4e8f9e, 2021-05-24)"
   sodipodi:docname="first-kissss.svg"
   xmlns:inkscape="http://www.inkscape.org/namespaces/inkscape"
   xmlns:sodipodi="http://sodipodi.sourceforge.net/DTD/sodipodi-0.dtd"
   xmlns="http://www.w3.org/2000/svg"
   xmlns:svg="http://www.w3.org/2000/svg">
  <sodipodi:namedview
     id="namedview7"
     pagecolor="#ffffff"
     bordercolor="#666666"
     borderopacity="1.0"
     inkscape:pageshadow="2"
     inkscape:pageopacity="0.0"
     inkscape:pagecheckerboard="0"
     inkscape:document-units="mm"
     showgrid="false"
     inkscape:snap-grids="false"
     inkscape:snap-to-guides="false"
     inkscape:snap-nodes="false"
     inkscape:snap-others="false"
     inkscape:snap-global="false"
     inkscape:zoom="3.7952812"
     inkscape:cx="570.31347"
     inkscape:cy="573.47529"
     inkscape:window-width="1312"
     inkscape:window-height="1003"
     inkscape:window-x="0"
     inkscape:window-y="23"
     inkscape:window-maximized="0"
     inkscape:current-layer="layer1"
     fit-margin-top="0"
     fit-margin-left="0"
     fit-margin-right="0"
     fit-margin-bottom="0" />
  <defs
     id="defs2" />
  <g
     inkscape:label="Layer 1"
     inkscape:groupmode="layer"
     id="layer1"
     transform="translate(0.99775571,0.99775571)">
    <path
       style="fill:none;stroke:#000000;stroke-width:0.115876;stroke-linecap:butt;stroke-linejoin:miter;stroke-miterlimit:4;stroke-dasharray:none;stroke-opacity:1"
       d="m 0.85432503,0.83510823 c 0,0 1.77365197,1.20748097 2.98721987,2.98720737 C 6.0903323,7.120224 8.3955958,17.670469 8.5772956,24.426207 8.8230943,33.5652 7.4429296,45.920358 5.3861385,54.507878 3.8379532,60.971901 0.70306883,78.84161 1.3984015,87.202391 c 0.7751524,9.320685 7.5054072,21.167879 11.2494665,25.738689 3.148642,3.84389 9.146194,9.83894 13.17323,10.81214 12.886151,3.11415 23.740755,-2.60687 27.210006,-2.03528 5.458368,0.89931 12.822499,4.60911 16.373946,11.1913 0,0 -1.636992,-7.00921 0.155336,-11.78875 1.792333,-4.77955 4.779559,-7.16933 7.16933,-7.36848 2.389774,-0.19915 9.160807,5.97444 8.961657,13.74122 -0.19915,7.76676 -3.18637,10.75398 -7.567625,10.95313 -4.381257,0.19916 -11.28849,-2.4925 -11.351433,-18.71991 -0.05485,-14.1408 3.38552,-16.52928 3.38552,-16.52928 0,0 5.66528,5.7942 7.020289,7.60088 1.355005,1.80669 9.334521,11.74343 9.334521,11.74343 l 13.399552,15.05568 c 0,0 10.709953,9.03 13.399543,8.58173 1.80668,-0.3011 3.87081,-1.65682 3.91448,-3.01114 0.15056,-4.66724 -9.18396,-11.14119 -16.86235,-16.41068 -7.678399,-5.26949 -18.367933,-12.4962 -19.120715,-11.89398 -0.752782,0.60222 0.451672,3.61336 1.355009,4.66726 0.903345,1.0539 20.475726,23.6374 28.154126,23.78797 7.67839,0.15056 11.29176,-2.10779 16.26012,-5.26949 4.96838,-3.16169 10.99065,-4.06503 16.86236,0.30111 5.87172,4.36614 11.74344,8.88285 10.68954,10.53898 -1.0539,1.65613 -7.37728,-1.95724 -9.63564,-4.21559 -2.25835,-2.25835 -7.97951,-10.53898 -8.7323,-15.35679 -0.75277,-4.81782 -2.25834,-9.63563 3.01115,-13.09844 5.26949,-3.46281 10.84008,-1.50557 13.09843,2.10779 2.25836,3.61336 1.80668,7.97951 0.30112,10.99065 -1.50557,3.01113 -2.55947,6.32339 -2.40892,9.48507 0.15057,3.1617 0,8.43118 4.96838,15.80847 4.96837,7.37729 9.33452,12.19509 17.91626,9.48507 8.58173,-2.71002 14.75456,-6.62449 18.66904,-11.29175 3.91448,-4.66727 5.26948,-6.17282 5.26948,-6.17282 0,0 -4.61785,2.07813 -7.67838,3.91447 -6.02228,3.61335 -6.79013,2.40573 -9.03342,13.09843 -2.72277,12.97816 -5.79036,14.57036 -8.88284,17.31404 -3.06365,2.71806 -6.01052,4.96648 -8.88285,5.11892 -5.6736,0.30112 -8.63133,0.91898 -10.84009,-6.92561 -1.97858,-7.02703 -0.45167,-12.49621 0,-14.45345 0.45167,-1.95724 1.08107,-7.82383 0.46279,-10.75924 -0.48504,-2.30288 -1.29692,-3.83773 -1.79555,-4.30756 -0.80438,-0.75794 -1.82893,-0.5911 -3.03339,0.0111 -1.20446,0.60221 -2.65823,3.65545 -4.81782,5.72115 -6.92561,6.62451 -8.73229,5.42004 -15.05567,1.20446 -8.21838,-5.47892 -16.56125,-1.95724 -19.57238,-0.15056 -3.01114,1.80668 -8.581753,5.57061 -9.93675,8.88285 -1.355017,3.31224 -4.817825,9.33452 -4.817825,9.33452 l -2.860573,4.21558 c 0,0 6.624499,-10.99064 8.280625,-10.99064 1.656123,0 12.496213,13.249 12.496213,15.20623 0,1.95724 -0.90335,8.7323 -1.05389,10.8401 -0.15057,2.10779 0,7.52784 0,7.52784 0,0 2.71001,-10.38842 8.28061,-18.51849 5.5706,-8.13007 8.73229,-12.79733 9.63564,-15.20624 0.90334,-2.4089 2.55947,-8.58173 0.15055,-10.38841 -2.4089,-1.80669 -11.29176,-0.30111 -15.6579,1.20444 -4.36615,1.50558 -8.13007,2.86059 -9.48507,3.91449 -1.35501,1.05388 -4.215598,4.66725 -4.215598,4.66725 0,0 5.570598,-3.91447 10.840088,-3.76391 5.26949,0.15054 7.22672,6.92561 6.6245,10.84009 -0.60223,3.91448 -9.03341,19.72294 -9.18396,23.18574 -0.15056,3.46281 0.30111,6.6245 0.30111,6.6245 0,0 -3.91448,0.30112 -6.02227,-1.20445 -2.107803,-1.50557 -4.968376,-5.5706 -5.570604,-11.74343 -0.602227,-6.17282 -1.355016,-15.20624 -5.570599,-20.47572 -4.21559,-5.26949 -9.334524,-5.5706 -12.34566,-4.51672 -3.011128,1.0539 -3.462806,6.02228 -0.602223,11.14121 2.860577,5.11894 14.604002,21.83073 17.916255,23.93853 3.312246,2.10779 6.936451,5.23161 5.269491,-1.80667 -1.35501,-5.72117 -4.968381,-12.94789 -8.431181,-18.5185 -3.4628,-5.5706 -8.126104,-8.43118 -10.990651,-8.43118 -3.763914,0 -5.721154,3.61337 -10.0873,6.6245 -4.366145,3.01114 -10.388418,1.95725 -15.055676,1.20446 -4.667264,-0.75279 -16.782429,-2.80921 -21.680175,0.75279 -8.280619,6.02226 -13.550108,22.13182 -11.743421,33.87526 2.133985,13.87093 9.183957,32.3697 8.732285,47.27482 -0.451666,14.90513 -2.559465,19.27128 -4.065033,22.2824 -1.505568,3.01113 -5.871713,8.58175 -5.871713,8.58175"
       id="path165"
       sodipodi:nodetypes="cssssssscssssscsccsssssssssssssssssscsssssssssssssccssscssssscssscsssssssssssssssc" />
    <rect
       style="fill:none;stroke-width:4.99999"
       id="rect29"
       width="202.5444"
       height="295.83456"
       x="-0.99775571"
       y="-0.99775571" />
  </g>
</svg>
