<svg version="1.1" xmlns="http://www.w3.org/2000/svg" xmlns:xlink="http://www.w3.org/1999/xlink" width="400" height="610.3225806451613" viewBox="0, 0, 400,610.3225806451613">
<path id="0" d="M181.099 7.700 C 181.461 35.910,182.684 59.467,183.918 62.000 C 184.833 63.878,187.431 64.182,189.659 62.670 C 191.309 61.550,192.400 61.849,192.400 63.420 C 192.400 64.170,192.189 64.400,191.498 64.400 C 188.729 64.400,184.000 70.336,184.000 73.812 C 184.000 76.639,181.521 78.800,178.280 78.800 C 176.225 78.800,173.200 80.687,173.200 81.969 C 173.200 82.927,172.468 83.199,171.300 82.675 C 170.323 82.237,170.124 81.236,170.866 80.494 C 171.222 80.138,171.219 79.380,170.856 77.314 C 170.594 75.821,170.488 73.851,170.620 72.935 C 170.940 70.725,169.160 60.789,168.448 60.806 C 168.088 60.815,167.121 61.462,167.194 61.645 C 167.228 61.730,167.058 62.340,166.816 63.000 C 166.179 64.738,166.025 65.185,165.993 65.398 C 165.977 65.502,165.139 67.975,164.131 70.894 C 161.907 77.332,161.638 81.090,163.138 84.737 C 163.867 86.509,163.948 87.123,163.611 88.337 C 163.387 89.142,163.203 90.636,163.202 91.658 C 163.200 93.466,163.151 93.540,161.336 94.458 C 158.897 95.690,156.713 99.256,153.393 107.427 C 150.757 113.916,148.453 117.608,145.520 120.044 C 140.727 124.025,136.632 132.706,134.975 142.400 C 134.618 144.490,133.960 147.005,133.513 147.988 C 131.965 151.391,132.442 152.380,136.107 153.375 C 137.478 153.748,140.880 155.135,143.667 156.458 C 149.837 159.388,150.510 159.275,151.037 155.217 C 151.135 154.457,151.476 153.467,151.793 153.017 C 152.110 152.568,153.142 151.079,154.085 149.710 C 155.028 148.340,157.344 145.640,159.232 143.710 C 163.531 139.313,168.485 133.414,171.115 129.558 C 172.225 127.931,174.338 125.250,175.811 123.600 C 177.283 121.950,179.181 119.610,180.028 118.400 C 182.299 115.154,182.621 114.820,187.200 110.947 C 198.646 101.267,202.602 98.770,212.495 94.978 C 215.526 93.815,218.860 92.333,219.903 91.683 C 220.947 91.033,223.373 89.507,225.296 88.291 C 227.394 86.965,229.633 85.894,230.896 85.613 C 233.863 84.952,237.195 83.763,241.600 81.792 C 248.508 78.702,261.461 75.130,268.400 74.403 C 270.710 74.161,272.870 73.890,273.200 73.800 C 275.164 73.268,284.475 72.737,291.000 72.785 C 300.899 72.858,304.394 73.554,308.992 76.368 C 310.756 77.449,312.968 78.638,313.907 79.013 C 314.847 79.387,315.927 80.082,316.307 80.557 C 317.418 81.943,319.467 83.220,320.886 83.412 C 324.418 83.888,328.763 84.031,330.192 83.717 C 332.362 83.241,337.529 84.100,341.688 85.630 C 348.862 88.270,356.714 90.689,358.942 90.946 C 360.230 91.095,361.593 91.382,361.971 91.584 C 363.457 92.380,372.574 94.556,379.600 95.793 C 384.968 96.737,387.934 97.479,390.400 98.494 C 392.270 99.263,394.520 100.020,395.400 100.176 C 398.447 100.716,398.968 101.509,399.746 106.800 C 399.827 107.350,399.914 94.237,399.939 77.661 C 399.985 47.932,399.974 47.518,399.193 47.314 C 398.744 47.197,398.400 46.768,398.400 46.326 C 398.400 45.728,398.587 45.605,399.200 45.800 C 399.978 46.047,400.000 45.872,400.000 39.440 L 400.000 32.827 398.165 34.114 C 394.411 36.745,394.216 36.746,393.946 34.132 C 393.847 33.172,394.140 32.459,395.152 31.200 C 396.535 29.479,396.638 29.455,399.300 30.246 C 400.101 30.484,400.390 23.488,399.599 22.999 C 399.331 22.834,399.331 22.503,399.599 22.002 C 399.838 21.555,400.000 16.965,400.000 10.626 L 400.000 0.000 356.800 0.000 C 315.925 0.000,313.600 0.038,313.598 0.700 C 313.593 2.282,312.655 4.607,311.593 5.668 C 308.823 8.439,305.890 5.659,306.954 1.272 C 307.274 -0.047,307.266 -0.055,305.938 0.072 C 304.388 0.220,304.458 -0.107,304.376 7.400 C 304.321 12.333,303.871 14.000,302.591 14.000 C 302.266 14.000,301.993 14.225,301.984 14.500 C 301.976 14.775,301.693 14.370,301.355 13.600 C 300.969 12.719,300.783 11.311,300.854 9.800 C 301.078 5.015,300.016 0.000,298.778 0.000 C 297.139 -0.000,296.587 5.258,297.839 8.932 C 298.433 10.675,298.428 10.946,297.772 12.769 C 297.083 14.685,297.087 14.796,297.933 17.477 C 299.945 23.851,296.903 28.209,293.246 24.191 L 291.964 22.782 290.939 24.000 C 288.972 26.338,287.799 26.357,285.673 24.089 C 284.561 22.903,283.918 23.483,283.438 26.104 C 283.113 27.875,282.750 27.782,280.154 25.268 C 277.671 22.863,277.593 20.719,279.900 18.300 C 281.081 17.062,281.889 16.929,283.024 17.787 C 284.717 19.068,285.599 17.198,285.601 12.323 C 285.602 6.697,288.784 4.568,289.601 9.647 C 290.138 12.991,291.726 18.800,292.102 18.800 C 293.009 18.800,293.675 15.798,293.406 12.923 C 293.200 10.731,293.291 9.532,293.772 8.084 C 294.377 6.264,294.368 6.031,293.606 3.817 C 293.163 2.529,292.800 1.143,292.800 0.737 C 292.800 -0.811,287.853 -0.298,287.383 1.300 C 286.797 3.288,285.200 3.382,285.200 1.428 C 285.200 0.212,285.066 0.000,284.297 0.000 C 283.424 0.000,283.399 0.105,283.536 3.134 C 283.763 8.121,281.651 12.070,278.710 12.160 L 277.400 12.200 277.163 14.967 C 276.844 18.684,274.664 20.640,272.421 19.221 C 272.048 18.985,271.349 19.061,270.457 19.434 C 268.701 20.168,267.773 19.873,267.267 18.419 C 266.720 16.851,267.793 14.656,269.200 14.462 C 270.847 14.234,271.095 13.736,271.381 10.090 C 271.532 8.170,272.003 5.648,272.428 4.485 C 272.852 3.322,273.200 1.837,273.200 1.185 L 273.200 0.000 227.100 -0.000 L 181.000 -0.000 181.099 7.700 " stroke="black" fill="none" stroke-width="3"/>
<path id="13" d="M256.600 118.749 C 255.940 119.130,254.525 119.770,253.456 120.171 C 251.628 120.856,243.977 126.322,239.297 130.286 C 234.503 134.346,224.007 145.989,219.541 152.200 C 213.963 159.958,212.066 163.191,211.417 166.044 C 211.056 167.633,210.064 171.018,209.213 173.566 C 208.362 176.115,206.911 181.076,205.988 184.591 C 205.066 188.106,203.791 191.956,203.156 193.147 C 202.215 194.910,202.000 195.806,202.000 197.970 C 202.000 199.659,201.691 201.497,201.153 203.014 C 200.121 205.920,200.278 211.604,201.551 217.400 C 206.767 241.159,224.572 251.715,249.914 246.072 C 253.057 245.373,256.117 244.801,256.714 244.801 L 257.800 244.803 256.600 245.553 C 254.870 246.634,252.569 248.800,253.151 248.800 C 262.130 248.800,280.988 238.108,296.800 224.051 C 299.550 221.607,302.029 219.605,302.308 219.603 C 303.288 219.597,299.621 225.719,296.200 229.800 C 292.757 233.908,292.943 235.126,296.553 232.121 C 299.945 229.300,301.750 229.408,299.654 232.308 C 298.241 234.262,287.859 244.155,285.398 245.892 C 284.079 246.823,282.460 248.060,281.800 248.641 C 281.140 249.221,279.655 250.416,278.500 251.296 C 277.345 252.176,276.400 253.065,276.400 253.272 C 276.400 253.478,276.240 253.549,276.045 253.428 C 275.850 253.307,275.486 253.455,275.237 253.756 C 274.883 254.182,274.956 254.348,275.572 254.509 C 276.006 254.622,276.424 254.527,276.501 254.297 C 276.936 252.993,281.274 253.469,282.651 254.972 C 284.171 256.632,284.562 256.628,287.536 254.921 C 290.319 253.323,295.024 254.113,296.810 256.478 C 296.925 256.631,297.375 256.699,297.810 256.629 C 298.244 256.560,298.816 256.674,299.081 256.884 C 299.775 257.435,301.175 256.877,302.366 255.574 C 303.335 254.516,305.185 253.857,306.982 253.930 C 307.411 253.948,307.990 253.774,308.268 253.543 C 308.546 253.313,309.004 253.201,309.286 253.295 C 309.569 253.390,310.636 253.047,311.658 252.533 C 312.726 251.997,314.233 251.600,315.202 251.600 C 316.729 251.600,317.116 251.373,319.296 249.200 C 320.620 247.880,321.850 246.800,322.029 246.800 C 322.208 246.800,322.680 246.244,323.077 245.565 C 323.904 244.153,326.709 242.121,328.314 241.772 C 330.173 241.367,331.600 240.721,331.600 240.285 C 331.600 240.055,331.704 239.971,331.832 240.098 C 332.134 240.400,335.600 239.219,335.600 238.814 C 335.600 238.512,337.657 237.887,340.311 237.381 C 341.032 237.244,342.382 236.716,343.311 236.208 C 345.101 235.229,350.191 233.823,350.733 234.159 C 350.910 234.268,351.492 233.952,352.027 233.457 C 352.562 232.962,353.900 232.307,355.000 232.001 C 357.924 231.187,358.661 230.715,360.848 228.262 C 361.934 227.044,363.162 225.939,363.578 225.807 C 363.993 225.675,364.526 225.080,364.761 224.484 C 364.996 223.888,365.412 223.040,365.686 222.600 C 368.988 217.294,369.720 214.422,368.578 211.247 C 367.944 209.483,367.920 208.999,368.377 207.096 C 369.261 203.410,367.987 196.546,366.664 197.869 C 366.519 198.014,366.400 197.853,366.400 197.509 C 366.400 197.166,366.149 196.789,365.843 196.672 C 365.537 196.554,365.032 195.696,364.721 194.764 C 364.400 193.799,363.865 193.012,363.478 192.935 C 363.105 192.861,362.485 192.724,362.100 192.631 C 361.715 192.537,361.296 192.447,361.170 192.431 C 360.434 192.333,356.253 188.745,355.256 187.356 C 354.607 186.452,353.384 185.288,352.538 184.769 C 351.692 184.250,350.221 183.235,349.269 182.513 C 348.318 181.791,347.323 181.200,347.059 181.200 C 346.795 181.200,345.678 180.525,344.577 179.700 C 338.706 175.299,335.600 174.854,335.600 178.413 C 335.600 180.097,336.012 180.545,338.716 181.799 C 339.752 182.280,341.590 183.561,342.800 184.647 C 344.010 185.733,345.731 187.091,346.624 187.666 C 349.832 189.730,360.020 200.381,361.100 202.800 C 363.133 207.353,362.264 212.055,359.907 209.254 C 359.361 208.605,358.169 207.694,357.257 207.229 C 356.346 206.764,355.600 206.108,355.600 205.772 C 355.600 204.092,354.422 202.852,352.561 202.573 C 350.994 202.338,350.634 202.108,350.176 201.048 C 349.878 200.362,348.385 198.564,346.857 197.053 C 344.697 194.919,343.966 193.893,343.578 192.453 C 342.842 189.723,342.238 189.200,339.821 189.200 C 337.914 189.200,337.639 189.070,336.000 187.400 C 333.816 185.175,333.239 185.160,331.420 187.285 C 327.999 191.282,327.119 194.855,328.961 197.268 C 332.922 202.455,333.431 204.752,331.385 208.211 C 328.223 213.555,324.130 213.738,321.404 208.658 L 320.207 206.429 321.709 201.914 C 322.534 199.432,323.326 196.247,323.468 194.837 C 323.755 191.994,323.883 192.034,321.040 194.078 C 317.307 196.763,317.181 194.493,320.514 184.600 C 322.945 177.386,322.673 170.889,319.949 171.066 C 319.207 171.115,318.743 170.811,318.230 169.942 C 316.982 167.831,314.040 167.654,309.775 169.436 C 307.847 170.242,306.252 170.141,305.362 169.157 C 302.925 166.463,299.797 166.513,298.838 169.262 C 297.371 173.472,295.813 172.722,294.973 167.400 C 294.834 166.520,294.558 165.497,294.360 165.126 C 293.799 164.076,293.930 162.905,294.800 161.200 C 296.260 158.338,295.077 157.038,291.600 157.683 C 290.610 157.866,288.857 158.125,287.705 158.257 C 284.861 158.584,283.412 159.887,283.728 161.834 C 283.926 163.051,283.693 164.331,282.899 166.400 C 282.620 167.127,282.652 167.027,282.082 169.005 C 280.648 173.989,277.673 176.517,275.373 174.707 C 274.749 174.216,274.375 174.036,274.543 174.307 C 274.728 174.608,274.629 174.800,274.289 174.800 C 273.982 174.800,272.702 175.536,271.446 176.436 C 270.186 177.338,268.902 177.971,268.581 177.848 C 267.369 177.383,268.408 172.603,270.628 168.432 C 271.603 166.601,271.909 164.800,271.246 164.800 C 271.051 164.800,270.620 165.385,270.289 166.100 C 268.713 169.505,267.200 173.181,267.200 173.605 C 267.200 173.864,266.836 174.588,266.391 175.213 C 265.145 176.962,260.434 186.662,259.306 189.800 C 255.946 199.144,252.413 203.600,248.366 203.600 C 247.313 203.600,246.035 203.754,245.526 203.943 C 242.394 205.104,240.529 204.899,238.857 203.210 C 237.690 202.032,236.936 201.600,236.045 201.600 C 233.336 201.600,234.160 197.081,238.310 189.182 C 239.403 187.102,240.529 184.500,240.813 183.400 C 241.097 182.300,241.661 180.922,242.065 180.338 C 242.469 179.754,242.800 179.166,242.800 179.031 C 242.800 178.896,243.553 177.574,244.473 176.093 C 245.394 174.612,246.699 172.393,247.373 171.161 C 249.280 167.682,251.440 163.961,255.687 156.840 C 260.018 149.578,260.176 148.996,258.300 147.187 L 257.000 145.933 253.000 146.176 C 247.777 146.494,243.807 147.289,242.472 148.285 C 240.416 149.820,234.181 158.788,230.712 165.200 C 229.938 166.630,228.932 168.430,228.476 169.200 C 228.020 169.970,226.273 174.020,224.593 178.200 C 222.913 182.380,221.102 186.734,220.569 187.875 C 220.036 189.017,219.600 190.088,219.600 190.256 C 219.600 191.165,216.883 194.854,215.842 195.358 C 212.650 196.904,210.560 191.111,211.783 184.106 C 215.116 165.009,230.492 140.955,249.400 125.256 C 250.500 124.343,252.210 122.909,253.200 122.069 C 254.190 121.229,255.627 120.195,256.393 119.771 C 257.159 119.347,258.027 118.775,258.321 118.500 C 259.133 117.742,258.081 117.895,256.600 118.749 " stroke="black" fill="none" stroke-width="3"/>
<path id="27" d="M150.434 235.856 C 148.153 238.448,148.213 239.580,150.730 241.388 C 151.791 242.150,152.854 243.185,153.091 243.687 C 153.548 244.657,154.970 246.442,157.100 248.721 C 157.815 249.486,158.400 250.422,158.400 250.802 C 158.400 251.182,158.735 251.921,159.143 252.446 C 159.552 252.971,160.204 254.017,160.591 254.771 C 161.540 256.622,163.913 258.800,164.979 258.800 C 165.457 258.800,166.196 259.067,166.624 259.394 C 167.051 259.720,168.097 260.183,168.949 260.422 C 170.900 260.970,172.468 262.667,173.147 264.966 C 173.613 266.544,177.970 271.490,178.012 270.489 C 178.019 270.330,178.208 270.515,178.432 270.900 C 179.147 272.128,181.027 272.891,181.608 272.190 C 182.197 271.481,181.506 269.464,180.408 268.684 C 179.505 268.042,177.579 264.954,177.889 264.644 C 178.024 264.510,177.893 264.400,177.600 264.400 C 177.307 264.400,177.183 264.283,177.326 264.141 C 177.469 263.998,177.217 263.562,176.766 263.171 C 176.316 262.780,175.959 262.357,175.974 262.230 C 175.988 262.104,175.982 261.955,175.960 261.900 C 175.937 261.845,175.873 261.070,175.815 260.178 C 175.683 258.112,175.246 257.318,173.036 255.140 C 171.330 253.458,170.065 250.466,170.655 249.510 C 170.768 249.327,170.442 248.829,169.931 248.402 C 169.256 247.840,169.165 247.616,169.600 247.588 C 169.972 247.564,169.874 247.418,169.340 247.203 C 168.868 247.012,167.608 245.584,166.540 244.030 C 165.473 242.476,164.384 241.203,164.119 241.202 C 163.855 241.201,163.027 240.570,162.279 239.800 C 161.531 239.030,160.712 238.400,160.460 238.400 C 160.207 238.400,160.000 238.100,160.000 237.733 C 160.000 237.367,159.889 237.178,159.753 237.314 C 159.617 237.450,158.852 236.939,158.053 236.179 C 156.639 234.834,154.695 234.007,152.934 234.002 C 152.403 234.001,151.435 234.719,150.434 235.856 " stroke="black" fill="none" stroke-width="3"/>
<path id="19" d="M112.600 164.374 C 105.246 166.928,104.832 167.112,99.022 170.422 C 86.431 177.594,80.267 183.016,70.690 195.342 C 67.328 199.669,60.453 211.026,57.270 217.511 C 55.572 220.970,52.607 226.805,50.681 230.477 L 47.180 237.154 46.826 241.677 C 46.631 244.165,46.178 247.008,45.820 247.996 C 42.948 255.907,47.903 274.763,54.789 282.124 C 57.540 285.065,62.510 288.488,65.417 289.444 C 66.508 289.803,68.093 290.638,68.940 291.299 C 72.940 294.423,77.866 294.311,76.843 291.119 C 73.958 282.122,74.363 278.949,77.915 282.706 C 83.278 288.379,84.205 289.929,82.600 290.545 C 81.769 290.864,81.838 292.783,82.825 296.824 C 83.936 301.369,86.344 309.143,87.061 310.496 C 90.251 316.524,90.195 324.971,86.973 323.734 C 85.997 323.360,83.601 317.964,83.595 316.126 C 83.592 315.287,83.232 313.459,82.795 312.064 C 82.358 310.670,82.000 308.996,82.000 308.344 C 82.000 304.810,79.550 302.847,74.552 302.380 C 65.364 301.521,62.800 300.551,62.800 297.938 C 62.800 296.800,62.128 296.438,61.380 297.173 C 61.171 297.379,60.280 297.604,59.400 297.673 L 57.800 297.800 57.826 307.000 C 57.849 314.775,57.962 316.484,58.557 318.037 C 59.176 319.653,59.218 320.529,58.906 325.295 L 58.552 330.716 56.476 334.804 C 54.078 339.525,54.083 339.497,55.389 341.422 C 58.164 345.512,53.940 354.150,48.200 356.124 C 45.889 356.918,45.326 358.725,46.184 362.592 C 46.902 365.829,46.972 367.589,46.826 378.800 C 46.767 383.310,46.848 388.464,47.007 390.253 C 47.233 392.807,47.152 393.937,46.631 395.506 C 46.009 397.379,46.011 397.595,46.656 398.949 C 47.323 400.347,47.317 400.450,46.476 402.133 C 45.846 403.394,45.613 404.577,45.626 406.436 C 45.636 407.846,45.464 409.595,45.244 410.323 C 44.829 411.690,45.012 412.800,45.651 412.800 C 45.853 412.800,46.224 413.254,46.477 413.810 C 47.071 415.112,48.303 415.399,50.767 414.808 C 53.106 414.247,53.116 413.541,50.796 412.846 C 48.738 412.229,49.021 411.617,52.127 409.975 C 54.985 408.463,55.246 408.174,54.788 407.037 C 54.603 406.577,54.342 405.530,54.209 404.711 C 53.996 403.395,53.790 403.174,52.436 402.810 C 48.769 401.822,48.065 399.182,50.903 397.063 C 52.496 395.873,53.419 396.416,52.576 398.046 C 51.734 399.675,52.295 400.113,54.878 399.841 C 59.543 399.349,60.983 395.777,56.849 394.950 C 54.813 394.543,54.676 392.558,56.524 390.250 C 57.439 389.107,65.052 387.551,66.677 388.174 C 67.739 388.582,67.150 389.553,65.448 390.203 C 61.828 391.586,62.263 394.790,66.074 394.805 C 69.757 394.821,69.541 395.561,64.901 398.838 C 63.278 399.983,61.690 402.224,62.165 402.698 C 63.725 404.258,70.344 399.237,70.386 396.461 C 70.394 395.944,71.140 394.687,72.048 393.661 C 73.086 392.489,75.196 388.764,77.748 383.600 C 81.099 376.818,82.008 375.296,83.000 374.798 C 83.660 374.468,84.876 373.680,85.703 373.048 C 87.392 371.759,88.877 371.584,89.945 372.550 C 90.888 373.403,91.402 373.370,92.757 372.369 C 93.442 371.862,94.894 371.412,96.468 371.216 C 97.891 371.040,99.619 370.604,100.308 370.248 C 100.997 369.891,102.184 369.600,102.946 369.600 C 104.098 369.600,104.613 369.280,106.001 367.700 C 108.093 365.320,108.394 365.155,111.370 364.759 C 112.706 364.581,114.340 364.326,115.000 364.191 C 116.561 363.873,119.947 365.359,124.200 368.231 C 126.587 369.843,128.405 370.692,131.354 371.573 C 133.965 372.352,135.848 373.187,136.895 374.028 C 137.768 374.730,139.225 375.470,140.134 375.675 C 141.042 375.879,142.689 376.741,143.793 377.592 C 144.897 378.442,146.302 379.263,146.916 379.416 C 147.529 379.569,148.485 380.289,149.040 381.017 C 149.594 381.744,150.611 382.535,151.298 382.774 C 151.986 383.014,152.834 383.469,153.183 383.785 C 153.989 384.514,159.414 386.785,161.000 387.057 C 162.967 387.394,163.758 388.161,165.125 391.052 C 165.839 392.564,166.560 394.049,166.726 394.354 C 166.893 394.658,167.745 395.198,168.620 395.554 C 170.859 396.463,171.103 396.662,172.280 398.534 C 173.306 400.166,174.187 400.987,175.797 401.811 C 176.239 402.038,177.205 403.410,177.944 404.861 C 179.236 407.397,179.339 407.493,180.584 407.326 C 181.542 407.196,182.183 407.404,183.040 408.119 C 183.678 408.652,184.830 409.404,185.600 409.792 C 186.370 410.179,187.295 410.755,187.656 411.070 C 188.017 411.386,189.422 412.044,190.778 412.532 C 192.547 413.168,193.462 413.762,194.012 414.631 L 194.779 415.843 192.573 416.961 C 189.939 418.294,189.277 418.188,186.656 416.013 C 185.587 415.126,184.475 414.400,184.184 414.400 C 183.893 414.400,183.252 413.815,182.761 413.100 C 182.269 412.385,181.387 411.342,180.800 410.783 C 180.213 410.224,179.567 409.471,179.365 409.109 C 179.163 408.747,178.460 408.354,177.804 408.235 C 177.061 408.100,175.799 407.186,174.455 405.809 C 173.268 404.594,172.168 403.600,172.011 403.600 C 171.853 403.600,171.201 403.143,170.562 402.584 C 169.923 402.025,168.860 401.329,168.200 401.038 C 165.669 399.922,163.751 399.233,162.476 398.984 C 161.490 398.792,160.988 398.382,160.510 397.380 C 160.052 396.420,159.515 395.961,158.634 395.778 C 157.955 395.637,156.950 395.235,156.400 394.884 C 155.850 394.534,154.889 394.286,154.263 394.333 C 153.335 394.403,152.553 393.860,150.000 391.375 C 147.259 388.708,146.773 388.386,146.063 388.766 C 145.002 389.334,143.600 389.322,143.600 388.744 C 143.600 387.882,142.299 387.277,141.222 387.639 C 139.959 388.063,139.378 387.961,137.600 387.000 C 136.830 386.584,136.020 386.199,135.800 386.145 C 135.580 386.091,134.969 385.952,134.441 385.835 C 133.914 385.719,132.834 385.405,132.041 385.137 C 131.249 384.870,129.880 384.604,129.000 384.547 C 126.005 384.352,123.401 383.923,123.020 383.561 C 122.505 383.072,120.127 383.104,119.175 383.613 C 118.614 383.914,118.112 383.875,117.340 383.470 C 116.206 382.876,116.355 382.849,109.800 384.805 C 108.480 385.198,106.903 385.632,106.296 385.769 C 105.628 385.919,104.710 386.684,103.969 387.709 C 102.101 390.292,97.001 391.656,91.366 391.079 C 89.097 390.847,88.580 391.046,87.833 392.440 C 87.549 392.968,86.839 394.286,86.254 395.369 C 85.295 397.144,82.596 400.034,82.027 399.896 C 81.464 399.760,79.999 400.501,79.987 400.927 C 79.981 401.187,79.427 402.480,78.758 403.800 C 78.089 405.120,76.831 407.820,75.961 409.800 C 74.981 412.033,73.864 413.875,73.022 414.650 C 71.957 415.630,71.610 416.322,71.413 417.850 C 71.275 418.923,71.018 420.745,70.842 421.900 C 70.375 424.963,71.165 424.704,76.000 420.205 C 82.481 414.174,91.660 410.399,104.200 408.606 C 108.160 408.039,112.030 407.413,112.800 407.214 C 116.622 406.227,122.847 405.607,124.709 406.028 C 125.749 406.263,128.940 406.611,131.800 406.802 C 139.579 407.321,148.938 410.261,149.933 412.500 C 150.007 412.665,150.262 412.800,150.502 412.800 C 150.741 412.800,151.221 413.040,151.569 413.334 C 151.916 413.628,152.830 414.115,153.600 414.416 C 154.370 414.717,155.917 415.896,157.037 417.035 C 159.284 419.320,161.851 420.647,165.200 421.253 C 167.788 421.721,173.048 423.414,174.196 424.148 C 174.638 424.431,175.964 424.973,177.141 425.353 C 178.319 425.732,179.943 426.480,180.749 427.014 C 181.556 427.548,183.922 428.587,186.008 429.324 C 189.426 430.532,191.038 431.268,197.788 434.703 C 199.807 435.731,200.871 436.770,202.064 438.879 C 202.841 440.253,207.343 445.043,208.945 446.200 C 209.698 446.744,210.179 447.575,210.448 448.800 C 211.009 451.345,211.796 452.400,213.134 452.400 C 213.904 452.400,214.518 452.763,215.116 453.572 C 215.593 454.217,216.539 455.072,217.218 455.472 C 218.019 455.944,218.824 457.008,219.510 458.500 C 220.511 460.679,220.643 460.800,222.007 460.800 C 225.574 460.800,225.900 465.350,222.435 466.785 C 220.192 467.714,220.273 470.469,222.600 472.400 C 223.376 473.044,223.579 474.367,223.695 479.565 L 223.798 484.129 222.463 484.579 C 220.903 485.104,220.444 485.803,219.841 488.569 C 219.469 490.275,219.191 490.696,218.104 491.200 C 216.635 491.881,216.003 493.146,216.885 493.640 C 217.202 493.817,217.785 494.680,218.181 495.558 C 218.577 496.435,219.157 497.251,219.471 497.372 C 219.785 497.492,219.936 497.419,219.806 497.210 C 219.512 496.735,221.003 495.200,221.759 495.200 C 223.173 495.200,224.989 498.184,226.170 502.448 C 226.512 503.684,227.064 504.921,227.396 505.197 C 228.299 505.946,228.154 506.209,226.400 507.000 C 223.708 508.214,224.761 509.299,228.473 509.137 C 230.432 509.051,231.641 509.915,233.599 512.799 C 235.315 515.326,235.564 515.479,236.747 514.740 C 237.281 514.407,237.817 514.397,238.702 514.706 C 239.620 515.026,240.103 515.004,240.660 514.616 C 244.392 512.018,260.000 511.367,260.000 513.809 C 260.000 515.657,257.237 516.528,254.167 515.648 C 253.330 515.408,252.438 515.470,251.369 515.842 C 250.506 516.142,249.530 516.395,249.200 516.404 C 248.870 516.414,247.885 516.742,247.010 517.135 L 245.420 517.849 246.559 518.824 C 252.482 523.899,254.800 527.313,254.800 530.961 C 254.800 533.945,260.213 537.451,260.882 534.900 C 261.460 532.694,262.438 533.197,268.232 538.681 C 274.950 545.041,275.148 546.000,269.746 546.000 C 266.221 546.000,265.456 545.727,262.510 543.414 C 261.240 542.417,260.001 541.600,259.757 541.600 C 258.923 541.600,253.801 538.765,253.069 537.899 C 252.464 537.183,252.380 536.617,252.587 534.617 C 253.376 526.977,252.247 524.709,246.598 522.587 C 242.737 521.136,239.200 519.199,239.200 518.534 C 239.200 518.054,238.056 517.366,237.086 517.262 C 236.913 517.244,236.485 516.942,236.134 516.591 C 235.784 516.241,235.235 516.054,234.916 516.177 C 234.596 516.300,233.899 516.400,233.367 516.400 C 232.715 516.400,232.398 516.628,232.394 517.100 C 232.383 518.326,231.782 518.824,229.624 519.394 C 225.948 520.363,224.835 522.138,227.665 522.518 C 231.009 522.966,233.460 526.422,233.683 531.000 L 233.800 533.400 231.591 533.517 C 228.467 533.683,227.244 532.410,226.805 528.534 C 226.297 524.045,225.417 522.627,223.542 523.280 C 222.211 523.744,222.055 524.764,223.163 525.767 C 224.454 526.935,225.632 530.169,225.370 531.822 C 225.081 533.636,226.357 535.158,229.400 536.634 C 230.500 537.168,232.430 538.584,233.689 539.783 C 235.092 541.118,236.610 542.151,237.613 542.451 C 240.133 543.206,242.196 546.095,243.168 550.229 C 243.806 552.939,245.180 554.396,247.116 554.414 C 253.111 554.471,260.651 558.767,257.611 560.394 C 255.067 561.756,249.468 560.607,247.239 558.266 C 246.491 557.480,245.321 556.720,244.639 556.576 C 243.193 556.272,239.399 554.237,238.100 553.069 C 237.393 552.434,237.199 551.825,237.194 550.230 C 237.187 547.980,237.043 547.657,235.611 546.677 C 234.467 545.894,232.479 545.799,231.031 546.459 C 229.768 547.034,229.282 546.665,227.138 543.508 C 226.270 542.230,224.842 540.732,223.965 540.178 C 221.903 538.876,221.111 537.524,219.389 532.362 C 217.261 525.985,214.011 522.639,211.608 524.354 C 211.274 524.593,210.402 525.057,209.670 525.386 C 208.343 525.983,208.341 525.989,208.610 528.144 C 208.904 530.495,208.481 531.224,207.432 530.175 C 206.996 529.739,206.796 528.776,206.786 527.071 C 206.771 524.536,204.863 516.703,204.065 515.905 C 203.174 515.014,202.400 516.367,202.400 518.816 C 202.400 522.937,201.595 523.393,198.896 520.800 C 197.057 519.033,196.463 518.927,193.235 519.786 C 190.728 520.453,190.648 520.548,189.994 523.629 C 189.123 527.734,190.675 535.200,192.399 535.200 C 193.228 535.200,193.426 534.583,193.554 531.603 C 193.714 527.874,195.998 524.253,197.763 524.931 C 198.671 525.279,199.328 529.416,199.068 533.136 C 198.863 536.052,198.957 536.800,199.817 539.083 C 200.358 540.520,200.800 542.134,200.800 542.670 C 200.800 543.467,201.202 543.822,203.011 544.622 C 206.698 546.252,207.851 545.668,206.453 542.877 C 203.713 537.404,207.129 535.052,212.606 538.641 C 213.659 539.331,214.713 538.830,214.144 537.909 C 213.846 537.427,214.403 535.200,214.822 535.200 C 215.491 535.200,216.287 537.393,216.542 539.936 C 216.736 541.879,217.145 543.047,218.294 544.936 C 220.198 548.067,220.486 548.257,221.101 546.792 C 222.248 544.064,224.912 546.315,224.028 549.266 C 223.560 550.828,223.484 550.886,222.184 550.675 C 220.739 550.440,218.400 552.779,218.400 554.458 C 218.400 555.258,220.751 557.200,221.719 557.200 C 223.259 557.200,224.446 558.218,225.601 560.529 C 228.004 565.338,226.220 566.981,223.393 562.562 L 222.028 560.429 219.041 560.543 C 217.393 560.606,215.782 560.883,215.446 561.162 C 214.545 561.909,213.508 561.389,212.535 559.700 C 210.562 556.277,206.984 552.613,204.269 551.235 C 201.323 549.740,200.678 549.143,200.121 547.400 C 199.835 546.504,199.457 546.167,198.627 546.069 C 197.909 545.985,197.609 546.091,197.781 546.369 C 197.927 546.606,197.857 546.800,197.624 546.800 C 197.201 546.800,197.165 546.681,197.020 544.800 C 196.719 540.894,193.172 538.417,189.862 539.800 C 187.615 540.739,186.058 540.516,182.805 538.789 C 178.440 536.473,178.304 536.660,180.843 541.481 C 181.746 543.196,182.824 545.505,183.238 546.611 C 183.809 548.136,184.476 548.984,185.996 550.119 C 188.417 551.926,188.519 552.630,186.441 553.189 C 183.817 553.896,184.326 556.139,188.046 560.261 C 191.468 564.053,190.714 569.096,187.063 566.839 C 184.757 565.414,184.376 565.643,184.644 568.300 C 184.980 571.638,183.510 574.428,182.628 572.128 C 181.574 569.382,180.860 564.334,181.068 561.101 C 181.441 555.301,178.726 553.321,176.407 557.701 C 175.493 559.428,172.009 563.216,171.994 562.499 C 171.991 562.335,171.813 562.470,171.600 562.800 C 171.038 563.670,171.124 562.844,171.788 561.000 C 172.420 559.248,172.623 554.321,172.001 555.865 C 171.608 556.839,170.362 557.369,169.275 557.024 C 168.802 556.874,168.247 557.142,167.678 557.797 C 165.236 560.605,165.237 556.835,167.680 549.780 C 168.246 548.148,167.379 546.430,164.665 543.800 C 163.529 542.700,162.023 541.080,161.317 540.200 C 159.650 538.119,159.057 538.740,159.409 542.200 C 159.544 543.520,159.644 545.297,159.632 546.149 C 159.617 547.237,159.907 548.049,160.606 548.880 C 161.944 550.470,161.720 553.006,160.073 554.909 C 159.069 556.069,158.658 555.085,158.695 551.612 C 158.730 548.350,158.538 547.891,157.088 547.784 C 156.444 547.737,154.800 549.473,154.800 550.200 C 154.800 551.073,149.991 557.448,148.733 558.243 C 147.924 558.753,146.940 559.717,146.545 560.385 C 145.161 562.729,143.000 561.350,143.000 558.122 C 143.000 556.734,142.841 556.261,142.349 556.185 C 141.992 556.130,141.317 555.964,140.849 555.816 C 139.823 555.490,139.669 556.428,140.620 557.217 C 141.462 557.915,141.210 559.753,140.248 559.936 C 139.368 560.103,138.815 559.383,138.806 558.062 C 138.803 557.546,138.485 556.586,138.100 555.930 C 137.410 554.754,137.415 554.725,138.400 553.972 C 138.950 553.552,139.766 552.846,140.214 552.404 C 141.238 551.392,142.576 551.376,143.562 552.362 C 144.312 553.112,144.351 553.094,145.962 551.301 C 148.074 548.951,148.083 548.978,144.841 548.012 C 141.978 547.160,141.636 546.813,141.547 544.667 L 141.495 543.400 141.247 544.600 C 140.699 547.261,138.748 550.000,137.400 550.000 C 136.062 550.000,131.655 553.024,131.139 554.295 C 128.857 559.923,127.608 562.008,126.120 562.679 C 125.284 563.055,124.045 563.873,123.367 564.495 C 121.868 565.871,118.750 566.489,116.430 565.870 C 113.028 564.962,111.547 567.800,114.600 569.377 C 116.482 570.349,116.726 571.231,115.859 573.925 C 115.528 574.956,115.109 576.502,114.928 577.361 C 114.187 580.886,111.753 580.112,112.129 576.470 C 112.401 573.828,111.103 572.150,109.107 572.568 C 105.043 573.419,105.442 573.790,105.590 569.299 C 105.682 566.515,105.146 566.229,103.874 568.382 C 103.188 569.543,99.644 572.400,98.889 572.400 C 97.547 572.400,97.727 568.720,99.169 566.665 C 100.292 565.064,100.321 564.913,99.911 562.749 C 99.490 560.531,99.503 560.473,100.799 558.861 C 103.443 555.572,103.918 550.000,101.555 550.000 C 100.767 550.000,100.000 551.401,100.000 552.841 C 100.000 553.713,99.730 555.072,99.400 555.862 C 99.070 556.651,98.800 558.008,98.800 558.875 C 98.800 559.743,98.584 560.846,98.320 561.326 C 98.057 561.807,97.461 563.370,96.997 564.800 C 96.286 566.990,95.936 567.509,94.776 568.092 C 94.019 568.472,92.759 569.530,91.975 570.443 C 90.645 571.990,88.800 572.447,88.800 571.229 C 88.800 571.054,88.094 571.100,87.231 571.330 C 85.270 571.853,84.400 571.261,84.400 569.401 C 84.400 568.264,84.243 568.069,83.150 567.850 C 81.329 567.486,81.789 565.701,84.332 563.259 C 85.582 562.059,86.926 560.109,88.123 557.758 C 90.736 552.628,91.154 552.403,92.370 555.471 C 93.201 557.569,94.755 557.622,95.807 555.587 C 96.396 554.447,96.798 546.665,96.293 546.160 C 96.153 546.020,96.390 544.982,96.819 543.853 C 97.759 541.381,97.812 540.056,96.985 539.739 C 96.092 539.396,94.994 540.568,94.195 542.720 C 93.349 544.998,91.892 546.603,88.200 549.324 C 84.390 552.132,84.334 552.217,84.593 554.727 C 85.043 559.077,77.925 570.164,75.810 568.408 C 74.102 566.991,73.865 563.378,75.351 561.426 C 75.864 560.752,76.690 559.390,77.185 558.400 C 78.122 556.528,80.278 554.000,80.937 554.000 C 81.506 554.000,84.798 551.849,84.799 551.476 C 84.800 551.298,84.641 551.251,84.447 551.371 C 84.252 551.492,84.079 549.711,84.060 547.394 C 84.013 541.394,83.054 539.979,81.834 544.107 C 81.494 545.258,80.897 546.673,80.508 547.252 C 80.118 547.831,79.133 549.306,78.319 550.531 C 77.504 551.755,76.381 553.056,75.824 553.421 C 74.321 554.406,72.537 557.870,72.266 560.330 C 72.084 561.974,71.797 562.645,71.007 563.266 C 70.444 563.708,69.713 564.595,69.382 565.235 C 68.676 566.601,67.853 566.695,66.200 565.600 C 64.837 564.697,63.584 564.576,62.880 565.280 C 62.616 565.544,62.400 565.624,62.400 565.457 C 62.400 565.291,62.000 565.435,61.511 565.777 C 60.155 566.727,60.089 566.618,60.089 563.422 C 60.089 559.898,60.586 559.216,63.384 558.901 L 65.201 558.696 66.630 555.648 C 67.417 553.972,68.239 552.267,68.458 551.861 C 68.676 551.455,68.753 551.020,68.628 550.894 C 68.502 550.769,68.400 550.844,68.400 551.060 C 68.400 551.276,67.635 551.881,66.700 552.405 C 65.765 552.929,63.920 554.271,62.600 555.388 C 61.280 556.504,59.210 557.840,58.000 558.357 C 56.790 558.873,54.990 559.875,54.000 560.584 C 51.002 562.731,49.415 562.724,48.281 560.560 C 47.712 559.475,48.456 558.000,49.571 558.000 C 50.383 558.000,51.200 556.669,51.200 555.345 C 51.200 553.729,51.666 552.720,53.259 550.886 C 55.032 548.845,53.896 546.236,51.267 546.310 C 50.139 546.343,49.220 545.557,49.032 544.400 C 49.015 544.290,48.730 544.252,48.400 544.315 C 45.573 544.857,45.192 544.845,44.947 544.206 C 44.559 543.196,45.458 541.894,47.381 540.678 C 49.576 539.288,49.876 538.915,50.137 537.239 C 50.376 535.709,50.931 535.215,52.422 535.206 C 56.387 535.182,63.183 526.600,60.156 525.438 C 59.342 525.126,58.190 525.763,55.962 527.756 C 51.651 531.611,50.878 531.960,49.616 530.617 C 47.337 528.191,48.538 525.280,52.199 524.359 C 53.494 524.032,54.164 523.621,54.396 523.009 C 54.581 522.525,55.264 521.681,55.915 521.133 C 58.185 519.223,58.242 518.559,56.203 517.780 C 54.202 517.016,53.060 515.984,53.900 515.702 C 54.175 515.609,54.400 515.278,54.400 514.967 C 54.400 514.655,54.625 514.399,54.900 514.397 C 55.175 514.396,54.860 514.037,54.200 513.600 C 53.478 513.122,52.323 512.804,51.300 512.803 C 49.267 512.799,49.015 511.975,50.653 510.686 C 51.233 510.231,52.117 508.945,52.617 507.829 C 53.118 506.713,54.174 505.200,54.964 504.468 C 56.709 502.849,56.716 502.737,55.169 501.436 C 54.492 500.865,54.191 500.400,54.500 500.400 C 56.891 500.400,57.346 496.965,55.100 495.867 C 53.328 495.001,53.284 494.782,54.600 493.362 C 55.760 492.111,55.820 491.691,55.003 490.525 C 54.450 489.737,54.511 489.515,55.807 487.590 C 58.050 484.257,57.912 482.000,55.464 482.000 C 54.803 482.000,55.006 481.648,56.563 480.100 C 59.724 476.955,62.045 469.838,61.372 465.349 C 61.142 463.822,61.258 463.359,62.215 461.979 C 63.198 460.560,63.265 460.270,62.811 459.421 C 62.401 458.655,62.394 457.812,62.776 455.202 C 63.197 452.318,63.176 451.822,62.589 450.926 C 61.969 449.980,61.970 449.793,62.611 448.115 C 63.085 446.874,63.221 445.763,63.052 444.525 C 62.890 443.342,63.028 442.053,63.459 440.735 C 64.024 439.008,64.043 438.445,63.597 436.586 C 63.236 435.082,63.168 433.254,63.370 430.517 C 63.529 428.363,63.639 426.240,63.612 425.800 C 63.586 425.360,63.528 423.805,63.483 422.344 C 63.396 419.567,62.588 418.002,61.238 417.999 C 60.872 417.998,61.144 417.665,61.878 417.218 C 64.168 415.822,65.513 412.710,64.231 411.774 C 62.981 410.859,57.600 413.008,57.600 414.422 C 57.600 415.449,58.690 417.600,59.210 417.600 C 59.883 417.600,59.641 418.238,58.359 419.845 C 56.708 421.912,54.000 427.332,54.000 428.567 C 54.000 429.254,53.411 430.049,52.054 431.194 C 49.131 433.658,48.495 435.056,49.339 437.164 C 49.932 438.645,49.941 438.955,49.420 439.961 C 48.956 440.858,48.925 441.415,49.268 442.646 C 49.755 444.394,49.466 450.938,48.798 453.274 C 47.962 456.198,44.762 457.804,43.962 455.700 C 43.259 453.851,44.304 443.229,45.298 442.130 C 46.161 441.174,46.002 440.648,44.487 439.446 L 43.535 438.691 44.968 437.300 C 46.722 435.596,46.767 434.690,45.169 433.231 L 43.938 432.107 45.959 430.863 C 49.940 428.414,49.221 426.405,44.621 427.120 C 41.466 427.610,40.432 427.474,40.350 426.557 C 40.322 426.251,40.268 425.775,40.229 425.500 C 39.881 423.031,42.427 421.457,44.598 422.799 C 46.305 423.854,47.014 423.538,49.358 420.677 C 51.240 418.381,51.192 417.816,49.044 416.996 C 46.907 416.179,46.293 416.424,43.373 419.260 L 41.347 421.228 40.225 420.188 C 39.163 419.204,39.117 419.020,39.370 416.783 C 39.544 415.244,39.474 414.111,39.168 413.540 C 38.910 413.058,38.719 411.766,38.743 410.669 C 38.775 409.279,38.533 408.263,37.945 407.311 C 37.261 406.205,37.159 405.630,37.406 404.273 C 37.866 401.737,37.816 399.656,37.281 399.121 C 36.585 398.425,36.017 399.156,35.797 401.029 C 35.524 403.354,34.720 406.159,34.230 406.494 C 32.657 407.570,30.976 406.179,29.759 402.795 C 28.419 399.069,26.916 401.610,27.422 406.746 C 27.720 409.764,26.362 414.192,24.646 415.800 C 22.969 417.372,22.299 421.242,23.237 423.935 C 23.571 424.893,23.531 425.924,23.068 428.295 C 22.353 431.950,22.096 435.495,21.798 445.800 C 21.548 454.447,21.247 459.834,20.950 461.000 C 20.638 462.222,19.080 466.174,18.821 466.400 C 18.489 466.689,17.046 470.214,16.119 473.000 C 15.387 475.199,15.228 475.393,14.224 475.320 C 13.476 475.265,12.846 475.567,12.240 476.271 C 9.532 479.420,7.924 473.963,6.975 458.400 C 6.355 448.241,5.410 443.061,4.142 442.879 C 2.003 442.571,1.432 441.050,0.580 433.400 C 0.433 432.080,0.242 430.925,0.156 430.833 C 0.070 430.742,0.000 471.017,0.000 520.333 L 0.000 610.000 200.000 610.000 L 400.000 610.000 399.999 452.300 C 399.997 299.065,399.976 294.634,399.262 295.800 C 398.857 296.460,397.835 297.588,396.990 298.307 C 395.809 299.313,395.563 299.723,395.927 300.087 C 397.617 301.777,395.904 304.296,393.448 303.734 C 390.935 303.159,389.846 304.144,391.305 305.671 C 391.583 305.962,392.143 306.719,392.549 307.353 C 393.122 308.248,393.365 308.382,393.632 307.953 C 394.093 307.215,395.449 308.037,395.282 308.953 C 395.218 309.309,395.359 309.600,395.597 309.600 C 395.892 309.600,395.904 309.833,395.633 310.339 C 395.358 310.852,395.384 311.225,395.719 311.562 C 396.095 311.941,396.047 311.989,395.500 311.781 C 394.928 311.563,394.800 311.738,394.800 312.734 C 394.800 313.404,394.620 314.064,394.400 314.200 C 394.180 314.336,394.000 315.067,394.000 315.824 C 394.000 316.581,393.853 317.200,393.674 317.200 C 393.172 317.200,392.575 322.349,392.808 324.667 C 392.922 325.803,392.877 326.648,392.708 326.543 C 392.433 326.373,392.252 327.038,392.500 327.310 C 392.599 327.419,392.007 328.185,390.733 329.595 C 390.367 330.001,390.172 330.438,390.300 330.567 C 390.838 331.104,388.727 330.740,386.990 329.996 C 385.797 329.484,383.927 329.135,381.857 329.036 C 380.066 328.951,378.150 328.785,377.600 328.667 C 374.886 328.085,373.344 328.378,373.114 329.519 C 372.930 330.430,374.212 335.111,375.039 336.546 C 375.561 337.452,375.593 337.757,375.190 338.006 C 374.823 338.233,375.158 338.763,376.382 339.893 C 378.199 341.571,378.383 342.588,377.009 343.357 C 375.724 344.077,375.226 344.914,375.213 346.378 C 375.191 348.725,372.958 351.583,371.138 351.594 C 369.603 351.603,366.718 354.144,366.058 356.069 C 365.760 356.939,365.418 357.552,365.298 357.431 C 364.671 356.805,364.069 358.627,364.621 359.479 C 364.935 359.963,365.035 360.455,364.845 360.572 C 364.654 360.690,364.492 361.464,364.485 362.293 C 364.477 363.122,364.455 363.997,364.436 364.239 C 364.383 364.888,362.980 366.400,362.429 366.400 C 362.167 366.400,362.065 366.581,362.202 366.803 C 362.339 367.024,362.176 367.311,361.841 367.440 C 361.259 367.663,360.556 369.073,360.718 369.691 C 360.841 370.163,358.619 371.155,356.781 371.449 C 355.845 371.599,354.746 372.054,354.339 372.461 C 353.597 373.203,353.339 374.063,353.900 373.927 C 354.065 373.887,354.909 374.062,355.776 374.316 C 356.642 374.570,357.756 374.676,358.251 374.551 C 359.116 374.334,361.159 375.418,361.187 376.108 C 361.194 376.277,361.622 377.087,362.137 377.908 C 362.653 378.729,362.989 379.650,362.885 379.957 C 362.746 380.366,362.967 380.461,363.718 380.318 C 365.249 380.025,366.585 381.410,367.181 383.907 C 367.808 386.537,367.108 388.000,365.223 388.000 C 364.586 388.000,363.507 388.315,362.825 388.700 C 361.734 389.316,361.538 389.328,361.199 388.800 C 360.373 387.517,361.198 385.578,362.492 385.759 C 363.146 385.851,364.076 383.973,363.638 383.446 C 363.401 383.160,363.250 382.853,363.303 382.763 C 363.357 382.673,363.327 382.643,363.237 382.697 C 363.147 382.750,362.834 382.595,362.542 382.352 C 362.217 382.083,361.580 382.031,360.905 382.220 C 359.422 382.636,358.825 382.492,357.538 381.409 C 356.632 380.646,356.126 380.527,354.524 380.695 C 351.899 380.971,351.694 381.272,352.726 383.338 C 353.207 384.300,353.600 385.532,353.600 386.075 C 353.600 386.618,354.138 388.680,354.795 390.658 C 355.847 393.822,356.279 395.701,356.373 397.524 C 356.388 397.812,356.568 397.944,356.772 397.817 C 356.977 397.691,357.258 397.770,357.396 397.993 C 357.534 398.217,357.412 398.403,357.124 398.406 C 356.713 398.411,356.719 398.487,357.151 398.761 C 357.454 398.953,357.579 399.311,357.428 399.555 C 357.276 399.800,357.343 400.000,357.576 400.000 C 357.809 400.000,357.979 400.135,357.953 400.300 C 357.811 401.196,358.127 401.689,359.300 402.404 C 360.015 402.840,360.452 403.198,360.271 403.199 C 360.091 403.199,360.226 403.483,360.571 403.829 C 360.917 404.174,361.200 404.773,361.200 405.159 C 361.200 406.097,362.848 407.600,363.877 407.600 C 365.470 407.600,367.282 413.481,366.402 415.796 C 366.100 416.588,366.101 417.294,366.405 418.214 C 366.941 419.840,366.268 422.833,365.135 423.859 C 364.083 424.810,363.155 424.201,362.548 422.160 C 362.293 421.302,361.590 419.726,360.985 418.658 C 360.380 417.590,359.635 415.525,359.330 414.069 C 358.799 411.537,357.914 409.600,357.289 409.600 C 357.127 409.600,357.113 411.175,357.257 413.100 C 357.401 415.025,357.428 417.251,357.317 418.046 C 357.182 419.013,357.393 420.122,357.956 421.393 C 358.454 422.519,358.731 423.821,358.635 424.590 C 358.246 427.726,360.368 434.237,362.163 435.412 C 363.501 436.289,365.075 435.427,365.273 433.709 C 365.450 432.167,366.191 432.695,366.243 434.400 C 366.283 435.673,367.332 438.800,367.720 438.800 C 367.808 438.800,368.451 438.601,369.147 438.358 C 371.523 437.530,373.108 438.727,373.775 441.854 C 374.025 443.023,373.812 443.338,370.622 446.521 C 367.759 449.377,367.200 450.143,367.200 451.207 C 367.200 451.907,366.910 453.091,366.555 453.839 C 365.945 455.124,365.953 455.804,366.610 458.437 C 366.887 459.544,366.024 460.800,364.987 460.800 C 364.192 460.800,362.742 459.128,362.986 458.493 C 363.113 458.162,363.014 458.068,362.727 458.245 C 362.418 458.436,362.349 458.310,362.519 457.866 C 362.660 457.500,362.617 457.200,362.424 457.200 C 361.788 457.200,359.200 451.998,359.200 450.719 C 359.200 450.030,359.393 448.359,359.628 447.006 C 360.045 444.615,358.826 439.237,357.683 438.422 C 356.495 437.574,355.605 435.777,355.808 434.638 C 356.090 433.064,355.201 430.014,354.294 429.442 C 353.028 428.644,352.210 429.624,352.119 432.047 C 352.074 433.231,352.011 434.650,351.978 435.200 C 351.946 435.750,352.583 438.270,353.395 440.800 C 354.727 444.949,354.829 445.568,354.434 447.114 C 354.116 448.357,354.116 449.308,354.435 450.572 C 354.737 451.771,354.746 452.554,354.465 453.079 C 353.983 453.978,354.202 454.365,355.746 455.349 C 356.786 456.011,356.834 456.137,356.266 456.705 C 355.471 457.501,354.778 456.984,354.008 455.019 C 353.701 454.239,353.257 453.600,353.020 453.600 C 352.448 453.600,348.962 449.116,349.134 448.602 C 349.882 446.368,348.350 438.800,347.151 438.800 C 346.480 438.800,346.806 436.907,347.800 435.038 C 348.350 434.004,348.806 432.942,348.814 432.679 C 348.822 432.415,349.253 431.681,349.772 431.047 C 350.649 429.974,350.676 429.801,350.157 428.560 C 349.430 426.818,349.454 425.933,350.279 424.204 C 351.111 422.458,349.879 420.564,348.494 421.461 C 347.719 421.963,347.719 421.978,348.515 425.600 C 349.880 431.810,345.564 432.416,339.045 426.931 C 337.912 425.977,337.818 425.961,337.323 426.638 C 336.487 427.781,336.694 428.318,338.466 429.602 C 339.382 430.266,340.586 431.477,341.141 432.293 C 341.695 433.109,342.662 434.209,343.289 434.736 C 345.322 436.447,345.777 437.753,346.586 444.200 C 347.178 448.921,347.298 448.570,344.800 449.400 C 342.266 450.242,342.211 450.360,343.383 452.458 C 344.467 454.398,344.685 461.075,343.696 462.064 C 342.217 463.543,337.192 461.156,335.757 458.293 C 335.181 457.142,334.444 455.899,334.121 455.532 C 333.798 455.164,333.113 454.084,332.598 453.132 C 331.690 451.452,331.608 451.403,329.891 451.514 C 327.035 451.697,326.873 451.173,326.807 441.529 C 326.803 440.939,326.539 440.196,326.219 439.876 C 325.900 439.557,325.765 439.161,325.919 438.997 C 326.074 438.833,325.643 438.982,324.961 439.328 C 323.057 440.295,322.115 439.805,320.774 437.148 C 320.122 435.857,319.715 434.800,319.870 434.800 C 320.024 434.800,319.772 434.447,319.309 434.016 C 318.490 433.253,318.448 431.600,319.247 431.600 C 319.441 431.600,319.600 431.237,319.600 430.794 C 319.600 429.973,321.838 428.286,322.600 428.533 C 323.148 428.711,323.363 430.452,322.875 430.755 C 321.947 431.331,322.338 433.225,323.647 434.500 C 324.651 435.477,324.966 435.391,326.024 433.847 C 326.991 432.436,327.799 432.248,328.555 433.256 C 329.218 434.140,330.427 434.475,331.060 433.950 C 331.512 433.575,331.571 433.631,331.371 434.243 C 331.181 434.827,331.216 434.871,331.526 434.435 C 331.814 434.029,331.704 433.568,331.138 432.801 C 330.243 431.591,329.825 426.348,330.415 423.733 C 331.002 421.130,328.900 418.140,327.480 419.560 C 326.411 420.629,325.008 418.874,325.851 417.523 C 326.550 416.403,325.907 411.241,325.057 411.153 C 323.390 410.980,322.815 411.581,322.806 413.510 C 322.797 415.477,320.250 420.250,318.813 420.993 C 318.160 421.331,317.215 422.044,316.713 422.578 C 314.826 424.585,310.000 424.996,310.000 423.150 C 310.000 422.027,308.767 423.110,308.007 424.900 C 307.516 426.055,306.753 427.394,306.310 427.876 C 305.665 428.578,305.578 428.976,305.868 429.876 C 306.630 432.232,305.351 434.137,303.626 433.214 C 301.581 432.119,301.369 433.549,303.400 434.747 C 305.295 435.865,305.305 437.223,303.427 438.331 C 302.150 439.085,301.210 440.939,301.202 442.720 C 301.201 443.007,300.554 443.511,299.765 443.840 C 297.893 444.623,297.377 444.178,297.035 441.493 C 296.888 440.342,296.312 438.455,295.755 437.300 L 294.741 435.200 292.819 435.200 C 290.030 435.200,289.623 433.712,289.411 422.740 C 289.291 416.536,288.799 414.843,287.108 414.813 C 286.342 414.799,286.169 415.319,285.636 419.240 C 285.439 420.692,284.900 422.620,284.439 423.524 C 283.977 424.428,283.600 425.632,283.600 426.200 C 283.600 426.876,283.048 427.773,282.000 428.800 C 281.120 429.663,280.400 430.628,280.400 430.946 C 280.400 431.264,279.770 432.278,279.000 433.200 C 276.627 436.040,277.274 444.700,279.859 444.700 C 281.813 444.700,282.635 446.074,282.049 448.361 C 281.660 449.878,281.650 450.545,282.004 451.208 C 282.827 452.745,280.562 456.298,279.650 454.902 C 279.350 454.444,277.808 453.600,277.269 453.600 C 276.761 453.600,276.409 454.558,275.994 457.069 C 275.806 458.207,275.161 459.881,274.561 460.788 C 273.481 462.420,273.839 465.200,275.129 465.200 C 276.448 465.200,276.366 467.314,274.995 468.685 C 271.542 472.138,271.355 473.662,274.428 473.307 C 277.119 472.996,278.295 476.703,276.606 480.172 C 275.698 482.036,275.745 483.532,276.773 485.547 C 277.657 487.279,277.294 488.454,275.982 488.111 C 275.453 487.973,274.806 488.231,274.163 488.835 C 271.612 491.231,270.159 485.516,272.511 482.336 C 273.784 480.614,273.274 477.486,271.700 477.360 C 271.425 477.338,270.860 477.293,270.444 477.260 C 268.601 477.114,267.910 475.950,268.455 473.912 C 269.121 471.422,268.012 470.211,265.337 470.509 C 262.556 470.818,261.710 468.948,263.274 465.947 C 263.990 464.574,264.002 464.333,263.450 462.535 C 263.123 461.471,262.843 460.804,262.828 461.054 C 262.813 461.304,262.159 461.813,261.376 462.185 C 258.454 463.571,257.093 461.342,258.140 456.889 C 259.827 449.715,259.998 448.600,259.622 447.200 C 259.416 446.430,259.165 444.990,259.064 444.000 C 258.962 443.010,258.705 441.750,258.491 441.200 C 258.277 440.650,257.976 438.040,257.822 435.400 C 257.352 427.350,256.688 425.851,254.053 426.886 C 252.421 427.528,252.404 427.525,251.220 426.418 C 250.564 425.806,249.932 425.402,249.814 425.519 C 249.696 425.637,249.600 425.513,249.600 425.243 C 249.600 424.973,249.444 424.849,249.253 424.967 C 248.700 425.309,247.686 423.908,247.540 422.600 C 247.395 421.297,246.618 420.431,244.418 419.117 C 242.113 417.741,241.217 416.747,240.764 415.068 C 240.193 412.944,238.909 411.278,237.150 410.378 C 234.824 409.186,233.600 407.445,233.600 405.329 C 233.600 403.780,233.390 403.310,232.139 402.060 C 231.336 401.257,230.477 400.121,230.231 399.537 C 229.635 398.122,224.895 393.923,224.072 394.081 C 223.705 394.152,223.230 394.899,222.976 395.803 C 222.141 398.783,220.034 396.974,219.432 392.760 C 219.230 391.346,218.848 390.636,217.784 389.694 C 216.691 388.725,216.400 388.167,216.400 387.034 C 216.400 386.026,216.222 385.600,215.800 385.600 C 214.787 385.600,214.960 392.564,216.023 394.546 C 217.530 397.360,216.222 399.008,213.544 397.671 C 212.201 397.001,212.200 396.997,212.179 394.000 C 212.164 391.797,211.924 390.486,211.279 389.067 C 210.796 388.004,210.400 386.502,210.400 385.731 C 210.400 384.649,210.112 384.084,209.141 383.264 C 208.448 382.679,207.560 381.897,207.167 381.527 C 204.142 378.674,203.443 379.544,205.418 383.704 C 206.181 385.310,206.995 387.699,207.228 389.012 C 207.460 390.325,207.840 392.120,208.072 393.000 C 208.305 393.880,208.486 395.193,208.475 395.918 C 208.456 397.125,208.635 397.322,210.595 398.250 C 214.476 400.087,216.058 404.326,214.433 408.533 C 213.808 410.149,213.192 409.725,211.600 406.585 C 210.517 404.449,209.667 403.414,207.844 402.012 C 204.664 399.567,204.433 399.144,205.349 397.443 C 206.207 395.850,205.912 394.450,203.992 391.000 C 202.877 388.996,202.083 386.899,201.219 383.676 C 200.821 382.194,200.517 381.850,199.044 381.219 C 197.824 380.696,197.198 380.128,196.866 379.243 C 196.610 378.559,196.206 377.479,195.969 376.842 C 195.520 375.636,194.192 374.000,193.663 374.000 C 192.698 374.000,190.400 376.794,190.400 377.967 C 190.400 380.377,188.840 380.188,188.668 377.756 C 188.607 376.900,188.245 375.660,187.863 375.000 C 187.481 374.340,186.770 373.086,186.284 372.213 C 185.798 371.341,184.950 370.416,184.400 370.157 C 179.258 367.743,178.400 367.695,178.400 369.825 C 178.400 371.534,177.756 371.178,175.771 368.370 C 172.526 363.778,172.371 363.600,171.609 363.600 C 171.098 363.600,170.713 364.114,170.338 365.297 C 169.168 368.986,167.369 367.520,166.574 362.230 C 165.938 357.991,164.493 354.622,163.009 353.914 C 161.590 353.237,159.548 350.366,159.680 349.232 C 159.957 346.854,163.439 348.494,163.858 351.200 C 164.279 353.912,165.713 354.089,167.006 351.588 C 167.734 350.180,168.670 350.086,171.080 351.180 L 172.760 351.943 172.106 350.571 C 171.746 349.817,171.247 349.200,170.996 349.200 C 168.052 349.200,168.285 345.008,171.460 340.842 C 172.197 339.876,172.800 338.811,172.800 338.476 C 172.800 338.141,172.918 337.985,173.063 338.130 C 173.208 338.275,173.532 338.222,173.784 338.013 C 174.081 337.767,174.638 337.839,175.367 338.217 C 176.966 339.046,177.076 338.996,177.939 337.045 C 178.480 335.823,179.426 334.764,181.058 333.558 C 188.453 328.088,191.188 324.999,191.822 321.400 C 191.977 320.520,192.711 318.806,193.452 317.592 C 194.731 315.497,194.800 315.190,194.806 311.592 C 194.809 309.350,195.046 307.129,195.384 306.158 C 195.840 304.850,195.871 303.955,195.539 301.758 C 195.020 298.328,194.919 297.582,194.581 294.649 C 194.432 293.355,193.964 291.515,193.541 290.560 C 193.118 289.604,192.681 287.895,192.570 286.761 C 192.251 283.501,190.732 281.455,186.995 279.250 C 184.928 278.031,183.565 278.205,184.880 279.520 C 185.144 279.784,185.242 280.000,185.098 280.000 C 184.954 280.000,185.095 280.735,185.412 281.634 C 186.454 284.586,186.625 290.451,185.699 291.422 C 185.267 291.874,184.371 293.217,183.707 294.405 C 182.440 296.675,181.596 297.369,181.606 296.133 C 181.611 295.514,181.672 295.493,182.000 296.000 C 182.233 296.361,182.390 296.410,182.394 296.124 C 182.405 295.245,181.631 295.161,181.117 295.984 C 180.806 296.482,180.181 296.800,179.516 296.800 C 178.916 296.800,177.783 297.160,177.000 297.600 C 175.558 298.410,174.496 298.713,175.600 298.000 C 175.961 297.767,176.010 297.610,175.724 297.606 C 175.462 297.603,175.136 297.780,175.000 298.000 C 174.461 298.873,170.978 297.926,171.471 297.042 C 171.607 296.799,171.475 296.825,171.179 297.100 C 170.490 297.740,169.047 297.771,169.438 297.138 C 169.634 296.822,169.547 296.787,169.162 297.027 C 168.853 297.220,168.380 297.411,168.111 297.452 C 167.841 297.493,166.917 297.645,166.056 297.791 C 164.344 298.080,161.603 296.278,161.597 294.859 C 161.595 294.496,160.785 293.406,159.797 292.435 C 158.809 291.464,158.000 290.816,158.000 290.995 C 158.000 291.174,157.476 290.597,156.836 289.713 C 156.195 288.828,155.147 287.732,154.507 287.276 C 153.867 286.820,153.018 285.672,152.620 284.724 C 152.223 283.776,151.386 281.909,150.761 280.575 C 149.409 277.692,149.576 276.540,151.794 273.430 C 152.995 271.746,153.201 271.135,153.205 269.230 C 153.207 268.003,153.456 266.076,153.757 264.946 C 154.058 263.812,154.158 262.655,153.978 262.365 C 153.799 262.075,153.742 261.695,153.850 261.519 C 153.958 261.344,153.827 261.200,153.557 261.200 C 153.287 261.200,153.184 261.083,153.327 260.940 C 153.599 260.668,151.787 258.800,151.251 258.800 C 151.082 258.800,150.339 258.260,149.600 257.600 C 148.266 256.409,147.739 256.223,146.200 256.400 C 144.702 256.573,144.423 256.643,144.145 256.922 C 143.682 257.384,141.231 257.234,140.080 256.673 C 139.486 256.384,138.296 256.097,137.435 256.037 C 136.575 255.977,135.615 255.672,135.303 255.360 C 134.991 255.048,134.570 254.895,134.368 255.020 C 134.165 255.145,134.000 255.036,134.000 254.777 C 134.000 254.504,133.665 254.394,133.199 254.516 C 132.690 254.649,132.496 254.569,132.665 254.295 C 132.832 254.024,132.689 253.957,132.278 254.115 C 131.919 254.252,131.516 254.188,131.383 253.972 C 131.249 253.756,130.928 253.603,130.670 253.633 C 129.704 253.744,128.484 253.104,128.025 252.246 C 127.530 251.321,127.417 251.292,123.200 251.014 C 119.469 250.768,117.440 250.530,116.479 250.225 C 116.017 250.079,114.865 250.175,113.920 250.439 C 112.974 250.704,111.442 250.975,110.515 251.041 C 108.873 251.159,107.401 251.867,105.825 253.297 C 105.398 253.684,104.588 254.006,104.025 254.014 C 103.461 254.021,102.283 254.366,101.408 254.780 C 100.532 255.194,99.677 255.447,99.508 255.343 C 99.338 255.238,99.200 255.343,99.200 255.576 C 99.200 255.809,98.840 256.000,98.400 256.000 C 97.960 256.000,97.600 256.191,97.600 256.424 C 97.600 256.657,97.432 256.744,97.228 256.617 C 97.023 256.491,96.740 256.573,96.600 256.800 C 96.460 257.027,96.177 257.109,95.972 256.983 C 95.768 256.856,95.600 256.943,95.600 257.176 C 95.600 257.409,95.317 257.600,94.971 257.600 C 94.626 257.600,94.115 257.825,93.837 258.100 C 93.559 258.375,92.848 258.960,92.256 259.400 C 91.664 259.840,90.612 261.136,89.918 262.279 C 89.224 263.423,88.501 264.262,88.311 264.145 C 87.774 263.813,85.940 265.179,86.249 265.679 C 86.409 265.938,86.342 266.012,86.089 265.855 C 85.851 265.708,85.550 265.757,85.421 265.966 C 85.292 266.174,85.370 266.458,85.593 266.596 C 86.140 266.934,86.113 268.000,85.557 268.000 C 85.314 268.000,85.214 267.739,85.337 267.420 C 85.484 267.037,85.367 266.915,84.992 267.058 C 84.680 267.178,84.465 267.461,84.513 267.688 C 84.561 267.915,84.375 268.183,84.100 268.283 C 83.768 268.405,83.688 268.237,83.862 267.784 C 84.098 267.168,84.010 267.175,82.977 267.850 C 82.335 268.270,81.974 268.368,82.156 268.073 C 82.529 267.468,81.182 267.549,80.740 268.159 C 80.590 268.366,79.745 268.313,78.740 268.033 C 77.783 267.766,76.775 267.530,76.500 267.507 C 76.225 267.485,76.000 267.296,76.000 267.088 C 76.000 266.582,72.519 267.118,71.125 267.839 C 70.528 268.147,69.494 268.400,68.827 268.400 C 66.798 268.400,66.929 271.712,69.050 274.056 C 69.391 274.432,69.595 275.069,69.503 275.470 C 69.244 276.608,61.725 268.855,60.125 265.800 C 53.479 253.107,57.975 242.830,77.800 225.396 C 79.780 223.655,82.480 221.126,83.800 219.778 C 89.134 214.328,98.590 207.739,107.644 203.163 C 113.354 200.278,114.507 198.979,112.109 198.131 C 111.719 197.993,110.080 197.070,108.467 196.078 C 106.017 194.573,105.095 194.236,102.860 194.031 C 99.611 193.733,98.254 192.868,96.214 189.795 C 95.178 188.234,94.193 187.306,92.849 186.625 C 90.102 185.233,89.724 184.666,90.485 183.081 C 92.457 178.973,98.339 174.336,104.486 172.042 C 106.104 171.439,108.681 170.256,110.214 169.415 C 111.746 168.573,114.530 167.071,116.400 166.077 C 123.073 162.532,120.815 161.520,112.600 164.374 " fill="none" stroke-width="3" stroke="black"/>
<path id="42" d="M87.286 335.454 C 88.205 336.034,89.506 337.087,90.178 337.793 C 90.850 338.500,91.670 339.172,92.000 339.288 C 93.121 339.679,91.868 340.871,88.500 342.618 C 81.324 346.341,79.507 348.969,80.827 353.720 C 81.408 355.812,80.824 357.369,78.170 360.804 C 76.062 363.532,75.624 364.400,76.353 364.400 C 76.548 364.400,76.801 364.760,76.916 365.200 C 77.031 365.640,76.962 366.000,76.763 366.000 C 76.563 366.000,76.400 366.270,76.400 366.600 C 76.400 366.930,76.265 367.207,76.100 367.216 C 74.801 367.287,72.324 370.453,72.990 371.189 C 74.932 373.335,68.187 379.205,65.800 377.446 C 65.023 376.874,65.020 376.818,65.708 375.528 C 66.176 374.650,66.379 373.523,66.308 372.200 L 66.200 370.200 67.753 370.073 C 68.867 369.981,69.657 369.586,70.553 368.670 C 71.239 367.968,72.670 366.633,73.734 365.703 C 75.534 364.129,75.623 363.966,75.007 363.350 C 73.530 361.873,73.151 360.944,73.613 359.932 C 73.955 359.180,73.905 358.569,73.389 357.183 C 72.001 353.460,72.664 351.100,75.893 348.265 C 77.455 346.894,77.507 346.428,76.234 345.232 C 74.164 343.287,74.589 341.064,77.109 340.661 C 78.759 340.397,80.123 339.208,80.610 337.608 C 81.512 334.647,84.487 333.687,87.286 335.454 " stroke="black" fill="none" stroke-width="3"/>
<path id="49" d="M157.920 360.762 C 157.772 362.032,156.570 362.367,156.212 361.238 C 156.071 360.794,156.158 360.052,156.406 359.589 C 157.010 358.460,158.091 359.298,157.920 360.762 " stroke="black" fill="none" stroke-width="3"/>
<path id="53" d="M183.596 378.996 C 184.783 380.259,185.335 386.109,184.305 386.504 C 183.573 386.785,181.198 381.633,181.199 379.767 C 181.201 377.704,182.108 377.412,183.596 378.996 " stroke="black" fill="none" stroke-width="3"/>
<path id="63" d="M209.137 408.773 C 210.119 410.521,210.262 412.000,209.449 412.000 C 208.892 412.000,207.200 408.568,207.200 407.438 C 207.200 406.429,208.211 407.125,209.137 408.773 " stroke="black" fill="none" stroke-width="3"/>
<path id="74" d="M249.588 433.387 C 250.666 434.535,250.587 437.705,249.423 439.955 C 248.164 442.390,247.014 441.069,246.563 436.672 C 246.155 432.683,247.526 431.193,249.588 433.387 " stroke="black" fill="none" stroke-width="3"/>
<path id="88" d="M240.177 454.889 C 241.686 457.044,240.719 464.573,238.801 465.600 C 236.962 466.584,236.417 465.291,236.545 460.253 C 236.696 454.348,238.221 452.096,240.177 454.889 " stroke="black" fill="none" stroke-width="3"/>
<path id="98" d="M250.758 475.038 C 251.338 475.775,251.434 476.318,251.206 477.569 C 250.927 479.095,250.964 479.172,252.084 479.419 C 253.617 479.755,253.814 480.404,253.215 483.134 C 251.794 489.618,249.982 489.791,250.114 483.430 C 250.160 481.252,250.029 480.210,249.696 480.099 C 248.347 479.649,247.510 478.473,247.317 476.757 C 246.979 473.767,248.974 472.770,250.758 475.038 " stroke="black" fill="none" stroke-width="3"/>
<path id="113" d="M286.100 499.090 C 290.855 503.622,289.375 509.988,284.081 507.776 C 281.063 506.515,280.196 504.906,281.400 502.800 C 281.714 502.250,281.978 501.184,281.986 500.431 C 282.015 497.641,283.926 497.018,286.100 499.090 " stroke="black" fill="none" stroke-width="3"/>
<path id="106" d="M299.739 483.796 C 300.823 484.881,301.060 489.402,300.112 490.941 C 299.863 491.345,297.200 485.364,297.200 484.400 C 297.200 483.087,298.678 482.736,299.739 483.796 " stroke="black" fill="none" stroke-width="3"/>
<path id="82" d="M307.746 445.671 C 308.002 446.747,307.841 447.017,306.066 448.478 C 305.403 449.024,305.307 449.380,305.574 450.310 C 307.468 456.915,305.235 461.398,302.797 455.886 C 301.151 452.165,301.347 448.388,303.216 447.795 C 303.595 447.675,304.012 447.042,304.142 446.388 C 304.295 445.626,304.845 444.918,305.680 444.410 C 307.084 443.556,307.271 443.671,307.746 445.671 " stroke="black" fill="none" stroke-width="3"/>

<path id="62" d="M308.283 405.145 C 307.666 405.384,307.546 406.055,307.414 410.011 C 307.330 412.535,307.142 415.462,306.996 416.517 C 306.517 419.965,308.455 421.681,309.007 418.298 C 309.160 417.364,309.623 416.042,310.037 415.361 C 310.703 414.266,312.000 408.856,312.000 407.176 C 312.000 405.605,309.967 404.494,308.283 405.145 " stroke="black" fill="none" stroke-width="3"/>
<path id="52" d="M334.718 370.100 C 334.402 370.595,333.731 372.472,333.225 374.270 C 332.582 376.558,331.968 377.865,331.180 378.619 C 330.523 379.248,329.949 380.317,329.803 381.182 C 329.306 384.122,325.856 385.949,324.192 384.153 C 322.906 382.766,322.128 383.139,321.555 385.415 C 321.299 386.431,320.754 387.472,320.345 387.727 C 319.386 388.326,319.402 389.256,320.399 390.890 C 321.674 392.983,320.672 396.400,318.782 396.400 C 318.067 396.400,318.444 399.439,319.220 399.921 C 320.213 400.539,322.800 399.886,322.800 399.018 C 322.800 398.732,323.070 398.274,323.400 398.000 C 323.730 397.726,324.000 397.192,324.000 396.813 C 324.000 396.434,324.342 395.814,324.760 395.436 C 325.978 394.334,326.260 395.048,326.542 399.957 C 326.798 404.396,330.614 406.659,331.337 402.800 C 331.962 399.464,331.994 394.110,331.395 392.911 C 330.990 392.098,330.937 391.368,331.198 390.209 C 331.395 389.335,331.423 388.526,331.259 388.410 C 330.789 388.078,330.747 385.680,331.205 385.397 C 331.433 385.256,332.522 386.006,333.625 387.063 C 336.873 390.176,337.686 390.180,339.251 387.087 C 339.720 386.159,340.419 384.950,340.802 384.400 C 341.186 383.850,341.627 382.816,341.781 382.103 C 341.936 381.390,342.675 380.228,343.424 379.522 C 345.376 377.681,347.087 373.600,345.907 373.600 C 345.665 373.600,345.587 373.480,345.734 373.332 C 346.095 372.971,344.817 371.600,344.119 371.600 C 343.813 371.600,343.270 372.110,342.912 372.733 C 342.366 373.685,338.822 376.000,337.912 376.000 C 337.623 376.000,337.292 374.424,337.054 371.909 C 336.816 369.408,335.707 368.549,334.718 370.100 " stroke="black" fill="none" stroke-width="3"/>
<path id="59" d="M349.396 387.607 C 349.258 387.830,348.977 387.909,348.772 387.783 C 348.568 387.656,348.400 387.735,348.400 387.958 C 348.400 388.422,345.939 388.992,344.293 388.910 C 343.685 388.880,343.290 389.023,343.417 389.227 C 343.544 389.432,343.492 389.600,343.303 389.600 C 342.714 389.600,341.286 392.978,341.407 394.085 C 342.061 400.039,343.981 405.548,345.850 406.834 C 348.010 408.320,347.870 408.372,348.609 405.828 C 348.956 404.634,349.564 403.239,349.959 402.728 C 350.753 401.702,351.334 398.930,350.821 398.613 C 350.641 398.502,350.480 397.734,350.461 396.906 C 350.443 396.078,350.246 394.785,350.023 394.033 C 349.685 392.894,349.754 392.445,350.437 391.340 C 350.888 390.611,351.143 389.831,351.005 389.607 C 350.866 389.383,350.913 389.200,351.110 389.200 C 351.620 389.200,351.564 387.857,351.039 387.506 C 350.414 387.088,349.689 387.132,349.396 387.607 " stroke="black" fill="none" stroke-width="3"/>
<path id="64" d="M334.558 407.824 C 334.417 408.388,334.518 409.873,334.783 411.124 C 335.446 414.259,335.499 416.001,334.972 417.334 C 334.494 418.543,334.660 420.400,335.247 420.400 C 335.441 420.400,335.555 420.585,335.500 420.810 C 335.314 421.573,337.531 422.639,338.304 422.158 C 339.794 421.232,340.231 418.730,339.255 416.713 C 338.772 415.717,338.312 413.933,338.233 412.751 C 337.938 408.369,335.307 404.842,334.558 407.824 " stroke="black" fill="none" stroke-width="3"/>
<path id="95" d="M338.125 464.904 C 339.457 465.970,340.124 469.023,339.158 469.634 C 338.194 470.245,337.690 470.040,336.859 468.700 C 335.704 466.837,334.413 465.545,333.976 465.815 C 333.769 465.943,333.600 465.879,333.600 465.674 C 333.600 465.290,335.884 464.024,336.600 464.011 C 336.820 464.007,337.506 464.409,338.125 464.904 " stroke="black" fill="none" stroke-width="3"/>
<path id="115" d="M316.268 501.772 C 319.315 503.310,322.713 504.777,323.714 504.988 C 324.442 505.141,324.971 505.600,325.239 506.311 C 325.465 506.910,326.027 508.158,326.488 509.084 C 327.179 510.473,327.236 510.875,326.814 511.384 C 325.597 512.850,323.552 511.620,322.227 508.624 C 321.319 506.569,316.888 503.600,314.731 503.600 C 313.943 503.600,313.200 502.784,313.200 501.920 C 313.200 501.027,314.652 500.956,316.268 501.772 " stroke="black" fill="none" stroke-width="3"/>
<path id="123" d="M317.920 527.680 C 318.606 528.366,318.513 528.800,317.680 528.800 C 316.938 528.800,316.000 528.085,316.000 527.520 C 316.000 527.026,317.382 527.142,317.920 527.680 " stroke="black" fill="none" stroke-width="3"/>
<path id="124" d="M275.867 529.800 C 275.867 530.130,275.556 530.400,275.176 530.400 C 274.796 530.400,274.382 530.130,274.255 529.800 C 274.092 529.374,274.292 529.200,274.946 529.200 C 275.498 529.200,275.867 529.440,275.867 529.800 " stroke="black" fill="none" stroke-width="3"/>
<path id="111" d="M209.280 496.480 C 207.505 498.255,209.977 506.800,212.265 506.800 C 212.582 506.800,214.201 508.086,215.861 509.658 C 219.053 512.679,219.783 512.787,219.189 510.150 C 218.734 508.136,217.880 507.043,215.422 505.332 C 213.011 503.654,212.315 502.483,212.459 500.346 C 212.629 497.826,210.510 495.250,209.280 496.480 " stroke="black" fill="none" stroke-width="3"/>
<path id="128" d="M208.800 546.971 C 208.800 547.317,208.960 547.600,209.157 547.600 C 209.542 547.600,209.849 548.588,210.225 551.041 C 210.669 553.939,212.270 555.337,213.186 553.626 C 213.801 552.478,213.753 552.363,211.800 550.265 C 210.810 549.202,210.000 548.155,210.000 547.938 C 210.000 547.721,209.730 547.273,209.400 546.943 C 208.867 546.410,208.800 546.413,208.800 546.971 " stroke="black" fill="none" stroke-width="3"/>
<path id="130" d="M198.076 554.400 C 199.158 555.500,200.211 556.400,200.414 556.400 C 200.617 556.400,201.138 557.075,201.570 557.900 C 202.002 558.725,202.795 559.935,203.331 560.588 L 204.306 561.777 205.781 560.988 C 207.467 560.088,208.400 560.703,208.400 562.714 C 208.400 563.795,206.855 569.224,206.405 569.723 C 206.004 570.168,201.135 567.653,200.416 566.630 C 199.066 564.709,195.700 561.463,194.336 560.768 C 191.040 559.086,190.270 556.050,192.560 553.760 C 194.517 551.803,195.648 551.934,198.076 554.400 " stroke="black" fill="none" stroke-width="3"/>
<path id="131" d="M158.629 557.877 C 158.932 559.081,159.239 559.415,160.295 559.687 C 164.284 560.713,162.489 565.993,158.149 565.999 C 156.452 566.001,155.874 565.184,156.102 563.108 C 156.206 562.168,156.093 560.617,155.851 559.660 C 155.445 558.047,155.481 557.863,156.351 557.160 C 157.712 556.057,158.212 556.215,158.629 557.877 " stroke="black" fill="none" stroke-width="3"/>
<path id="133" d="M138.755 562.891 C 138.937 563.381,138.938 564.326,138.757 564.991 C 138.336 566.546,138.478 567.381,139.321 568.312 C 140.720 569.859,139.106 573.600,137.040 573.600 C 135.383 573.600,134.376 569.800,135.326 567.135 C 135.666 566.181,136.047 564.918,136.173 564.328 C 136.617 562.241,138.191 561.366,138.755 562.891 " stroke="black" fill="none" stroke-width="3"/>
<path id="135" d="M98.400 581.804 C 98.400 584.333,96.131 586.653,95.131 585.147 C 94.321 583.926,93.256 584.418,91.673 586.746 C 89.424 590.051,87.600 590.211,87.600 587.105 C 87.600 584.289,90.028 582.242,93.433 582.186 C 95.129 582.159,96.212 581.965,96.310 581.671 C 96.545 580.964,98.400 581.083,98.400 581.804 " stroke="black" fill="none" stroke-width="3"/>
<path id="134" d="M67.123 571.264 C 67.301 572.801,64.729 577.722,63.440 578.309 C 59.944 579.902,60.506 575.143,64.340 570.681 C 65.285 569.582,66.969 569.935,67.123 571.264 " stroke="black" fill="none" stroke-width="3"/>
<path id="125" d="M59.890 534.025 C 57.684 536.279,56.880 536.842,55.564 537.052 C 52.160 537.596,51.589 539.852,54.955 539.457 C 56.449 539.281,57.542 539.384,58.516 539.791 C 60.071 540.441,60.471 540.216,60.986 538.400 C 61.142 537.850,61.904 536.458,62.679 535.306 C 65.662 530.876,63.806 530.024,59.890 534.025 " stroke="black" fill="none" stroke-width="3"/>
<path id="94" d="M49.520 463.680 C 50.310 464.470,50.070 465.466,48.800 466.665 C 48.140 467.288,47.600 468.159,47.600 468.602 C 47.600 469.706,43.418 473.769,42.604 473.457 C 41.490 473.029,41.485 472.014,42.588 470.346 C 43.202 469.419,43.585 468.384,43.473 467.956 C 43.271 467.184,44.748 464.606,45.911 463.700 C 46.727 463.064,48.892 463.052,49.520 463.680 " stroke="black" fill="none" stroke-width="3"/>
<path id="75" d="M131.908 435.825 C 131.784 435.949,130.683 436.089,129.461 436.136 C 127.826 436.198,126.891 436.478,125.921 437.195 C 124.159 438.498,120.472 438.472,117.926 437.139 C 115.635 435.940,111.879 435.743,110.892 436.771 C 109.589 438.128,108.224 438.546,105.000 438.576 C 103.240 438.593,101.620 438.716,101.400 438.851 C 101.180 438.986,100.730 439.043,100.400 438.978 C 100.070 438.912,98.830 438.666,97.645 438.429 C 92.614 437.427,88.915 438.192,87.988 440.428 C 87.532 441.531,87.368 441.600,85.213 441.600 C 82.153 441.600,79.894 444.261,82.398 444.915 C 83.466 445.195,83.742 446.060,83.428 448.151 C 82.857 451.963,81.332 452.131,81.157 448.400 C 81.018 445.435,80.823 444.799,80.053 444.806 C 78.665 444.819,78.269 445.476,78.345 447.639 C 78.408 449.424,78.205 450.100,77.037 451.993 C 74.683 455.807,74.244 459.806,76.264 459.031 C 76.938 458.772,76.985 460.357,76.344 461.763 C 75.911 462.713,75.832 462.734,74.764 462.181 C 71.305 460.392,70.068 464.164,72.839 468.054 L 73.666 469.216 74.843 468.226 C 76.349 466.958,78.666 467.121,80.871 468.649 C 81.720 469.238,82.531 469.602,82.674 469.459 C 82.817 469.317,82.789 469.200,82.613 469.200 C 82.436 469.200,82.750 468.840,83.309 468.400 C 83.869 467.960,84.501 467.600,84.714 467.600 C 84.927 467.600,85.326 467.330,85.600 467.000 C 86.492 465.926,87.496 466.359,89.666 468.756 C 93.058 472.500,99.648 474.352,100.855 471.900 C 101.045 471.515,101.354 470.885,101.542 470.500 C 102.037 469.486,106.982 469.331,109.869 470.239 C 112.664 471.118,114.580 470.249,117.142 466.938 L 118.869 464.706 120.768 464.958 C 122.889 465.239,123.450 464.857,124.387 462.490 C 124.672 461.769,125.421 460.812,126.052 460.363 C 126.682 459.914,127.317 459.064,127.463 458.473 C 127.609 457.883,128.151 456.726,128.668 455.901 L 129.608 454.403 131.085 455.194 C 132.866 456.149,133.185 455.836,133.194 453.124 C 133.197 452.092,133.407 451.119,133.661 450.962 C 134.317 450.557,135.199 451.935,135.206 453.376 C 135.220 456.221,136.644 456.558,137.846 454.000 C 138.311 453.010,139.166 451.696,139.746 451.079 C 140.326 450.463,140.800 449.622,140.800 449.210 C 140.800 446.744,144.610 445.043,146.200 446.800 C 147.251 447.962,147.517 447.792,147.320 446.088 C 147.178 444.857,147.347 444.358,148.229 443.406 C 148.872 442.712,149.126 442.175,148.854 442.085 C 148.601 442.000,148.514 441.739,148.659 441.504 C 148.806 441.266,148.737 441.192,148.503 441.336 C 148.272 441.479,147.677 441.267,147.181 440.865 C 146.251 440.112,144.400 440.144,144.400 440.913 C 144.400 441.144,144.287 441.221,144.149 441.083 C 144.011 440.945,143.336 441.139,142.649 441.515 C 139.974 442.977,138.250 442.290,139.349 440.200 C 139.581 439.760,139.732 439.265,139.685 439.100 C 139.638 438.935,139.780 438.800,140.000 438.800 C 140.630 438.800,140.467 437.600,139.802 437.346 C 139.474 437.219,139.296 436.969,139.407 436.789 C 139.518 436.609,138.970 436.638,138.189 436.854 C 137.009 437.180,136.545 437.107,135.437 436.423 C 134.171 435.640,132.394 435.339,131.908 435.825 " stroke="black" fill="none" stroke-width="3"/>


<path id="1" d="M178.027 9.700 C 178.141 27.599,179.549 60.363,180.448 66.059 C 181.063 69.956,180.703 70.897,177.476 73.817 C 173.222 77.667,173.316 77.878,173.014 63.800 C 172.589 44.011,172.462 43.398,168.803 43.478 C 166.121 43.537,165.412 44.555,164.261 50.000 C 162.749 57.156,162.469 57.943,160.794 59.760 C 158.119 62.663,156.598 71.438,157.321 79.800 C 158.061 88.355,157.978 89.458,156.347 92.600 C 154.931 95.329,152.403 102.142,152.397 103.247 C 152.383 105.641,147.537 113.561,143.738 117.400 C 136.193 125.024,133.391 129.798,132.796 136.040 C 132.270 141.565,131.721 144.451,130.780 146.647 C 128.514 151.934,129.878 154.328,135.910 155.646 C 140.221 156.588,147.417 160.350,150.461 163.251 C 151.637 164.373,153.900 166.264,155.489 167.453 C 157.078 168.642,158.878 170.264,159.489 171.057 C 162.480 174.937,162.081 174.797,163.916 172.614 C 164.199 172.276,164.942 172.000,165.567 172.000 C 166.988 172.000,167.595 171.287,167.740 169.449 C 167.875 167.739,168.039 167.537,169.356 167.459 L 170.364 167.400 170.121 162.308 L 169.877 157.216 171.639 156.417 C 174.617 155.066,175.146 155.265,177.132 158.486 C 178.600 160.867,178.828 162.139,178.009 163.386 C 177.619 163.980,177.219 164.406,177.119 164.333 C 177.019 164.260,176.412 164.768,175.769 165.462 C 175.126 166.156,173.818 167.371,172.862 168.162 C 171.906 168.953,171.246 169.600,171.395 169.600 C 171.544 169.600,171.291 170.206,170.833 170.947 C 169.570 172.990,169.708 173.728,171.287 173.381 C 173.254 172.949,173.986 172.361,174.994 170.400 C 175.503 169.410,176.480 167.897,177.166 167.037 C 177.851 166.178,178.784 164.872,179.239 164.137 C 179.709 163.376,180.527 162.688,181.133 162.543 C 184.871 161.645,186.576 159.823,185.943 157.400 C 185.189 154.515,185.293 153.920,186.719 152.950 C 188.179 151.958,189.475 152.008,190.414 153.092 C 191.433 154.267,191.872 154.075,193.390 151.789 C 194.411 150.251,195.104 149.598,195.721 149.594 C 197.234 149.583,197.800 148.935,197.800 147.214 C 197.800 146.327,197.665 145.601,197.500 145.600 C 197.335 145.600,197.200 145.175,197.200 144.655 C 197.200 143.660,198.958 141.600,199.806 141.600 C 202.860 141.600,200.537 133.446,197.163 132.321 C 196.443 132.081,197.107 130.518,198.031 130.276 C 199.197 129.971,201.047 130.600,202.444 131.776 C 204.625 133.611,205.765 131.938,204.200 129.200 C 202.710 126.594,203.901 122.593,206.403 121.799 C 209.039 120.962,207.268 119.934,202.858 119.740 C 198.200 119.535,197.796 119.180,200.721 117.868 C 202.574 117.036,203.725 116.800,205.927 116.800 C 210.124 116.800,214.473 113.385,215.599 109.204 C 215.935 107.957,216.214 107.659,217.182 107.517 C 217.829 107.422,218.279 107.472,218.183 107.627 C 217.882 108.115,219.000 108.771,219.553 108.429 C 220.408 107.901,219.900 106.586,218.884 106.695 C 218.398 106.748,218.000 106.633,218.000 106.441 C 218.000 105.356,210.279 106.291,209.686 107.448 C 209.361 108.082,209.049 108.654,208.994 108.719 C 208.797 108.956,206.800 108.306,206.800 108.006 C 206.800 107.510,209.865 104.400,210.353 104.400 C 210.599 104.400,210.800 104.207,210.800 103.971 C 210.800 103.439,211.835 102.368,212.097 102.630 C 213.110 103.643,219.162 98.733,218.267 97.624 C 217.909 97.182,217.911 97.113,218.275 97.332 C 218.537 97.488,218.897 97.369,219.075 97.067 C 219.503 96.342,220.949 95.600,221.934 95.600 C 222.366 95.600,223.678 94.880,224.849 94.000 C 226.020 93.120,227.205 92.400,227.482 92.400 C 227.758 92.400,229.473 91.712,231.292 90.871 C 233.112 90.029,235.230 89.093,236.000 88.790 C 237.917 88.035,242.256 85.730,243.543 84.783 C 245.222 83.547,248.746 82.481,253.447 81.789 C 259.907 80.837,268.407 78.819,270.513 77.738 C 271.272 77.348,273.257 77.136,276.747 77.072 C 280.806 76.998,282.086 76.836,282.920 76.289 C 284.151 75.482,284.641 75.447,286.340 76.039 C 288.656 76.846,287.669 78.563,283.800 80.457 C 281.253 81.703,279.649 82.730,278.451 83.879 C 277.527 84.765,275.328 85.593,273.887 85.598 C 273.495 85.599,272.505 85.887,271.687 86.237 C 270.869 86.587,268.940 87.037,267.400 87.237 C 265.639 87.466,264.174 87.915,263.453 88.447 C 262.729 88.981,261.734 89.285,260.753 89.272 C 259.899 89.260,259.200 89.429,259.200 89.649 C 259.200 89.868,259.041 89.949,258.846 89.828 C 258.651 89.708,258.405 90.063,258.299 90.619 C 258.192 91.174,258.177 91.556,258.264 91.469 C 258.352 91.382,259.415 91.541,260.627 91.823 C 261.842 92.105,263.318 92.205,263.916 92.044 C 267.368 91.119,268.158 92.576,265.067 94.166 C 263.600 94.921,262.800 95.583,262.800 96.043 C 262.800 96.942,263.593 97.458,263.989 96.817 C 264.154 96.550,264.359 96.374,264.445 96.426 C 264.881 96.692,268.485 95.870,269.782 95.209 C 270.600 94.792,271.568 94.564,271.934 94.701 C 272.512 94.917,272.528 94.861,272.055 94.279 C 271.755 93.911,271.350 93.707,271.155 93.828 C 270.960 93.949,270.800 93.507,270.800 92.847 C 270.800 91.165,273.557 90.236,274.418 91.628 C 274.630 91.972,275.092 91.822,276.057 91.096 C 278.176 89.501,290.225 88.534,292.604 89.768 C 293.207 90.081,293.992 90.249,294.350 90.142 C 294.707 90.035,293.666 90.592,292.035 91.379 C 289.770 92.472,288.623 92.794,287.171 92.743 C 285.828 92.695,284.881 92.926,283.936 93.531 C 283.201 94.002,282.870 94.392,283.200 94.399 C 284.753 94.430,285.922 96.071,285.240 97.263 C 284.702 98.203,284.684 98.516,285.123 99.222 C 285.763 100.251,285.153 101.200,283.851 101.200 C 282.770 101.200,278.116 102.192,276.800 102.703 C 275.022 103.393,271.876 103.724,272.209 103.186 C 272.646 102.478,275.551 101.297,277.592 100.997 C 281.606 100.408,283.205 99.027,281.663 97.485 C 280.832 96.655,280.775 96.651,278.907 97.320 C 277.858 97.696,276.486 98.003,275.858 98.002 C 275.229 98.001,273.623 98.283,272.288 98.629 C 270.850 99.002,268.543 99.225,266.630 99.176 C 263.333 99.091,258.969 100.319,254.194 102.674 C 253.317 103.107,250.440 104.140,247.800 104.971 C 240.645 107.223,238.983 107.939,237.107 109.580 C 236.168 110.402,234.862 111.328,234.205 111.640 C 232.862 112.276,232.334 113.600,233.423 113.600 C 233.799 113.600,234.667 113.259,235.353 112.842 C 236.039 112.426,237.320 111.975,238.200 111.840 C 239.080 111.706,240.520 111.488,241.400 111.358 C 242.280 111.227,243.303 110.958,243.674 110.760 C 244.044 110.562,244.974 110.400,245.741 110.400 C 246.507 110.400,247.974 110.040,249.000 109.600 C 250.026 109.160,251.398 108.800,252.047 108.800 C 252.697 108.800,253.677 108.506,254.225 108.147 C 254.948 107.673,255.704 107.560,256.984 107.736 C 258.800 107.985,259.951 107.710,264.829 105.861 C 266.564 105.203,267.652 104.988,268.029 105.226 C 268.433 105.482,268.453 105.590,268.097 105.594 C 267.820 105.597,266.537 106.571,265.246 107.758 C 263.955 108.945,261.121 110.945,258.949 112.202 C 254.786 114.612,248.887 118.499,246.200 120.603 C 239.411 125.919,234.760 129.758,233.419 131.154 C 232.549 132.059,231.632 132.800,231.381 132.800 C 231.130 132.800,229.896 133.700,228.639 134.800 C 227.382 135.900,226.204 136.800,226.022 136.800 C 225.839 136.800,224.757 137.442,223.617 138.226 C 221.948 139.374,221.313 139.601,220.356 139.390 C 219.537 139.211,218.830 139.350,218.084 139.838 C 216.489 140.881,216.195 141.241,214.991 143.628 C 214.389 144.823,212.704 147.073,211.248 148.630 C 208.481 151.587,206.800 154.952,206.800 157.536 C 206.800 158.282,205.837 160.621,204.400 163.368 C 203.080 165.890,202.000 168.157,202.000 168.406 C 202.000 168.654,201.105 170.783,200.012 173.137 C 197.940 177.596,196.283 182.343,195.798 185.209 C 195.181 188.865,193.663 189.083,192.396 185.698 C 191.256 182.651,191.624 182.757,183.173 183.040 C 175.063 183.313,174.400 183.158,174.400 181.000 C 174.400 179.870,173.427 178.800,172.400 178.800 C 171.519 178.800,170.400 179.823,170.400 180.629 C 170.400 181.329,170.208 181.330,168.244 180.646 C 166.362 179.991,165.346 180.205,164.547 181.425 C 163.547 182.951,163.975 184.918,165.400 185.345 C 166.060 185.543,167.274 186.053,168.098 186.477 C 168.922 186.902,169.812 187.116,170.075 186.954 C 171.934 185.805,183.671 186.661,185.166 188.055 C 187.127 189.881,185.194 193.453,182.449 193.074 C 177.389 192.376,175.212 191.976,173.800 191.483 C 171.978 190.847,170.746 191.074,168.509 192.456 C 167.371 193.159,166.375 193.395,164.403 193.428 C 162.493 193.461,161.427 193.702,160.400 194.335 C 159.630 194.809,158.533 195.198,157.962 195.199 C 157.391 195.199,156.581 195.581,156.162 196.047 C 155.118 197.207,151.343 198.828,149.400 198.952 C 147.649 199.062,146.402 199.618,144.669 201.059 C 143.942 201.664,143.014 202.003,142.069 202.010 C 140.151 202.022,137.550 202.634,137.232 203.148 C 137.095 203.371,136.446 203.831,135.791 204.171 C 134.710 204.732,134.596 204.983,134.557 206.894 C 134.480 210.699,134.455 210.800,133.576 210.800 C 133.024 210.800,132.852 210.635,133.053 210.300 C 133.279 209.924,133.211 209.906,132.777 210.228 C 132.114 210.721,130.239 210.725,127.478 210.240 C 125.039 209.812,121.167 211.574,118.394 214.376 C 117.401 215.379,115.553 216.718,114.287 217.351 C 111.905 218.543,108.400 221.644,108.400 222.559 C 108.400 222.846,107.929 223.963,107.353 225.040 C 106.562 226.522,106.318 227.532,106.353 229.181 C 106.394 231.101,106.254 231.512,105.185 232.616 C 104.516 233.306,103.643 234.484,103.244 235.235 C 102.785 236.099,101.870 236.913,100.753 237.452 C 99.781 237.920,98.720 238.803,98.393 239.413 C 97.626 240.847,94.525 243.125,90.775 245.009 C 89.139 245.831,87.209 247.020,86.486 247.652 C 85.763 248.283,85.043 248.797,84.886 248.794 C 84.295 248.781,83.512 248.076,83.064 247.154 C 82.409 245.807,79.493 244.489,76.117 244.013 C 74.531 243.790,72.461 243.339,71.517 243.010 C 67.781 241.708,64.983 243.542,61.911 249.307 C 60.486 251.980,59.887 251.604,60.840 248.634 C 62.645 243.003,68.078 236.492,79.722 226.000 C 95.467 211.814,96.411 211.158,112.800 203.029 C 125.091 196.932,125.813 196.311,123.188 194.083 C 118.840 190.395,116.831 187.445,116.350 184.046 C 116.147 182.614,115.670 181.086,115.290 180.652 C 114.911 180.218,114.825 179.994,115.100 180.155 C 115.375 180.316,115.600 180.257,115.600 180.024 C 115.600 179.791,115.420 179.600,115.200 179.600 C 114.319 179.600,114.880 178.799,116.200 178.173 C 116.970 177.808,117.600 177.378,117.600 177.218 C 117.600 177.059,119.406 175.714,121.612 174.231 C 123.819 172.748,126.012 171.010,126.486 170.369 C 126.960 169.728,128.756 168.279,130.478 167.149 L 133.609 165.093 136.471 165.298 C 142.615 165.738,142.930 161.631,136.969 158.815 C 130.473 155.746,120.665 155.530,110.800 158.240 C 106.887 159.315,95.332 165.051,89.560 168.783 C 87.505 170.113,85.672 171.200,85.488 171.200 C 84.954 171.200,79.098 175.790,78.021 177.052 C 77.483 177.684,75.728 179.707,74.121 181.548 C 69.239 187.143,70.336 187.968,75.638 182.689 C 78.476 179.862,82.200 177.267,82.700 177.767 C 82.831 177.898,81.023 179.939,78.682 182.302 C 76.342 184.666,73.435 187.860,72.223 189.400 C 69.059 193.420,58.742 209.022,58.071 210.800 C 57.431 212.496,52.538 222.279,51.732 223.473 C 51.314 224.093,50.708 225.127,50.386 225.772 C 49.471 227.602,47.379 229.644,46.690 229.379 C 46.280 229.222,45.969 229.494,45.726 230.221 C 45.435 231.096,45.085 231.321,43.844 231.432 C 41.861 231.610,41.348 232.081,41.098 233.949 C 40.984 234.795,40.560 236.185,40.155 237.039 C 38.504 240.519,39.551 244.106,42.054 243.543 C 44.694 242.950,45.118 244.315,43.561 248.400 C 42.283 251.755,42.804 257.882,45.245 268.200 C 48.628 282.504,63.260 295.600,75.859 295.600 C 79.830 295.600,80.840 297.475,77.886 299.368 C 75.707 300.764,68.233 299.711,67.239 297.867 C 64.887 293.505,56.065 288.891,53.406 290.633 C 52.580 291.174,52.233 291.192,51.016 290.751 C 49.140 290.073,48.349 290.818,48.127 293.470 C 47.887 296.348,48.593 297.390,50.816 297.442 C 53.479 297.505,53.490 297.509,53.928 298.766 C 54.425 300.192,55.451 328.561,55.061 330.105 C 54.908 330.712,54.219 331.702,53.532 332.305 C 51.254 334.299,50.904 334.825,50.048 337.535 C 49.369 339.688,49.200 341.237,49.200 345.324 C 49.200 350.957,48.648 353.200,47.263 353.200 C 46.088 353.200,46.042 352.822,45.794 341.099 C 45.531 328.690,45.129 325.024,43.729 322.260 C 42.931 320.684,42.684 319.420,42.441 315.656 C 42.172 311.496,42.005 310.749,40.870 308.644 C 40.172 307.348,39.599 305.998,39.597 305.644 C 39.596 305.290,39.237 304.460,38.800 303.800 C 38.363 303.140,38.004 302.296,38.003 301.924 C 38.001 301.552,37.801 301.124,37.557 300.974 C 37.259 300.789,37.203 300.978,37.384 301.550 C 37.534 302.024,37.480 302.400,37.260 302.400 C 37.044 302.400,36.803 302.210,36.726 301.977 C 36.490 301.271,33.215 303.932,32.622 305.311 C 32.316 306.020,31.791 307.238,31.454 308.018 C 30.714 309.727,30.541 310.724,30.173 315.399 C 30.017 317.378,29.544 319.988,29.123 321.199 C 28.457 323.114,28.331 324.957,28.153 335.400 C 28.019 343.293,27.739 348.701,27.337 351.200 C 27.001 353.290,26.834 355.814,26.965 356.809 C 27.096 357.804,27.001 360.054,26.753 361.809 C 26.490 363.679,26.330 369.744,26.368 376.456 C 26.474 395.102,25.712 398.372,21.878 395.715 C 19.272 393.910,18.837 395.050,17.370 407.533 C 16.818 412.226,15.999 417.716,15.549 419.733 C 14.384 424.954,13.353 430.653,12.571 436.200 C 11.366 444.743,11.016 444.474,10.199 434.383 C 9.852 430.104,9.319 424.713,9.013 422.402 C 8.707 420.091,8.340 415.140,8.197 411.400 L 7.936 404.600 6.193 400.899 C 5.234 398.864,3.711 396.145,2.807 394.857 C 1.169 392.521,0.724 390.930,0.275 385.800 C 0.198 384.920,0.104 386.814,0.067 390.009 L -0.000 395.818 1.176 397.244 C 4.311 401.048,6.374 408.045,6.411 415.000 C 6.420 416.760,6.695 419.640,7.022 421.400 C 8.068 427.036,8.724 433.231,8.970 439.800 C 9.631 457.402,10.615 462.530,11.792 454.517 C 14.034 439.261,15.711 436.100,17.074 444.561 L 17.338 446.200 17.665 445.000 C 18.073 443.504,18.550 439.174,18.565 436.846 C 18.574 435.354,18.384 434.932,17.289 434.018 C 15.735 432.720,15.665 432.091,16.536 427.200 C 17.169 423.646,18.305 414.036,19.228 404.438 C 19.680 399.739,20.476 397.805,21.799 398.195 C 26.857 399.687,27.205 398.492,27.572 378.400 C 27.849 363.268,27.964 362.403,29.945 360.638 C 30.930 359.760,31.062 358.316,30.221 357.617 C 28.006 355.779,28.135 352.329,30.551 348.817 C 31.348 347.658,32.000 346.533,32.000 346.317 C 32.000 345.513,33.680 343.600,34.385 343.600 C 35.125 343.600,37.593 345.636,37.609 346.260 C 37.614 346.447,37.950 347.032,38.357 347.561 L 39.096 348.522 40.529 347.046 L 41.962 345.570 42.621 346.576 C 44.359 349.228,44.455 353.269,42.813 354.651 C 40.908 356.253,40.084 359.430,40.880 362.100 C 42.378 367.127,41.088 373.050,38.084 374.947 C 34.827 377.003,34.222 382.286,36.994 384.467 C 38.551 385.692,39.622 387.454,39.743 388.991 C 39.986 392.068,41.594 391.469,43.480 387.600 C 44.837 384.815,45.345 376.249,44.771 365.800 C 44.590 362.500,44.567 358.720,44.721 357.400 L 45.000 355.000 46.665 354.778 C 48.672 354.510,49.405 353.950,50.461 351.881 C 50.902 351.016,51.943 349.653,52.775 348.854 C 55.907 345.841,56.090 343.030,53.150 343.114 C 49.678 343.213,50.398 338.589,54.580 333.938 C 57.216 331.006,57.286 330.299,56.479 314.800 C 55.325 292.661,55.063 294.299,59.689 294.741 C 62.940 295.051,64.400 295.841,64.400 297.288 C 64.400 300.231,70.424 302.080,77.682 301.364 C 80.870 301.050,80.890 301.030,80.856 298.124 C 80.813 294.534,80.240 294.013,76.640 294.286 C 70.735 294.732,60.412 289.391,54.064 282.605 C 47.069 275.127,42.301 257.018,44.975 248.084 C 45.797 245.337,45.917 244.276,45.742 241.313 C 45.565 238.321,45.650 237.592,46.316 236.400 C 48.596 232.319,52.958 224.091,56.614 216.976 C 66.060 198.596,75.188 186.401,85.832 177.943 C 91.569 173.384,102.912 166.384,107.621 164.496 C 111.464 162.955,114.021 161.840,117.000 160.407 C 121.679 158.156,134.109 158.460,136.695 160.889 C 138.168 162.273,137.833 162.545,135.100 162.180 C 130.171 161.523,129.010 161.706,127.110 163.443 C 125.388 165.017,123.549 165.951,120.600 166.751 C 119.720 166.990,117.059 168.313,114.686 169.692 C 108.080 173.532,107.194 173.937,104.459 174.368 C 97.314 175.495,93.058 180.558,95.569 184.946 C 96.246 186.129,96.800 187.328,96.800 187.611 C 96.800 189.580,100.482 192.138,103.869 192.521 C 105.007 192.650,107.201 193.292,108.745 193.949 C 110.288 194.606,112.389 195.269,113.413 195.423 C 119.873 196.392,118.004 199.354,107.884 204.187 C 95.930 209.895,86.318 217.450,70.479 233.587 C 60.172 244.088,56.479 251.829,58.953 257.749 C 59.712 259.565,60.048 259.417,61.343 256.692 C 63.074 253.048,64.836 251.426,66.667 251.788 C 68.657 252.181,70.146 252.160,70.289 251.737 C 70.716 250.475,72.128 248.783,72.920 248.584 C 73.866 248.347,74.116 248.468,78.569 251.333 C 82.355 253.769,82.186 253.725,84.086 252.758 C 85.029 252.278,86.588 251.194,87.551 250.348 C 88.514 249.502,89.877 248.651,90.579 248.457 C 91.281 248.263,92.948 247.300,94.283 246.318 C 95.618 245.335,97.855 244.112,99.255 243.600 C 100.655 243.087,102.610 242.278,103.600 241.801 C 104.590 241.324,106.660 240.627,108.200 240.252 C 112.765 239.140,113.725 238.774,115.277 237.558 C 116.089 236.921,116.910 236.400,117.102 236.400 C 118.116 236.400,119.633 234.125,118.979 233.583 C 118.378 233.084,118.379 233.005,118.991 232.557 C 119.355 232.291,119.598 232.011,119.530 231.936 C 119.462 231.861,119.645 231.077,119.936 230.192 C 120.408 228.764,120.380 228.356,119.683 226.523 C 119.124 225.051,119.023 224.337,119.330 224.030 C 119.566 223.794,119.622 223.600,119.453 223.600 C 118.669 223.600,121.081 221.043,122.359 220.518 C 123.152 220.193,124.340 219.416,125.000 218.791 C 125.878 217.959,127.155 217.420,129.755 216.784 C 131.710 216.305,133.906 215.664,134.636 215.359 C 135.596 214.958,136.250 214.915,137.007 215.203 C 138.476 215.761,142.469 215.674,143.269 215.066 C 144.257 214.315,145.319 209.790,145.003 207.680 C 144.660 205.396,145.528 204.275,147.371 204.621 C 148.052 204.749,149.146 204.648,149.804 204.397 C 150.462 204.146,151.591 203.864,152.313 203.771 C 154.174 203.531,155.507 202.534,155.809 201.157 C 156.154 199.589,157.714 198.549,158.914 199.087 C 159.864 199.514,162.000 199.011,162.000 198.361 C 162.000 198.162,162.324 198.000,162.720 198.000 C 163.116 198.000,163.618 197.822,163.835 197.605 C 164.052 197.388,165.197 197.102,166.380 196.971 C 167.562 196.839,168.937 196.576,169.435 196.387 C 169.933 196.197,170.849 196.148,171.470 196.277 C 172.881 196.571,173.368 196.546,175.555 196.070 C 176.520 195.859,177.870 195.755,178.555 195.837 C 179.240 195.920,181.910 196.066,184.488 196.163 C 189.923 196.366,189.672 196.269,190.801 198.602 C 191.507 200.060,191.873 200.401,192.736 200.406 C 193.612 200.411,195.560 201.174,194.746 201.194 C 194.607 201.197,194.728 202.436,195.016 203.946 C 195.304 205.457,195.838 209.102,196.203 212.046 C 196.568 214.991,197.235 218.840,197.684 220.600 C 199.536 227.850,199.518 227.582,198.228 228.610 C 195.227 231.003,199.064 239.774,205.807 245.937 C 207.049 247.072,208.224 248.000,208.419 248.000 C 208.614 248.000,210.084 249.185,211.687 250.634 C 218.619 256.900,222.822 258.871,231.658 259.998 C 236.523 260.618,238.592 260.156,237.993 258.583 C 237.574 257.479,238.090 257.071,240.944 256.244 C 243.108 255.618,243.258 254.708,241.346 253.801 C 240.526 253.412,238.979 252.577,237.910 251.947 C 234.001 249.642,230.457 252.928,233.464 256.067 L 234.529 257.178 233.593 257.524 C 230.738 258.581,213.243 250.105,212.546 247.327 C 211.801 244.360,213.150 243.952,217.619 245.793 C 219.478 246.559,221.279 247.189,221.620 247.193 C 221.961 247.197,222.411 247.351,222.620 247.536 C 223.235 248.078,227.319 248.897,228.403 248.695 C 229.179 248.550,229.085 248.497,227.980 248.454 C 227.199 248.425,226.389 248.250,226.180 248.066 C 225.971 247.882,224.900 247.404,223.800 247.002 C 217.033 244.532,208.804 237.232,205.040 230.361 C 200.542 222.152,197.787 206.725,199.981 202.040 C 200.720 200.463,200.807 199.887,200.482 198.713 C 199.889 196.566,200.484 194.247,202.081 192.478 C 203.074 191.380,203.679 190.141,204.188 188.169 C 205.311 183.808,207.864 174.473,208.772 171.401 C 209.998 167.258,209.775 165.023,208.305 166.709 C 207.100 168.091,205.870 171.153,203.027 179.852 C 202.299 182.081,200.988 185.501,200.115 187.452 C 199.241 189.403,198.316 191.509,198.058 192.131 C 197.475 193.536,196.827 193.361,195.828 191.532 C 195.060 190.123,195.060 190.110,195.928 188.263 C 196.408 187.243,196.800 186.200,196.800 185.946 C 196.800 182.754,202.461 170.133,209.553 157.515 C 213.773 150.006,216.215 147.674,217.107 150.300 L 217.481 151.400 220.176 148.600 C 221.658 147.060,224.409 144.000,226.289 141.800 C 239.457 126.387,261.175 111.125,267.120 113.107 C 269.037 113.746,267.060 115.501,259.771 119.629 C 242.938 129.162,226.495 149.259,217.086 171.800 C 214.310 178.450,212.737 188.325,214.028 190.995 C 215.655 194.358,217.506 192.250,221.703 182.256 C 227.411 168.661,227.936 167.619,233.919 158.000 C 241.647 145.575,245.016 142.945,253.071 143.055 C 262.338 143.182,264.025 146.223,259.391 154.452 C 253.201 165.445,251.742 168.090,249.819 171.800 C 248.679 174.000,246.703 177.240,245.428 179.000 C 244.153 180.760,242.966 182.574,242.791 183.031 C 242.616 183.488,241.711 185.378,240.780 187.231 C 239.849 189.084,238.647 191.488,238.107 192.574 C 236.267 196.279,236.372 198.478,238.492 200.597 C 240.593 202.698,241.267 202.789,247.300 201.783 C 253.462 200.755,254.076 200.064,258.323 189.400 C 259.199 187.200,261.214 182.802,262.799 179.627 C 264.385 176.452,265.915 173.122,266.199 172.227 C 266.484 171.332,268.200 167.450,270.012 163.600 C 271.825 159.750,273.903 155.171,274.630 153.424 C 276.650 148.569,279.014 145.658,280.355 146.376 C 282.115 147.318,284.595 143.167,283.379 141.312 C 282.665 140.222,283.750 138.802,285.300 138.798 C 285.795 138.796,286.740 138.502,287.400 138.143 C 290.484 136.467,291.050 136.234,291.760 136.348 C 292.178 136.416,292.941 136.245,293.456 135.970 L 294.391 135.469 293.496 134.838 C 293.003 134.490,292.510 134.202,292.400 134.197 C 291.842 134.172,291.217 133.496,291.431 133.149 C 291.566 132.931,291.727 131.048,291.789 128.963 C 291.940 123.856,294.199 121.799,296.800 124.400 C 297.673 125.273,297.685 125.363,297.809 131.828 C 297.856 134.263,298.098 136.636,298.347 137.102 C 298.991 138.304,298.907 139.835,298.157 140.586 C 297.564 141.179,297.533 142.094,298.040 144.000 C 298.128 144.330,298.482 144.870,298.828 145.200 C 299.881 146.206,299.970 147.038,299.167 148.357 C 297.956 150.349,298.941 154.025,301.420 156.769 C 302.148 157.575,302.871 158.766,303.028 159.417 C 304.344 164.873,307.142 166.540,312.113 164.830 C 315.483 163.670,317.668 163.543,318.832 164.438 C 320.743 165.907,321.778 164.183,324.157 155.566 C 325.962 149.024,325.854 149.234,327.860 148.374 C 330.607 147.197,331.679 148.157,330.000 150.291 C 328.160 152.631,329.635 157.125,333.762 161.748 C 336.475 164.789,336.573 164.970,336.609 167.038 C 336.654 169.667,336.778 169.801,338.615 169.195 C 340.515 168.568,341.807 169.203,342.421 171.065 C 342.869 172.422,343.809 173.200,345.000 173.200 C 345.358 173.200,346.098 173.730,346.643 174.379 C 348.414 176.483,352.486 175.659,354.108 172.867 C 355.187 171.011,356.364 170.827,357.526 172.333 L 358.483 173.574 360.041 172.779 C 361.822 171.871,361.802 171.935,360.994 169.571 C 360.359 167.713,359.856 167.303,355.600 165.179 C 354.390 164.575,352.780 163.433,352.022 162.641 C 350.335 160.878,348.734 160.755,345.827 162.163 C 342.946 163.558,342.596 163.284,342.776 159.774 C 342.833 158.675,342.647 157.971,342.203 157.603 C 341.337 156.884,340.272 154.800,340.771 154.800 C 341.714 154.800,343.122 155.759,343.757 156.834 C 344.970 158.889,348.122 158.574,355.387 155.671 C 365.325 151.700,367.151 149.727,362.635 147.841 C 361.504 147.368,360.690 146.496,358.106 142.984 C 356.525 140.836,356.968 134.111,358.804 132.396 L 359.963 131.314 358.779 130.103 C 357.105 128.391,355.999 128.307,353.108 129.675 C 351.749 130.317,349.089 131.383,347.197 132.044 C 345.304 132.705,343.225 133.679,342.578 134.209 L 341.400 135.171 343.450 135.186 C 344.577 135.194,346.265 134.930,347.200 134.600 C 351.219 133.182,353.154 133.916,353.500 136.992 C 353.751 139.216,352.935 140.619,351.166 141.007 C 350.473 141.160,348.638 141.807,347.088 142.446 C 340.906 144.995,337.818 144.610,336.288 141.098 C 334.888 137.884,334.909 137.675,336.700 136.963 C 337.525 136.636,338.868 136.081,339.685 135.730 L 341.170 135.092 340.242 134.362 C 339.732 133.960,338.524 131.810,337.557 129.582 C 336.219 126.499,335.219 124.886,333.363 122.823 C 330.343 119.465,326.425 113.635,326.328 112.356 C 326.287 111.802,327.055 110.161,328.154 108.456 C 330.454 104.887,330.408 104.723,326.784 103.623 C 324.172 102.829,323.396 102.774,318.382 103.029 L 312.857 103.309 309.929 101.913 C 308.318 101.144,306.460 100.386,305.800 100.227 C 299.673 98.751,305.463 95.518,312.200 96.654 C 313.300 96.839,315.636 96.942,317.391 96.882 C 319.788 96.800,320.896 96.941,321.839 97.449 C 324.281 98.764,325.362 96.944,323.300 94.990 C 321.724 93.496,320.185 92.770,318.696 92.815 C 315.309 92.919,314.668 91.807,317.346 90.470 C 318.977 89.655,319.600 88.958,319.600 87.947 C 319.600 87.203,316.972 86.503,313.200 86.242 C 308.018 85.883,307.849 85.845,307.448 84.969 C 306.744 83.429,301.988 80.810,299.884 80.805 C 296.561 80.796,294.120 79.190,294.782 77.448 C 295.247 76.224,294.989 76.007,292.200 75.276 C 288.057 74.189,285.087 73.901,282.600 74.344 C 281.280 74.580,278.310 74.883,276.000 75.019 C 273.690 75.155,270.784 75.521,269.542 75.833 C 268.301 76.145,266.866 76.400,266.354 76.400 C 265.842 76.400,263.708 76.923,261.611 77.563 C 259.515 78.203,256.720 78.935,255.400 79.190 C 249.634 80.304,246.283 81.411,241.400 83.816 C 238.540 85.225,234.950 86.664,233.421 87.016 C 231.893 87.367,229.588 88.272,228.300 89.027 C 227.011 89.782,225.864 90.400,225.751 90.400 C 225.637 90.400,224.792 90.915,223.872 91.545 C 221.293 93.312,219.188 94.283,214.093 96.058 C 206.230 98.798,201.128 101.825,194.000 107.979 C 192.790 109.024,190.720 110.740,189.400 111.793 C 185.268 115.090,183.952 116.523,182.723 119.067 C 181.885 120.800,180.587 122.443,178.356 124.593 C 175.676 127.176,174.910 128.226,173.444 131.327 C 172.104 134.161,171.215 135.446,169.554 136.954 C 157.148 148.208,155.156 150.709,159.946 149.019 C 162.924 147.968,167.480 148.105,169.850 149.315 C 173.172 151.013,172.973 151.854,169.082 152.566 C 167.155 152.918,166.696 154.004,167.043 157.391 C 167.276 159.661,167.202 160.040,166.250 161.441 C 165.417 162.667,165.200 163.462,165.200 165.293 C 165.200 168.022,164.892 168.140,162.454 166.347 C 160.970 165.256,160.622 165.153,159.756 165.547 C 157.503 166.574,154.798 165.503,151.600 162.318 C 149.658 160.384,140.823 155.728,137.200 154.729 C 130.933 153.002,130.539 152.481,132.117 148.025 C 132.713 146.342,133.652 142.220,134.202 138.866 C 135.589 130.415,138.353 125.271,145.145 118.498 C 149.021 114.633,150.773 111.619,153.422 104.256 C 154.704 100.693,157.563 95.398,159.378 93.226 C 161.527 90.655,161.715 87.182,159.951 82.685 C 158.679 79.443,158.910 75.365,160.587 71.443 C 161.350 69.659,162.228 67.120,162.540 65.800 C 162.852 64.480,163.486 62.451,163.951 61.292 C 164.415 60.132,164.904 58.152,165.037 56.892 C 165.808 49.607,166.988 46.000,168.600 46.000 C 170.247 46.000,170.402 46.732,170.810 56.452 C 171.735 78.453,171.640 77.565,173.144 78.370 C 173.695 78.665,174.534 78.425,176.612 77.379 C 178.120 76.621,179.643 76.000,179.997 76.000 C 180.830 76.000,181.600 75.219,181.600 74.375 C 181.600 73.264,184.010 68.271,185.109 67.104 C 186.255 65.889,186.228 65.812,184.332 64.865 C 181.940 63.670,181.827 62.866,181.015 41.400 C 180.890 38.100,180.615 31.710,180.405 27.200 C 180.194 22.690,180.014 15.130,180.005 10.400 C 179.987 0.918,179.875 -0.000,178.736 -0.000 C 177.994 -0.000,177.967 0.366,178.027 9.700 " fill="none" stroke-width="3" stroke="gold"/>

</svg>