<svg version="1.1" xmlns="http://www.w3.org/2000/svg" xmlns:xlink="http://www.w3.org/1999/xlink" width="400" height="610.3225806451613" viewBox="0, 0, 400,610.3225806451613">
<path id="1" d="M178.027 9.700 C 178.141 27.599,179.549 60.363,180.448 66.059 C 181.063 69.956,180.703 70.897,177.476 73.817 C 173.222 77.667,173.316 77.878,173.014 63.800 C 172.589 44.011,172.462 43.398,168.803 43.478 C 166.121 43.537,165.412 44.555,164.261 50.000 C 162.749 57.156,162.469 57.943,160.794 59.760 C 158.119 62.663,156.598 71.438,157.321 79.800 C 158.061 88.355,157.978 89.458,156.347 92.600 C 154.931 95.329,152.403 102.142,152.397 103.247 C 152.383 105.641,147.537 113.561,143.738 117.400 C 136.193 125.024,133.391 129.798,132.796 136.040 C 132.270 141.565,131.721 144.451,130.780 146.647 C 128.514 151.934,129.878 154.328,135.910 155.646 C 140.221 156.588,147.417 160.350,150.461 163.251 C 151.637 164.373,153.900 166.264,155.489 167.453 C 157.078 168.642,158.878 170.264,159.489 171.057 C 162.480 174.937,162.081 174.797,163.916 172.614 C 164.199 172.276,164.942 172.000,165.567 172.000 C 166.988 172.000,167.595 171.287,167.740 169.449 C 167.875 167.739,168.039 167.537,169.356 167.459 L 170.364 167.400 170.121 162.308 L 169.877 157.216 171.639 156.417 C 174.617 155.066,175.146 155.265,177.132 158.486 C 178.600 160.867,178.828 162.139,178.009 163.386 C 177.619 163.980,177.219 164.406,177.119 164.333 C 177.019 164.260,176.412 164.768,175.769 165.462 C 175.126 166.156,173.818 167.371,172.862 168.162 C 171.906 168.953,171.246 169.600,171.395 169.600 C 171.544 169.600,171.291 170.206,170.833 170.947 C 169.570 172.990,169.708 173.728,171.287 173.381 C 173.254 172.949,173.986 172.361,174.994 170.400 C 175.503 169.410,176.480 167.897,177.166 167.037 C 177.851 166.178,178.784 164.872,179.239 164.137 C 179.709 163.376,180.527 162.688,181.133 162.543 C 184.871 161.645,186.576 159.823,185.943 157.400 C 185.189 154.515,185.293 153.920,186.719 152.950 C 188.179 151.958,189.475 152.008,190.414 153.092 C 191.433 154.267,191.872 154.075,193.390 151.789 C 194.411 150.251,195.104 149.598,195.721 149.594 C 197.234 149.583,197.800 148.935,197.800 147.214 C 197.800 146.327,197.665 145.601,197.500 145.600 C 197.335 145.600,197.200 145.175,197.200 144.655 C 197.200 143.660,198.958 141.600,199.806 141.600 C 202.860 141.600,200.537 133.446,197.163 132.321 C 196.443 132.081,197.107 130.518,198.031 130.276 C 199.197 129.971,201.047 130.600,202.444 131.776 C 204.625 133.611,205.765 131.938,204.200 129.200 C 202.710 126.594,203.901 122.593,206.403 121.799 C 209.039 120.962,207.268 119.934,202.858 119.740 C 198.200 119.535,197.796 119.180,200.721 117.868 C 202.574 117.036,203.725 116.800,205.927 116.800 C 210.124 116.800,214.473 113.385,215.599 109.204 C 215.935 107.957,216.214 107.659,217.182 107.517 C 217.829 107.422,218.279 107.472,218.183 107.627 C 217.882 108.115,219.000 108.771,219.553 108.429 C 220.408 107.901,219.900 106.586,218.884 106.695 C 218.398 106.748,218.000 106.633,218.000 106.441 C 218.000 105.356,210.279 106.291,209.686 107.448 C 209.361 108.082,209.049 108.654,208.994 108.719 C 208.797 108.956,206.800 108.306,206.800 108.006 C 206.800 107.510,209.865 104.400,210.353 104.400 C 210.599 104.400,210.800 104.207,210.800 103.971 C 210.800 103.439,211.835 102.368,212.097 102.630 C 213.110 103.643,219.162 98.733,218.267 97.624 C 217.909 97.182,217.911 97.113,218.275 97.332 C 218.537 97.488,218.897 97.369,219.075 97.067 C 219.503 96.342,220.949 95.600,221.934 95.600 C 222.366 95.600,223.678 94.880,224.849 94.000 C 226.020 93.120,227.205 92.400,227.482 92.400 C 227.758 92.400,229.473 91.712,231.292 90.871 C 233.112 90.029,235.230 89.093,236.000 88.790 C 237.917 88.035,242.256 85.730,243.543 84.783 C 245.222 83.547,248.746 82.481,253.447 81.789 C 259.907 80.837,268.407 78.819,270.513 77.738 C 271.272 77.348,273.257 77.136,276.747 77.072 C 280.806 76.998,282.086 76.836,282.920 76.289 C 284.151 75.482,284.641 75.447,286.340 76.039 C 288.656 76.846,287.669 78.563,283.800 80.457 C 281.253 81.703,279.649 82.730,278.451 83.879 C 277.527 84.765,275.328 85.593,273.887 85.598 C 273.495 85.599,272.505 85.887,271.687 86.237 C 270.869 86.587,268.940 87.037,267.400 87.237 C 265.639 87.466,264.174 87.915,263.453 88.447 C 262.729 88.981,261.734 89.285,260.753 89.272 C 259.899 89.260,259.200 89.429,259.200 89.649 C 259.200 89.868,259.041 89.949,258.846 89.828 C 258.651 89.708,258.405 90.063,258.299 90.619 C 258.192 91.174,258.177 91.556,258.264 91.469 C 258.352 91.382,259.415 91.541,260.627 91.823 C 261.842 92.105,263.318 92.205,263.916 92.044 C 267.368 91.119,268.158 92.576,265.067 94.166 C 263.600 94.921,262.800 95.583,262.800 96.043 C 262.800 96.942,263.593 97.458,263.989 96.817 C 264.154 96.550,264.359 96.374,264.445 96.426 C 264.881 96.692,268.485 95.870,269.782 95.209 C 270.600 94.792,271.568 94.564,271.934 94.701 C 272.512 94.917,272.528 94.861,272.055 94.279 C 271.755 93.911,271.350 93.707,271.155 93.828 C 270.960 93.949,270.800 93.507,270.800 92.847 C 270.800 91.165,273.557 90.236,274.418 91.628 C 274.630 91.972,275.092 91.822,276.057 91.096 C 278.176 89.501,290.225 88.534,292.604 89.768 C 293.207 90.081,293.992 90.249,294.350 90.142 C 294.707 90.035,293.666 90.592,292.035 91.379 C 289.770 92.472,288.623 92.794,287.171 92.743 C 285.828 92.695,284.881 92.926,283.936 93.531 C 283.201 94.002,282.870 94.392,283.200 94.399 C 284.753 94.430,285.922 96.071,285.240 97.263 C 284.702 98.203,284.684 98.516,285.123 99.222 C 285.763 100.251,285.153 101.200,283.851 101.200 C 282.770 101.200,278.116 102.192,276.800 102.703 C 275.022 103.393,271.876 103.724,272.209 103.186 C 272.646 102.478,275.551 101.297,277.592 100.997 C 281.606 100.408,283.205 99.027,281.663 97.485 C 280.832 96.655,280.775 96.651,278.907 97.320 C 277.858 97.696,276.486 98.003,275.858 98.002 C 275.229 98.001,273.623 98.283,272.288 98.629 C 270.850 99.002,268.543 99.225,266.630 99.176 C 263.333 99.091,258.969 100.319,254.194 102.674 C 253.317 103.107,250.440 104.140,247.800 104.971 C 240.645 107.223,238.983 107.939,237.107 109.580 C 236.168 110.402,234.862 111.328,234.205 111.640 C 232.862 112.276,232.334 113.600,233.423 113.600 C 233.799 113.600,234.667 113.259,235.353 112.842 C 236.039 112.426,237.320 111.975,238.200 111.840 C 239.080 111.706,240.520 111.488,241.400 111.358 C 242.280 111.227,243.303 110.958,243.674 110.760 C 244.044 110.562,244.974 110.400,245.741 110.400 C 246.507 110.400,247.974 110.040,249.000 109.600 C 250.026 109.160,251.398 108.800,252.047 108.800 C 252.697 108.800,253.677 108.506,254.225 108.147 C 254.948 107.673,255.704 107.560,256.984 107.736 C 258.800 107.985,259.951 107.710,264.829 105.861 C 266.564 105.203,267.652 104.988,268.029 105.226 C 268.433 105.482,268.453 105.590,268.097 105.594 C 267.820 105.597,266.537 106.571,265.246 107.758 C 263.955 108.945,261.121 110.945,258.949 112.202 C 254.786 114.612,248.887 118.499,246.200 120.603 C 239.411 125.919,234.760 129.758,233.419 131.154 C 232.549 132.059,231.632 132.800,231.381 132.800 C 231.130 132.800,229.896 133.700,228.639 134.800 C 227.382 135.900,226.204 136.800,226.022 136.800 C 225.839 136.800,224.757 137.442,223.617 138.226 C 221.948 139.374,221.313 139.601,220.356 139.390 C 219.537 139.211,218.830 139.350,218.084 139.838 C 216.489 140.881,216.195 141.241,214.991 143.628 C 214.389 144.823,212.704 147.073,211.248 148.630 C 208.481 151.587,206.800 154.952,206.800 157.536 C 206.800 158.282,205.837 160.621,204.400 163.368 C 203.080 165.890,202.000 168.157,202.000 168.406 C 202.000 168.654,201.105 170.783,200.012 173.137 C 197.940 177.596,196.283 182.343,195.798 185.209 C 195.181 188.865,193.663 189.083,192.396 185.698 C 191.256 182.651,191.624 182.757,183.173 183.040 C 175.063 183.313,174.400 183.158,174.400 181.000 C 174.400 179.870,173.427 178.800,172.400 178.800 C 171.519 178.800,170.400 179.823,170.400 180.629 C 170.400 181.329,170.208 181.330,168.244 180.646 C 166.362 179.991,165.346 180.205,164.547 181.425 C 163.547 182.951,163.975 184.918,165.400 185.345 C 166.060 185.543,167.274 186.053,168.098 186.477 C 168.922 186.902,169.812 187.116,170.075 186.954 C 171.934 185.805,183.671 186.661,185.166 188.055 C 187.127 189.881,185.194 193.453,182.449 193.074 C 177.389 192.376,175.212 191.976,173.800 191.483 C 171.978 190.847,170.746 191.074,168.509 192.456 C 167.371 193.159,166.375 193.395,164.403 193.428 C 162.493 193.461,161.427 193.702,160.400 194.335 C 159.630 194.809,158.533 195.198,157.962 195.199 C 157.391 195.199,156.581 195.581,156.162 196.047 C 155.118 197.207,151.343 198.828,149.400 198.952 C 147.649 199.062,146.402 199.618,144.669 201.059 C 143.942 201.664,143.014 202.003,142.069 202.010 C 140.151 202.022,137.550 202.634,137.232 203.148 C 137.095 203.371,136.446 203.831,135.791 204.171 C 134.710 204.732,134.596 204.983,134.557 206.894 C 134.480 210.699,134.455 210.800,133.576 210.800 C 133.024 210.800,132.852 210.635,133.053 210.300 C 133.279 209.924,133.211 209.906,132.777 210.228 C 132.114 210.721,130.239 210.725,127.478 210.240 C 125.039 209.812,121.167 211.574,118.394 214.376 C 117.401 215.379,115.553 216.718,114.287 217.351 C 111.905 218.543,108.400 221.644,108.400 222.559 C 108.400 222.846,107.929 223.963,107.353 225.040 C 106.562 226.522,106.318 227.532,106.353 229.181 C 106.394 231.101,106.254 231.512,105.185 232.616 C 104.516 233.306,103.643 234.484,103.244 235.235 C 102.785 236.099,101.870 236.913,100.753 237.452 C 99.781 237.920,98.720 238.803,98.393 239.413 C 97.626 240.847,94.525 243.125,90.775 245.009 C 89.139 245.831,87.209 247.020,86.486 247.652 C 85.763 248.283,85.043 248.797,84.886 248.794 C 84.295 248.781,83.512 248.076,83.064 247.154 C 82.409 245.807,79.493 244.489,76.117 244.013 C 74.531 243.790,72.461 243.339,71.517 243.010 C 67.781 241.708,64.983 243.542,61.911 249.307 C 60.486 251.980,59.887 251.604,60.840 248.634 C 62.645 243.003,68.078 236.492,79.722 226.000 C 95.467 211.814,96.411 211.158,112.800 203.029 C 125.091 196.932,125.813 196.311,123.188 194.083 C 118.840 190.395,116.831 187.445,116.350 184.046 C 116.147 182.614,115.670 181.086,115.290 180.652 C 114.911 180.218,114.825 179.994,115.100 180.155 C 115.375 180.316,115.600 180.257,115.600 180.024 C 115.600 179.791,115.420 179.600,115.200 179.600 C 114.319 179.600,114.880 178.799,116.200 178.173 C 116.970 177.808,117.600 177.378,117.600 177.218 C 117.600 177.059,119.406 175.714,121.612 174.231 C 123.819 172.748,126.012 171.010,126.486 170.369 C 126.960 169.728,128.756 168.279,130.478 167.149 L 133.609 165.093 136.471 165.298 C 142.615 165.738,142.930 161.631,136.969 158.815 C 130.473 155.746,120.665 155.530,110.800 158.240 C 106.887 159.315,95.332 165.051,89.560 168.783 C 87.505 170.113,85.672 171.200,85.488 171.200 C 84.954 171.200,79.098 175.790,78.021 177.052 C 77.483 177.684,75.728 179.707,74.121 181.548 C 69.239 187.143,70.336 187.968,75.638 182.689 C 78.476 179.862,82.200 177.267,82.700 177.767 C 82.831 177.898,81.023 179.939,78.682 182.302 C 76.342 184.666,73.435 187.860,72.223 189.400 C 69.059 193.420,58.742 209.022,58.071 210.800 C 57.431 212.496,52.538 222.279,51.732 223.473 C 51.314 224.093,50.708 225.127,50.386 225.772 C 49.471 227.602,47.379 229.644,46.690 229.379 C 46.280 229.222,45.969 229.494,45.726 230.221 C 45.435 231.096,45.085 231.321,43.844 231.432 C 41.861 231.610,41.348 232.081,41.098 233.949 C 40.984 234.795,40.560 236.185,40.155 237.039 C 38.504 240.519,39.551 244.106,42.054 243.543 C 44.694 242.950,45.118 244.315,43.561 248.400 C 42.283 251.755,42.804 257.882,45.245 268.200 C 48.628 282.504,63.260 295.600,75.859 295.600 C 79.830 295.600,80.840 297.475,77.886 299.368 C 75.707 300.764,68.233 299.711,67.239 297.867 C 64.887 293.505,56.065 288.891,53.406 290.633 C 52.580 291.174,52.233 291.192,51.016 290.751 C 49.140 290.073,48.349 290.818,48.127 293.470 C 47.887 296.348,48.593 297.390,50.816 297.442 C 53.479 297.505,53.490 297.509,53.928 298.766 C 54.425 300.192,55.451 328.561,55.061 330.105 C 54.908 330.712,54.219 331.702,53.532 332.305 C 51.254 334.299,50.904 334.825,50.048 337.535 C 49.369 339.688,49.200 341.237,49.200 345.324 C 49.200 350.957,48.648 353.200,47.263 353.200 C 46.088 353.200,46.042 352.822,45.794 341.099 C 45.531 328.690,45.129 325.024,43.729 322.260 C 42.931 320.684,42.684 319.420,42.441 315.656 C 42.172 311.496,42.005 310.749,40.870 308.644 C 40.172 307.348,39.599 305.998,39.597 305.644 C 39.596 305.290,39.237 304.460,38.800 303.800 C 38.363 303.140,38.004 302.296,38.003 301.924 C 38.001 301.552,37.801 301.124,37.557 300.974 C 37.259 300.789,37.203 300.978,37.384 301.550 C 37.534 302.024,37.480 302.400,37.260 302.400 C 37.044 302.400,36.803 302.210,36.726 301.977 C 36.490 301.271,33.215 303.932,32.622 305.311 C 32.316 306.020,31.791 307.238,31.454 308.018 C 30.714 309.727,30.541 310.724,30.173 315.399 C 30.017 317.378,29.544 319.988,29.123 321.199 C 28.457 323.114,28.331 324.957,28.153 335.400 C 28.019 343.293,27.739 348.701,27.337 351.200 C 27.001 353.290,26.834 355.814,26.965 356.809 C 27.096 357.804,27.001 360.054,26.753 361.809 C 26.490 363.679,26.330 369.744,26.368 376.456 C 26.474 395.102,25.712 398.372,21.878 395.715 C 19.272 393.910,18.837 395.050,17.370 407.533 C 16.818 412.226,15.999 417.716,15.549 419.733 C 14.384 424.954,13.353 430.653,12.571 436.200 C 11.366 444.743,11.016 444.474,10.199 434.383 C 9.852 430.104,9.319 424.713,9.013 422.402 C 8.707 420.091,8.340 415.140,8.197 411.400 L 7.936 404.600 6.193 400.899 C 5.234 398.864,3.711 396.145,2.807 394.857 C 1.169 392.521,0.724 390.930,0.275 385.800 C 0.198 384.920,0.104 386.814,0.067 390.009 L -0.000 395.818 1.176 397.244 C 4.311 401.048,6.374 408.045,6.411 415.000 C 6.420 416.760,6.695 419.640,7.022 421.400 C 8.068 427.036,8.724 433.231,8.970 439.800 C 9.631 457.402,10.615 462.530,11.792 454.517 C 14.034 439.261,15.711 436.100,17.074 444.561 L 17.338 446.200 17.665 445.000 C 18.073 443.504,18.550 439.174,18.565 436.846 C 18.574 435.354,18.384 434.932,17.289 434.018 C 15.735 432.720,15.665 432.091,16.536 427.200 C 17.169 423.646,18.305 414.036,19.228 404.438 C 19.680 399.739,20.476 397.805,21.799 398.195 C 26.857 399.687,27.205 398.492,27.572 378.400 C 27.849 363.268,27.964 362.403,29.945 360.638 C 30.930 359.760,31.062 358.316,30.221 357.617 C 28.006 355.779,28.135 352.329,30.551 348.817 C 31.348 347.658,32.000 346.533,32.000 346.317 C 32.000 345.513,33.680 343.600,34.385 343.600 C 35.125 343.600,37.593 345.636,37.609 346.260 C 37.614 346.447,37.950 347.032,38.357 347.561 L 39.096 348.522 40.529 347.046 L 41.962 345.570 42.621 346.576 C 44.359 349.228,44.455 353.269,42.813 354.651 C 40.908 356.253,40.084 359.430,40.880 362.100 C 42.378 367.127,41.088 373.050,38.084 374.947 C 34.827 377.003,34.222 382.286,36.994 384.467 C 38.551 385.692,39.622 387.454,39.743 388.991 C 39.986 392.068,41.594 391.469,43.480 387.600 C 44.837 384.815,45.345 376.249,44.771 365.800 C 44.590 362.500,44.567 358.720,44.721 357.400 L 45.000 355.000 46.665 354.778 C 48.672 354.510,49.405 353.950,50.461 351.881 C 50.902 351.016,51.943 349.653,52.775 348.854 C 55.907 345.841,56.090 343.030,53.150 343.114 C 49.678 343.213,50.398 338.589,54.580 333.938 C 57.216 331.006,57.286 330.299,56.479 314.800 C 55.325 292.661,55.063 294.299,59.689 294.741 C 62.940 295.051,64.400 295.841,64.400 297.288 C 64.400 300.231,70.424 302.080,77.682 301.364 C 80.870 301.050,80.890 301.030,80.856 298.124 C 80.813 294.534,80.240 294.013,76.640 294.286 C 70.735 294.732,60.412 289.391,54.064 282.605 C 47.069 275.127,42.301 257.018,44.975 248.084 C 45.797 245.337,45.917 244.276,45.742 241.313 C 45.565 238.321,45.650 237.592,46.316 236.400 C 48.596 232.319,52.958 224.091,56.614 216.976 C 66.060 198.596,75.188 186.401,85.832 177.943 C 91.569 173.384,102.912 166.384,107.621 164.496 C 111.464 162.955,114.021 161.840,117.000 160.407 C 121.679 158.156,134.109 158.460,136.695 160.889 C 138.168 162.273,137.833 162.545,135.100 162.180 C 130.171 161.523,129.010 161.706,127.110 163.443 C 125.388 165.017,123.549 165.951,120.600 166.751 C 119.720 166.990,117.059 168.313,114.686 169.692 C 108.080 173.532,107.194 173.937,104.459 174.368 C 97.314 175.495,93.058 180.558,95.569 184.946 C 96.246 186.129,96.800 187.328,96.800 187.611 C 96.800 189.580,100.482 192.138,103.869 192.521 C 105.007 192.650,107.201 193.292,108.745 193.949 C 110.288 194.606,112.389 195.269,113.413 195.423 C 119.873 196.392,118.004 199.354,107.884 204.187 C 95.930 209.895,86.318 217.450,70.479 233.587 C 60.172 244.088,56.479 251.829,58.953 257.749 C 59.712 259.565,60.048 259.417,61.343 256.692 C 63.074 253.048,64.836 251.426,66.667 251.788 C 68.657 252.181,70.146 252.160,70.289 251.737 C 70.716 250.475,72.128 248.783,72.920 248.584 C 73.866 248.347,74.116 248.468,78.569 251.333 C 82.355 253.769,82.186 253.725,84.086 252.758 C 85.029 252.278,86.588 251.194,87.551 250.348 C 88.514 249.502,89.877 248.651,90.579 248.457 C 91.281 248.263,92.948 247.300,94.283 246.318 C 95.618 245.335,97.855 244.112,99.255 243.600 C 100.655 243.087,102.610 242.278,103.600 241.801 C 104.590 241.324,106.660 240.627,108.200 240.252 C 112.765 239.140,113.725 238.774,115.277 237.558 C 116.089 236.921,116.910 236.400,117.102 236.400 C 118.116 236.400,119.633 234.125,118.979 233.583 C 118.378 233.084,118.379 233.005,118.991 232.557 C 119.355 232.291,119.598 232.011,119.530 231.936 C 119.462 231.861,119.645 231.077,119.936 230.192 C 120.408 228.764,120.380 228.356,119.683 226.523 C 119.124 225.051,119.023 224.337,119.330 224.030 C 119.566 223.794,119.622 223.600,119.453 223.600 C 118.669 223.600,121.081 221.043,122.359 220.518 C 123.152 220.193,124.340 219.416,125.000 218.791 C 125.878 217.959,127.155 217.420,129.755 216.784 C 131.710 216.305,133.906 215.664,134.636 215.359 C 135.596 214.958,136.250 214.915,137.007 215.203 C 138.476 215.761,142.469 215.674,143.269 215.066 C 144.257 214.315,145.319 209.790,145.003 207.680 C 144.660 205.396,145.528 204.275,147.371 204.621 C 148.052 204.749,149.146 204.648,149.804 204.397 C 150.462 204.146,151.591 203.864,152.313 203.771 C 154.174 203.531,155.507 202.534,155.809 201.157 C 156.154 199.589,157.714 198.549,158.914 199.087 C 159.864 199.514,162.000 199.011,162.000 198.361 C 162.000 198.162,162.324 198.000,162.720 198.000 C 163.116 198.000,163.618 197.822,163.835 197.605 C 164.052 197.388,165.197 197.102,166.380 196.971 C 167.562 196.839,168.937 196.576,169.435 196.387 C 169.933 196.197,170.849 196.148,171.470 196.277 C 172.881 196.571,173.368 196.546,175.555 196.070 C 176.520 195.859,177.870 195.755,178.555 195.837 C 179.240 195.920,181.910 196.066,184.488 196.163 C 189.923 196.366,189.672 196.269,190.801 198.602 C 191.507 200.060,191.873 200.401,192.736 200.406 C 193.612 200.411,195.560 201.174,194.746 201.194 C 194.607 201.197,194.728 202.436,195.016 203.946 C 195.304 205.457,195.838 209.102,196.203 212.046 C 196.568 214.991,197.235 218.840,197.684 220.600 C 199.536 227.850,199.518 227.582,198.228 228.610 C 195.227 231.003,199.064 239.774,205.807 245.937 C 207.049 247.072,208.224 248.000,208.419 248.000 C 208.614 248.000,210.084 249.185,211.687 250.634 C 218.619 256.900,222.822 258.871,231.658 259.998 C 236.523 260.618,238.592 260.156,237.993 258.583 C 237.574 257.479,238.090 257.071,240.944 256.244 C 243.108 255.618,243.258 254.708,241.346 253.801 C 240.526 253.412,238.979 252.577,237.910 251.947 C 234.001 249.642,230.457 252.928,233.464 256.067 L 234.529 257.178 233.593 257.524 C 230.738 258.581,213.243 250.105,212.546 247.327 C 211.801 244.360,213.150 243.952,217.619 245.793 C 219.478 246.559,221.279 247.189,221.620 247.193 C 221.961 247.197,222.411 247.351,222.620 247.536 C 223.235 248.078,227.319 248.897,228.403 248.695 C 229.179 248.550,229.085 248.497,227.980 248.454 C 227.199 248.425,226.389 248.250,226.180 248.066 C 225.971 247.882,224.900 247.404,223.800 247.002 C 217.033 244.532,208.804 237.232,205.040 230.361 C 200.542 222.152,197.787 206.725,199.981 202.040 C 200.720 200.463,200.807 199.887,200.482 198.713 C 199.889 196.566,200.484 194.247,202.081 192.478 C 203.074 191.380,203.679 190.141,204.188 188.169 C 205.311 183.808,207.864 174.473,208.772 171.401 C 209.998 167.258,209.775 165.023,208.305 166.709 C 207.100 168.091,205.870 171.153,203.027 179.852 C 202.299 182.081,200.988 185.501,200.115 187.452 C 199.241 189.403,198.316 191.509,198.058 192.131 C 197.475 193.536,196.827 193.361,195.828 191.532 C 195.060 190.123,195.060 190.110,195.928 188.263 C 196.408 187.243,196.800 186.200,196.800 185.946 C 196.800 182.754,202.461 170.133,209.553 157.515 C 213.773 150.006,216.215 147.674,217.107 150.300 L 217.481 151.400 220.176 148.600 C 221.658 147.060,224.409 144.000,226.289 141.800 C 239.457 126.387,261.175 111.125,267.120 113.107 C 269.037 113.746,267.060 115.501,259.771 119.629 C 242.938 129.162,226.495 149.259,217.086 171.800 C 214.310 178.450,212.737 188.325,214.028 190.995 C 215.655 194.358,217.506 192.250,221.703 182.256 C 227.411 168.661,227.936 167.619,233.919 158.000 C 241.647 145.575,245.016 142.945,253.071 143.055 C 262.338 143.182,264.025 146.223,259.391 154.452 C 253.201 165.445,251.742 168.090,249.819 171.800 C 248.679 174.000,246.703 177.240,245.428 179.000 C 244.153 180.760,242.966 182.574,242.791 183.031 C 242.616 183.488,241.711 185.378,240.780 187.231 C 239.849 189.084,238.647 191.488,238.107 192.574 C 236.267 196.279,236.372 198.478,238.492 200.597 C 240.593 202.698,241.267 202.789,247.300 201.783 C 253.462 200.755,254.076 200.064,258.323 189.400 C 259.199 187.200,261.214 182.802,262.799 179.627 C 264.385 176.452,265.915 173.122,266.199 172.227 C 266.484 171.332,268.200 167.450,270.012 163.600 C 271.825 159.750,273.903 155.171,274.630 153.424 C 276.650 148.569,279.014 145.658,280.355 146.376 C 282.115 147.318,284.595 143.167,283.379 141.312 C 282.665 140.222,283.750 138.802,285.300 138.798 C 285.795 138.796,286.740 138.502,287.400 138.143 C 290.484 136.467,291.050 136.234,291.760 136.348 C 292.178 136.416,292.941 136.245,293.456 135.970 L 294.391 135.469 293.496 134.838 C 293.003 134.490,292.510 134.202,292.400 134.197 C 291.842 134.172,291.217 133.496,291.431 133.149 C 291.566 132.931,291.727 131.048,291.789 128.963 C 291.940 123.856,294.199 121.799,296.800 124.400 C 297.673 125.273,297.685 125.363,297.809 131.828 C 297.856 134.263,298.098 136.636,298.347 137.102 C 298.991 138.304,298.907 139.835,298.157 140.586 C 297.564 141.179,297.533 142.094,298.040 144.000 C 298.128 144.330,298.482 144.870,298.828 145.200 C 299.881 146.206,299.970 147.038,299.167 148.357 C 297.956 150.349,298.941 154.025,301.420 156.769 C 302.148 157.575,302.871 158.766,303.028 159.417 C 304.344 164.873,307.142 166.540,312.113 164.830 C 315.483 163.670,317.668 163.543,318.832 164.438 C 320.743 165.907,321.778 164.183,324.157 155.566 C 325.962 149.024,325.854 149.234,327.860 148.374 C 330.607 147.197,331.679 148.157,330.000 150.291 C 328.160 152.631,329.635 157.125,333.762 161.748 C 336.475 164.789,336.573 164.970,336.609 167.038 C 336.654 169.667,336.778 169.801,338.615 169.195 C 340.515 168.568,341.807 169.203,342.421 171.065 C 342.869 172.422,343.809 173.200,345.000 173.200 C 345.358 173.200,346.098 173.730,346.643 174.379 C 348.414 176.483,352.486 175.659,354.108 172.867 C 355.187 171.011,356.364 170.827,357.526 172.333 L 358.483 173.574 360.041 172.779 C 361.822 171.871,361.802 171.935,360.994 169.571 C 360.359 167.713,359.856 167.303,355.600 165.179 C 354.390 164.575,352.780 163.433,352.022 162.641 C 350.335 160.878,348.734 160.755,345.827 162.163 C 342.946 163.558,342.596 163.284,342.776 159.774 C 342.833 158.675,342.647 157.971,342.203 157.603 C 341.337 156.884,340.272 154.800,340.771 154.800 C 341.714 154.800,343.122 155.759,343.757 156.834 C 344.970 158.889,348.122 158.574,355.387 155.671 C 365.325 151.700,367.151 149.727,362.635 147.841 C 361.504 147.368,360.690 146.496,358.106 142.984 C 356.525 140.836,356.968 134.111,358.804 132.396 L 359.963 131.314 358.779 130.103 C 357.105 128.391,355.999 128.307,353.108 129.675 C 351.749 130.317,349.089 131.383,347.197 132.044 C 345.304 132.705,343.225 133.679,342.578 134.209 L 341.400 135.171 343.450 135.186 C 344.577 135.194,346.265 134.930,347.200 134.600 C 351.219 133.182,353.154 133.916,353.500 136.992 C 353.751 139.216,352.935 140.619,351.166 141.007 C 350.473 141.160,348.638 141.807,347.088 142.446 C 340.906 144.995,337.818 144.610,336.288 141.098 C 334.888 137.884,334.909 137.675,336.700 136.963 C 337.525 136.636,338.868 136.081,339.685 135.730 L 341.170 135.092 340.242 134.362 C 339.732 133.960,338.524 131.810,337.557 129.582 C 336.219 126.499,335.219 124.886,333.363 122.823 C 330.343 119.465,326.425 113.635,326.328 112.356 C 326.287 111.802,327.055 110.161,328.154 108.456 C 330.454 104.887,330.408 104.723,326.784 103.623 C 324.172 102.829,323.396 102.774,318.382 103.029 L 312.857 103.309 309.929 101.913 C 308.318 101.144,306.460 100.386,305.800 100.227 C 299.673 98.751,305.463 95.518,312.200 96.654 C 313.300 96.839,315.636 96.942,317.391 96.882 C 319.788 96.800,320.896 96.941,321.839 97.449 C 324.281 98.764,325.362 96.944,323.300 94.990 C 321.724 93.496,320.185 92.770,318.696 92.815 C 315.309 92.919,314.668 91.807,317.346 90.470 C 318.977 89.655,319.600 88.958,319.600 87.947 C 319.600 87.203,316.972 86.503,313.200 86.242 C 308.018 85.883,307.849 85.845,307.448 84.969 C 306.744 83.429,301.988 80.810,299.884 80.805 C 296.561 80.796,294.120 79.190,294.782 77.448 C 295.247 76.224,294.989 76.007,292.200 75.276 C 288.057 74.189,285.087 73.901,282.600 74.344 C 281.280 74.580,278.310 74.883,276.000 75.019 C 273.690 75.155,270.784 75.521,269.542 75.833 C 268.301 76.145,266.866 76.400,266.354 76.400 C 265.842 76.400,263.708 76.923,261.611 77.563 C 259.515 78.203,256.720 78.935,255.400 79.190 C 249.634 80.304,246.283 81.411,241.400 83.816 C 238.540 85.225,234.950 86.664,233.421 87.016 C 231.893 87.367,229.588 88.272,228.300 89.027 C 227.011 89.782,225.864 90.400,225.751 90.400 C 225.637 90.400,224.792 90.915,223.872 91.545 C 221.293 93.312,219.188 94.283,214.093 96.058 C 206.230 98.798,201.128 101.825,194.000 107.979 C 192.790 109.024,190.720 110.740,189.400 111.793 C 185.268 115.090,183.952 116.523,182.723 119.067 C 181.885 120.800,180.587 122.443,178.356 124.593 C 175.676 127.176,174.910 128.226,173.444 131.327 C 172.104 134.161,171.215 135.446,169.554 136.954 C 157.148 148.208,155.156 150.709,159.946 149.019 C 162.924 147.968,167.480 148.105,169.850 149.315 C 173.172 151.013,172.973 151.854,169.082 152.566 C 167.155 152.918,166.696 154.004,167.043 157.391 C 167.276 159.661,167.202 160.040,166.250 161.441 C 165.417 162.667,165.200 163.462,165.200 165.293 C 165.200 168.022,164.892 168.140,162.454 166.347 C 160.970 165.256,160.622 165.153,159.756 165.547 C 157.503 166.574,154.798 165.503,151.600 162.318 C 149.658 160.384,140.823 155.728,137.200 154.729 C 130.933 153.002,130.539 152.481,132.117 148.025 C 132.713 146.342,133.652 142.220,134.202 138.866 C 135.589 130.415,138.353 125.271,145.145 118.498 C 149.021 114.633,150.773 111.619,153.422 104.256 C 154.704 100.693,157.563 95.398,159.378 93.226 C 161.527 90.655,161.715 87.182,159.951 82.685 C 158.679 79.443,158.910 75.365,160.587 71.443 C 161.350 69.659,162.228 67.120,162.540 65.800 C 162.852 64.480,163.486 62.451,163.951 61.292 C 164.415 60.132,164.904 58.152,165.037 56.892 C 165.808 49.607,166.988 46.000,168.600 46.000 C 170.247 46.000,170.402 46.732,170.810 56.452 C 171.735 78.453,171.640 77.565,173.144 78.370 C 173.695 78.665,174.534 78.425,176.612 77.379 C 178.120 76.621,179.643 76.000,179.997 76.000 C 180.830 76.000,181.600 75.219,181.600 74.375 C 181.600 73.264,184.010 68.271,185.109 67.104 C 186.255 65.889,186.228 65.812,184.332 64.865 C 181.940 63.670,181.827 62.866,181.015 41.400 C 180.890 38.100,180.615 31.710,180.405 27.200 C 180.194 22.690,180.014 15.130,180.005 10.400 C 179.987 0.918,179.875 -0.000,178.736 -0.000 C 177.994 -0.000,177.967 0.366,178.027 9.700 " stroke="gold"/>

</svg>