<?xml version="1.0" standalone="no"?>
<!DOCTYPE svg PUBLIC "-//W3C//DTD SVG 20010904//EN"
 "http://www.w3.org/TR/2001/REC-SVG-20010904/DTD/svg10.dtd">
<svg version="1.0" xmlns="http://www.w3.org/2000/svg"
 width="100%" height="100%" viewBox="0 0 327.000000 448.000000"
 preserveAspectRatio="xMidYMid meet">
<!-- <g transform="translate(0.000000,448.000000) scale(0.100000,-0.100000)"
fill="#1f1b17" stroke="none">
<path d="M1635 4240 l-1395 0 0 -2000 0 -2000 1395 0 1395 0 0 2000 0 2000
-1395 0z"/>
</g> -->
<g transform="translate(0.000000,448.000000) scale(0.100000,-0.100000)"
fill="#9f6a53" stroke="none">
<path d="M2399 4089 c-36 13 -65 15 -168 9 -88 -5 -146 -15 -200 -32 -42 -14
-99 -33 -128 -44 -29 -11 -65 -29 -80 -39 -15 -11 -49 -27 -75 -37 -25 -9 -52
-24 -58 -32 -7 -7 -18 -14 -24 -14 -6 0 -38 -26 -71 -58 -33 -31 -74 -75 -90
-97 -16 -22 -56 -71 -88 -110 -33 -38 -68 -80 -78 -92 -17 -21 -28 -23 -112
-23 -57 0 -97 -4 -105 -12 -6 -6 -33 -18 -59 -27 -36 -12 -49 -22 -51 -39 -2
-12 -13 -27 -25 -33 -12 -7 -30 -18 -40 -27 -16 -14 -16 -16 -1 -34 10 -10 24
-18 33 -18 9 0 33 -16 54 -35 20 -20 37 -44 37 -54 0 -13 -15 -27 -45 -42 -24
-12 -57 -35 -72 -51 -15 -15 -32 -28 -38 -28 -6 0 -45 -35 -88 -78 -42 -42
-77 -85 -77 -93 0 -9 -7 -22 -15 -29 -9 -7 -15 -29 -15 -52 0 -21 9 -55 19
-76 11 -20 33 -50 51 -67 17 -16 38 -42 46 -57 8 -15 14 -30 14 -34 0 -4 -15
-4 -34 -1 -28 4 -38 1 -60 -22 -14 -15 -26 -30 -26 -34 0 -4 9 -7 19 -7 11 0
23 -4 26 -10 3 -5 21 -10 39 -10 18 0 39 -6 48 -12 9 -7 19 -28 23 -45 4 -18
3 -33 -1 -33 -4 0 -16 8 -26 17 -17 15 -20 15 -34 1 -9 -9 -13 -21 -10 -27 4
-6 23 -11 41 -11 24 0 38 -6 45 -20 8 -15 17 -18 43 -13 17 3 36 9 40 13 4 4
5 15 1 24 -5 14 -9 15 -15 4 -6 -9 -9 -7 -9 8 0 12 -6 27 -14 33 -8 7 -26 34
-40 61 -14 27 -26 57 -26 67 0 13 8 9 34 -16 19 -19 40 -47 47 -63 6 -16 14
-26 17 -24 2 3 -7 24 -21 48 -14 24 -46 63 -71 87 l-46 45 22 23 c12 13 27 23
33 23 6 0 37 29 69 65 l57 65 72 0 c40 -1 108 -6 153 -13 45 -7 88 -18 97 -26
10 -7 17 -26 17 -41 0 -15 -9 -35 -20 -45 -11 -10 -20 -26 -20 -35 0 -9 30
-51 66 -94 l67 -77 71 4 c39 3 82 7 96 9 24 3 25 1 24 -48 -1 -35 -10 -63 -27
-91 -14 -22 -39 -52 -57 -66 -18 -15 -44 -27 -60 -27 -15 0 -33 -7 -40 -15 -7
-9 -21 -13 -31 -10 -9 3 -20 1 -24 -5 -3 -5 1 -13 9 -16 9 -3 16 -13 16 -21 0
-13 -3 -13 -15 -3 -8 7 -15 9 -15 4 0 -5 15 -38 32 -74 18 -36 40 -69 48 -75
8 -5 19 -10 23 -10 4 0 12 -6 17 -14 7 -12 11 -12 24 -2 12 10 18 9 35 -8 10
-10 21 -30 24 -43 l4 -23 8 22 c4 12 13 24 20 27 8 3 17 -4 20 -15 4 -12 16
-30 26 -40 10 -10 19 -26 19 -34 0 -8 6 -15 14 -15 8 0 12 8 9 23 -3 17 0 24
12 24 11 0 15 -6 12 -19 -3 -10 -1 -16 4 -12 5 3 9 -5 9 -16 0 -14 -8 -24 -21
-27 -14 -4 -19 -12 -17 -27 2 -13 12 -22 26 -24 15 -2 22 2 22 13 0 9 4 14 9
10 5 -3 12 -1 15 4 4 5 2 12 -4 16 -5 3 -10 15 -10 25 0 13 5 17 15 14 8 -4
18 -25 22 -47 5 -33 8 -37 14 -22 6 15 8 16 8 4 1 -9 10 -24 21 -34 11 -10 30
-23 42 -29 12 -6 28 -25 37 -43 9 -17 23 -34 32 -36 12 -3 18 -19 21 -53 2
-27 2 -61 0 -76 -2 -15 -8 -25 -13 -22 -5 3 -9 1 -9 -5 0 -5 -3 -17 -7 -27 -5
-13 -3 -15 7 -9 10 6 12 -4 8 -49 -3 -31 -1 -56 3 -56 5 0 6 -8 2 -17 -5 -16
-4 -15 9 1 8 10 20 16 26 12 7 -4 12 -18 12 -32 0 -15 -6 -24 -15 -24 -8 0
-15 -7 -15 -15 0 -8 1 -18 3 -22 1 -4 10 -6 20 -5 9 2 17 -2 17 -8 0 -6 10
-10 22 -8 13 2 29 15 36 31 10 21 17 26 25 18 6 -6 19 -11 29 -11 13 0 18 8
18 28 0 24 4 28 29 30 20 1 34 -4 41 -15 8 -14 9 -9 5 25 -6 34 -4 42 9 42 13
0 16 12 16 60 0 33 -2 60 -5 60 -2 0 -11 -12 -19 -27 -11 -20 -15 -23 -16 -10
0 9 -7 17 -16 17 -14 0 -16 8 -11 49 4 33 14 58 31 76 14 15 26 40 27 54 1 15
7 1 15 -34 8 -33 22 -66 32 -73 9 -7 23 -27 29 -45 l13 -32 -1 35 c-1 19 -1
45 0 58 1 13 6 20 11 17 6 -3 10 0 10 8 0 8 10 18 23 22 12 4 29 6 38 6 8 -1
28 12 45 28 16 17 32 31 37 31 4 0 7 -7 7 -15 0 -8 7 -15 15 -15 10 0 15 -10
15 -27 0 -14 7 -43 16 -63 10 -21 28 -41 45 -49 19 -8 29 -20 30 -34 1 -19 3
-18 14 8 l14 30 11 -33 c7 -17 17 -32 22 -32 6 0 8 14 5 35 -3 19 -1 37 4 41
5 3 17 0 26 -8 9 -7 23 -28 30 -47 l15 -34 12 24 c10 20 10 29 -1 52 -8 15
-18 25 -23 22 -6 -4 -10 -1 -10 5 0 6 -4 9 -9 6 -5 -3 -11 11 -15 32 -3 20 -6
52 -6 70 0 18 -4 40 -9 50 -5 9 -12 25 -15 35 -3 10 -14 17 -23 16 -10 0 -25
-1 -34 0 -10 1 -19 13 -23 32 l-6 30 -30 -18 c-16 -9 -30 -20 -30 -23 0 -3
-19 -4 -42 -2 -24 2 -51 11 -60 20 -11 9 -18 29 -18 49 0 25 4 33 18 33 11 0
33 7 51 16 17 9 38 26 46 37 7 12 17 34 20 49 4 16 22 36 43 50 21 12 45 26
55 30 9 4 21 18 27 32 5 13 14 27 19 31 6 3 11 19 11 36 0 18 7 33 19 41 14 8
17 16 10 24 -6 7 -2 20 12 38 11 14 27 26 35 26 8 0 26 7 39 16 13 8 40 31 61
50 20 19 56 44 80 56 l44 20 0 418 0 418 -57 36 c-32 20 -62 36 -68 36 -5 0
-30 14 -55 30 -35 23 -52 29 -74 24 -17 -4 -38 -16 -48 -28 -9 -11 -17 -26
-18 -32 0 -6 -9 -19 -19 -28 -19 -17 -18 -18 19 -52 23 -21 48 -34 64 -34 15
0 40 -10 56 -22 17 -12 30 -26 30 -30 0 -5 10 -22 21 -38 12 -16 19 -35 16
-44 -3 -8 -18 -16 -33 -18 -15 -2 -30 -10 -35 -18 -4 -8 -13 -30 -19 -47 -7
-18 -18 -33 -25 -33 -7 0 -19 -9 -26 -21 -8 -11 -29 -22 -49 -25 -19 -3 -54
-21 -77 -40 -23 -19 -52 -34 -65 -34 -14 0 -37 -13 -53 -30 -15 -16 -44 -35
-64 -42 -20 -6 -78 -11 -130 -11 -70 1 -97 5 -109 17 -9 8 -14 17 -11 19 2 1
29 21 59 44 30 22 70 56 88 74 18 18 38 42 44 53 8 17 5 15 -19 -6 -16 -16
-32 -28 -35 -28 -3 0 -4 9 -1 20 3 11 1 20 -4 20 -6 0 -18 -10 -29 -21 -10
-12 -45 -39 -78 -60 -32 -22 -77 -48 -100 -58 -22 -10 -65 -24 -94 -31 -29 -7
-56 -9 -59 -6 -4 3 -1 6 5 6 7 0 12 5 12 10 0 6 -25 10 -55 10 -50 0 -55 -2
-47 -17 5 -10 7 -24 5 -30 -3 -7 -11 -13 -19 -13 -8 0 -32 11 -55 25 -35 23
-38 27 -25 41 14 13 12 18 -20 46 -19 17 -43 47 -53 67 -11 20 -24 54 -30 76
-7 27 -8 60 0 110 5 38 14 79 19 90 4 11 16 45 25 75 9 30 30 84 47 120 17 36
47 82 66 103 20 20 40 37 44 37 4 0 8 -7 8 -15 0 -10 11 -15 33 -16 17 0 54 0
80 1 34 1 55 -4 68 -16 10 -9 19 -28 19 -42 0 -14 -17 -43 -40 -69 -22 -25
-40 -49 -40 -54 0 -4 -16 -31 -35 -60 -19 -30 -35 -57 -35 -61 0 -5 6 -8 13
-8 8 0 22 9 32 20 13 14 31 20 60 20 41 0 43 1 64 50 12 28 24 50 27 50 3 0 3
-12 -1 -28 -5 -26 -4 -27 34 -27 35 0 40 3 51 33 10 29 15 32 48 31 20 -2 43
-7 49 -12 8 -5 41 -6 78 -2 53 5 66 4 71 -9 3 -8 12 -12 20 -9 10 3 14 -2 14
-20 0 -13 -7 -44 -15 -67 -8 -23 -15 -47 -15 -52 0 -6 11 -3 25 6 14 9 25 15
25 14 0 -2 -7 -21 -15 -43 -8 -22 -14 -48 -15 -58 0 -9 11 -22 25 -29 19 -8
28 -8 40 2 8 7 15 19 15 27 0 8 -12 25 -26 38 l-25 23 23 36 c13 20 26 36 30
36 4 0 12 -9 18 -19 6 -13 17 -17 30 -14 11 3 20 1 20 -5 0 -6 10 -26 23 -45
12 -20 33 -37 47 -40 14 -3 29 -2 34 3 4 4 5 13 1 19 -3 6 -37 38 -74 70 -38
32 -74 60 -80 62 -7 3 -9 12 -6 22 4 9 11 14 16 11 6 -3 16 0 24 6 8 7 15 27
15 44 0 17 5 38 10 46 5 8 10 11 10 6 0 -6 6 -3 13 6 6 8 34 21 60 28 26 7 52
21 57 31 6 10 10 36 10 58 0 22 5 43 11 46 5 4 18 0 28 -9 16 -14 16 -22 5
-73 -12 -57 -11 -58 15 -80 14 -13 33 -23 42 -23 9 0 27 -8 40 -18 13 -10 36
-26 52 -35 l27 -17 0 243 0 244 -62 21 c-35 11 -90 26 -123 32 -33 7 -76 16
-95 20 -19 4 -60 15 -90 23 -30 8 -84 17 -120 21 -50 5 -69 11 -81 28 -9 11
-36 28 -60 37z"/>
<!-- <path d="M1290 3770 c-5 0 -10 -7 -10 -16 0 -8 5 -12 10 -9 6 3 10 10 10 16 0
5 -4 9 -10 9z"/> -->
<path d="M1845 3550 c-2 0 -22 -37 -44 -81 -31 -61 -41 -93 -41 -130 0 -26 5
-51 11 -54 5 -4 18 0 28 9 10 9 23 42 29 74 6 31 13 85 16 120 3 34 4 62 1 62z"/>
<!-- <path d="M2055 3270 c-3 0 -5 -2 -5 -5 0 -3 2 -5 5 -5 3 0 5 2 5 5 0 3 -2 5
-5 5z"/> -->
<!-- <path d="M2645 3130 c-3 0 -5 -2 -5 -5 0 -3 2 -5 5 -5 3 0 5 2 5 5 0 3 -2 5
-5 5z"/> -->
<!-- <path d="M2290 3120 c-5 0 -10 -4 -10 -10 0 -5 5 -10 10 -10 6 0 10 5 10 10 0
6 -4 10 -10 10z"/> -->
<!-- <path d="M2489 3120 c-10 0 -19 -4 -19 -9 0 -5 7 -12 16 -15 9 -3 20 -3 25 0
5 3 7 10 4 15 -4 5 -15 9 -26 9z"/> -->
<!-- <path d="M2578 3110 c-21 0 -38 -2 -38 -4 0 -2 11 -6 24 -8 14 -3 31 -1 38 3
8 6 -1 9 -24 9z"/> -->
<!-- <path d="M685 3080 c-3 0 -5 -2 -5 -5 0 -3 2 -5 5 -5 3 0 5 2 5 5 0 3 -2 5 -5
5z"/> -->
<!-- <path d="M2095 2949 c-5 -1 -25 -5 -42 -10 -18 -5 -33 -14 -33 -19 0 -6 3 -10
8 -10 4 1 23 9 42 20 19 11 31 19 25 19z"/> -->
<!-- <path d="M1845 2930 c-3 0 -5 -2 -5 -5 0 -3 2 -5 5 -5 3 0 5 2 5 5 0 3 -2 5
-5 5z"/> -->
<!-- <path d="M1825 2920 c-3 0 -5 -2 -5 -5 0 -3 2 -5 5 -5 3 0 5 2 5 5 0 3 -2 5
-5 5z"/> -->
<!-- <path d="M1855 2910 c-3 0 -5 -2 -5 -5 0 -3 2 -5 5 -5 3 0 5 2 5 5 0 3 -2 5
-5 5z"/> -->
<!-- <path d="M647 2797 c-4 3 -7 0 -7 -7 0 -7 3 -10 7 -7 3 4 3 10 0 14z"/> -->
<!-- <path d="M664 2740 c-3 0 2 -13 11 -29 8 -17 19 -33 25 -36 5 -3 1 10 -11 29
-12 20 -23 36 -25 36z"/> -->
<path d="M721 2465 c-7 16 -10 9 -16 -30 -7 -46 -14 -57 -97 -141 l-89 -91 -6
-119 -5 -119 -64 -65 c-53 -54 -65 -74 -74 -115 -6 -28 -13 -62 -16 -76 -3
-15 -30 -51 -60 -80 l-54 -53 0 -109 c0 -89 3 -108 14 -104 7 3 23 -1 34 -9
19 -13 22 -12 42 16 17 24 29 30 59 30 20 0 42 5 49 12 7 7 12 36 12 64 0 29
4 56 10 59 6 3 10 33 10 66 0 56 2 60 20 54 19 -6 20 -2 20 70 0 48 4 74 10
70 6 -3 10 -24 10 -46 0 -21 4 -39 9 -39 5 0 16 -3 24 -6 12 -4 17 3 20 28 3
18 4 -6 3 -54 0 -47 2 -84 6 -82 3 2 17 0 30 -5 21 -8 21 -10 5 -16 -15 -6
-16 -10 -5 -16 8 -6 9 -12 3 -16 -5 -5 -11 -16 -11 -25 -1 -10 1 -18 5 -18 4
0 17 7 30 16 19 14 22 23 18 54 -3 27 0 43 12 56 15 17 15 17 -1 5 -16 -12
-18 -11 -18 13 0 19 8 30 25 38 17 8 24 17 20 28 -3 11 1 20 10 24 9 3 13 10
10 16 -3 5 3 10 14 10 12 0 21 -4 21 -9 0 -5 -6 -12 -12 -14 -10 -4 -10 -8 1
-15 9 -7 11 -19 6 -41 -4 -17 -11 -31 -15 -31 -5 0 -15 -10 -21 -22 -12 -22
-12 -22 15 -5 20 13 26 14 26 4 0 -8 -3 -17 -7 -21 -5 -4 -9 -12 -9 -17 -1 -5
-2 -10 -4 -11 -1 -2 -3 -11 -5 -20 -2 -10 3 -18 10 -18 8 0 17 5 20 10 3 6 13
10 22 10 9 0 25 8 35 17 16 14 24 15 49 6 17 -7 37 -9 45 -6 8 3 14 9 14 14 0
4 8 13 19 18 12 7 31 7 56 0 28 -8 44 -8 60 1 13 7 33 9 46 5 13 -4 36 -12 52
-18 21 -9 27 -18 26 -42 0 -26 -2 -27 -9 -10 -7 17 -9 14 -9 -13 -1 -18 -6
-42 -11 -52 -6 -11 -28 -24 -50 -30 -22 -6 -40 -14 -40 -18 0 -4 -12 -9 -26
-10 -15 -1 -33 -7 -40 -13 -11 -9 -14 -7 -15 7 0 11 -3 14 -6 7 -2 -7 -11 -13
-19 -13 -8 0 -21 14 -28 30 -7 17 -16 27 -19 23 -4 -4 -17 -8 -29 -10 -12 -2
-25 2 -29 9 -5 7 -6 23 -3 35 3 12 3 27 -1 33 -5 8 -12 8 -23 -2 -10 -7 -27
-19 -39 -25 -12 -7 -29 -10 -37 -7 -8 3 -17 1 -21 -5 -3 -6 -1 -11 6 -11 7 0
5 -8 -7 -22 -10 -12 -13 -18 -6 -14 8 5 12 0 12 -16 0 -13 -3 -33 -6 -44 -3
-12 -25 -31 -50 -43 -24 -13 -42 -26 -39 -31 3 -5 -3 -13 -12 -19 -10 -6 -13
-11 -7 -11 5 0 15 5 21 11 6 6 16 8 23 4 6 -4 9 -14 6 -22 -3 -8 -1 -11 4 -8
6 3 10 2 10 -4 0 -5 -6 -12 -12 -14 -7 -3 -3 -6 10 -6 12 -1 22 -5 22 -11 0
-5 -12 -10 -26 -10 -14 0 -23 -4 -19 -10 3 -5 12 -7 19 -4 8 3 17 1 20 -5 4
-6 -7 -17 -24 -26 -16 -8 -30 -18 -30 -20 0 -2 8 -2 18 2 15 6 15 4 -2 -15
-13 -15 -15 -22 -6 -22 7 0 10 -3 7 -7 -4 -3 1 -12 11 -19 16 -12 16 -13 0
-14 -9 0 -20 -5 -24 -12 -4 -6 -3 -9 2 -6 5 3 18 2 29 -3 19 -7 19 -8 -3 -8
-12 -1 -25 -8 -28 -16 -4 -8 -11 -12 -17 -8 -5 3 -7 1 -3 -5 3 -5 0 -13 -6
-16 -7 -3 -4 -4 7 -3 15 1 20 -4 21 -25 1 -19 -7 -33 -24 -44 l-24 -16 28 -29
c28 -29 28 -31 13 -58 -16 -28 -16 -29 10 -29 14 0 41 8 59 19 l32 18 -6 -23
c-4 -19 0 -27 25 -39 22 -11 31 -12 31 -4 0 7 4 6 10 -3 9 -13 10 -13 10 0 0
11 3 10 12 -4 10 -18 11 -18 29 5 15 20 19 21 19 7 0 -10 5 -18 11 -18 5 0 7
-4 4 -10 -3 -5 -3 -15 0 -20 5 -8 11 -7 21 1 11 9 14 8 14 -2 1 -8 7 -3 15 11
7 14 17 23 22 20 4 -3 9 7 11 22 2 14 9 31 16 38 10 8 15 7 20 -5 3 -8 2 -15
-3 -15 -5 0 -11 -11 -13 -25 -3 -14 0 -29 7 -35 8 -6 15 -6 23 2 9 9 12 7 12
-10 0 -12 4 -21 9 -20 5 2 16 -6 24 -16 8 -10 19 -16 25 -12 5 3 13 24 17 45
4 22 13 45 21 52 7 6 21 9 29 5 11 -4 19 3 26 20 5 15 19 39 30 55 12 17 25
26 34 22 8 -3 15 -1 15 5 0 6 9 8 21 5 18 -5 20 -11 15 -43 -4 -28 -2 -39 9
-44 8 -3 15 0 15 7 0 7 9 18 20 25 11 7 20 22 20 33 0 12 5 19 13 16 6 -2 11
-15 9 -28 -2 -13 -3 -37 -3 -53 0 -16 2 -31 5 -33 3 -3 9 -2 15 1 5 4 9 41 7
86 -1 44 0 80 2 80 3 0 11 -8 18 -18 7 -9 14 -34 14 -54 0 -21 5 -38 10 -38 6
0 10 4 10 8 0 5 7 9 16 9 10 0 14 -7 10 -19 -3 -14 0 -18 9 -14 7 2 21 -4 31
-15 10 -11 18 -35 18 -54 1 -19 4 -35 9 -35 4 0 7 16 7 36 0 31 2 35 15 24 12
-10 16 -9 21 4 4 11 -2 26 -15 40 -11 12 -21 27 -21 33 0 6 6 14 13 17 9 3 7
9 -5 19 -10 8 -19 25 -20 38 -2 19 1 24 17 22 11 -1 29 -3 40 -6 11 -2 26 -15
32 -28 7 -13 13 -18 13 -11 0 8 6 6 19 -5 10 -10 31 -28 46 -41 22 -18 30 -20
37 -10 7 10 11 9 19 -4 5 -10 14 -18 19 -18 6 0 10 9 10 20 0 11 7 20 15 20 8
0 15 4 15 9 0 5 -3 17 -6 25 -5 12 -10 14 -19 6 -8 -7 -17 -4 -30 10 -16 18
-16 20 -1 26 9 3 23 1 31 -6 12 -10 15 -10 15 0 0 8 -8 22 -17 33 -17 18 -17
20 5 37 12 10 22 25 22 34 0 9 3 15 8 14 4 -2 8 -1 10 2 2 3 -1 18 -7 33 -6
16 -11 31 -11 34 0 3 15 3 34 1 31 -3 33 -2 25 14 -5 10 -14 18 -20 18 -5 0
-19 21 -29 46 -14 32 -25 44 -35 40 -11 -4 -13 1 -8 27 3 18 9 37 13 42 4 6
10 26 14 45 4 19 8 44 10 55 3 11 5 29 5 40 1 17 3 17 11 5 7 -12 10 -8 11 15
0 26 2 27 9 10 8 -19 9 -19 9 3 1 12 -4 22 -9 22 -6 0 -19 -6 -31 -12 -18 -12
-24 -9 -49 20 -17 17 -33 32 -38 32 -4 0 -15 9 -25 20 -9 11 -17 23 -17 27 0
4 -10 22 -23 40 -12 18 -28 33 -35 33 -7 0 -20 4 -30 9 -9 5 -37 19 -62 32
-25 12 -52 26 -60 30 -8 4 -33 15 -55 24 -22 10 -53 27 -70 39 -16 12 -43 28
-59 36 -21 11 -63 15 -155 14 -69 0 -148 -5 -175 -12 -27 -7 -69 -23 -94 -37
-24 -14 -46 -25 -48 -25 -2 0 -4 18 -4 39 0 35 6 44 53 84 38 34 69 49 116 62
42 11 87 15 125 12 34 -3 84 -9 111 -15 28 -6 83 -21 123 -35 40 -14 79 -33
88 -41 8 -9 18 -16 22 -16 4 0 29 -21 55 -45 26 -25 52 -45 56 -45 5 0 16 3
25 6 9 3 16 10 16 15 0 5 -17 17 -38 28 -21 10 -63 45 -95 77 -56 57 -57 58
-57 116 0 32 -4 58 -10 58 -5 0 -10 -11 -10 -25 0 -17 -4 -23 -14 -19 -8 3
-17 1 -21 -5 -3 -6 -12 -11 -20 -11 -7 0 -27 11 -43 25 -17 14 -41 25 -55 25
-14 0 -28 4 -32 9 -3 5 -19 12 -36 16 -17 4 -33 13 -36 21 -3 8 -13 14 -24 14
-10 0 -22 7 -27 16 -8 14 -10 14 -21 0 -7 -8 -19 -12 -27 -9 -8 3 -30 -7 -49
-21 -22 -17 -48 -27 -72 -28 -21 0 -44 -5 -50 -11 -7 -5 -13 -6 -13 -1 0 5
-16 -24 -35 -64 -19 -40 -39 -72 -46 -72 -6 0 -9 9 -6 20 3 11 0 20 -6 20 -7
0 -5 5 3 10 13 9 13 10 0 10 -11 1 -8 6 9 20 13 11 18 20 12 20 -6 0 -8 7 -4
17 4 10 20 30 35 45 16 15 32 28 36 28 4 0 13 9 20 21 8 12 9 18 3 14 -6 -3
-11 -2 -11 4 0 5 6 12 13 14 7 3 5 6 -5 6 -10 1 -15 7 -13 14 3 7 -3 18 -13
25 -17 13 -15 17 31 62 46 46 47 49 26 55 -17 6 -19 9 -8 17 10 6 7 8 -11 6
-14 -2 -24 -9 -23 -16 2 -6 -4 -12 -13 -12 -10 0 -14 -6 -10 -15 3 -10 -1 -15
-12 -16 -9 -1 -23 -1 -29 0 -10 1 -10 -5 -3 -24 6 -15 10 -28 10 -31 0 -2 -7
-4 -15 -4 -8 0 -12 -6 -10 -12 2 -7 6 -33 8 -57 4 -36 1 -44 -14 -48 -11 -3
-19 -9 -19 -14 0 -5 -7 -9 -16 -9 -12 0 -14 -7 -9 -31 5 -21 3 -34 -6 -39 -9
-6 -8 -12 6 -26 17 -17 17 -18 -11 -28 -16 -5 -36 -14 -45 -20 -9 -6 -16 -15
-15 -21 0 -5 -7 -11 -16 -13 -13 -2 -18 3 -18 17 0 12 6 21 12 21 7 0 2 7 -10
16 -20 14 -22 23 -22 106 0 89 0 91 35 129 29 32 35 47 35 83 0 25 5 48 10 51
6 3 10 27 9 53 0 26 -4 56 -8 67z"/>
<!-- <path d="M999 2400 c-12 0 -19 -5 -17 -12 3 -7 12 -14 21 -16 10 -2 17 3 17
12 0 10 -9 16 -21 16z"/> -->
<!-- <path d="M965 2300 c-3 0 -5 -2 -5 -5 0 -3 2 -5 5 -5 3 0 5 2 5 5 0 3 -2 5 -5
5z"/> -->
<!-- <path d="M995 2290 c-3 0 -5 -2 -5 -5 0 -3 2 -5 5 -5 3 0 5 2 5 5 0 3 -2 5 -5
5z"/> -->
<!-- <path d="M1105 2290 c-3 0 -5 -2 -5 -5 0 -3 2 -5 5 -5 3 0 5 2 5 5 0 3 -2 5
-5 5z"/> -->
<!-- <path d="M1066 2280 c-3 0 -12 -7 -20 -16 -9 -8 -16 -17 -16 -20 0 -2 9 1 20
8 11 7 20 16 20 20 0 5 -2 8 -4 8z"/> -->
<!-- <path d="M978 2269 c-2 0 -13 -5 -25 -11 -12 -6 -24 -17 -27 -25 -4 -9 4 -7
24 7 17 12 30 23 30 26 0 2 -1 4 -2 3z"/> -->
<!-- <path d="M1031 2210 c-6 0 -13 -4 -16 -10 -3 -5 1 -10 9 -10 9 0 16 5 16 10 0
6 -4 10 -9 10z"/> -->
<!-- <path d="M1219 2204 c-3 3 -11 -5 -18 -17 -13 -21 -12 -21 5 -5 10 10 16 20
13 22z"/> -->
<!-- <path d="M935 2200 c-3 0 -5 -2 -5 -5 0 -3 2 -5 5 -5 3 0 5 2 5 5 0 3 -2 5 -5
5z"/> -->
<!-- <path d="M1065 2200 c-3 0 -5 -2 -5 -5 0 -3 2 -5 5 -5 3 0 5 2 5 5 0 3 -2 5
-5 5z"/> -->
<!-- <path d="M990 2190 c-7 0 -10 -3 -7 -7 4 -3 10 -3 14 0 3 4 0 7 -7 7z"/> -->
<!-- <path d="M1390 2170 c-5 0 -10 -10 -10 -22 0 -19 2 -20 10 -8 5 8 10 18 10 23
0 4 -4 7 -10 7z"/> -->
<!-- <path d="M1006 2160 c-3 0 -8 -5 -12 -12 -4 -7 -3 -8 4 -4 7 4 12 9 12 12 0 2
-2 4 -4 4z"/> -->
<!-- <path d="M956 2150 c-3 0 -8 -5 -12 -12 -4 -7 -3 -8 4 -4 7 4 12 9 12 12 0 2
-2 4 -4 4z"/> -->
<!-- <path d="M1270 2138 c-14 0 -19 -2 -12 -5 6 -2 18 -2 25 0 6 3 1 5 -13 5z"/> -->
<!-- <path d="M1409 2135 c-5 5 -9 -5 -9 -28 0 -20 5 -37 10 -37 6 0 11 6 11 13 1
6 0 19 -1 27 -1 8 -6 19 -11 25z"/> -->
<!-- <path d="M985 2130 c-3 0 -5 -2 -5 -5 0 -3 2 -5 5 -5 3 0 5 2 5 5 0 3 -2 5 -5
5z"/> -->
<!-- <path d="M1250 2123 c-12 3 -20 0 -20 -8 0 -8 8 -11 20 -8 11 3 20 7 20 8 0 1
-9 5 -20 8z"/> -->
<!-- <path d="M1335 2130 c-3 0 -5 -2 -5 -5 0 -3 2 -5 5 -5 3 0 5 2 5 5 0 3 -2 5
-5 5z"/> -->
<!-- <path d="M2625 2080 c-3 0 -5 -2 -5 -5 0 -3 2 -5 5 -5 3 0 5 2 5 5 0 3 -2 5
-5 5z"/> -->
<!-- <path d="M2720 2040 c-7 0 -10 -3 -7 -7 4 -3 10 -3 14 0 3 4 0 7 -7 7z"/> -->
<!-- <path d="M1570 2005 c-5 3 -10 -1 -10 -9 0 -8 5 -18 10 -21 6 -3 10 1 10 9 0
8 -4 18 -10 21z"/> -->
<!-- <path d="M2636 2003 c-3 9 -5 9 -5 0 -1 -6 -4 -20 -7 -30 -5 -17 -5 -17 6 0 6
10 9 23 6 30z"/> -->
<!-- <path d="M1537 1973 c-3 6 -5 1 -5 -13 0 -14 2 -19 5 -12 2 6 2 18 0 25z"/> -->
<!-- <path d="M2767 1977 c-4 3 -7 0 -7 -7 0 -7 3 -10 7 -7 3 4 3 10 0 14z"/> -->
<!-- <path d="M1595 1950 c-9 0 -18 -7 -21 -15 -3 -8 -2 -19 2 -26 5 -9 11 -7 21 6
7 11 13 22 13 27 0 4 -7 8 -15 8z"/> -->
<!-- <path d="M1637 1943 c-3 6 -5 1 -5 -13 0 -14 2 -19 5 -12 2 6 2 18 0 25z"/> -->
<!-- <path d="M1677 1947 c-4 3 -7 0 -7 -7 0 -7 3 -10 7 -7 3 4 3 10 0 14z"/> -->
<!-- <path d="M2465 1950 c-3 0 -5 -2 -5 -5 0 -3 2 -5 5 -5 3 0 5 2 5 5 0 3 -2 5
-5 5z"/>
<path d="M2485 1940 c-3 0 -5 -2 -5 -5 0 -3 2 -5 5 -5 3 0 5 2 5 5 0 3 -2 5
-5 5z"/>
<path d="M1675 1853 c-16 22 -16 21 -9 -8 4 -16 11 -40 15 -52 5 -13 11 -23
15 -23 4 0 4 14 0 31 -3 16 -13 40 -21 52z"/>
<path d="M1730 1840 c-7 0 -10 -3 -7 -7 4 -3 10 -3 14 0 3 4 0 7 -7 7z"/>
<path d="M1775 1840 c-2 0 -7 -11 -11 -24 -3 -14 -1 -33 5 -43 8 -15 10 -10
11 25 0 23 -2 42 -5 42z"/>
<path d="M2790 1825 c-5 3 -16 -5 -25 -18 -12 -19 -13 -30 -4 -55 6 -18 16
-32 21 -32 6 0 8 12 5 30 -4 17 -2 30 3 30 6 0 10 9 10 19 0 11 -4 22 -10 26z"/>
<path d="M1747 1813 c-3 6 -5 1 -5 -13 0 -14 2 -19 5 -12 2 6 2 18 0 25z"/>
<path d="M1915 1800 c-10 9 -15 9 -15 1 0 -6 0 -12 1 -13 0 -2 -4 -15 -9 -29
-6 -14 -7 -32 -2 -39 7 -11 11 -11 24 -1 9 8 16 26 16 41 0 15 -7 33 -15 40z"/>
<path d="M2945 1770 c-3 0 -5 -2 -5 -5 0 -3 2 -5 5 -5 3 0 5 2 5 5 0 3 -2 5
-5 5z"/>
<path d="M1796 1760 c-2 0 -10 -8 -17 -17 -8 -9 -9 -14 -2 -10 7 4 13 0 16
-10 3 -11 5 -8 6 10 0 15 -1 27 -3 27z"/>
<path d="M1735 1700 c-3 0 -5 -2 -5 -5 0 -3 2 -5 5 -5 3 0 5 2 5 5 0 3 -2 5
-5 5z"/>
<path d="M2907 1677 c-4 3 -7 0 -7 -7 0 -7 3 -10 7 -7 3 4 3 10 0 14z"/>
<path d="M2835 1670 c-3 0 -5 -2 -5 -5 0 -3 2 -5 5 -5 3 0 5 2 5 5 0 3 -2 5
-5 5z"/>
<path d="M1897 1628 c-3 9 -5 1 -5 -18 0 -19 2 -27 5 -17 2 9 2 25 0 35z"/>
<path d="M2915 1640 c-3 0 -5 -2 -5 -5 0 -3 2 -5 5 -5 3 0 5 2 5 5 0 3 -2 5
-5 5z"/>
<path d="M2830 1625 c-6 4 -10 -3 -10 -14 0 -12 2 -21 4 -21 2 0 6 7 9 15 4 8
2 17 -3 20z"/>
<path d="M1828 1584 c-2 10 -8 13 -16 7 -9 -5 -10 -14 -3 -32 8 -20 10 -21 16
-7 4 9 5 24 3 32z"/>
<path d="M697 1587 c-4 3 -7 0 -7 -7 0 -7 3 -10 7 -7 3 4 3 10 0 14z"/>
<path d="M1065 1570 c-3 0 -5 -2 -5 -5 0 -3 2 -5 5 -5 3 0 5 2 5 5 0 3 -2 5
-5 5z"/>
<path d="M1915 1570 c-3 0 -5 -2 -5 -5 0 -3 2 -5 5 -5 3 0 5 2 5 5 0 3 -2 5
-5 5z"/>
<path d="M2320 1570 c-5 0 -10 -10 -10 -22 0 -19 2 -20 10 -8 5 8 10 18 10 23
0 4 -4 7 -10 7z"/>
<path d="M2876 1558 c-18 16 -18 16 -6 -6 6 -13 14 -21 18 -18 3 4 -2 14 -12
24z"/>
<path d="M2287 1543 c-3 6 -5 1 -5 -13 0 -14 2 -19 5 -12 2 6 2 18 0 25z"/>
<path d="M1070 1535 c-5 3 -10 0 -9 -7 1 -7 5 -24 9 -38 8 -24 8 -24 9 7 1 17
-3 35 -9 38z"/>
<path d="M2583 1540 c-7 0 -13 -6 -13 -13 0 -8 8 -21 18 -30 14 -13 20 -13 35
-3 9 7 17 18 17 23 0 6 -10 13 -22 17 -13 3 -29 6 -35 6z"/>
<path d="M1940 1525 c-5 3 -10 0 -11 -7 0 -7 -2 -21 -4 -30 -2 -9 3 -19 11
-22 10 -4 14 3 14 24 0 16 -4 32 -10 35z"/>
<path d="M2891 1503 c-10 9 -11 8 -5 -6 3 -10 9 -15 12 -12 3 3 0 11 -7 18z"/>
<path d="M648 1486 c-2 10 -13 -5 -26 -36 -16 -37 -20 -56 -13 -63 8 -8 11 -8
11 0 0 6 8 10 17 9 12 -1 19 7 21 23 2 14 11 35 19 48 9 13 13 26 10 30 -4 3
-9 -2 -13 -11 -3 -9 -10 -16 -14 -16 -5 0 -10 7 -12 16z"/>
<path d="M2785 1490 c-3 0 -5 -2 -5 -5 0 -3 2 -5 5 -5 3 0 5 2 5 5 0 3 -2 5
-5 5z"/>
<path d="M1026 1477 c-3 4 -6 -2 -5 -13 0 -11 3 -14 6 -6 3 7 2 16 -1 19z"/>
<path d="M2285 1480 c-3 0 -5 -2 -5 -5 0 -3 2 -5 5 -5 3 0 5 2 5 5 0 3 -2 5
-5 5z"/>
<path d="M2601 1443 c-10 9 -11 8 -5 -6 3 -10 9 -15 12 -12 3 3 0 11 -7 18z"/>
<path d="M1925 1440 c-3 0 -5 -2 -5 -5 0 -3 2 -5 5 -5 3 0 5 2 5 5 0 3 -2 5
-5 5z"/>
<path d="M2800 1440 c-4 0 -5 -11 -2 -25 2 -14 8 -28 13 -31 5 -3 9 -2 9 3 0
4 -3 18 -6 31 -4 12 -10 22 -14 22z"/>
<path d="M2315 1430 c-3 0 -5 -2 -5 -5 0 -3 2 -5 5 -5 3 0 5 2 5 5 0 3 -2 5
-5 5z"/>
<path d="M1937 1397 c-4 3 -7 0 -7 -7 0 -7 3 -10 7 -7 3 4 3 10 0 14z"/>
<path d="M675 1380 c-3 0 -5 -2 -5 -5 0 -3 2 -5 5 -5 3 0 5 2 5 5 0 3 -2 5 -5
5z"/>
<path d="M2417 1375 c-5 6 -6 2 -3 -8 3 -10 6 -28 6 -38 0 -11 4 -18 10 -14 5
3 7 12 3 20 -3 8 0 15 5 15 6 0 13 -8 16 -17 3 -11 4 -7 3 7 -1 15 -8 25 -17
25 -8 0 -19 5 -23 10z"/>
<path d="M640 1367 c-13 1 -16 -4 -13 -18 3 -11 10 -18 16 -16 6 2 11 10 12
18 2 8 -5 16 -15 16z"/>
<path d="M2555 1370 c-3 0 -5 -2 -5 -5 0 -3 2 -5 5 -5 3 0 5 2 5 5 0 3 -2 5
-5 5z"/>
<path d="M2691 1363 c-10 9 -11 8 -5 -6 3 -10 9 -15 12 -12 3 3 0 11 -7 18z"/>
<path d="M2355 1360 c-3 0 -5 -2 -5 -5 0 -3 2 -5 5 -5 3 0 5 2 5 5 0 3 -2 5
-5 5z"/>
<path d="M1870 1350 c-5 0 -10 -4 -10 -10 0 -5 5 -10 10 -10 6 0 10 5 10 10 0
6 -4 10 -10 10z"/>
<path d="M2865 1330 c-3 0 -5 -2 -5 -5 0 -3 2 -5 5 -5 3 0 5 2 5 5 0 3 -2 5
-5 5z"/>
<path d="M2566 1317 c-3 4 -6 -2 -5 -13 0 -11 3 -14 6 -6 3 7 2 16 -1 19z"/>
<path d="M1967 1307 c-4 3 -7 0 -7 -7 0 -7 3 -10 7 -7 3 4 3 10 0 14z"/>
<path d="M2746 1307 c-3 4 -6 -2 -5 -13 0 -11 3 -14 6 -6 3 7 2 16 -1 19z"/>
<path d="M2347 1297 c-4 3 -7 0 -7 -7 0 -7 3 -10 7 -7 3 4 3 10 0 14z"/>
<path d="M2095 1290 c-3 0 -5 -2 -5 -5 0 -3 2 -5 5 -5 3 0 5 2 5 5 0 3 -2 5
-5 5z"/>
<path d="M1927 1277 c-4 3 -7 0 -7 -7 0 -7 3 -10 7 -7 3 4 3 10 0 14z"/>
<path d="M1967 1267 c-4 3 -7 0 -7 -7 0 -7 3 -10 7 -7 3 4 3 10 0 14z"/>
<path d="M2015 1230 c-7 0 -21 -7 -29 -16 -9 -8 -16 -17 -16 -18 0 -2 11 -1
24 1 14 3 27 11 30 19 3 8 -1 14 -9 14z"/>
<path d="M2245 1220 c-3 0 -5 -2 -5 -5 0 -3 2 -5 5 -5 3 0 5 2 5 5 0 3 -2 5
-5 5z"/>
<path d="M615 1210 c-3 0 -5 -2 -5 -5 0 -3 2 -5 5 -5 3 0 5 2 5 5 0 3 -2 5 -5
5z"/>
<path d="M2675 1210 c-3 0 -5 -2 -5 -5 0 -3 2 -5 5 -5 3 0 5 2 5 5 0 3 -2 5
-5 5z"/>
<path d="M2090 1195 c-5 3 -10 2 -10 -4 0 -5 5 -13 10 -16 6 -3 10 -2 10 4 0
5 -4 13 -10 16z"/>
<path d="M2440 1199 c-10 0 -8 -3 5 -9 11 -5 25 -9 30 -9 6 0 3 4 -5 9 -8 5
-22 9 -30 9z"/>
<path d="M2574 1190 c-3 0 -2 -4 1 -10 3 -5 8 -10 11 -10 3 0 2 5 -1 10 -3 6
-8 10 -11 10z"/>
<path d="M1925 1180 c-3 0 -5 -2 -5 -5 0 -3 2 -5 5 -5 3 0 5 2 5 5 0 3 -2 5
-5 5z"/>
<path d="M2495 1180 c-3 0 -5 -2 -5 -5 0 -3 2 -5 5 -5 3 0 5 2 5 5 0 3 -2 5
-5 5z"/>
<path d="M1875 1170 c-3 0 -5 -2 -5 -5 0 -3 2 -5 5 -5 3 0 5 2 5 5 0 3 -2 5
-5 5z"/>
<path d="M1990 1170 c-5 0 -10 -4 -10 -10 0 -5 5 -10 10 -10 6 0 10 5 10 10 0
6 -4 10 -10 10z"/>
<path d="M2245 1170 c-3 0 -5 -2 -5 -5 0 -3 2 -5 5 -5 3 0 5 2 5 5 0 3 -2 5
-5 5z"/>
<path d="M2314 1150 c-2 0 -4 -7 -4 -16 0 -8 5 -12 10 -9 6 4 8 11 5 16 -4 5
-8 9 -11 9z"/>
<path d="M2505 1150 c-3 0 -5 -2 -5 -5 0 -3 2 -5 5 -5 3 0 5 2 5 5 0 3 -2 5
-5 5z"/>
<path d="M605 1140 c-3 0 -5 -2 -5 -5 0 -3 2 -5 5 -5 3 0 5 2 5 5 0 3 -2 5 -5
5z"/>
<path d="M2040 1128 c-25 2 -48 0 -52 -3 -3 -4 -20 -7 -37 -7 -23 -1 -30 -5
-26 -15 3 -8 5 -18 5 -22 0 -4 11 -7 25 -6 14 0 30 7 35 15 6 9 25 15 50 15
21 0 41 5 42 10 2 6 -17 11 -42 13z"/>
<path d="M2343 1130 c-2 0 -6 -7 -9 -15 -3 -8 -4 -20 -2 -27 3 -7 7 -1 10 15
3 15 3 27 1 27z"/>
<path d="M2845 1110 c-3 0 -5 -2 -5 -5 0 -3 2 -5 5 -5 3 0 5 2 5 5 0 3 -2 5
-5 5z"/>
<path d="M2045 1090 c-3 0 -5 -2 -5 -5 0 -3 2 -5 5 -5 3 0 5 2 5 5 0 3 -2 5
-5 5z"/>
<path d="M2080 1061 l-21 24 16 -32 c8 -18 18 -33 20 -33 3 0 5 4 5 9 0 5 -9
19 -20 32z"/>
<path d="M2446 1077 c-3 4 -6 -2 -5 -13 0 -11 3 -14 6 -6 3 7 2 16 -1 19z"/>
<path d="M2015 1060 c-14 0 -14 -3 2 -24 10 -13 20 -20 21 -15 2 5 1 16 -2 24
-3 8 -12 15 -21 15z"/>
<path d="M1877 1028 c-16 3 -17 1 -8 -17 6 -11 16 -23 22 -27 7 -4 9 2 7 17
-2 13 -11 25 -21 27z"/>
<path d="M2474 1020 c-3 0 -2 -4 1 -10 3 -5 8 -10 11 -10 3 0 2 5 -1 10 -3 6
-8 10 -11 10z"/>
<path d="M1969 990 c-5 0 -9 -2 -9 -4 0 -2 7 -7 16 -10 8 -3 12 -2 9 4 -3 6
-10 10 -16 10z"/>
<path d="M2086 990 c-5 0 -3 -7 4 -15 10 -12 6 -13 -24 -8 -21 3 -36 2 -36 -4
0 -6 15 -16 33 -23 17 -8 40 -20 49 -28 10 -8 25 -11 38 -7 20 6 19 9 -17 46
-21 21 -42 39 -47 39z"/>
<path d="M1868 971 c-14 7 -20 6 -24 -5 -3 -9 3 -27 14 -41 14 -17 22 -21 25
-13 3 8 6 6 6 -5 1 -10 5 -15 11 -12 5 3 18 1 29 -5 11 -5 22 -6 25 -2 3 5 -2
19 -10 31 -8 12 -19 19 -24 16 -4 -3 -13 2 -21 11 -7 8 -21 20 -31 25z"/>
<path d="M2005 970 c-3 0 -5 -2 -5 -5 0 -3 2 -5 5 -5 3 0 5 2 5 5 0 3 -2 5 -5
5z"/>
<path d="M2304 970 c-2 0 -4 -2 -4 -4 0 -2 8 -10 18 -17 15 -13 16 -12 3 4 -7
9 -15 17 -17 17z"/>
<path d="M2580 938 c-14 0 -19 -2 -12 -5 6 -2 18 -2 25 0 6 3 1 5 -13 5z"/>
<path d="M1624 920 c-3 0 -2 -4 1 -10 3 -5 8 -10 11 -10 3 0 2 5 -1 10 -3 6
-8 10 -11 10z"/>
<path d="M645 870 c-3 0 -5 -2 -5 -5 0 -3 2 -5 5 -5 3 0 5 2 5 5 0 3 -2 5 -5
5z"/>
<path d="M1268 836 c-3 14 -5 12 -10 -9 -3 -19 -2 -25 4 -19 6 6 8 18 6 28z"/>
<path d="M1885 850 c-3 0 -5 -2 -5 -5 0 -3 2 -5 5 -5 3 0 5 2 5 5 0 3 -2 5 -5
5z"/>
<path d="M1670 830 c-10 0 -20 -7 -23 -14 -4 -9 7 -29 23 -45 15 -17 34 -31
40 -31 9 0 11 10 6 32 -3 17 -11 37 -17 45 -6 7 -19 13 -29 13z"/>
<path d="M1916 806 c-13 17 -15 18 -21 2 -4 -9 -4 -22 0 -28 3 -5 13 -10 21
-10 8 0 14 4 14 8 0 5 -6 17 -14 28z"/>
<path d="M1757 807 c-4 3 -7 0 -7 -7 0 -7 3 -10 7 -7 3 4 3 10 0 14z"/>
<path d="M1376 797 c-3 4 -6 -2 -5 -13 0 -11 3 -14 6 -6 3 7 2 16 -1 19z"/>
<path d="M2164 800 c-3 0 -2 -4 1 -10 3 -5 8 -10 11 -10 3 0 2 5 -1 10 -3 6
-8 10 -11 10z"/>
<path d="M676 770 c-3 0 -8 -5 -12 -12 -4 -7 -3 -8 4 -4 7 4 12 9 12 12 0 2
-2 4 -4 4z"/>
<path d="M1255 757 c-13 17 -14 17 -21 0 -3 -10 -2 -23 4 -29 8 -8 15 -8 27 2
8 7 15 18 14 24 0 6 -3 6 -6 -2 -4 -10 -8 -8 -18 5z"/>
<path d="M1337 767 c-4 3 -7 0 -7 -7 0 -7 3 -10 7 -7 3 4 3 10 0 14z"/>
<path d="M772 740 c-4 0 -13 -9 -20 -21 -7 -12 -10 -24 -7 -27 4 -4 13 2 21
12 8 11 14 23 14 28 0 4 -3 8 -8 8z"/>
<path d="M995 730 c-3 0 -5 -2 -5 -5 0 -3 2 -5 5 -5 3 0 5 2 5 5 0 3 -2 5 -5
5z"/>
<path d="M999 693 c-11 3 -19 1 -19 -3 0 -5 -13 -17 -30 -27 -17 -10 -30 -26
-30 -37 0 -18 1 -18 19 -2 19 17 20 17 23 -11 3 -27 4 -26 29 23 25 49 25 53
8 57z"/>
<path d="M1187 683 c-3 6 -5 -1 -5 -18 0 -16 2 -22 5 -12 2 9 2 23 0 30z"/>
<path d="M1895 690 c-3 0 -5 -2 -5 -5 0 -3 2 -5 5 -5 3 0 5 2 5 5 0 3 -2 5 -5
5z"/>
<path d="M700 665 c-6 3 -10 -5 -10 -19 0 -14 5 -28 10 -31 6 -3 10 5 10 19 0
14 -4 28 -10 31z"/>
<path d="M1027 627 c-4 3 -7 0 -7 -7 0 -7 3 -10 7 -7 3 4 3 10 0 14z"/>
<path d="M1015 590 c-10 0 -15 -10 -15 -32 l1 -33 14 25 c8 14 14 28 15 33 0
4 -7 7 -15 7z"/> -->
</g>
<g transform="translate(0.000000,448.000000) scale(0.100000,-0.100000)"
fill="#f2e2c5" stroke="none">
<path d="M940 4240 l-700 0 0 -1332 0 -1332 53 52 c41 40 56 64 65 100 6 26
14 61 17 79 4 19 21 45 41 63 19 16 45 30 58 30 16 0 26 7 30 23 3 12 6 64 6
116 0 82 3 96 20 111 20 17 20 19 3 35 -16 17 -16 18 2 31 11 8 37 14 57 12
23 -1 38 -7 38 -14 0 -7 5 -16 11 -20 6 -3 22 6 35 21 13 16 24 36 24 47 0 10
-4 18 -10 18 -5 0 -10 10 -10 23 0 13 4 27 10 33 5 5 12 64 16 132 4 67 9 120
12 117 3 -3 11 0 19 7 7 6 17 8 21 4 4 -4 7 -13 7 -19 0 -8 22 -13 58 -15 47
-2 57 0 57 13 0 9 -6 18 -12 20 -7 2 -33 9 -57 15 -23 6 -40 14 -37 17 3 3
-14 16 -37 28 -32 17 -48 35 -69 76 -15 30 -29 79 -33 109 -3 30 -1 80 5 110
6 30 32 98 59 150 26 52 64 120 84 151 19 30 61 78 91 107 31 28 82 66 114 85
31 19 76 40 100 46 23 7 42 16 42 21 0 6 27 10 59 10 33 0 63 -4 66 -10 3 -5
-4 -10 -16 -10 -12 0 -38 -17 -60 -39 -26 -28 -49 -42 -76 -46 -21 -3 -54 -9
-73 -13 -29 -6 -35 -12 -36 -32 0 -14 -3 -31 -7 -37 -4 -6 8 -20 29 -32 19
-12 48 -21 65 -21 16 0 30 -4 31 -10 0 -5 1 -14 2 -19 1 -5 -35 -28 -79 -51
-52 -28 -112 -72 -176 -131 -59 -55 -106 -107 -118 -133 -12 -23 -21 -53 -21
-66 0 -23 0 -23 21 4 12 15 29 26 38 25 9 -1 24 1 34 6 11 4 23 3 30 -4 6 -6
23 -11 38 -11 15 0 32 7 39 15 7 8 18 15 25 15 7 0 18 7 25 15 7 8 24 15 38
15 18 0 39 14 68 46 24 25 44 58 46 72 2 18 10 28 23 30 11 2 38 11 60 21 22
10 52 21 67 25 18 4 30 15 34 32 3 13 19 31 34 39 15 8 30 21 33 28 3 9 21 15
47 15 23 1 47 5 53 9 7 5 35 8 62 7 28 -1 58 -2 68 -3 11 -1 17 -10 18 -28 0
-16 3 -22 6 -15 2 6 9 12 14 12 5 0 9 -12 9 -27 0 -16 7 -57 14 -93 10 -46 11
-69 3 -81 -8 -14 -5 -27 17 -60 16 -23 43 -56 60 -72 17 -16 54 -40 81 -53 28
-13 62 -24 78 -24 15 0 27 5 27 10 0 6 -12 10 -26 10 -15 0 -53 15 -85 32 -33
18 -59 38 -59 44 0 6 3 14 7 17 3 4 13 1 22 -7 9 -7 31 -18 50 -25 19 -6 52
-10 75 -10 l41 1 -48 8 c-27 5 -68 18 -92 29 -23 11 -56 36 -73 56 -16 21 -39
68 -51 108 -12 40 -21 89 -21 110 0 21 -5 47 -11 59 -8 15 -8 32 1 65 6 25 26
75 44 112 19 36 41 81 51 98 9 18 20 35 25 38 5 3 11 1 15 -5 3 -5 10 -10 14
-10 4 0 32 30 62 68 29 37 53 70 52 73 -1 4 23 27 55 51 31 24 89 63 128 86
38 23 76 42 84 42 10 0 11 -3 3 -11 -6 -6 -9 -17 -7 -24 3 -7 -8 -22 -24 -34
-17 -11 -35 -21 -41 -21 -6 0 -29 -11 -51 -25 -22 -14 -80 -66 -130 -117 -65
-67 -90 -99 -90 -118 0 -14 -9 -45 -20 -69 -11 -24 -20 -49 -20 -57 0 -8 6
-14 14 -14 8 0 18 10 21 23 4 12 17 36 29 52 12 17 37 55 55 85 18 30 54 76
79 103 34 35 54 47 75 47 17 0 45 10 64 21 24 15 38 18 45 11 7 -7 0 -32 -27
-84 -20 -40 -45 -80 -55 -88 -10 -8 -25 -27 -34 -41 -9 -14 -14 -33 -11 -41 3
-8 -13 -48 -35 -89 -22 -40 -46 -78 -53 -84 -7 -5 -18 -22 -26 -37 -7 -15 -11
-34 -7 -43 4 -12 13 -15 29 -11 12 3 32 6 44 6 15 0 27 10 37 33 8 17 36 79
62 137 25 58 65 148 88 200 24 52 55 114 70 138 20 33 32 42 49 40 18 -2 23
-12 29 -53 4 -27 12 -84 19 -125 6 -41 13 -85 15 -98 5 -22 8 -23 62 -16 31 4
60 12 64 18 4 6 8 22 8 36 0 14 4 30 8 37 4 6 13 13 21 15 10 2 14 -8 15 -37
1 -33 5 -41 24 -43 12 -2 22 -10 22 -19 0 -9 15 -28 33 -44 17 -15 35 -29 38
-31 3 -1 19 8 36 22 l31 24 -25 24 c-22 20 -30 22 -51 13 -13 -7 -26 -10 -27
-9 -1 2 -9 18 -19 37 -9 19 -15 36 -13 37 2 2 15 -8 30 -21 14 -14 31 -25 36
-25 6 0 36 12 68 26 l58 26 -30 10 c-16 6 -40 19 -51 30 -18 16 -30 18 -73 12
-43 -6 -51 -4 -51 10 0 9 -5 16 -12 16 -6 0 -8 3 -4 7 4 4 35 13 69 20 48 10
63 10 69 0 6 -9 10 -8 18 3 5 8 10 21 10 28 0 6 -5 12 -10 12 -6 0 -27 -7 -47
-15 -19 -8 -44 -15 -54 -15 -12 0 -24 12 -33 33 -7 17 -34 55 -59 82 -26 28
-47 56 -47 63 0 6 5 12 10 12 6 0 10 4 10 9 0 4 -30 11 -66 14 -36 2 -70 9
-75 14 -6 6 -5 22 2 41 6 18 17 32 25 32 8 0 14 4 14 10 0 6 -18 7 -46 3 -36
-5 -45 -3 -43 8 1 8 -1 28 -6 44 -4 17 -13 33 -19 37 -6 4 -27 8 -47 8 -20 0
-62 -5 -95 -12 -32 -6 -63 -17 -67 -24 -4 -8 -25 -13 -52 -12 -26 0 -61 -8
-87 -21 -25 -11 -49 -21 -54 -21 -6 0 -22 -6 -37 -12 -15 -7 -27 -18 -27 -24
0 -6 -23 -16 -50 -22 -28 -7 -74 -27 -103 -45 -29 -19 -80 -62 -114 -96 -35
-35 -63 -67 -63 -72 0 -5 -27 -40 -60 -78 -33 -39 -60 -72 -60 -76 0 -3 17 -2
39 1 24 4 41 2 45 -5 4 -6 3 -11 -3 -11 -5 0 -8 -15 -5 -34 2 -19 0 -38 -6
-41 -5 -3 -10 -16 -10 -28 0 -15 -3 -18 -11 -10 -6 6 -18 9 -25 6 -8 -3 -34
11 -58 31 -25 20 -65 45 -90 56 -25 10 -46 24 -46 29 0 5 5 13 10 16 6 3 10
20 10 36 0 16 9 47 20 69 11 22 20 45 20 53 0 7 10 19 23 26 13 7 41 51 70
111 26 55 47 108 47 118 0 10 12 29 27 41 14 13 36 24 49 24 13 0 39 17 64 43
30 31 37 44 25 44 -9 0 -15 6 -13 13 3 6 13 14 24 15 10 2 25 11 32 20 6 9 12
19 12 24 0 4 -315 8 -700 8z"/>
<path d="M2542 3440 c-10 11 -22 17 -25 13 -4 -3 -7 -23 -7 -43 0 -20 -5 -51
-11 -69 -6 -18 -8 -35 -4 -39 4 -4 17 6 30 22 13 16 26 44 30 63 4 24 1 38
-13 53z"/>
<path d="M1736 3437 c-2 3 -9 -4 -14 -14 -5 -10 -15 -42 -22 -71 -7 -29 -10
-56 -6 -59 3 -3 8 0 10 8 3 8 12 40 21 73 9 32 14 60 11 63z"/>
<!-- <path d="M2755 3380 c-3 0 -5 -2 -5 -5 0 -3 2 -5 5 -5 3 0 5 2 5 5 0 3 -2 5
-5 5z"/> -->
<!-- <path d="M2567 3357 c-3 2 -12 -10 -21 -28 -9 -18 -14 -34 -12 -37 3 -2 12 10
21 28 9 18 14 34 12 37z"/>
<path d="M1687 3247 c-4 3 -7 0 -7 -7 0 -7 3 -10 7 -7 3 4 3 10 0 14z"/>
<path d="M2655 3130 c-3 0 -5 -2 -5 -5 0 -3 2 -5 5 -5 3 0 5 2 5 5 0 3 -2 5
-5 5z"/> -->
<!-- <path d="M2535 3110 c-3 0 -5 -2 -5 -5 0 -3 2 -5 5 -5 3 0 5 2 5 5 0 3 -2 5
-5 5z"/> -->
<path d="M2320 3044 c-4 3 -39 -19 -79 -49 -40 -30 -97 -63 -125 -74 -28 -10
-66 -22 -83 -26 -18 -3 -33 -11 -33 -16 0 -5 16 -9 36 -9 22 0 68 15 110 35
40 19 97 57 126 84 29 27 51 52 48 55z"/>
<!-- <path d="M2004 2919 c-11 0 -14 -3 -6 -6 7 -3 16 -2 19 1 4 3 -2 6 -13 5z"/> -->
<!-- <path d="M1921 2890 c-4 0 -11 -3 -14 -7 -4 -3 -7 -10 -7 -15 0 -4 14 -8 30
-8 17 0 30 4 30 9 0 5 -7 12 -16 15 -9 3 -19 6 -23 6z"/> -->
<!-- <path d="M1746 2800 c-3 0 -8 -4 -11 -10 -3 -5 -1 -10 4 -10 6 0 11 5 11 10 0
6 -2 10 -4 10z"/> -->
<path d="M1866 2675 c-46 1 -56 -1 -56 -15 0 -9 -10 -21 -22 -27 -13 -6 -31
-14 -40 -17 -10 -3 -18 -14 -18 -25 0 -11 5 -23 10 -26 6 -3 10 -16 10 -28 0
-14 -11 -29 -27 -39 -16 -9 -41 -27 -56 -40 -25 -22 -27 -27 -17 -50 10 -20 9
-32 -3 -59 -8 -19 -18 -50 -21 -71 -6 -32 -3 -39 27 -65 19 -15 38 -39 42 -52
4 -14 17 -33 29 -43 11 -11 33 -24 48 -29 20 -8 28 -19 33 -50 4 -21 12 -40
18 -40 7 -1 18 -1 25 0 7 1 12 -9 12 -24 0 -15 4 -24 10 -20 6 3 10 15 10 27
0 16 5 19 21 15 12 -3 28 0 36 9 8 7 11 18 8 24 -3 6 -4 19 0 29 3 10 15 21
25 24 13 3 20 14 20 30 0 15 15 38 43 64 23 23 48 48 55 57 6 8 12 29 12 45 0
16 6 36 14 44 8 7 16 25 18 38 1 13 13 28 26 34 13 6 22 18 22 32 0 13 6 23
14 23 8 0 18 -5 21 -10 4 -6 11 -8 16 -5 5 4 9 13 9 20 0 8 -13 21 -29 29 -16
9 -31 24 -34 36 -4 15 -13 20 -37 20 -19 0 -45 11 -68 29 -20 16 -48 32 -62
36 -14 4 -39 21 -57 37 -27 26 -41 31 -87 33z"/>
<!-- <path d="M901 2330 c-11 0 -21 -9 -25 -22 -3 -14 0 -29 9 -37 12 -12 18 -11
47 7 20 13 27 22 17 22 -9 0 -19 7 -23 15 -3 8 -14 15 -25 15z"/> -->
<!-- <path d="M1107 2277 c-4 3 -7 0 -7 -7 0 -7 3 -10 7 -7 3 4 3 10 0 14z"/>
<path d="M857 2269 c-8 0 -8 -2 1 -6 10 -4 9 -9 -5 -20 -17 -13 -16 -13 5 -3
12 6 20 15 17 21 -4 5 -12 9 -18 8z"/>
<path d="M1067 2248 c-3 9 -5 1 -5 -18 0 -19 2 -27 5 -17 2 9 2 25 0 35z"/>
<path d="M926 2240 c-2 0 -10 -8 -17 -17 -13 -16 -12 -17 4 -4 9 7 17 15 17
17 0 2 -2 4 -4 4z"/> -->
<path d="M622 2200 c-5 0 -12 -10 -16 -22 -3 -13 -6 -42 -6 -66 0 -29 -5 -45
-15 -48 -9 -4 -15 -19 -15 -39 0 -20 6 -35 15 -38 8 -4 23 5 35 20 14 18 20
41 20 79 0 29 -4 55 -9 58 -4 3 -6 17 -3 31 2 14 0 25 -6 25z"/>
<!-- <path d="M925 2190 c-3 0 -5 -2 -5 -5 0 -3 2 -5 5 -5 3 0 5 2 5 5 0 3 -2 5 -5
5z"/>
<path d="M976 2170 c-3 0 -8 -5 -12 -12 -4 -7 -3 -8 4 -4 7 4 12 9 12 12 0 2
-2 4 -4 4z"/>
<path d="M1015 2170 c-3 0 -5 -2 -5 -5 0 -3 2 -5 5 -5 3 0 5 2 5 5 0 3 -2 5
-5 5z"/>
<path d="M828 2130 c-16 0 -28 -4 -28 -10 0 -5 6 -10 13 -10 6 0 19 5 27 10
12 8 9 10 -12 10z"/> -->
<path d="M1079 2096 c-17 0 -35 -6 -40 -12 -5 -6 -20 -9 -33 -7 -13 3 -36 -3
-50 -12 -16 -11 -26 -13 -26 -6 0 7 -10 5 -26 -5 -14 -9 -32 -30 -40 -46 -9
-17 -14 -32 -12 -34 3 -2 14 6 27 17 14 13 26 18 34 12 7 -5 28 -10 47 -12 26
-1 42 5 63 24 15 14 27 23 27 20 0 -3 14 8 30 23 17 16 30 32 30 34 0 3 -14 5
-31 4z"/>
<!-- <path d="M860 2090 c-7 0 -10 -3 -7 -7 4 -3 10 -3 14 0 3 4 0 7 -7 7z"/>
<path d="M1200 2070 c-5 0 -10 -4 -10 -10 0 -5 5 -10 10 -10 6 0 10 5 10 10 0
6 -4 10 -10 10z"/>
<path d="M765 2050 c-3 0 -5 -2 -5 -5 0 -3 2 -5 5 -5 3 0 5 2 5 5 0 3 -2 5 -5
5z"/>
<path d="M1405 2050 c-3 0 -5 -2 -5 -5 0 -3 2 -5 5 -5 3 0 5 2 5 5 0 3 -2 5
-5 5z"/>
<path d="M838 2029 c-2 -1 -21 -5 -43 -9 l-40 -7 37 -2 c20 0 40 4 43 9 3 6 5
9 3 9z"/>
<path d="M1567 2027 c-4 3 -7 0 -7 -7 0 -7 3 -10 7 -7 3 4 3 10 0 14z"/>
<path d="M1527 2007 c-4 3 -7 0 -7 -7 0 -7 3 -10 7 -7 3 4 3 10 0 14z"/>
<path d="M1617 1986 c-3 3 -10 -4 -17 -15 -7 -15 -7 -21 0 -21 6 0 13 7 17 15
3 9 3 18 0 21z"/>
<path d="M1711 1983 c-10 9 -11 8 -5 -6 3 -10 9 -15 12 -12 3 3 0 11 -7 18z"/>
<path d="M1766 1977 c-3 4 -6 -2 -5 -13 0 -11 3 -14 6 -6 3 7 2 16 -1 19z"/>
<path d="M700 1968 c-14 0 -19 -2 -12 -5 6 -2 18 -2 25 0 6 3 1 5 -13 5z"/>
<path d="M1726 1947 c-3 4 -6 -2 -5 -13 0 -11 3 -14 6 -6 3 7 2 16 -1 19z"/>
<path d="M1815 1950 c-3 0 -5 -2 -5 -5 0 -3 2 -5 5 -5 3 0 5 2 5 5 0 3 -2 5
-5 5z"/>
<path d="M1585 1940 c-3 0 -5 -2 -5 -5 0 -3 2 -5 5 -5 3 0 5 2 5 5 0 3 -2 5
-5 5z"/> -->
<!-- <path d="M1720 1899 c-11 0 -10 -2 3 -10 11 -6 25 -25 32 -42 12 -29 13 -29
20 -8 5 16 0 27 -17 41 -13 11 -30 19 -38 19z"/> -->
<!-- <path d="M2615 1900 c-3 0 -5 -2 -5 -5 0 -3 2 -5 5 -5 3 0 5 2 5 5 0 3 -2 5
-5 5z"/>
<path d="M701 1890 c-6 0 -13 -4 -16 -10 -3 -6 1 -7 9 -4 9 3 16 8 16 10 0 2
-4 4 -9 4z"/>
<path d="M2327 1887 c-4 3 -7 0 -7 -7 0 -7 3 -10 7 -7 3 4 3 10 0 14z"/>
<path d="M2917 1868 c-3 9 -5 1 -5 -18 0 -19 2 -27 5 -17 2 9 2 25 0 35z"/>
<path d="M765 1870 c-3 0 -5 -2 -5 -5 0 -3 2 -5 5 -5 3 0 5 2 5 5 0 3 -2 5 -5
5z"/>
<path d="M1725 1850 c-3 0 -5 -2 -5 -5 0 -3 2 -5 5 -5 3 0 5 2 5 5 0 3 -2 5
-5 5z"/>
<path d="M1735 1830 c-3 0 -5 -2 -5 -5 0 -3 2 -5 5 -5 3 0 5 2 5 5 0 3 -2 5
-5 5z"/>
<path d="M1845 1830 c-3 0 -5 -2 -5 -5 0 -3 2 -5 5 -5 3 0 5 2 5 5 0 3 -2 5
-5 5z"/>
<path d="M2711 1823 c-10 9 -11 8 -5 -6 3 -10 9 -15 12 -12 3 3 0 11 -7 18z"/>
<path d="M670 1820 c-7 0 -10 -3 -7 -7 4 -3 10 -3 14 0 3 4 0 7 -7 7z"/> -->
<path d="M1115 1816 c-27 1 -63 -1 -80 -6 -16 -4 -51 -8 -76 -9 -32 -1 -55 -8
-75 -23 -16 -13 -41 -36 -56 -53 -16 -16 -31 -40 -34 -52 -3 -12 -3 -26 0 -31
3 -6 15 -8 26 -5 11 3 20 13 20 23 0 10 6 23 13 29 8 6 16 8 19 5 3 -3 28 -6
54 -8 27 -1 54 1 59 5 6 3 26 9 45 13 19 4 44 7 55 6 11 0 43 -1 72 -2 32 0
59 4 69 13 16 13 17 12 12 -8 -4 -15 -2 -23 7 -23 7 0 15 6 17 12 3 7 11 13
19 14 8 0 29 2 47 2 18 1 32 7 32 15 0 7 -9 18 -20 24 -10 7 -26 10 -35 7 -11
-5 -18 0 -22 15 -3 11 -9 21 -13 21 -5 0 -10 -6 -13 -12 -3 -10 -7 -10 -18 -1
-8 6 -28 15 -44 19 -17 4 -52 8 -80 10z"/>
<!-- <path d="M1905 1780 c-3 0 -5 -2 -5 -5 0 -3 2 -5 5 -5 3 0 5 2 5 5 0 3 -2 5
-5 5z"/>
<path d="M692 1764 c-5 3 -15 -1 -22 -9 -7 -9 -10 -18 -6 -22 3 -4 14 0 22 9
10 9 12 18 6 22z"/>
<path d="M1777 1757 c-4 3 -7 0 -7 -7 0 -7 3 -10 7 -7 3 4 3 10 0 14z"/>
<path d="M765 1740 c-3 0 -5 -2 -5 -5 0 -3 2 -5 5 -5 3 0 5 2 5 5 0 3 -2 5 -5
5z"/>
<path d="M697 1730 c-2 0 -15 -13 -30 -28 -15 -16 -24 -31 -21 -35 4 -3 11 0
18 6 6 7 17 23 24 35 7 12 11 22 9 22z"/>
<path d="M735 1720 c-3 0 -5 -2 -5 -5 0 -3 2 -5 5 -5 3 0 5 2 5 5 0 3 -2 5 -5
5z"/>
<path d="M2207 1713 c-3 6 -5 1 -5 -13 0 -14 2 -19 5 -12 2 6 2 18 0 25z"/>
<path d="M715 1710 c-3 0 -5 -2 -5 -5 0 -3 2 -5 5 -5 3 0 5 2 5 5 0 3 -2 5 -5
5z"/>
<path d="M2837 1687 c-4 3 -7 0 -7 -7 0 -7 3 -10 7 -7 3 4 3 10 0 14z"/>
<path d="M2917 1657 c-4 3 -7 0 -7 -7 0 -7 3 -10 7 -7 3 4 3 10 0 14z"/>
<path d="M1895 1650 c-3 0 -5 -2 -5 -5 0 -3 2 -5 5 -5 3 0 5 2 5 5 0 3 -2 5
-5 5z"/>
<path d="M2337 1647 c-4 3 -7 0 -7 -7 0 -7 3 -10 7 -7 3 4 3 10 0 14z"/>
<path d="M1827 1633 c-3 6 -5 1 -5 -13 0 -14 2 -19 5 -12 2 6 2 18 0 25z"/>
<path d="M2785 1620 c-3 0 -5 -2 -5 -5 0 -3 2 -5 5 -5 3 0 5 2 5 5 0 3 -2 5
-5 5z"/>
<path d="M656 1600 c-3 0 -8 -5 -12 -12 -4 -7 -3 -8 4 -4 7 4 12 9 12 12 0 2
-2 4 -4 4z"/>
<path d="M705 1600 c-3 0 -5 -2 -5 -5 0 -3 2 -5 5 -5 3 0 5 2 5 5 0 3 -2 5 -5
5z"/>
<path d="M2795 1600 c-3 0 -5 -2 -5 -5 0 -3 2 -5 5 -5 3 0 5 2 5 5 0 3 -2 5
-5 5z"/>
<path d="M2327 1587 c-4 3 -7 0 -7 -7 0 -7 3 -10 7 -7 3 4 3 10 0 14z"/>
<path d="M886 1577 c-3 4 -6 -2 -5 -13 0 -11 3 -14 6 -6 3 7 2 16 -1 19z"/>
<path d="M965 1580 c-3 0 -5 -2 -5 -5 0 -3 2 -5 5 -5 3 0 5 2 5 5 0 3 -2 5 -5
5z"/>
<path d="M1067 1557 c-4 3 -7 0 -7 -7 0 -7 3 -10 7 -7 3 4 3 10 0 14z"/>
<path d="M2377 1547 c-4 3 -7 0 -7 -7 0 -7 3 -10 7 -7 3 4 3 10 0 14z"/> -->
<!-- <path d="M785 1537 c-7 0 -17 -9 -24 -19 -9 -15 -8 -20 4 -24 14 -6 13 -8 -2
-19 -10 -8 -15 -16 -11 -20 3 -4 2 -21 -2 -38 l-9 -32 30 35 c24 28 27 36 14
38 -11 3 -13 8 -7 15 5 7 11 24 14 38 3 16 0 26 -7 26z"/>
<path d="M957 1537 c-4 3 -7 0 -7 -7 0 -7 3 -10 7 -7 3 4 3 10 0 14z"/>
<path d="M1887 1517 c-4 3 -7 0 -7 -7 0 -7 3 -10 7 -7 3 4 3 10 0 14z"/>
<path d="M2885 1520 c-3 0 -5 -2 -5 -5 0 -3 2 -5 5 -5 3 0 5 2 5 5 0 3 -2 5
-5 5z"/>
<path d="M966 1507 c-3 4 -6 -2 -5 -13 0 -11 3 -14 6 -6 3 7 2 16 -1 19z"/>
<path d="M1025 1510 c-3 0 -5 -2 -5 -5 0 -3 2 -5 5 -5 3 0 5 2 5 5 0 3 -2 5
-5 5z"/>
<path d="M2286 1507 c-3 4 -6 -2 -5 -13 0 -11 3 -14 6 -6 3 7 2 16 -1 19z"/>
<path d="M1985 1490 c-3 0 -5 -2 -5 -5 0 -3 2 -5 5 -5 3 0 5 2 5 5 0 3 -2 5
-5 5z"/>
<path d="M1937 1467 c-4 3 -7 0 -7 -7 0 -7 3 -10 7 -7 3 4 3 10 0 14z"/>
<path d="M2795 1450 c-3 0 -5 -2 -5 -5 0 -3 2 -5 5 -5 3 0 5 2 5 5 0 3 -2 5
-5 5z"/>
<path d="M626 1420 c-3 0 -8 -5 -12 -12 -4 -7 -3 -8 4 -4 7 4 12 9 12 12 0 2
-2 4 -4 4z"/>
<path d="M2325 1420 c-3 0 -5 -2 -5 -5 0 -3 2 -5 5 -5 3 0 5 2 5 5 0 3 -2 5
-5 5z"/>
<path d="M2335 1400 c-3 0 -5 -2 -5 -5 0 -3 2 -5 5 -5 3 0 5 2 5 5 0 3 -2 5
-5 5z"/>
<path d="M625 1390 c-3 0 -5 -2 -5 -5 0 -3 2 -5 5 -5 3 0 5 2 5 5 0 3 -2 5 -5
5z"/>
<path d="M2287 1373 c-3 6 -5 -1 -5 -18 0 -16 2 -22 5 -12 2 9 2 23 0 30z"/> -->
<!-- <path d="M2345 1380 c-3 0 -5 -2 -5 -5 0 -3 2 -5 5 -5 3 0 5 2 5 5 0 3 -2 5
-5 5z"/> -->
<path d="M1185 1364 c-24 3 -53 -1 -72 -9 -17 -8 -35 -19 -38 -25 -5 -8 -12
-7 -23 3 -10 8 -29 17 -44 19 -17 3 -29 0 -32 -8 -3 -8 -9 -14 -14 -14 -5 0
-32 -22 -62 -49 -35 -33 -50 -53 -45 -61 6 -10 4 -12 -8 -7 -13 5 -17 0 -17
-21 0 -26 1 -27 52 -24 48 3 54 1 64 -21 8 -17 7 -26 -3 -35 -7 -7 -13 -19
-13 -27 0 -13 3 -13 20 -3 11 7 20 16 20 20 0 5 5 8 10 8 6 0 10 -7 10 -15 0
-8 6 -15 14 -15 8 0 17 6 19 13 3 6 6 -8 7 -33 1 -25 4 -39 7 -32 2 6 9 12 14
12 5 0 9 -11 9 -24 0 -19 4 -23 20 -19 14 4 20 14 20 32 0 14 3 36 6 48 3 12
15 25 26 29 11 3 25 1 30 -4 7 -7 18 -7 34 0 13 6 24 15 24 20 0 5 5 6 10 3 6
-3 10 1 10 9 0 9 7 16 15 16 8 0 19 -9 25 -20 6 -11 17 -20 26 -20 8 0 17 -6
20 -14 3 -8 12 -12 20 -9 8 3 14 12 14 20 0 13 3 13 25 -1 18 -12 30 -14 43
-7 9 5 18 20 19 33 1 13 3 35 6 51 2 15 7 30 10 34 4 3 7 17 7 30 0 18 -7 25
-30 30 -16 3 -30 9 -30 14 0 5 -6 9 -13 9 -7 0 -30 12 -52 28 -25 17 -55 28
-80 29 -22 1 -58 4 -80 7z"/>
<!-- <path d="M1797 1347 c-4 3 -7 0 -7 -7 0 -7 3 -10 7 -7 3 4 3 10 0 14z"/>
<path d="M2027 1333 c-4 22 -4 22 -6 0 0 -12 -4 -30 -7 -40 -5 -17 -5 -17 6 0
6 10 9 28 7 40z"/>
<path d="M2097 1326 c-2 16 -5 22 -6 14 -1 -8 -4 -26 -7 -40 -5 -19 -4 -22 5
-14 7 6 11 24 8 40z"/>
<path d="M1717 1336 c-2 3 -7 -2 -11 -11 -3 -9 -6 -20 -6 -23 0 -4 5 1 11 11
6 10 9 21 6 23z"/>
<path d="M2555 1340 c-3 0 -5 -2 -5 -5 0 -3 2 -5 5 -5 3 0 5 2 5 5 0 3 -2 5
-5 5z"/>
<path d="M2167 1323 c-3 6 -5 -1 -5 -18 0 -16 2 -22 5 -12 2 9 2 23 0 30z"/>
<path d="M2347 1317 c-4 3 -7 0 -7 -7 0 -7 3 -10 7 -7 3 4 3 10 0 14z"/>
<path d="M1967 1287 c-4 3 -7 0 -7 -7 0 -7 3 -10 7 -7 3 4 3 10 0 14z"/>
<path d="M665 1240 c-3 0 -5 -2 -5 -5 0 -3 2 -5 5 -5 3 0 5 2 5 5 0 3 -2 5 -5
5z"/>
<path d="M645 1230 c-3 0 -5 -2 -5 -5 0 -3 2 -5 5 -5 3 0 5 2 5 5 0 3 -2 5 -5
5z"/>
<path d="M1835 1220 c-3 0 -5 -2 -5 -5 0 -3 2 -5 5 -5 3 0 5 2 5 5 0 3 -2 5
-5 5z"/>
<path d="M2074 1220 c-3 0 -2 -4 1 -10 3 -5 8 -10 11 -10 3 0 2 5 -1 10 -3 6
-8 10 -11 10z"/>
<path d="M661 1210 c-6 0 -13 -4 -16 -10 -3 -6 1 -7 9 -4 9 3 16 8 16 10 0 2
-4 4 -9 4z"/>
<path d="M1975 1209 c-5 0 -19 -6 -29 -14 -11 -8 -17 -17 -14 -20 3 -3 16 3
29 14 13 11 20 20 14 20z"/>
<path d="M2245 1210 c-3 0 -5 -2 -5 -5 0 -3 2 -5 5 -5 3 0 5 2 5 5 0 3 -2 5
-5 5z"/>
<path d="M1794 1200 c-3 0 -2 -4 1 -10 3 -5 8 -10 11 -10 3 0 2 5 -1 10 -3 6
-8 10 -11 10z"/>
<path d="M2224 1190 c-3 0 -2 -4 1 -10 3 -5 8 -10 11 -10 3 0 2 5 -1 10 -3 6
-8 10 -11 10z"/>
<path d="M695 1180 c-3 0 -5 -2 -5 -5 0 -3 2 -5 5 -5 3 0 5 2 5 5 0 3 -2 5 -5
5z"/>
<path d="M1865 1180 c-3 0 -5 -2 -5 -5 0 -3 2 -5 5 -5 3 0 5 2 5 5 0 3 -2 5
-5 5z"/>
<path d="M636 1170 c-2 0 -10 -8 -17 -17 -13 -16 -12 -17 4 -4 9 7 17 15 17
17 0 2 -2 4 -4 4z"/>
<path d="M1815 1170 c-3 0 -5 -2 -5 -5 0 -3 2 -5 5 -5 3 0 5 2 5 5 0 3 -2 5
-5 5z"/>
<path d="M696 1160 c-3 0 -8 -5 -12 -12 -4 -7 -3 -8 4 -4 7 4 12 9 12 12 0 2
-2 4 -4 4z"/>
<path d="M1752 1160 c-3 0 3 -9 13 -20 10 -11 20 -20 23 -20 3 0 -3 9 -13 20
-10 11 -20 20 -23 20z"/>
<path d="M1605 1150 c-5 0 -17 -5 -25 -10 -8 -5 -10 -10 -5 -10 6 0 17 5 25
10 8 5 11 10 5 10z"/>
<path d="M665 1140 c-3 0 -5 -2 -5 -5 0 -3 2 -5 5 -5 3 0 5 2 5 5 0 3 -2 5 -5
5z"/>
<path d="M780 1120 c-5 0 -10 -4 -10 -10 0 -5 5 -10 10 -10 6 0 10 5 10 10 0
6 -4 10 -10 10z"/>
<path d="M1737 1117 c-4 3 -7 0 -7 -7 0 -7 3 -10 7 -7 3 4 3 10 0 14z"/>
<path d="M1974 1119 c-11 0 -14 -3 -6 -6 7 -3 16 -2 19 1 4 3 -2 6 -13 5z"/>
<path d="M851 1110 c-5 0 -12 -7 -15 -16 -5 -14 -4 -15 9 -4 8 7 15 14 15 16
0 2 -4 4 -9 4z"/>
<path d="M1490 1095 c-7 4 -8 -8 -4 -37 4 -24 8 -45 10 -47 2 -2 4 14 4 37 0
22 -5 44 -10 47z"/>
<path d="M1635 1100 c-3 0 -5 -2 -5 -5 0 -3 2 -5 5 -5 3 0 5 2 5 5 0 3 -2 5
-5 5z"/>
<path d="M1870 1098 c-14 0 -19 -2 -12 -5 6 -2 18 -2 25 0 6 3 1 5 -13 5z"/>
<path d="M765 1090 c-3 0 -5 -2 -5 -5 0 -3 2 -5 5 -5 3 0 5 2 5 5 0 3 -2 5 -5
5z"/>
<path d="M878 1090 c-8 0 -24 -18 -36 -39 -20 -35 -20 -39 -5 -37 10 0 23 8
29 16 6 8 14 25 18 38 5 15 3 22 -6 22z"/>
<path d="M2144 1090 c-2 0 -4 -2 -4 -4 0 -2 8 -10 18 -17 15 -13 16 -12 3 4
-7 9 -15 17 -17 17z"/>
<path d="M1727 1077 c-4 3 -7 0 -7 -7 0 -7 3 -10 7 -7 3 4 3 10 0 14z"/>
<path d="M1984 1080 c-3 0 -2 -4 1 -10 3 -5 8 -10 11 -10 3 0 2 5 -1 10 -3 6
-8 10 -11 10z"/>
<path d="M1874 1050 c-1 0 -6 -6 -10 -12 -4 -7 -4 -10 1 -6 4 4 15 2 24 -5 14
-11 14 -10 2 6 -7 9 -15 17 -17 17z"/>
<path d="M1815 1026 c-14 18 -14 17 -6 -11 5 -16 12 -37 14 -45 3 -8 6 -4 6
11 1 14 -6 34 -14 45z"/>
<path d="M2465 1030 c-3 0 -5 -2 -5 -5 0 -3 2 -5 5 -5 3 0 5 2 5 5 0 3 -2 5
-5 5z"/>
<path d="M1725 1020 c-3 0 -5 -2 -5 -5 0 -3 2 -5 5 -5 3 0 5 2 5 5 0 3 -2 5
-5 5z"/>
<path d="M1775 1010 c-3 0 -5 -2 -5 -5 0 -3 2 -5 5 -5 3 0 5 2 5 5 0 3 -2 5
-5 5z"/>
<path d="M1270 995 c-5 3 -10 -3 -10 -14 0 -12 5 -21 10 -21 6 0 10 6 10 14 0
8 -4 18 -10 21z"/>
<path d="M1875 1000 c-3 0 -5 -2 -5 -5 0 -3 2 -5 5 -5 3 0 5 2 5 5 0 3 -2 5
-5 5z"/>
<path d="M2051 972 l-26 23 23 -26 c12 -14 29 -26 37 -26 8 0 12 4 9 9 -4 5
-9 7 -12 4 -3 -4 -17 4 -31 16z"/>
<path d="M1425 980 c-3 0 -5 -2 -5 -5 0 -3 2 -5 5 -5 3 0 5 2 5 5 0 3 -2 5 -5
5z"/>
<path d="M1585 980 c-3 0 -5 -2 -5 -5 0 -3 2 -5 5 -5 3 0 5 2 5 5 0 3 -2 5 -5
5z"/>
<path d="M1754 950 c-3 0 -2 -4 1 -10 3 -5 8 -10 11 -10 3 0 2 5 -1 10 -3 6
-8 10 -11 10z"/>
<path d="M907 937 c-4 3 -7 0 -7 -7 0 -7 3 -10 7 -7 3 4 3 10 0 14z"/>
<path d="M927 933 c-3 6 -5 1 -5 -13 0 -14 2 -19 5 -12 2 6 2 18 0 25z"/>
<path d="M1515 937 c-8 0 -15 -7 -15 -14 0 -8 5 -11 10 -8 7 4 9 -2 5 -17 -5
-19 -2 -24 14 -24 11 0 17 5 13 11 -4 5 -7 15 -8 20 0 6 -2 15 -2 21 -1 6 -9
11 -17 11z"/>
<path d="M1786 909 c-11 9 -12 6 -8 -14 2 -14 8 -28 13 -31 5 -3 9 4 9 14 0
11 -6 25 -14 31z"/>
<path d="M1957 887 c-4 3 -7 0 -7 -7 0 -7 3 -10 7 -7 3 4 3 10 0 14z"/>
<path d="M1287 863 c-3 6 -5 -1 -5 -18 0 -16 2 -22 5 -12 2 9 2 23 0 30z"/>
<path d="M1325 860 c-3 0 -5 -2 -5 -5 0 -3 2 -5 5 -5 3 0 5 2 5 5 0 3 -2 5 -5
5z"/>
<path d="M1197 847 c-4 3 -7 0 -7 -7 0 -7 3 -10 7 -7 3 4 3 10 0 14z"/>
<path d="M1655 840 c-3 0 -5 -2 -5 -5 0 -3 2 -5 5 -5 3 0 5 2 5 5 0 3 -2 5 -5
5z"/>
<path d="M715 830 c-3 0 -5 -2 -5 -5 0 -3 2 -5 5 -5 3 0 5 2 5 5 0 3 -2 5 -5
5z"/>
<path d="M1445 830 c-3 0 -5 -2 -5 -5 0 -3 2 -5 5 -5 3 0 5 2 5 5 0 3 -2 5 -5
5z"/>
<path d="M691 820 c-6 0 -13 -4 -16 -10 -3 -6 1 -7 9 -4 9 3 16 8 16 10 0 2
-4 4 -9 4z"/>
<path d="M815 820 c-3 0 -5 -2 -5 -5 0 -3 2 -5 5 -5 3 0 5 2 5 5 0 3 -2 5 -5
5z"/>
<path d="M987 817 c-4 3 -7 0 -7 -7 0 -7 3 -10 7 -7 3 4 3 10 0 14z"/>
<path d="M1496 810 c-3 0 -8 -5 -12 -12 -4 -7 -3 -8 4 -4 7 4 12 9 12 12 0 2
-2 4 -4 4z"/>
<path d="M2145 810 c-3 0 -5 -2 -5 -5 0 -3 2 -5 5 -5 3 0 5 2 5 5 0 3 -2 5 -5
5z"/>
<path d="M1258 795 c-3 3 -9 -2 -12 -12 -6 -14 -5 -15 5 -6 7 7 10 15 7 18z"/>
<path d="M1317 797 c-4 3 -7 0 -7 -7 0 -7 3 -10 7 -7 3 4 3 10 0 14z"/>
<path d="M735 790 c-3 0 -5 -2 -5 -5 0 -3 2 -5 5 -5 3 0 5 2 5 5 0 3 -2 5 -5
5z"/>
<path d="M1395 790 c-3 0 -5 -2 -5 -5 0 -3 2 -5 5 -5 3 0 5 2 5 5 0 3 -2 5 -5
5z"/>
<path d="M1557 787 c-4 3 -7 0 -7 -7 0 -7 3 -10 7 -7 3 4 3 10 0 14z"/>
<path d="M945 770 c-3 0 -5 -2 -5 -5 0 -3 2 -5 5 -5 3 0 5 2 5 5 0 3 -2 5 -5
5z"/>
<path d="M1275 770 c-3 0 -5 -2 -5 -5 0 -3 2 -5 5 -5 3 0 5 2 5 5 0 3 -2 5 -5
5z"/>
<path d="M997 747 c-4 3 -7 0 -7 -7 0 -7 3 -10 7 -7 3 4 3 10 0 14z"/>
<path d="M1055 750 c-3 0 -5 -2 -5 -5 0 -3 2 -5 5 -5 3 0 5 2 5 5 0 3 -2 5 -5
5z"/>
<path d="M765 730 c-3 0 -5 -2 -5 -5 0 -3 2 -5 5 -5 3 0 5 2 5 5 0 3 -2 5 -5
5z"/>
<path d="M1195 730 c-3 0 -5 -2 -5 -5 0 -3 2 -5 5 -5 3 0 5 2 5 5 0 3 -2 5 -5
5z"/>
<path d="M1015 600 c-3 0 -5 -2 -5 -5 0 -3 2 -5 5 -5 3 0 5 2 5 5 0 3 -2 5 -5
5z"/> -->
</g>
</svg>
