<?xml version="1.0" standalone="no"?>
<!DOCTYPE svg PUBLIC "-//W3C//DTD SVG 20010904//EN"
 "http://www.w3.org/TR/2001/REC-SVG-20010904/DTD/svg10.dtd">
<svg version="1.0" xmlns="http://www.w3.org/2000/svg"
 width="100%" height="100%" viewBox="0 0 378.000000 448.000000"
 preserveAspectRatio="xMidYMid meet">
<!-- <g transform="translate(0.000000,448.000000) scale(0.100000,-0.100000)"
fill="#070707" stroke="none">
<path d="M1890 4240 l-1650 0 0 -2000 0 -2000 1650 0 1650 0 0 2000 0 2000
-1650 0z"/>
</g> -->
<!-- <g transform="translate(0.000000,448.000000) scale(0.100000,-0.100000)"
fill="#efefef" stroke="none">
<path d="M2635 3580 c-3 0 -5 -2 -5 -5 0 -3 2 -5 5 -5 3 0 5 2 5 5 0 3 -2 5
-5 5z"/>
<path d="M2885 3220 c-3 0 -5 -2 -5 -5 0 -3 2 -5 5 -5 3 0 5 2 5 5 0 3 -2 5
-5 5z"/>
<path d="M1970 3061 c-52 2 -123 3 -157 1 -38 -2 -66 -8 -73 -17 -7 -8 -27
-15 -45 -15 -18 0 -53 -10 -77 -21 -23 -12 -52 -26 -63 -32 -11 -5 -51 -12
-90 -15 -41 -3 -83 -13 -103 -24 -18 -10 -44 -18 -57 -18 -14 0 -25 -5 -25
-11 0 -6 -11 -24 -25 -41 -14 -16 -25 -40 -25 -53 0 -13 -4 -27 -10 -30 -5 -3
-10 -21 -10 -40 0 -19 -4 -37 -10 -40 -5 -3 -10 -19 -10 -34 0 -15 -9 -36 -20
-46 -15 -14 -20 -31 -20 -68 0 -32 -6 -57 -16 -68 -9 -10 -14 -25 -11 -34 4
-10 20 -15 46 -15 22 0 43 -4 46 -10 3 -5 43 -10 89 -10 80 0 83 -1 114 -33
18 -18 32 -37 32 -43 0 -5 -22 -31 -48 -57 -26 -26 -57 -47 -68 -47 -11 0 -42
-22 -69 -50 -30 -30 -58 -50 -72 -50 -12 0 -25 -4 -28 -10 -3 -5 -20 -10 -37
-10 -22 0 -39 -10 -65 -37 -31 -34 -34 -43 -30 -81 3 -24 12 -51 21 -61 9 -9
19 -33 22 -52 4 -19 21 -51 38 -72 17 -21 53 -62 79 -91 l48 -54 -3 -138 -3
-139 -35 -3 c-24 -2 -48 -15 -75 -41 -22 -20 -64 -55 -94 -77 -31 -23 -83 -79
-127 -138 -41 -54 -74 -104 -74 -111 0 -6 -9 -20 -20 -30 -11 -10 -20 -22 -20
-27 0 -6 -9 -21 -20 -35 -12 -15 -20 -41 -20 -63 0 -21 -6 -42 -13 -48 -6 -6
-24 -13 -40 -17 -15 -4 -42 -15 -60 -24 -17 -9 -43 -24 -57 -33 -14 -9 -41
-24 -60 -35 -19 -10 -48 -27 -63 -38 -16 -11 -48 -36 -72 -55 -25 -19 -67 -53
-95 -75 l-50 -40 0 -132 0 -133 343 0 343 0 39 41 40 40 200 -3 c167 -2 206
-6 234 -21 19 -9 48 -17 66 -17 19 0 39 -8 50 -20 17 -19 31 -20 214 -20 l196
0 13 30 c8 16 10 40 7 52 -4 13 -21 46 -37 73 -17 28 -42 62 -56 78 -14 15
-30 27 -36 27 -5 0 -32 19 -60 42 l-49 42 -148 4 -148 4 -53 53 c-29 28 -63
65 -75 81 -17 24 -23 51 -29 127 -6 81 -4 102 11 134 10 21 26 47 36 58 15 17
16 26 7 60 -5 22 -12 58 -15 80 -4 31 0 44 15 58 18 17 21 15 93 -61 41 -43
85 -100 100 -127 l25 -50 166 0 167 0 35 34 c28 27 36 44 41 86 7 50 11 57
106 151 l99 99 0 189 0 189 33 38 c17 22 78 89 133 149 68 73 103 120 108 141
3 17 6 47 6 65 0 26 -5 37 -22 44 -13 5 -65 16 -116 25 -50 8 -102 15 -114 15
-12 0 -30 8 -40 17 -18 16 -24 16 -101 0 -45 -9 -123 -17 -172 -17 l-91 0 -47
48 c-38 39 -47 54 -47 83 0 19 5 40 12 47 9 9 73 12 224 12 131 0 215 4 219
10 3 6 16 10 29 10 13 0 30 8 39 18 10 10 17 28 17 39 0 11 7 26 15 33 12 10
15 41 15 159 l0 147 -30 29 c-16 16 -30 37 -30 46 0 10 -16 31 -37 46 -20 15
-55 44 -77 64 -40 35 -43 36 -136 40z"/>
<path d="M3197 2763 c-2 12 -4 2 -4 -23 0 -25 2 -35 4 -22 2 12 2 32 0 45z"/>
<path d="M3215 2640 c-3 0 -5 -2 -5 -5 0 -3 2 -5 5 -5 3 0 5 2 5 5 0 3 -2 5
-5 5z"/>
<path d="M3217 2607 c-4 3 -7 0 -7 -7 0 -7 3 -10 7 -7 3 4 3 10 0 14z"/>
<path d="M3295 2560 c-3 0 -5 -2 -5 -5 0 -3 2 -5 5 -5 3 0 5 2 5 5 0 3 -2 5
-5 5z"/>
<path d="M3459 2410 c-4 0 -12 -7 -19 -15 -7 -8 -20 -15 -29 -15 -9 0 -22 -5
-28 -11 -8 -8 -6 -16 8 -30 16 -16 18 -23 8 -42 -12 -21 -11 -21 7 -7 10 8 26
22 35 30 9 8 18 32 21 53 2 20 1 37 -3 37z"/>
<path d="M3410 2190 c-7 0 -10 -3 -7 -7 4 -3 10 -3 14 0 3 4 0 7 -7 7z"/>
<path d="M3394 2170 c-5 0 -16 -4 -24 -10 -8 -5 -12 -11 -10 -14 3 -2 14 2 24
10 11 8 16 14 10 14z"/>
<path d="M3486 2150 c-7 0 -19 -7 -26 -15 -8 -9 -8 -15 -2 -15 6 0 17 3 26 6
9 3 16 10 16 15 0 5 -6 9 -14 9z"/>
<path d="M3335 2120 c-3 0 -5 -2 -5 -5 0 -3 2 -5 5 -5 3 0 5 2 5 5 0 3 -2 5
-5 5z"/>
<path d="M3315 2080 c-3 0 -5 -2 -5 -5 0 -3 2 -5 5 -5 3 0 5 2 5 5 0 3 -2 5
-5 5z"/>
<path d="M3305 2060 c-3 0 -5 -2 -5 -5 0 -3 2 -5 5 -5 3 0 5 2 5 5 0 3 -2 5
-5 5z"/>
<path d="M3317 1167 c-4 3 -7 0 -7 -7 0 -7 3 -10 7 -7 3 4 3 10 0 14z"/>
<path d="M3364 1040 c-16 0 -24 -5 -22 -12 3 -7 14 -14 26 -16 15 -2 22 2 22
12 0 11 -9 16 -26 16z"/>
<path d="M2870 1005 c-5 3 -10 -1 -10 -9 0 -9 5 -16 10 -16 6 0 10 4 10 9 0 6
-4 13 -10 16z"/>
<path d="M2905 980 c-3 0 -5 -2 -5 -5 0 -3 2 -5 5 -5 3 0 5 2 5 5 0 3 -2 5 -5
5z"/>
<path d="M2815 960 c-3 0 -5 -2 -5 -5 0 -3 2 -5 5 -5 3 0 5 2 5 5 0 3 -2 5 -5
5z"/>
<path d="M3527 960 c-7 0 -50 -38 -97 -85 l-85 -85 -75 0 c-75 0 -76 0 -115
40 -36 37 -43 40 -95 40 -44 0 -61 5 -75 20 -10 11 -25 20 -33 20 -9 0 -24 7
-34 17 -10 9 -20 14 -23 12 -2 -3 -5 -25 -7 -50 -2 -26 -8 -51 -15 -58 -7 -6
-14 -7 -17 -2 -3 4 -2 31 3 60 4 28 5 54 1 56 -4 2 -10 2 -14 -2 -3 -3 -6 -28
-6 -55 0 -35 -4 -48 -14 -48 -8 0 -17 6 -20 13 -3 6 -4 -14 -2 -46 3 -34 1
-55 -5 -52 -5 4 -9 14 -9 24 0 10 -11 26 -25 35 -13 9 -27 16 -30 16 -3 0 -5
-33 -5 -73 0 -60 -4 -77 -19 -91 -15 -14 -20 -38 -26 -126 -3 -61 -11 -112
-16 -116 -5 -3 -9 -20 -9 -38 0 -19 -7 -39 -16 -46 -10 -9 -14 -26 -12 -49 3
-31 7 -37 33 -42 17 -4 211 -7 433 -8 l402 -1 0 93 c0 81 3 96 20 112 19 17
20 31 20 267 0 194 -3 248 -13 248z"/>
<path d="M2817 907 c-4 3 -7 0 -7 -7 0 -7 3 -10 7 -7 3 4 3 10 0 14z"/>
<path d="M2777 867 c-4 3 -7 0 -7 -7 0 -7 3 -10 7 -7 3 4 3 10 0 14z"/>
<path d="M2735 850 c-3 0 -5 -2 -5 -5 0 -3 2 -5 5 -5 3 0 5 2 5 5 0 3 -2 5 -5
5z"/>
<path d="M320 730 c-13 0 -20 -7 -20 -19 0 -14 5 -18 20 -14 11 3 20 12 20 19
0 8 -9 14 -20 14z"/>
</g> -->
<g transform="translate(0.000000,448.000000) scale(0.100000,-0.100000)"
fill="#4a4a4a" stroke="none">
<path d="M1254 4240 l-561 0 -6 -34 c-3 -19 -21 -56 -40 -83 -18 -26 -37 -64
-41 -84 -3 -20 -17 -46 -31 -59 -14 -13 -25 -30 -25 -38 0 -9 -8 -24 -17 -35
-14 -14 -18 -42 -21 -125 -2 -59 -8 -111 -13 -116 -5 -6 -9 -62 -9 -126 0
-116 0 -116 -30 -145 -16 -15 -32 -40 -35 -55 -3 -15 -17 -38 -31 -50 -15 -15
-24 -35 -24 -54 0 -17 -7 -44 -15 -60 -8 -15 -15 -48 -15 -72 0 -23 -5 -46
-11 -50 -7 -4 -10 -29 -7 -65 3 -41 11 -66 25 -81 11 -13 26 -44 33 -70 7 -26
23 -57 36 -69 13 -12 24 -27 24 -32 0 -6 7 -19 17 -29 9 -10 22 -28 29 -41 7
-12 17 -31 22 -42 6 -11 26 -35 46 -53 l36 -33 10 26 c5 14 14 73 20 130 5 58
14 114 20 125 6 11 8 25 4 31 -3 6 1 16 9 22 8 7 18 28 22 47 4 19 9 71 12
114 3 45 11 89 19 100 8 11 14 28 14 37 0 9 11 24 24 32 13 9 36 17 52 19 16
2 39 13 51 26 12 12 27 22 32 22 6 0 16 10 23 23 7 12 11 28 10 35 -2 6 4 12
12 12 9 0 37 33 63 73 27 39 54 78 60 85 7 7 18 10 24 6 7 -4 9 -3 6 3 -4 6 0
16 8 23 8 7 15 9 15 6 0 -4 9 -2 20 4 11 6 20 20 20 31 0 12 14 28 35 40 26
15 35 28 35 47 0 14 7 33 16 43 9 10 21 16 28 13 7 -3 24 6 38 19 14 13 33 27
42 30 9 4 16 15 16 25 0 10 5 23 12 30 7 7 18 12 26 12 10 0 10 -3 -2 -16 -9
-8 -16 -17 -16 -19 0 -2 23 6 50 18 28 11 50 27 50 34 0 7 4 13 8 13 4 0 25
16 45 35 21 20 50 41 65 46 15 6 45 13 67 16 22 2 69 4 105 5 36 0 71 0 78 -1
7 -1 10 -5 7 -11 -3 -5 -1 -10 4 -10 6 0 11 5 11 10 0 6 12 10 28 9 26 -1 26
-1 3 -8 -21 -6 -17 -9 30 -29 30 -12 60 -22 67 -22 7 0 31 -10 54 -21 l42 -21
17 21 c9 11 25 21 35 21 12 0 -42 61 -151 170 l-170 170 -561 0z"/>
<!-- <path d="M2289 3860 c-21 0 -41 -5 -45 -11 -3 -6 -2 -14 2 -19 5 -4 34 -15 66
-24 31 -9 62 -16 69 -16 7 0 -2 16 -21 35 -27 28 -42 35 -71 35z"/>
<path d="M2373 3774 c-14 6 -15 5 -6 -5 7 -7 15 -10 18 -7 3 3 -2 9 -12 12z"/>
<path d="M2498 3760 c-10 0 -19 -6 -19 -12 -1 -7 -1 -16 0 -20 0 -5 -4 -8 -11
-8 -6 0 -8 -3 -5 -6 4 -4 12 -2 19 3 8 7 22 7 36 2 12 -5 22 -13 22 -19 0 -5
-4 -10 -10 -10 -5 0 -6 -8 -3 -17 4 -10 20 -36 36 -58 21 -28 27 -33 22 -16
-5 18 -4 22 6 16 9 -6 11 -3 6 9 -4 10 -7 20 -7 22 0 2 -5 4 -11 4 -7 0 -18 8
-25 17 -9 13 -9 22 -2 31 8 9 5 19 -12 37 -13 14 -32 25 -42 25z"/> -->
<path d="M2697 3548 c-43 42 -44 42 -61 23 -17 -19 -17 -21 10 -47 20 -21 27
-37 26 -63 -1 -19 4 -39 11 -43 9 -6 9 -8 0 -8 -7 0 -13 -4 -13 -9 0 -5 9 -11
20 -14 11 -3 23 -13 26 -24 4 -10 14 -26 22 -35 8 -10 13 -18 9 -18 -3 0 15
-21 40 -46 25 -26 42 -52 39 -60 -3 -8 0 -13 5 -11 6 1 21 -23 33 -54 11 -31
27 -63 34 -72 8 -9 11 -20 9 -24 -3 -5 3 -33 13 -63 16 -45 23 -55 40 -53 12
2 20 -3 20 -13 0 -11 6 -14 21 -9 19 6 21 4 15 -18 -3 -13 1 -42 9 -63 l15
-39 -4 42 c-2 24 1 61 8 83 6 22 19 47 28 56 15 15 17 13 23 -30 4 -25 11 -49
16 -52 5 -3 9 11 9 30 0 19 -5 38 -11 42 -7 4 -8 18 -4 38 4 17 8 38 9 48 1 9
8 23 15 32 7 9 17 14 21 11 4 -3 14 3 21 13 13 15 12 16 -3 3 -10 -7 -18 -9
-18 -4 0 6 10 23 22 39 12 16 27 32 32 36 5 3 16 4 24 0 8 -3 20 1 26 9 6 8
32 32 58 53 39 31 47 43 42 61 -3 13 -1 26 5 29 6 4 19 3 29 -3 10 -5 24 -6
34 0 8 5 37 10 64 12 26 1 49 8 51 13 2 6 -2 16 -10 22 -8 7 -72 14 -158 16
l-144 5 -52 -52 c-29 -28 -53 -56 -53 -62 0 -6 -16 -17 -35 -25 -19 -8 -35
-19 -35 -25 0 -7 -9 -20 -20 -30 -11 -10 -20 -14 -20 -9 0 5 8 21 17 34 12 17
13 21 3 13 -8 -6 -47 -13 -86 -14 -51 -3 -76 1 -89 11 -9 8 -21 25 -26 38 -5
13 -13 21 -17 18 -5 -3 -7 16 -5 42 4 43 2 50 -31 81 -26 25 -36 43 -36 66 0
23 -11 41 -43 73z"/>
<path d="M1715 3550 c-19 0 -35 -3 -35 -7 0 -5 11 -19 23 -33 13 -14 34 -31
46 -38 18 -11 28 -11 52 0 16 7 29 15 29 18 -1 3 -19 17 -41 33 -24 17 -52 27
-74 27z"/>
<!-- <path d="M2101 3510 c-5 0 -14 -7 -21 -15 -7 -8 -9 -23 -5 -32 6 -17 7 -17 21
1 8 11 14 26 14 33 0 7 -4 13 -9 13z"/> -->
<!-- <path d="M2655 3500 c-3 0 -5 -2 -5 -5 0 -3 2 -5 5 -5 3 0 5 2 5 5 0 3 -2 5
-5 5z"/> -->
<!-- <path d="M3463 3458 c-39 2 -74 -1 -77 -6 -3 -5 2 -16 12 -25 13 -12 31 -14
80 -10 51 5 62 9 60 22 -3 13 -18 17 -75 19z"/>
<path d="M3350 3410 c-7 0 -10 -3 -7 -7 4 -3 10 -3 14 0 3 4 0 7 -7 7z"/> -->
<path d="M2184 3390 c-7 0 -14 -6 -14 -14 0 -8 3 -21 6 -30 3 -9 11 -16 16
-16 5 0 18 -10 29 -22 16 -20 20 -21 29 -8 5 8 10 17 10 20 0 3 -14 20 -31 38
-16 17 -37 32 -45 32z"/>
<path d="M2267 3370 c-9 0 -17 -3 -17 -6 0 -3 10 -17 23 -30 12 -13 28 -24 35
-24 6 0 12 6 12 13 0 8 -8 21 -18 30 -10 10 -26 17 -35 17z"/>
<path d="M1690 3341 c-36 2 -101 2 -145 -1 l-80 -5 -3 -31 c-3 -27 1 -33 22
-38 14 -3 45 -3 68 0 25 4 49 15 57 27 12 17 21 19 66 13 37 -4 57 -2 71 8 10
8 17 16 14 19 -3 3 -34 6 -70 8z"/>
<path d="M2258 3240 c-5 0 -8 -5 -8 -11 0 -7 -11 -8 -30 -4 -22 5 -32 3 -36
-9 -4 -11 -19 -16 -45 -16 -21 0 -39 -4 -39 -10 0 -5 -11 -12 -24 -16 -14 -3
-32 -14 -42 -25 -9 -10 -27 -19 -40 -19 -13 0 -26 -4 -29 -10 -3 -5 -15 -10
-26 -10 -10 0 -28 6 -39 12 -16 10 -24 10 -40 1 -10 -7 -44 -16 -75 -19 -31
-4 -58 -11 -61 -15 -3 -5 -17 -9 -32 -10 -15 0 -36 -4 -47 -9 -12 -5 70 -8
198 -8 l217 0 44 -38 c23 -22 59 -52 79 -67 21 -15 37 -36 37 -46 0 -9 14 -30
30 -46 l30 -29 0 -147 c0 -118 -3 -149 -15 -159 -8 -7 -15 -22 -15 -35 0 -12
-8 -29 -18 -38 -10 -10 -27 -17 -38 -17 -11 0 -25 -5 -30 -10 -7 -7 -26 -5
-58 6 -40 14 -72 15 -201 9 -113 -5 -157 -11 -166 -21 -6 -8 -19 -14 -29 -14
-9 0 -24 -8 -33 -18 -10 -10 -17 -34 -17 -53 0 -28 9 -44 48 -82 39 -38 54
-47 83 -47 19 0 40 5 47 12 7 7 12 20 12 29 0 10 -4 20 -10 24 -5 3 -18 0 -28
-6 -11 -7 -27 -9 -36 -6 -9 4 -20 17 -25 30 -5 12 -16 29 -25 36 -9 7 -16 26
-16 41 0 15 7 30 15 34 8 3 67 2 130 -1 64 -3 118 -10 121 -15 3 -5 0 -15 -6
-23 -6 -8 -9 -19 -6 -24 4 -5 42 -13 86 -17 44 -3 83 -11 86 -15 3 -5 13 -9
22 -9 9 0 31 -11 47 -24 17 -13 26 -28 22 -32 -4 -5 -18 -2 -30 5 -20 12 -20
12 -7 -2 9 -8 62 -22 125 -32 61 -10 118 -22 128 -27 11 -5 17 -20 17 -42 0
-18 -3 -48 -6 -65 -5 -21 -40 -68 -108 -141 -55 -60 -116 -127 -133 -149 l-33
-38 0 -189 0 -189 -99 -99 c-95 -94 -99 -101 -106 -151 -5 -42 -13 -59 -41
-86 l-35 -34 -166 0 -166 0 -20 35 c-11 19 -28 51 -38 70 -11 19 -19 43 -19
52 0 10 6 18 14 18 8 0 37 21 65 46 28 25 51 50 51 55 0 5 -10 9 -22 9 -13 0
-32 7 -42 15 -11 8 -36 15 -55 15 -24 1 -46 9 -65 26 -19 17 -25 29 -19 35 6
6 59 13 119 16 60 3 120 10 133 15 l24 9 -41 42 c-23 24 -42 49 -42 56 0 7 35
45 77 85 56 53 75 77 70 89 -5 14 -20 17 -80 17 -61 0 -77 -3 -92 -20 -10 -12
-31 -20 -48 -20 -17 0 -38 7 -48 16 -10 9 -39 19 -65 22 l-46 5 7 -40 c3 -23
3 -57 -1 -77 -6 -34 -9 -37 -38 -34 -22 2 -32 9 -34 23 -2 11 -41 59 -86 107
-44 48 -95 104 -112 125 -17 21 -34 53 -38 72 -3 19 -13 43 -22 52 -9 10 -19
38 -21 61 -4 32 -1 47 11 57 9 8 16 28 16 47 0 24 -5 34 -15 34 -8 0 -15 3
-14 8 0 4 4 16 8 27 5 11 4 25 -1 33 -6 6 -17 12 -24 12 -10 0 -14 -14 -14
-49 0 -40 -3 -50 -20 -54 -12 -3 -20 -14 -20 -25 0 -12 5 -24 10 -27 6 -3 10
-26 10 -50 0 -24 -4 -47 -10 -50 -5 -3 -10 -32 -10 -63 0 -38 7 -71 20 -97 11
-22 20 -45 20 -52 0 -7 7 -29 16 -50 9 -21 20 -47 24 -58 5 -11 11 -29 15 -40
4 -11 20 -71 36 -134 16 -62 29 -116 29 -119 0 -3 10 4 23 15 12 11 30 23 39
26 11 4 15 12 12 22 -5 11 1 15 19 15 22 0 26 -4 25 -30 -1 -17 7 -39 17 -50
10 -11 23 -20 30 -20 6 0 23 -6 38 -12 20 -10 27 -20 27 -41 0 -16 4 -26 9
-22 6 3 12 -14 16 -37 3 -24 5 -54 3 -68 -1 -14 -1 -37 0 -52 1 -20 6 -26 17
-22 10 4 18 -3 25 -20 5 -14 14 -26 20 -26 5 0 10 -6 10 -13 0 -8 9 -22 20
-32 11 -10 20 -24 20 -32 0 -9 15 -13 50 -13 36 0 52 -4 56 -15 5 -12 28 -15
119 -15 99 0 114 -2 130 -20 14 -16 17 -30 12 -76 -3 -30 -11 -62 -18 -70 -6
-8 -18 -14 -25 -14 -9 0 -14 -11 -14 -29 0 -20 9 -37 31 -56 18 -14 40 -42 50
-63 11 -20 19 -49 19 -65 0 -23 -3 -28 -17 -23 -14 6 -14 3 3 -16 10 -13 22
-25 25 -28 4 -3 21 -29 39 -58 17 -28 36 -50 41 -47 5 4 18 -3 30 -14 12 -11
39 -23 60 -26 21 -4 51 -4 66 -1 24 5 31 0 48 -27 l20 -32 194 -3 c134 -2 198
1 207 9 8 6 14 26 14 44 0 18 7 38 15 45 10 8 15 30 15 61 0 34 -4 48 -12 47
-9 -2 -13 16 -14 61 0 40 -5 66 -12 69 -8 2 -9 9 -2 22 7 12 7 28 0 45 -9 22
-7 29 12 44 12 10 23 26 24 37 2 10 6 39 8 64 2 25 7 66 11 92 6 38 4 52 -12
75 -11 15 -25 53 -31 84 -6 31 -8 66 -5 78 3 11 1 21 -4 21 -5 0 -15 28 -22
62 -7 35 -19 82 -28 106 -8 23 -21 42 -29 42 -8 0 -14 10 -14 23 0 12 6 31 14
42 7 11 23 52 34 90 11 39 26 113 32 165 7 52 15 101 19 108 6 10 12 8 26 -8
10 -11 25 -20 33 -20 7 0 28 8 45 18 17 9 38 22 46 27 7 6 39 35 71 66 31 31
60 64 63 73 4 9 10 16 14 16 4 0 9 26 11 58 1 33 11 94 22 137 11 43 20 95 20
117 0 27 -4 38 -15 38 -10 0 -15 -11 -15 -35 0 -28 -4 -35 -20 -35 -16 0 -20
7 -20 34 0 19 -4 46 -10 60 -5 14 -15 26 -22 26 -6 0 -22 -10 -34 -21 -19 -17
-21 -26 -13 -47 5 -13 21 -39 36 -56 24 -28 24 -31 8 -35 -11 -2 -27 -14 -38
-27 -10 -13 -28 -24 -40 -24 -12 0 -40 14 -61 30 -22 17 -47 30 -56 30 -9 0
-24 8 -33 18 -10 10 -17 23 -17 29 0 6 -7 16 -15 23 -8 7 -15 20 -15 30 0 10
-7 23 -15 30 -8 7 -17 27 -21 46 -3 18 -12 38 -20 45 -8 6 -14 20 -14 30 0 11
-4 19 -10 19 -5 0 -21 17 -35 38 -20 30 -24 48 -23 102 0 36 -2 80 -6 97 -4
18 -13 36 -19 40 -7 5 -20 26 -31 48 -10 22 -22 47 -27 55 -5 8 -14 26 -21 40
-7 14 -17 32 -24 40 -6 8 -14 32 -18 52 -6 31 -3 40 14 50 14 9 20 23 20 48 0
19 -9 54 -20 78 -11 24 -30 52 -42 62 -13 11 -26 19 -30 20z"/>
<!-- <path d="M2875 3230 c-3 0 -5 -2 -5 -5 0 -3 2 -5 5 -5 3 0 5 2 5 5 0 3 -2 5
-5 5z"/> -->
<!-- <path d="M3414 3130 c-2 0 -4 -4 -4 -10 0 -5 5 -10 11 -10 5 0 7 5 4 10 -3 6
-8 10 -11 10z"/>
<path d="M3410 3100 c-5 0 -10 -4 -10 -9 0 -6 5 -13 10 -16 6 -3 10 1 10 9 0
9 -4 16 -10 16z"/>
<path d="M3536 3100 c0 0 -8 -6 -17 -13 -9 -7 -19 -28 -23 -48 -5 -30 -2 -39
18 -58 l25 -23 -1 71 c0 39 -1 71 -2 71z"/>
<path d="M3373 3090 c-7 0 -10 -7 -7 -15 4 -8 12 -15 19 -15 7 0 15 -6 18 -12
2 -7 7 -10 11 -6 4 3 -1 16 -11 27 -9 12 -23 21 -30 21z"/> -->
<path d="M1607 3060 c-9 0 -22 -6 -29 -14 -8 -7 -32 -19 -53 -26 -22 -7 -47
-15 -55 -19 -8 -3 2 -7 24 -9 28 -2 44 2 60 17 12 12 27 21 33 21 6 0 16 7 23
15 10 12 10 15 -3 15z"/>
<path d="M3317 3059 c-6 -1 -22 -11 -34 -24 -13 -12 -23 -29 -23 -37 0 -9 -6
-21 -14 -27 -10 -9 -15 -9 -18 0 -2 6 -4 -7 -5 -30 -1 -22 -9 -53 -18 -68
l-16 -28 4 30 c2 17 1 41 -3 55 -7 23 -8 22 -15 -14 -5 -24 -3 -56 4 -85 7
-25 15 -63 18 -83 3 -21 10 -38 17 -38 6 0 24 37 39 83 15 45 30 98 33 117 4
19 12 39 20 43 8 4 14 14 14 22 0 9 -6 12 -15 9 -8 -4 -15 -4 -15 0 0 3 9 21
20 41 13 23 15 35 7 34z"/>
<!-- <path d="M3435 3020 c-3 0 -5 -2 -5 -5 0 -3 2 -5 5 -5 3 0 5 2 5 5 0 3 -2 5
-5 5z"/> -->
<!-- <path d="M3175 3010 c-3 0 -5 -2 -5 -5 0 -3 2 -5 5 -5 3 0 5 2 5 5 0 3 -2 5
-5 5z"/> -->
<path d="M1395 2988 c-11 0 -36 -6 -55 -14 -19 -7 -49 -13 -66 -13 -18 -1 -39
-10 -49 -21 -10 -11 -26 -20 -37 -20 -10 0 -18 -4 -18 -10 0 -5 -21 -29 -47
-54 -31 -29 -54 -61 -65 -93 -9 -26 -20 -68 -24 -93 -4 -25 -13 -54 -20 -65
-10 -13 -14 -54 -14 -132 0 -62 3 -113 8 -113 4 0 18 7 30 16 13 9 29 13 37
10 8 -3 15 -14 15 -24 0 -11 -7 -25 -15 -32 -8 -7 -15 -23 -15 -35 0 -12 7
-28 15 -35 12 -10 32 -10 97 0 45 6 95 18 110 26 15 8 35 14 46 14 10 0 27 -6
38 -14 10 -8 15 -18 11 -23 -5 -4 -29 -8 -53 -7 -24 0 -44 -4 -44 -9 0 -6 -15
-23 -32 -38 l-33 -28 31 -1 c18 0 38 8 47 18 10 10 17 24 17 30 0 7 4 12 9 12
5 0 23 -11 39 -25 21 -17 42 -25 69 -25 26 0 46 6 56 18 10 10 17 34 17 52 0
20 -8 42 -20 55 -18 19 -25 20 -107 13 -49 -5 -121 -6 -160 -2 -57 4 -73 9
-73 22 0 8 8 24 17 34 15 17 15 20 -10 46 -15 16 -27 33 -27 39 0 6 7 16 15
23 10 8 15 30 15 65 0 39 5 56 20 70 11 10 20 31 20 46 0 15 5 31 10 34 6 3
10 21 10 40 0 19 5 37 10 40 6 3 10 17 10 30 0 13 11 37 25 53 14 17 25 35 25
41 0 6 13 11 28 11 18 0 43 12 68 35 31 27 35 34 19 33z"/>
<path d="M3164 2980 c-2 0 -6 -5 -9 -10 -4 -6 -9 -35 -12 -66 -4 -39 -9 -51
-15 -42 -7 9 -8 8 -4 -5 3 -10 6 -30 6 -45 0 -23 2 -24 14 -12 9 9 16 46 18
98 3 45 3 82 2 82z"/>
<path d="M3520 2887 c-9 2 -28 -18 -45 -45 -16 -26 -33 -56 -36 -67 -6 -16 -7
-15 -8 8 -1 18 -6 27 -13 25 -8 -3 -14 -25 -16 -54 l-2 -49 20 24 20 23 0 -35
c0 -20 -4 -38 -9 -41 -5 -3 -11 -32 -15 -63 -3 -32 -10 -96 -15 -142 -6 -61
-12 -86 -24 -93 -10 -5 -17 -14 -17 -20 0 -6 8 -4 18 5 10 10 22 14 25 10 4
-3 18 4 32 17 14 13 27 21 30 18 3 -3 -4 -17 -15 -31 -20 -26 -20 -26 -1 -36
16 -9 21 -7 26 9 3 11 11 20 16 20 5 0 9 7 9 15 0 8 5 15 10 15 6 0 10 -5 10
-11 0 -5 5 -7 11 -3 7 4 10 39 8 93 -1 47 -7 91 -12 98 -5 7 -7 18 -4 25 2 7
-3 21 -11 31 -13 15 -14 22 -4 37 7 11 12 32 11 47 0 25 -1 26 -9 8 -7 -15 -9
-9 -9 26 -1 28 5 51 12 58 8 6 17 8 21 3 4 -4 6 11 4 33 -2 26 -8 41 -18 42z"/>
<path d="M3358 2860 l-3 25 -9 -25 c-4 -14 -10 -45 -12 -69 -3 -40 -2 -42 11
-25 14 18 14 18 15 -2 0 -12 3 -36 7 -54 4 -20 2 -31 -3 -27 -6 3 -9 -6 -9
-21 1 -15 -7 -34 -17 -42 -12 -11 -15 -19 -8 -30 8 -13 10 -12 10 3 0 9 6 17
14 17 8 0 22 10 30 22 9 12 16 33 16 45 0 13 -5 23 -11 23 -7 0 -8 18 -4 56 6
44 4 57 -8 67 -9 7 -17 23 -19 37z"/>
<path d="M3166 2770 c-1 0 -7 -5 -14 -12 -7 -7 -12 -20 -12 -30 0 -10 6 -18
13 -18 6 0 12 13 13 30 1 17 0 30 0 30z"/>
<!-- <path d="M3337 2737 c-4 3 -7 0 -7 -7 0 -7 3 -10 7 -7 3 4 3 10 0 14z"/> -->
<!-- <path d="M3070 2715 c-5 3 -10 2 -10 -4 0 -5 5 -13 10 -16 6 -3 10 -2 10 4 0
5 -4 13 -10 16z"/>
<path d="M3167 2668 c-4 16 -4 16 -12 0 -4 -10 -4 -26 0 -35 8 -17 8 -17 12 0
3 9 3 25 0 35z"/>
<path d="M3224 2680 c-3 0 -2 -4 1 -10 3 -5 8 -10 11 -10 3 0 2 5 -1 10 -3 6
-8 10 -11 10z"/>
<path d="M3175 2594 c-8 11 -15 16 -15 10 0 -5 7 -29 14 -54 l15 -45 0 35 c0
19 -6 44 -14 54z"/>
<path d="M3235 2610 c-3 0 -5 -2 -5 -5 0 -3 2 -5 5 -5 3 0 5 2 5 5 0 3 -2 5
-5 5z"/>
<path d="M3285 2570 c-3 0 -5 -2 -5 -5 0 -3 2 -5 5 -5 3 0 5 2 5 5 0 3 -2 5
-5 5z"/>
<path d="M3308 2538 c-11 2 -18 -3 -18 -12 0 -9 6 -16 14 -16 8 0 17 -8 20
-17 2 -10 4 -5 3 12 -1 20 -8 31 -19 33z"/> -->
<path d="M2889 2480 c-5 0 -9 -13 -9 -30 0 -18 7 -33 19 -39 10 -6 21 -7 25
-4 4 4 9 -3 13 -15 3 -12 12 -22 19 -22 8 0 14 4 14 8 0 5 -9 27 -20 49 -10
22 -27 43 -35 47 -9 3 -21 6 -26 6z"/>
<!-- <path d="M3202 2442 c-8 8 -9 4 -5 -13 4 -13 8 -18 11 -10 2 7 -1 18 -6 23z"/> -->
<path d="M1364 2419 c-21 0 -48 -4 -59 -8 -13 -5 -6 -8 25 -8 28 0 59 -8 83
-23 20 -12 37 -18 37 -13 0 5 -10 19 -23 31 -16 15 -35 22 -63 21z"/>
<!-- <path d="M3247 2385 c-8 10 -17 14 -20 8 -3 -5 -3 -19 0 -31 3 -12 9 -22 14
-22 4 0 13 9 19 21 7 11 9 23 6 27 -3 3 -6 -1 -6 -8 0 -9 -5 -8 -13 5z"/> -->
<!-- <path d="M3347 2387 c-4 3 -7 0 -7 -7 0 -7 3 -10 7 -7 3 4 3 10 0 14z"/> -->
<path d="M3358 2340 c-2 0 -14 -18 -28 -40 -13 -22 -30 -42 -37 -44 -7 -3 -13
2 -13 10 0 8 -5 12 -11 9 -7 -5 -5 -15 6 -32 13 -19 14 -27 4 -39 -7 -8 -7
-14 -1 -14 5 0 12 7 16 15 3 8 11 15 19 15 7 0 24 11 36 24 18 20 21 28 12 44
-6 11 -8 28 -5 36 3 9 4 16 2 16z"/>
<path d="M259 2325 c-17 2 -19 -6 -19 -67 0 -65 1 -68 24 -68 12 0 34 -10 48
-22 14 -13 36 -24 49 -26 13 -1 36 -17 51 -35 15 -17 28 -27 28 -21 0 6 -7 17
-15 24 -8 7 -15 16 -15 21 0 5 6 9 14 9 8 0 17 6 20 13 3 8 11 5 24 -10 11
-13 25 -23 32 -23 7 0 9 8 5 20 -5 16 -2 20 16 20 21 0 22 1 4 20 -11 12 -31
20 -52 20 -23 0 -33 5 -33 15 0 10 10 15 33 15 18 0 38 -5 43 -10 6 -6 51 -21
100 -35 49 -14 92 -25 97 -25 4 0 7 6 7 14 0 8 7 22 16 31 9 9 15 17 13 19 -2
1 -22 9 -44 17 -25 10 -82 16 -153 18 -98 2 -120 6 -159 27 -27 14 -54 22 -65
18 -11 -3 -26 0 -34 7 -9 7 -24 13 -35 14z"/>
<path d="M3525 2330 c-9 0 -17 -6 -20 -12 -2 -7 -5 -22 -7 -33 -2 -11 -10 -20
-17 -20 -8 0 -15 -8 -17 -17 -1 -9 7 -25 18 -34 14 -14 23 -16 36 -8 9 6 19
21 20 34 2 12 -2 26 -10 31 -10 6 -10 11 0 21 6 6 12 18 12 25 0 7 -7 13 -15
13z"/>
<!-- <path d="M3255 2320 c-3 0 -5 -2 -5 -5 0 -3 2 -5 5 -5 3 0 5 2 5 5 0 3 -2 5
-5 5z"/> -->
<!-- <path d="M3465 2310 c-3 0 -5 -2 -5 -5 0 -3 2 -5 5 -5 3 0 5 2 5 5 0 3 -2 5
-5 5z"/>
<path d="M1980 2298 c-14 0 -19 -2 -12 -5 6 -2 18 -2 25 0 6 3 1 5 -13 5z"/> -->
<path d="M2065 2300 c-35 0 -44 -4 -48 -21 -5 -19 -11 -21 -41 -16 -24 4 -36
2 -36 -6 0 -7 -9 -1 -18 11 l-18 24 -17 -26 c-9 -14 -17 -28 -17 -31 0 -3 31
-5 68 -5 56 0 72 4 87 20 12 14 25 18 41 14 13 -3 31 -4 39 0 8 3 12 12 9 21
-4 10 -20 15 -49 15z"/>
<!-- <path d="M2160 2270 c-7 0 -10 -3 -7 -7 4 -3 10 -3 14 0 3 4 0 7 -7 7z"/> -->
<!-- <path d="M1137 2190 c-3 0 -9 -5 -12 -11 -4 -6 -17 -14 -29 -19 -14 -6 -16 -9
-5 -9 9 -1 24 8 34 19 10 11 15 20 12 20z"/>
<path d="M1185 2190 c-3 0 -5 -2 -5 -5 0 -3 2 -5 5 -5 3 0 5 2 5 5 0 3 -2 5
-5 5z"/>
<path d="M3376 2180 c-3 0 -8 -4 -11 -10 -3 -5 -1 -10 4 -10 6 0 11 5 11 10 0
6 -2 10 -4 10z"/> -->
<path d="M3438 2180 c-4 0 -15 -12 -24 -27 -9 -16 -25 -40 -35 -55 -11 -15
-19 -36 -19 -48 0 -11 6 -21 13 -22 6 0 22 -1 34 -2 12 -1 39 -14 61 -31 22
-16 47 -41 56 -55 15 -24 15 -20 16 73 0 93 -1 97 -19 88 -14 -8 -22 -7 -31 4
-7 8 -19 15 -27 15 -10 0 -11 5 -4 18 7 13 6 23 -1 30 -7 7 -15 12 -20 12z"/>
<!-- <path d="M256 2160 c-6 0 -4 -5 4 -10 8 -6 24 -15 35 -21 16 -8 15 -6 -4 10
-13 12 -28 21 -35 21z"/> -->
<!-- <path d="M3327 2160 c-2 0 -7 -3 -10 -7 -4 -3 -7 -17 -7 -30 0 -12 5 -23 10
-23 6 0 10 14 10 30 0 17 -1 30 -3 30z"/>
<path d="M3386 2140 c-3 0 -8 -5 -12 -12 -4 -7 -3 -8 4 -4 7 4 12 9 12 12 0 2
-2 4 -4 4z"/>
<path d="M3305 2080 c-3 0 -5 -2 -5 -5 0 -3 2 -5 5 -5 3 0 5 2 5 5 0 3 -2 5
-5 5z"/> -->
<!-- <path d="M3295 2040 c-2 0 -7 -5 -10 -10 -4 -6 -10 -8 -14 -5 -5 2 -11 -12
-14 -32 -4 -20 -3 -42 2 -50 6 -12 9 -12 20 1 7 8 14 33 16 55 2 23 2 41 0 41z"/> -->
<!-- <path d="M3430 1920 c-5 8 -9 11 -9 5 0 -5 4 -19 9 -30 6 -13 9 -15 9 -5 0 8
-4 22 -9 30z"/> -->
<path d="M299 1910 c-11 0 -19 -4 -19 -10 0 -5 -9 -10 -20 -10 -17 0 -20 -7
-20 -40 0 -29 4 -40 15 -40 8 0 15 -5 15 -10 0 -6 -7 -13 -15 -16 -8 -4 -15
-10 -15 -16 0 -5 13 0 29 11 16 12 38 21 48 21 11 0 23 -3 27 -7 3 -4 23 -12
43 -19 21 -7 40 -10 43 -7 3 3 -1 8 -7 10 -7 3 -13 9 -13 14 0 4 7 6 15 3 8
-4 15 -1 15 5 0 6 8 11 17 11 15 0 14 2 -3 15 -18 14 -18 14 7 15 15 0 32 6
38 14 9 11 9 16 -1 22 -7 5 -26 7 -42 5 -16 -1 -40 3 -54 11 -20 10 -26 10
-29 1 -3 -7 -10 -13 -18 -13 -7 0 -18 7 -25 15 -7 8 -21 15 -31 15z"/>
<!-- <path d="M3497 1806 c-15 1 -27 -3 -27 -7 0 -5 9 -14 19 -21 10 -6 17 -17 14
-23 -2 -7 4 -15 13 -19 9 -4 19 -4 22 -1 3 2 1 19 -4 37 -8 26 -15 33 -37 34z"/> -->
<!-- <path d="M3327 1777 c-4 3 -7 0 -7 -7 0 -7 3 -10 7 -7 3 4 3 10 0 14z"/> -->
<path d="M330 1710 c-19 0 -33 -7 -40 -20 -6 -11 -20 -20 -30 -20 -19 0 -20
-7 -20 -100 0 -90 2 -99 18 -93 9 4 30 17 45 30 16 13 41 23 55 23 16 0 32 8
39 19 10 16 8 19 -16 24 -15 3 -38 3 -50 0 -11 -3 -21 -3 -21 1 0 3 13 12 30
21 17 9 33 27 36 41 4 16 2 29 -6 34 -6 4 -11 10 -11 14 1 3 1 11 1 16 0 6
-13 10 -30 10z"/>
<path d="M3508 1599 c-18 -1 -45 -4 -60 -6 -15 -2 -36 -15 -47 -29 -10 -13
-28 -24 -40 -24 -11 0 -25 -9 -31 -20 -7 -13 -21 -20 -40 -20 -17 0 -30 -4
-30 -9 0 -5 -9 -13 -21 -16 -11 -4 -36 -20 -55 -37 -19 -17 -34 -39 -34 -49 0
-12 11 -24 27 -30 16 -6 37 -8 48 -6 11 3 31 9 45 13 21 6 18 1 -15 -26 -22
-18 -55 -39 -73 -47 -25 -10 -33 -19 -30 -36 2 -14 10 -22 23 -22 11 -1 27 -5
35 -10 8 -5 48 -9 88 -7 57 1 79 6 102 24 19 13 32 34 36 56 5 25 2 40 -13 60
-14 19 -31 28 -56 30 -21 2 -37 5 -37 6 0 2 16 21 35 42 19 21 35 44 35 51 0
7 7 10 15 7 8 -4 15 -12 15 -20 0 -8 5 -14 11 -14 5 0 16 -15 24 -32 8 -18 21
-41 28 -50 8 -10 22 -18 31 -18 14 0 16 15 16 120 l0 120 -32 -1z"/>
<!-- <path d="M850 1465 c-6 3 -13 -2 -17 -12 -3 -10 -16 -32 -29 -49 -12 -16 -29
-47 -38 -68 -14 -33 -14 -37 -1 -26 8 7 22 26 31 44 9 17 22 41 28 53 6 13 17
23 24 23 6 0 12 6 12 14 0 8 -5 18 -10 21z"/> -->
<path d="M1860 1460 c-84 0 -110 -3 -120 -15 -7 -9 -11 -18 -8 -20 2 -3 61 -2
131 2 105 5 125 8 116 20 -8 9 -41 13 -119 13z"/>
<path d="M263 1445 c-20 7 -21 4 -21 -74 l0 -81 64 0 c48 0 64 4 64 14 0 7 10
20 23 29 l22 15 -25 10 c-18 8 -20 11 -7 11 9 1 17 6 17 11 0 6 -13 10 -30 10
-23 0 -30 5 -30 19 0 13 -9 20 -27 24 -16 3 -38 8 -50 12z"/>
<!-- <path d="M1215 1400 c-3 0 -5 -2 -5 -5 0 -3 2 -5 5 -5 3 0 5 2 5 5 0 3 -2 5
-5 5z"/> -->
<!-- <path d="M1076 1320 c-2 0 -10 -8 -17 -17 -13 -16 -12 -17 4 -4 9 7 17 15 17
17 0 2 -2 4 -4 4z"/>
<path d="M593 1289 c-5 0 -16 -8 -25 -18 -10 -10 -15 -21 -11 -24 3 -4 15 0
25 10 10 9 18 20 18 25 0 4 -3 8 -7 7z"/>
<path d="M1026 1280 c-2 0 -10 -8 -17 -17 -13 -16 -12 -17 4 -4 9 7 17 15 17
17 0 2 -2 4 -4 4z"/> -->
<path d="M3461 1260 c-5 0 -19 -8 -32 -19 -13 -10 -34 -21 -46 -25 -12 -4 -33
-20 -47 -36 -13 -16 -26 -25 -28 -19 -2 7 -19 3 -43 -11 -22 -12 -44 -24 -48
-27 -5 -3 4 -18 19 -34 20 -21 33 -27 48 -22 12 3 32 8 46 10 14 2 34 4 45 4
10 0 38 15 61 34 29 24 44 45 48 70 4 19 2 44 -4 55 -6 11 -14 20 -19 20z"/>
<path d="M253 1250 c-9 0 -13 -21 -13 -73 l0 -74 58 2 c31 1 77 8 101 15 35
11 44 11 51 0 6 -9 2 -19 -8 -27 -9 -7 -21 -13 -26 -13 -5 0 -3 7 4 15 7 8 8
15 3 15 -6 0 -20 -9 -32 -19 -13 -11 -20 -24 -17 -30 4 -5 20 -12 36 -16 22
-5 42 -1 71 14 22 12 46 21 55 21 8 0 13 -4 10 -9 -3 -5 -26 -18 -51 -30 -25
-12 -45 -28 -45 -36 0 -8 2 -15 5 -15 3 0 15 6 28 13 12 6 26 18 30 25 4 6 14
12 22 12 8 0 31 16 52 35 21 19 43 35 48 35 6 0 3 5 -5 10 -13 8 -13 11 -1 22
11 10 14 10 18 0 3 -6 9 -9 15 -6 6 4 5 10 -3 15 -11 6 -7 15 16 39 16 17 23
30 15 30 -7 0 -37 -16 -66 -35 -29 -19 -58 -35 -64 -35 -10 0 -10 3 0 14 10
12 8 15 -12 14 -13 -1 -42 -1 -65 0 -24 1 -43 6 -43 10 0 5 24 19 53 33 45 21
49 24 26 27 -14 2 -49 -6 -78 -17 -28 -12 -62 -21 -74 -21 -12 1 -40 9 -62 20
-22 11 -46 19 -52 20z"/>
<!-- <path d="M986 1250 c-3 0 -8 -5 -12 -12 -4 -7 -3 -8 4 -4 7 4 12 9 12 12 0 2
-2 4 -4 4z"/> -->
<!-- <path d="M1347 1217 c-4 3 -7 0 -7 -7 0 -7 3 -10 7 -7 3 4 3 10 0 14z"/>
<path d="M946 1200 c-3 0 -8 -5 -12 -12 -4 -7 -3 -8 4 -4 7 4 12 9 12 12 0 2
-2 4 -4 4z"/>
<path d="M1335 1190 c-3 0 -5 -2 -5 -5 0 -3 2 -5 5 -5 3 0 5 2 5 5 0 3 -2 5
-5 5z"/>
<path d="M915 1160 c-3 0 -5 -2 -5 -5 0 -3 2 -5 5 -5 3 0 5 2 5 5 0 3 -2 5 -5
5z"/> -->
<path d="M3538 1108 c-2 34 -7 47 -15 45 -7 -3 -13 -11 -13 -18 0 -8 -7 -11
-18 -8 -10 2 -30 -7 -47 -23 -16 -15 -45 -34 -64 -42 -32 -14 -33 -16 -13 -20
12 -2 22 -10 22 -18 0 -8 -9 -14 -20 -14 -10 0 -23 8 -29 17 -9 17 -11 16 -30
-1 -12 -11 -21 -26 -21 -34 0 -9 6 -12 16 -8 9 4 23 1 30 -5 8 -7 36 -10 67
-7 37 3 60 11 75 26 12 12 22 27 22 33 0 5 4 8 9 5 5 -3 14 1 20 8 7 8 11 36
9 64z"/>
<!-- <path d="M2760 1130 c-7 0 -10 -3 -7 -7 4 -3 10 -3 14 0 3 4 0 7 -7 7z"/>
<path d="M2804 1120 c-2 0 -4 -4 -4 -10 0 -5 5 -10 11 -10 5 0 7 5 4 10 -3 6
-8 10 -11 10z"/> -->
<path d="M2849 1120 c-5 0 -9 -11 -9 -25 0 -19 -5 -25 -17 -23 -14 2 -17 -3
-15 -20 1 -18 -2 -23 -15 -20 -10 2 -19 10 -19 18 -1 8 -2 21 -3 28 0 6 -6 12
-12 12 -8 0 -10 -17 -7 -50 3 -27 2 -50 -2 -50 -4 0 -10 -24 -14 -52 -3 -29
-9 -69 -12 -88 l-5 -35 19 40 c11 22 34 49 51 60 17 11 30 24 29 30 -1 5 2 20
6 33 4 12 16 27 26 32 15 8 24 6 40 -10 11 -11 20 -28 20 -38 0 -11 8 -26 18
-35 10 -10 23 -17 29 -17 5 0 18 -9 28 -20 14 -16 31 -20 77 -20 46 0 58 -3
58 -16 0 -8 4 -13 8 -10 5 3 31 -17 57 -44 30 -30 52 -45 56 -39 5 8 12 8 27
0 11 -6 29 -11 40 -11 10 0 28 10 40 23 12 13 22 33 22 45 0 12 -3 22 -6 22
-3 0 -15 -11 -26 -25 -16 -20 -23 -23 -34 -14 -8 6 -14 20 -14 30 0 10 -8 23
-17 28 -10 5 -22 10 -28 10 -5 1 -20 4 -32 8 -13 3 -23 11 -23 19 0 8 -8 14
-19 14 -10 0 -24 7 -31 15 -7 8 -21 15 -31 15 -11 0 -27 9 -36 20 -10 11 -23
20 -30 20 -7 0 -13 5 -13 11 0 5 -4 8 -8 5 -5 -3 -23 8 -40 25 -17 17 -36 28
-42 24 -5 -3 -10 2 -10 13 0 11 -9 22 -20 25 -11 3 -20 1 -20 -4 0 -5 -4 -9
-10 -9 -5 0 -12 11 -16 25 -3 14 -10 25 -15 25z"/>
<!-- <path d="M845 1070 c-3 0 -5 -2 -5 -5 0 -3 2 -5 5 -5 3 0 5 2 5 5 0 3 -2 5 -5
5z"/>
<path d="M1376 1050 c-2 0 -10 -8 -17 -17 -13 -16 -12 -17 4 -4 9 7 17 15 17
17 0 2 -2 4 -4 4z"/> -->
<path d="M623 1009 c-5 0 -30 -13 -58 -29 -27 -16 -60 -33 -72 -39 -13 -6 -23
-15 -23 -21 0 -5 7 -10 16 -10 8 0 35 11 59 24 23 14 52 33 64 42 12 10 21 22
21 26 0 5 -3 8 -7 7z"/>
<!-- <path d="M1336 1010 c-2 0 -10 -8 -17 -17 -13 -16 -12 -17 4 -4 9 7 17 15 17
17 0 2 -2 4 -4 4z"/> -->
<path d="M757 930 c-2 0 -7 -3 -10 -7 -4 -3 -7 -13 -7 -22 0 -8 -10 -25 -22
-38 -12 -13 -17 -23 -11 -23 6 0 13 5 15 12 2 6 10 8 16 4 7 -4 12 -11 12 -16
0 -5 -11 -12 -25 -16 -26 -6 -26 -7 -6 -21 11 -7 26 -32 32 -53 7 -22 18 -45
26 -51 7 -6 13 -21 13 -33 0 -14 31 -52 85 -106 l85 -85 0 -75 c0 -46 5 -81
12 -88 7 -7 21 -12 33 -12 12 0 26 5 32 11 9 9 19 6 40 -8 15 -11 40 -22 56
-25 20 -4 27 -1 27 10 0 13 2 13 18 0 10 -10 28 -14 47 -11 22 3 36 -1 49 -16
16 -18 31 -21 98 -21 44 0 78 4 76 8 -1 4 -127 130 -279 280 -200 196 -283
272 -299 272 -13 0 -39 12 -59 27 -20 15 -42 34 -48 43 -7 8 -11 25 -8 38 3
12 4 22 2 22z"/>
<!-- <path d="M1297 908 c-3 9 -5 -1 -4 -23 0 -22 2 -30 4 -17 2 12 2 30 0 40z"/> -->
<!-- <path d="M3396 890 c-3 0 -8 -5 -12 -12 -4 -7 -3 -8 4 -4 7 4 12 9 12 12 0 2
-2 4 -4 4z"/> -->
<path d="M1097 860 c-2 0 -8 -5 -15 -12 -7 -7 -12 -25 -12 -40 0 -18 5 -28 15
-28 11 0 15 11 15 40 0 22 -1 40 -3 40z"/>
<!-- <path d="M2900 830 c-6 21 -8 22 -14 8 -4 -9 -6 -24 -4 -32 1 -9 8 -12 14 -8
6 4 7 18 4 32z"/> -->
<!-- <path d="M255 840 c-8 0 -15 -9 -15 -20 0 -11 2 -20 5 -20 2 0 9 9 15 20 9 16
8 20 -5 20z"/> -->
<path d="M1620 837 c-14 1 -41 -8 -60 -21 -20 -13 -42 -31 -49 -40 -8 -9 -15
-40 -16 -69 -1 -29 -3 -61 -4 -73 0 -12 -11 -26 -23 -32 -18 -8 18 -11 149
-11 l172 -1 -22 36 c-12 20 -29 46 -37 58 -8 13 -26 37 -40 55 -13 17 -29 46
-35 64 -7 24 -17 33 -35 34z"/>
<!-- <path d="M1306 827 c-3 4 -6 -2 -5 -13 0 -11 3 -14 6 -6 3 7 2 16 -1 19z"/> -->
<!-- <path d="M2722 792 c-9 9 -12 7 -12 -12 0 -19 3 -21 12 -12 9 9 9 15 0 24z"/>
<path d="M1294 780 c-3 0 -2 -4 1 -10 3 -5 8 -10 11 -10 3 0 2 5 -1 10 -3 6
-8 10 -11 10z"/>
<path d="M315 770 c-3 0 -5 -2 -5 -5 0 -3 2 -5 5 -5 3 0 5 2 5 5 0 3 -2 5 -5
5z"/>
<path d="M595 770 c-3 0 -5 -2 -5 -5 0 -3 2 -5 5 -5 3 0 5 2 5 5 0 3 -2 5 -5
5z"/>
<path d="M2905 760 c-3 0 -5 -2 -5 -5 0 -3 2 -5 5 -5 3 0 5 2 5 5 0 3 -2 5 -5
5z"/>
<path d="M305 750 c-3 0 -5 -2 -5 -5 0 -3 2 -5 5 -5 3 0 5 2 5 5 0 3 -2 5 -5
5z"/>
<path d="M565 750 c-3 0 -5 -2 -5 -5 0 -3 2 -5 5 -5 3 0 5 2 5 5 0 3 -2 5 -5
5z"/>
<path d="M1314 750 c-3 0 -2 -4 1 -10 3 -5 8 -10 11 -10 3 0 2 5 -1 10 -3 6
-8 10 -11 10z"/>
<path d="M2706 737 c-3 4 -6 -2 -5 -13 0 -11 3 -14 6 -6 3 7 2 16 -1 19z"/>
<path d="M525 730 c-3 0 -5 -2 -5 -5 0 -3 2 -5 5 -5 3 0 5 2 5 5 0 3 -2 5 -5
5z"/>
<path d="M2807 723 c-3 6 -5 1 -5 -13 0 -14 2 -19 5 -12 2 6 2 18 0 25z"/>
<path d="M298 698 c-1 4 -15 6 -30 4 -23 -3 -28 -8 -28 -31 0 -16 10 -37 23
-49 15 -14 36 -22 59 -22 20 0 41 6 47 14 9 11 8 17 -7 28 -10 7 -21 21 -25
31 -3 9 -13 17 -21 17 -8 0 -16 3 -18 8z"/>
<path d="M505 710 c-3 0 -5 -2 -5 -5 0 -3 2 -5 5 -5 3 0 5 2 5 5 0 3 -2 5 -5
5z"/>
<path d="M1355 700 c-3 0 -5 -2 -5 -5 0 -3 2 -5 5 -5 3 0 5 2 5 5 0 3 -2 5 -5
5z"/>
<path d="M455 680 c-3 0 -5 -2 -5 -5 0 -3 2 -5 5 -5 3 0 5 2 5 5 0 3 -2 5 -5
5z"/>
<path d="M2695 680 c-3 0 -5 -2 -5 -5 0 -3 2 -5 5 -5 3 0 5 2 5 5 0 3 -2 5 -5
5z"/>
<path d="M2775 680 c-3 0 -5 -2 -5 -5 0 -3 2 -5 5 -5 3 0 5 2 5 5 0 3 -2 5 -5
5z"/>
<path d="M2807 667 c-4 3 -7 0 -7 -7 0 -7 3 -10 7 -7 3 4 3 10 0 14z"/> -->
<!-- <path d="M415 660 c-3 0 -5 -2 -5 -5 0 -3 2 -5 5 -5 3 0 5 2 5 5 0 3 -2 5 -5
5z"/>
<path d="M1384 650 c-3 0 -2 -4 1 -10 3 -5 8 -10 11 -10 3 0 2 5 -1 10 -3 6
-8 10 -11 10z"/>
<path d="M1424 630 c-3 0 -2 -4 1 -10 3 -5 8 -10 11 -10 3 0 2 5 -1 10 -3 6
-8 10 -11 10z"/>
<path d="M2687 607 c-4 3 -7 0 -7 -7 0 -7 3 -10 7 -7 3 4 3 10 0 14z"/>
<path d="M2907 587 c-4 3 -7 0 -7 -7 0 -7 3 -10 7 -7 3 4 3 10 0 14z"/>
<path d="M2935 580 c-3 0 -5 -2 -5 -5 0 -3 2 -5 5 -5 3 0 5 2 5 5 0 3 -2 5 -5
5z"/>
<path d="M3135 570 c-3 0 -5 -2 -5 -5 0 -3 2 -5 5 -5 3 0 5 2 5 5 0 3 -2 5 -5
5z"/>
<path d="M2677 557 c-4 3 -7 0 -7 -7 0 -7 3 -10 7 -7 3 4 3 10 0 14z"/>
<path d="M1834 550 c-3 0 -2 -4 1 -10 3 -5 8 -10 11 -10 3 0 2 5 -1 10 -3 6
-8 10 -11 10z"/>
<path d="M3027 537 c-4 3 -7 0 -7 -7 0 -7 3 -10 7 -7 3 4 3 10 0 14z"/>
<path d="M715 520 c-3 0 -5 -2 -5 -5 0 -3 2 -5 5 -5 3 0 5 2 5 5 0 3 -2 5 -5
5z"/>
<path d="M1865 520 c-3 0 -5 -2 -5 -5 0 -3 2 -5 5 -5 3 0 5 2 5 5 0 3 -2 5 -5
5z"/>
<path d="M2666 497 c-3 4 -6 -2 -5 -13 0 -11 3 -14 6 -6 3 7 2 16 -1 19z"/>
<path d="M3365 380 c-3 0 -5 -2 -5 -5 0 -3 2 -5 5 -5 3 0 5 2 5 5 0 3 -2 5 -5
5z"/>
<path d="M3536 370 c-3 0 -8 -4 -11 -10 -3 -5 -1 -10 4 -10 6 0 11 5 11 10 0
6 -2 10 -4 10z"/>
<path d="M615 360 c-3 0 -5 -2 -5 -5 0 -3 2 -5 5 -5 3 0 5 2 5 5 0 3 -2 5 -5
5z"/>
<path d="M1994 330 c-2 0 -4 -4 -4 -9 0 -6 4 -13 10 -16 6 -3 7 1 4 9 -3 9 -8
16 -10 16z"/>
<path d="M2968 330 c-6 0 -7 -7 -4 -16 3 -9 6 -18 6 -20 0 -2 4 -4 9 -4 5 0 7
9 4 20 -3 11 -10 20 -15 20z"/>
<path d="M1085 260 c-8 0 -15 -4 -15 -10 0 -5 7 -10 15 -10 8 0 15 5 15 10 0
6 -7 10 -15 10z"/>
<path d="M3245 250 c-3 0 -5 -2 -5 -5 0 -3 2 -5 5 -5 3 0 5 2 5 5 0 3 -2 5 -5
5z"/> -->
</g>
<g transform="translate(0.000000,448.000000) scale(0.100000,-0.100000)"
fill="#a0a0a0" stroke="none">
<path d="M2510 4240 c-986 0 -1030 -1 -1030 -18 0 -10 -16 -33 -35 -52 -20
-20 -35 -44 -35 -57 0 -13 -5 -32 -12 -42 -9 -15 -6 -25 22 -60 19 -23 45 -44
59 -48 16 -4 36 0 55 12 20 12 55 19 100 21 38 2 72 8 76 13 3 6 27 14 53 17
41 6 51 4 67 -14 15 -16 27 -20 54 -15 25 4 41 0 64 -17 17 -12 35 -19 41 -15
7 4 24 -1 39 -11 15 -10 47 -25 72 -32 25 -7 52 -14 60 -15 8 -2 36 -13 61
-25 25 -12 59 -22 77 -22 17 0 34 -4 37 -10 3 -5 0 -10 -7 -10 -7 0 7 -11 31
-25 23 -14 51 -25 61 -25 10 0 23 -7 30 -15 7 -8 22 -15 34 -15 12 0 27 -9 34
-20 7 -11 19 -20 28 -20 9 0 12 -5 8 -11 -4 -7 16 -34 47 -64 30 -29 63 -64
74 -77 12 -14 21 -38 22 -54 0 -16 1 -34 2 -40 0 -7 12 -15 26 -18 14 -4 23
-11 20 -16 -4 -6 0 -13 9 -16 8 -3 23 -22 32 -42 10 -20 19 -40 20 -44 1 -5 2
-16 3 -27 0 -10 20 -37 42 -60 23 -22 39 -42 35 -42 -3 -1 -10 -2 -16 -3 -5 0
-10 -4 -10 -8 0 -5 0 -11 0 -15 0 -5 16 -18 34 -31 l35 -24 31 24 c18 13 38
35 46 50 7 14 29 36 49 48 25 16 53 22 102 23 53 2 68 5 68 17 0 8 -10 16 -22
18 -13 2 -23 9 -23 15 1 7 9 22 19 35 13 14 30 22 50 22 18 0 46 6 64 14 18 7
68 17 110 20 42 4 77 12 77 17 0 5 -28 9 -62 9 -51 1 -59 3 -44 12 11 6 45 8
82 5 l64 -5 0 394 0 394 -1030 0z"/>
<!-- <path d="M1604 3909 c-11 0 -14 -3 -6 -6 7 -3 16 -2 19 1 4 3 -2 6 -13 5z"/> -->
<!-- <path d="M1415 3850 c-3 0 -5 -2 -5 -5 0 -3 2 -5 5 -5 3 0 5 2 5 5 0 3 -2 5
-5 5z"/>
<path d="M1345 3780 c-3 0 -5 -2 -5 -5 0 -3 2 -5 5 -5 3 0 5 2 5 5 0 3 -2 5
-5 5z"/>
<path d="M2484 3710 c-3 0 -2 -4 1 -10 3 -5 8 -10 11 -10 3 0 2 5 -1 10 -3 6
-8 10 -11 10z"/>
<path d="M2643 3567 c-6 2 -13 -13 -15 -34 -3 -21 -2 -45 3 -53 6 -13 9 -12
15 4 4 11 8 33 8 50 0 16 -5 31 -11 33z"/>
<path d="M2677 3507 c-4 3 -7 0 -7 -7 0 -7 3 -10 7 -7 3 4 3 10 0 14z"/>
<path d="M2075 3480 c-8 0 -18 -7 -22 -16 -3 -8 -1 -20 6 -27 6 -6 12 -9 15
-6 2 2 7 14 10 27 6 16 3 22 -9 22z"/>
<path d="M2667 3477 c-4 3 -7 0 -7 -7 0 -7 3 -10 7 -7 3 4 3 10 0 14z"/>
<path d="M2615 3470 c-3 0 -5 -2 -5 -5 0 -3 2 -5 5 -5 3 0 5 2 5 5 0 3 -2 5
-5 5z"/>
<path d="M2685 3470 c-3 0 -5 -2 -5 -5 0 -3 2 -5 5 -5 3 0 5 2 5 5 0 3 -2 5
-5 5z"/>
<path d="M2721 3450 c-6 0 -13 -4 -16 -10 -3 -6 1 -7 9 -4 9 3 16 8 16 10 0 2
-4 4 -9 4z"/>
<path d="M2685 3440 c-3 0 -5 -2 -5 -5 0 -3 2 -5 5 -5 3 0 5 2 5 5 0 3 -2 5
-5 5z"/>
<path d="M3385 3380 c-15 0 -24 -4 -20 -10 3 -5 12 -10 20 -10 8 0 17 5 20 10
4 6 -5 10 -20 10z"/>
<path d="M2744 3330 c-3 0 -2 -4 1 -10 3 -5 8 -10 11 -10 3 0 2 5 -1 10 -3 6
-8 10 -11 10z"/>
<path d="M2779 3290 c-6 0 -7 -4 -4 -10 3 -5 11 -10 16 -10 6 0 7 5 4 10 -3 6
-11 10 -16 10z"/>
<path d="M3524 3279 c-11 0 -14 -3 -6 -6 7 -3 16 -2 19 1 4 3 -2 6 -13 5z"/>
<path d="M2831 3255 c-6 3 -8 -4 -6 -16 2 -12 7 -24 10 -27 3 -3 5 4 5 16 0
11 -4 23 -9 27z"/> -->
<path d="M3128 3219 c-7 -1 -26 -4 -43 -6 -16 -3 -40 -14 -52 -26 -17 -15 -23
-32 -23 -63 0 -25 -6 -47 -15 -54 -13 -11 -15 -8 -15 15 0 23 -2 26 -15 15 -8
-7 -15 -18 -15 -26 0 -7 7 -20 16 -28 8 -9 19 -16 23 -16 4 0 17 9 29 20 11
11 27 17 35 14 9 -3 22 6 34 23 11 15 27 48 36 73 9 25 17 49 17 53 0 4 -6 6
-12 6z"/>
<path d="M3237 3186 c-2 2 -13 -7 -24 -20 -12 -13 -24 -33 -27 -44 -4 -11 -13
-26 -21 -32 -10 -9 -15 -32 -15 -74 1 -52 2 -58 13 -41 6 11 12 22 13 25 0 3
4 23 9 45 4 22 14 54 23 70 8 17 19 38 24 48 5 11 8 21 5 23z"/>
<path d="M2130 3101 c-30 2 -118 3 -195 1 -113 -2 -142 -6 -158 -19 -12 -11
-41 -19 -85 -21 -37 -2 -74 -10 -82 -17 -8 -6 -22 -15 -30 -19 -8 -4 -26 -13
-40 -21 -14 -8 -46 -15 -71 -15 -26 0 -60 -7 -75 -15 -16 -8 -41 -15 -55 -15
-14 0 -34 -9 -43 -19 -10 -11 -30 -22 -44 -26 -15 -3 -39 -11 -54 -18 -16 -7
-28 -15 -28 -19 0 -5 -16 -25 -35 -47 -19 -21 -35 -48 -35 -60 0 -11 -6 -21
-14 -21 -8 0 -16 -17 -20 -47 -3 -25 -12 -54 -20 -62 -8 -9 -17 -41 -20 -71
-3 -30 -7 -68 -9 -85 -1 -23 3 -30 18 -33 11 -2 32 -15 47 -29 25 -24 30 -25
125 -19 54 3 119 8 146 12 41 5 50 3 72 -17 14 -13 25 -30 25 -37 0 -8 9 -26
19 -41 11 -15 21 -45 23 -67 l3 -39 -37 1 c-26 1 -38 -3 -38 -12 0 -8 -4 -14
-9 -14 -5 0 -24 12 -41 26 -17 15 -34 24 -37 20 -4 -3 -1 -6 5 -6 6 0 12 -15
14 -32 3 -32 5 -33 51 -36 39 -3 47 -6 47 -23 0 -10 -4 -19 -10 -19 -5 0 -19
-8 -29 -17 -15 -12 -18 -21 -10 -35 5 -10 16 -18 24 -18 8 0 15 -4 15 -10 0
-5 -13 -33 -28 -62 -16 -29 -31 -75 -34 -101 -4 -34 -15 -60 -37 -87 -17 -21
-31 -43 -31 -48 0 -5 -8 -16 -18 -25 -10 -10 -32 -17 -49 -17 -23 0 -39 9 -64
40 -19 22 -48 57 -65 78 -17 20 -34 52 -38 71 -3 19 -13 43 -22 52 -9 10 -18
37 -21 61 -4 38 -1 47 30 81 28 30 42 37 71 37 20 0 36 5 36 10 0 6 9 10 19
10 11 0 23 -4 26 -10 3 -5 17 -10 31 -10 17 0 24 6 24 19 0 11 -6 22 -12 24
-9 4 -7 6 3 6 9 1 23 9 31 19 8 9 18 27 21 40 3 12 1 22 -4 22 -5 0 -9 -11 -9
-24 0 -13 -7 -29 -15 -36 -11 -9 -35 -11 -79 -7 -55 5 -66 3 -81 -13 -10 -11
-26 -20 -36 -20 -10 0 -21 -4 -24 -10 -3 -5 -19 -10 -34 -10 -26 0 -29 -4 -34
-45 -4 -24 -4 -58 -1 -75 4 -16 2 -30 -2 -30 -5 0 -9 -29 -9 -65 1 -35 4 -67
8 -71 4 -4 7 -15 7 -25 0 -11 28 -41 65 -71 36 -28 65 -56 65 -61 0 -5 15 -26
33 -47 22 -24 36 -51 41 -80 4 -23 13 -52 21 -63 8 -12 15 -36 15 -53 0 -17 6
-37 14 -43 8 -6 18 -11 22 -10 5 1 15 1 22 0 6 0 12 -8 12 -17 0 -9 7 -14 18
-12 11 2 18 14 20 35 l3 31 172 0 172 0 -70 -19 c-49 -13 -56 -17 -25 -12 25
3 72 9 105 13 33 4 52 8 42 8 -15 2 -15 5 -5 22 7 11 22 20 33 21 11 1 0 5
-25 11 -25 5 -65 12 -90 16 -39 6 -45 11 -45 31 0 13 7 28 15 32 8 5 36 17 61
28 34 15 50 29 60 53 7 18 21 40 31 50 10 10 18 25 18 34 0 10 -7 14 -22 12
-18 -2 -22 -9 -20 -30 2 -24 -2 -28 -34 -34 -21 -4 -50 -20 -70 -41 -19 -18
-34 -38 -34 -43 0 -6 -22 -10 -49 -10 -31 0 -53 5 -61 15 -7 8 -21 15 -31 15
-10 0 -29 15 -41 34 -12 19 -31 39 -41 46 -17 10 -18 9 -12 -10 4 -12 4 -42 0
-67 -6 -42 -8 -44 -38 -41 -27 2 -33 8 -35 31 -2 16 5 38 17 53 12 15 21 34
21 44 0 12 9 17 34 18 26 1 35 -3 39 -18 4 -15 14 -20 42 -20 22 0 34 4 30 10
-4 6 -22 17 -41 25 -29 12 -34 19 -34 46 0 18 7 40 16 50 9 10 18 40 21 66 2
26 9 57 14 68 5 11 14 72 20 135 6 63 13 137 16 163 3 29 1 53 -6 60 -6 6 -11
25 -11 42 0 23 -10 39 -42 67 -37 32 -50 38 -90 38 -26 0 -50 -4 -53 -10 -3
-5 -24 -10 -45 -10 -21 0 -42 5 -45 10 -3 6 -24 10 -46 10 -27 0 -42 5 -46 16
-3 9 5 26 21 43 15 15 26 39 26 53 0 15 -4 30 -10 33 -5 3 -10 10 -10 14 0 5
9 11 20 14 16 4 20 14 20 45 0 23 5 44 10 47 6 3 10 21 10 40 0 19 5 37 10 40
6 3 10 17 10 30 0 13 11 37 25 53 14 17 25 35 25 41 0 6 11 11 25 11 13 0 39
8 57 18 20 12 64 21 113 25 44 3 81 11 83 16 2 6 10 11 18 11 7 0 29 9 49 20
20 11 50 20 67 20 17 0 39 7 49 16 15 13 44 16 169 16 l151 -1 43 -38 c24 -21
59 -51 79 -66 21 -15 37 -36 37 -46 0 -9 14 -30 30 -46 28 -27 30 -33 30 -106
0 -56 -4 -80 -15 -89 -8 -7 -15 -25 -15 -40 0 -15 7 -33 15 -40 8 -7 15 -20
15 -30 0 -10 -7 -23 -15 -30 -8 -7 -15 -23 -15 -36 0 -15 -6 -24 -15 -24 -8 0
-15 -7 -15 -15 0 -9 -9 -15 -23 -15 -13 0 -28 -5 -33 -10 -7 -7 -21 -7 -45 1
-19 7 -41 18 -50 25 -10 9 -40 14 -81 14 -44 0 -69 -5 -77 -14 -10 -12 1 -14
73 -13 75 2 87 -1 108 -20 15 -14 37 -23 55 -23 18 0 43 4 57 9 16 7 33 6 50
-2 14 -7 26 -18 26 -24 0 -9 -16 -13 -49 -13 -27 0 -56 -3 -65 -6 -9 -3 -16
-11 -16 -17 0 -6 27 -37 60 -68 57 -56 62 -58 137 -69 43 -7 86 -16 96 -21 11
-6 17 -22 17 -43 0 -18 -3 -48 -6 -65 -4 -20 -29 -55 -68 -95 -33 -35 -74 -69
-90 -77 -20 -10 -34 -27 -43 -55 -8 -24 -35 -61 -69 -95 -54 -53 -56 -54 -114
-54 -41 1 -64 6 -78 18 -10 9 -24 17 -31 17 -6 0 -17 4 -24 10 -7 5 -26 21
-43 35 -18 14 -39 25 -48 25 -9 0 -16 -5 -16 -10 0 -6 12 -28 26 -50 15 -22
32 -40 40 -40 7 0 21 -10 31 -22 10 -13 29 -29 41 -35 12 -7 28 -13 36 -13 7
0 20 -7 27 -17 8 -9 37 -34 64 -56 28 -22 58 -51 67 -66 11 -16 18 -45 18 -77
0 -40 -5 -55 -22 -72 -13 -11 -38 -22 -57 -24 -20 -2 -37 -10 -42 -20 -5 -10
-13 -26 -18 -35 -4 -10 -18 -19 -31 -21 -14 -2 -27 4 -37 17 -9 13 -25 21 -44
21 -18 0 -29 -5 -29 -14 0 -8 -3 -21 -6 -30 -4 -11 2 -19 19 -25 13 -5 34 -22
46 -37 18 -23 21 -36 16 -69 -5 -26 -18 -52 -41 -75 l-34 -35 -167 0 -166 0
-20 35 c-11 19 -28 51 -38 70 -11 19 -19 42 -19 50 0 8 12 21 27 28 15 6 48
12 73 12 25 0 50 4 55 9 6 5 26 11 45 13 28 2 36 8 38 26 2 13 -3 31 -11 40
-10 11 -35 18 -65 20 -28 2 -53 -2 -57 -8 -3 -5 1 -10 9 -10 9 0 16 -3 16 -7
-1 -5 -19 -20 -41 -35 -24 -18 -52 -28 -74 -28 -24 0 -37 6 -45 21 -7 11 -9
27 -6 35 4 10 23 14 63 14 53 1 56 2 39 15 -11 8 -37 15 -58 15 -27 0 -40 5
-48 20 -6 11 -18 20 -26 20 -10 0 -14 6 -10 15 3 9 0 15 -8 15 -7 0 -17 -10
-23 -22 -6 -13 -14 -31 -17 -41 -3 -9 -3 -30 0 -46 4 -17 14 -31 25 -34 10 -3
22 -12 25 -21 3 -9 -4 -28 -18 -45 -12 -17 -29 -30 -37 -30 -11 -1 -11 -5 2
-19 10 -10 17 -24 17 -32 0 -7 -16 -30 -35 -51 -19 -22 -35 -44 -35 -50 0 -8
6 -7 17 2 10 8 26 23 35 34 10 11 17 25 18 31 0 6 6 17 14 23 12 10 20 9 40
-4 14 -10 26 -25 26 -35 0 -9 8 -24 18 -33 10 -10 28 -17 39 -17 12 0 35 -13
53 -30 32 -30 32 -30 156 -30 105 0 129 3 159 20 20 11 46 20 58 20 12 0 37
14 56 30 23 20 44 30 67 30 24 0 34 5 39 20 3 11 14 20 24 20 10 0 24 7 31 15
6 8 20 17 30 20 11 3 35 22 55 42 19 19 35 39 35 44 0 5 7 9 15 9 9 0 18 7 21
15 4 8 28 27 55 42 29 15 49 33 49 43 0 9 8 24 18 34 11 9 24 33 30 54 7 21
23 49 37 62 19 18 25 33 25 66 0 24 5 55 11 70 7 21 7 34 -2 51 -8 16 -21 23
-41 23 -15 0 -37 -6 -48 -12 -17 -11 -22 -10 -29 1 -5 7 -7 45 -5 84 3 53 8
75 24 92 12 13 20 35 20 57 0 20 7 41 15 48 8 7 15 25 15 40 0 15 6 33 14 39
7 6 16 29 20 50 3 21 13 44 21 51 8 7 15 19 15 26 0 8 8 14 18 14 16 0 19 9
20 69 1 60 -1 70 -19 74 -12 3 -19 14 -19 31 0 17 -14 38 -44 66 -25 23 -48
54 -51 70 -3 15 -15 45 -26 66 -13 26 -19 59 -19 103 0 40 -7 79 -17 102 -10
21 -22 39 -27 39 -5 0 -19 11 -32 26 -16 17 -24 37 -24 62 0 30 -7 45 -35 72
-20 21 -35 45 -35 60 0 14 -15 41 -33 61 -28 33 -38 37 -87 40z"/>
<!-- <path d="M3370 3105 c-5 3 -10 2 -10 -4 0 -5 5 -13 10 -16 6 -3 10 -2 10 4 0
5 -4 13 -10 16z"/> -->
<!-- <path d="M2927 3097 c-4 3 -7 0 -7 -7 0 -7 3 -10 7 -7 3 4 3 10 0 14z"/> -->
<path d="M3520 3044 c-5 4 -12 -12 -15 -38 -5 -30 -3 -58 5 -79 7 -17 17 -36
23 -42 6 -6 7 19 2 70 -4 44 -11 84 -15 89z"/>
<path d="M3036 3030 c-9 0 -20 -9 -26 -20 -8 -16 -8 -20 4 -20 9 0 20 9 26 20
8 16 8 20 -4 20z"/>
<!-- <path d="M3435 3010 c-3 0 -5 -2 -5 -5 0 -3 2 -5 5 -5 3 0 5 2 5 5 0 3 -2 5
-5 5z"/> -->
<path d="M3258 2962 c-3 8 -11 3 -20 -12 -9 -14 -20 -41 -24 -60 -4 -19 -7
-38 -6 -42 1 -5 -2 -8 -7 -8 -5 0 -12 6 -14 13 -3 6 -6 3 -6 -8 0 -11 5 -40
13 -64 l13 -45 6 40 c4 21 7 54 7 73 0 18 9 49 21 67 11 19 19 40 17 46z"/>
<!-- <path d="M3150 2835 c-6 15 -9 7 -9 -30 0 -27 4 -57 9 -65 7 -11 10 -3 9 30 0
25 -4 54 -9 65z"/> -->
<!-- <path d="M3227 2763 c-3 6 -5 1 -5 -13 0 -14 2 -19 5 -12 2 6 2 18 0 25z"/> -->
<path d="M3211 2715 c-5 3 -13 -5 -17 -17 -5 -13 -7 -72 -6 -132 1 -60 6 -114
12 -120 5 -5 10 -18 10 -27 0 -10 5 -21 11 -25 8 -4 9 3 5 22 -3 16 -6 72 -7
124 -1 52 -1 99 0 104 0 5 10 1 21 -9 11 -10 20 -14 20 -8 0 5 -9 18 -20 28
-11 10 -20 26 -20 36 0 10 -4 20 -9 24z"/>
<!-- <path d="M3157 2703 c-3 6 -5 1 -5 -13 0 -14 2 -19 5 -12 2 6 2 18 0 25z"/> -->
<path d="M3268 2610 c-5 0 -8 -6 -8 -13 0 -7 9 -18 20 -25 12 -7 18 -16 15
-21 -2 -5 2 -14 10 -21 8 -7 15 -9 15 -6 0 4 -10 25 -22 46 -13 22 -26 40 -30
40z"/>
<path d="M3448 2563 c-2 10 -6 15 -10 11 -5 -4 -8 -23 -7 -43 0 -34 1 -34 10
-11 5 13 9 33 7 43z"/>
<path d="M3500 2580 c-9 0 -20 -3 -23 -7 -4 -3 -7 -28 -7 -54 0 -26 -3 -54 -6
-63 -3 -9 -13 -16 -21 -16 -9 0 -13 6 -9 15 3 8 2 15 -2 15 -4 0 -12 -4 -18
-8 -6 -4 -13 -23 -16 -43 -3 -27 0 -35 9 -32 7 3 13 1 13 -5 0 -5 13 2 28 16
16 15 34 38 41 51 9 16 16 20 20 12 6 -9 11 -8 20 3 11 12 10 25 0 66 -9 34
-18 50 -29 50z"/>
<path d="M1223 2540 c-7 0 -13 -3 -13 -6 0 -3 9 -19 21 -35 11 -16 27 -29 35
-29 8 0 14 7 14 16 0 9 -10 24 -22 35 -13 10 -29 18 -35 19z"/>
<path d="M1728 2439 c-55 1 -100 -3 -103 -9 -3 -5 -15 -10 -26 -10 -17 0 -19
-4 -13 -22 4 -13 14 -33 23 -45 9 -12 24 -24 34 -26 12 -4 17 -15 17 -40 0
-21 6 -37 14 -40 8 -3 20 -24 27 -46 8 -26 20 -43 33 -47 12 -4 26 -13 32 -22
9 -12 19 -12 75 0 48 11 66 19 74 36 6 13 19 22 32 22 16 0 23 6 23 19 0 15
16 21 93 37 50 11 82 20 70 22 -12 2 -27 10 -33 18 -7 8 -16 14 -21 14 -5 0
-9 -8 -9 -18 0 -13 -16 -22 -58 -35 -32 -9 -63 -17 -70 -17 -6 0 -16 9 -23 21
l-11 21 -22 -21 c-12 -12 -29 -21 -37 -21 -8 0 -21 -6 -27 -12 -10 -10 -15
-10 -21 1 -6 9 -18 11 -35 7 -21 -5 -28 -2 -35 17 -5 12 -16 29 -25 36 -9 7
-16 23 -16 34 0 11 -7 29 -17 39 -15 17 -15 19 1 36 9 11 42 25 74 32 31 7 62
14 67 15 6 2 -34 4 -87 4z"/>
<!-- <path d="M3537 2393 c-2 12 -4 2 -4 -23 0 -25 2 -35 4 -22 2 12 2 32 0 45z"/> -->
<path d="M2080 2400 c-16 0 -30 -5 -30 -11 0 -5 -14 -15 -30 -21 -17 -5 -29
-15 -27 -22 2 -6 30 -12 64 -14 57 -3 60 -2 57 20 -1 13 -3 29 -3 36 -1 7 -14
12 -31 12z"/>
<!-- <path d="M3465 2400 c-3 0 -5 -2 -5 -5 0 -3 2 -5 5 -5 3 0 5 2 5 5 0 3 -2 5
-5 5z"/> -->
<!-- <path d="M3491 2400 c-5 0 -12 -7 -15 -16 -3 -9 -6 -18 -6 -21 0 -3 7 0 15 7
8 7 15 16 15 21 0 5 -4 9 -9 9z"/>
<path d="M3235 2380 c-3 0 -5 -2 -5 -5 0 -3 2 -5 5 -5 3 0 5 2 5 5 0 3 -2 5
-5 5z"/>
<path d="M3244 2340 c-3 0 -2 -4 1 -10 3 -5 8 -10 11 -10 3 0 2 5 -1 10 -3 6
-8 10 -11 10z"/>
<path d="M2970 2330 c-5 0 -10 -7 -10 -15 0 -8 5 -15 10 -15 6 0 10 7 10 15 0
8 -4 15 -10 15z"/> -->
<path d="M1157 2320 c-23 0 -48 -4 -55 -9 -8 -5 -12 -17 -10 -27 3 -15 14 -20
59 -22 44 -2 61 1 80 17 l24 19 -28 11 c-16 6 -47 11 -70 11z"/>
<!-- <path d="M2847 2297 c-4 3 -7 0 -7 -7 0 -7 3 -10 7 -7 3 4 3 10 0 14z"/> -->
<!-- <path d="M2877 2297 c-4 3 -7 0 -7 -7 0 -7 3 -10 7 -7 3 4 3 10 0 14z"/>
<path d="M3266 2297 c-3 4 -6 -2 -5 -13 0 -11 3 -14 6 -6 3 7 2 16 -1 19z"/>
<path d="M2169 2260 c-5 0 -6 -7 -3 -15 4 -8 13 -15 21 -15 13 0 13 3 3 15 -7
8 -16 15 -21 15z"/>
<path d="M2902 2260 c-5 0 -12 -3 -15 -7 -4 -3 -7 -14 -7 -23 0 -10 7 -23 15
-30 13 -11 15 -7 15 24 0 20 -4 36 -8 36z"/> -->
<!-- <path d="M3535 2260 c-3 0 -5 -2 -5 -5 0 -3 2 -5 5 -5 3 0 5 2 5 5 0 3 -2 5
-5 5z"/> -->
<path d="M3486 2250 c-3 0 -8 -4 -11 -10 -3 -5 -14 -10 -24 -10 -10 0 -21 -9
-24 -20 -4 -14 1 -25 14 -33 10 -6 19 -16 19 -22 0 -5 -21 -23 -46 -40 -27
-18 -53 -47 -66 -72 -12 -24 -19 -45 -16 -48 2 -3 11 7 19 23 8 15 21 32 29
39 8 6 19 9 24 6 5 -4 6 -2 3 4 -3 5 2 16 11 24 9 8 20 15 25 16 4 1 13 4 20
6 8 4 8 6 -2 6 -11 1 -11 4 -1 16 7 8 19 15 26 15 8 0 14 -4 14 -9 0 -5 -4
-11 -8 -13 -4 -1 -5 -16 -1 -33 l7 -30 1 28 c1 20 6 27 21 27 18 0 20 6 19 56
-1 39 -4 52 -11 41 -8 -15 -10 -15 -27 1 -10 9 -16 20 -14 25 2 4 2 7 -1 7z"/>
<!-- <path d="M3400 2180 c-7 0 -10 -3 -7 -7 4 -3 10 -3 14 0 3 4 0 7 -7 7z"/> -->
<!-- <path d="M2946 2157 c-3 4 -6 -2 -5 -13 0 -11 3 -14 6 -6 3 7 2 16 -1 19z"/>
<path d="M3355 2150 c-3 0 -5 -4 -5 -10 0 -5 -9 -19 -21 -31 -11 -11 -18 -23
-15 -26 3 -3 14 5 25 18 11 13 20 30 21 37 0 6 -2 12 -5 12z"/>
<path d="M425 2100 c-3 0 -5 -2 -5 -5 0 -3 2 -5 5 -5 3 0 5 2 5 5 0 3 -2 5 -5
5z"/>
<path d="M3310 2070 c-7 0 -10 -3 -7 -7 4 -3 10 -3 14 0 3 4 0 7 -7 7z"/>
<path d="M3295 2050 c-3 0 -5 -2 -5 -5 0 -3 2 -5 5 -5 3 0 5 2 5 5 0 3 -2 5
-5 5z"/>
<path d="M3510 2050 c-5 0 -10 -11 -10 -24 0 -13 7 -27 16 -30 9 -4 19 -4 22
-1 3 3 0 16 -6 30 -6 14 -16 25 -22 25z"/>
<path d="M2915 2010 c-3 0 -5 -2 -5 -5 0 -3 2 -5 5 -5 3 0 5 2 5 5 0 3 -2 5
-5 5z"/> -->
<path d="M2831 1990 c-5 0 -12 -7 -15 -16 -3 -9 -6 -26 -6 -40 0 -17 -5 -23
-17 -22 -10 1 -26 0 -35 0 -10 -1 -18 -9 -18 -17 0 -8 -9 -15 -19 -15 -11 0
-31 -14 -45 -31 -14 -17 -26 -41 -26 -54 0 -15 7 -25 22 -28 13 -4 29 0 38 8
9 8 22 15 28 15 6 0 28 9 49 21 21 12 48 33 61 47 12 15 27 37 32 48 5 12 6
31 3 43 -3 12 -13 21 -24 21 -11 0 -19 5 -19 10 0 6 -4 10 -9 10z"/>
<path d="M2783 1980 c-5 0 -18 -7 -29 -15 -10 -8 -27 -15 -37 -15 -12 0 -17
-6 -15 -17 2 -10 11 -19 21 -21 9 -2 17 3 17 10 0 7 10 18 22 23 12 6 23 16
26 23 2 6 0 12 -5 12z"/>
<path d="M291 1860 c-12 0 -21 -4 -21 -10 0 -5 -7 -10 -15 -10 -8 0 -15 -4
-15 -8 0 -5 12 -14 26 -20 17 -8 31 -9 44 -2 10 5 28 10 39 10 12 0 21 5 21
10 0 6 -16 10 -36 10 -21 0 -33 4 -29 10 3 6 -3 10 -14 10z"/>
<!-- <path d="M3474 1830 c-3 0 -2 -4 1 -10 3 -5 8 -10 11 -10 3 0 2 5 -1 10 -3 6
-8 10 -11 10z"/> -->
<path d="M1643 1740 c-5 0 -24 -15 -43 -32 l-35 -33 33 -3 c21 -2 45 4 65 17
20 13 26 21 16 21 -9 0 -19 7 -23 15 -3 8 -9 15 -13 15z"/>
<!-- <path d="M353 1550 c-5 0 -15 -5 -23 -10 -12 -8 -11 -10 8 -10 12 0 22 5 22
10 0 6 -3 10 -7 10z"/> -->
<!-- <path d="M1976 1460 c-20 0 -20 0 0 -15 19 -14 18 -14 -3 -15 -13 0 -23 -4
-23 -10 0 -5 20 -10 45 -10 37 0 45 3 45 19 0 11 -9 21 -22 25 -13 3 -32 6
-42 6z"/> -->
<path d="M3187 1460 c-7 0 -18 -5 -25 -12 -7 -7 -12 -21 -12 -33 0 -11 9 -28
20 -38 11 -9 27 -17 35 -17 8 0 15 7 15 15 0 8 5 15 10 15 6 0 10 6 10 13 0 7
-9 23 -20 35 -12 12 -26 22 -33 22z"/>
<!-- <path d="M1804 1429 c-11 0 -14 -3 -6 -6 7 -3 16 -2 19 1 4 3 -2 6 -13 5z"/> -->
<!-- <path d="M1915 1430 c-8 0 -15 -4 -15 -10 0 -5 7 -10 15 -10 8 0 15 5 15 10 0
6 -7 10 -15 10z"/> -->
<path d="M3381 1408 c-11 2 -21 -1 -21 -5 0 -5 -16 -15 -35 -22 -19 -7 -35
-18 -35 -25 0 -8 -9 -16 -20 -19 -11 -3 -20 -12 -20 -20 0 -9 4 -27 10 -41 8
-21 16 -26 45 -26 33 0 35 2 35 35 0 19 3 34 8 33 4 -2 17 7 28 18 12 12 28
24 35 26 11 4 11 10 3 24 -6 11 -21 20 -33 22z"/>
<!-- <path d="M1190 1398 c-14 0 -19 -2 -12 -5 6 -2 18 -2 25 0 6 3 1 5 -13 5z"/> -->
<!-- <path d="M1470 1398 c-14 0 -19 -2 -12 -5 6 -2 18 -2 25 0 6 3 1 5 -13 5z"/> -->
<path d="M1254 1358 c-11 13 -13 13 -9 1 3 -8 -8 -34 -25 -57 -16 -23 -30 -44
-30 -47 0 -3 4 -5 10 -5 5 0 21 18 35 40 18 29 32 40 50 40 14 0 25 -4 25 -10
0 -5 10 -10 23 -10 20 0 20 1 -7 15 -15 8 -35 15 -44 15 -8 0 -21 8 -28 18z"/>
<!-- <path d="M1116 1340 c-3 0 -8 -5 -12 -12 -4 -7 -3 -8 4 -4 7 4 12 9 12 12 0 2
-2 4 -4 4z"/> -->
<!-- <path d="M1085 1320 c-3 0 -5 -2 -5 -5 0 -3 2 -5 5 -5 3 0 5 2 5 5 0 3 -2 5
-5 5z"/>
<path d="M756 1300 c-3 0 -10 -6 -16 -12 -6 -7 -19 -24 -30 -37 -11 -13 -20
-26 -20 -28 0 -1 4 -3 9 -3 4 0 20 18 35 40 14 22 24 40 22 40z"/>
<path d="M1035 1290 c-3 0 -5 -2 -5 -5 0 -3 2 -5 5 -5 3 0 5 2 5 5 0 3 -2 5
-5 5z"/> -->
<path d="M1348 1246 c-3 2 -12 -4 -21 -14 -10 -10 -17 -33 -17 -50 0 -22 5
-32 16 -32 8 0 12 5 9 10 -4 6 -1 26 5 46 7 19 10 37 8 40z"/>
<path d="M3451 1250 c-11 0 -23 -4 -26 -10 -3 -5 -30 -22 -59 -36 -38 -19 -52
-31 -51 -45 1 -11 9 -27 18 -36 16 -16 18 -16 32 2 8 11 15 15 15 8 0 -7 5
-13 10 -13 6 0 15 11 22 25 6 13 15 22 20 19 5 -3 16 2 23 12 8 11 15 31 15
47 0 20 -5 27 -19 27z"/>
<path d="M1817 1210 c-7 0 -22 -6 -33 -14 -10 -8 -16 -17 -13 -21 4 -3 18 -3
33 1 14 3 26 12 26 20 0 8 -6 14 -13 14z"/>
<!-- <path d="M925 1170 c-3 0 -5 -2 -5 -5 0 -3 2 -5 5 -5 3 0 5 2 5 5 0 3 -2 5 -5
5z"/> -->
<path d="M2500 1159 c-3 -1 -27 -5 -53 -9 -27 -5 -57 -16 -66 -24 -10 -9 -25
-16 -34 -16 -9 0 -25 -8 -35 -18 -10 -10 -25 -22 -33 -25 -8 -4 -27 -16 -44
-26 -16 -11 -56 -23 -88 -26 -47 -6 -62 -13 -82 -37 -14 -16 -25 -34 -25 -39
0 -5 -16 -32 -35 -59 -19 -27 -35 -56 -35 -64 0 -7 -7 -19 -15 -26 -8 -7 -15
-18 -15 -24 0 -6 -14 -29 -31 -50 l-32 -38 26 -24 c14 -13 35 -24 47 -24 11 0
24 -8 27 -17 4 -9 14 -25 22 -35 9 -10 21 -18 28 -18 7 0 13 -8 14 -17 1 -10
0 -30 -1 -44 0 -14 5 -30 12 -36 7 -6 27 -14 43 -18 17 -5 33 -8 37 -7 4 1 17
-12 29 -29 15 -21 28 -29 45 -27 14 2 29 -4 37 -16 10 -14 21 -17 40 -12 22 5
27 12 27 36 0 17 8 38 18 48 9 9 17 23 17 30 0 6 25 29 55 50 46 32 55 43 55
69 1 24 14 45 60 93 42 43 60 69 61 88 0 15 6 38 14 52 7 13 19 31 27 38 7 7
13 22 13 33 0 10 -6 20 -12 20 -7 1 -16 1 -20 1 -3 -1 -10 4 -15 11 -5 7 -16
38 -23 70 -7 31 -17 57 -22 57 -5 0 -6 10 -2 23 4 12 8 34 9 49 1 19 -4 28
-19 32 -12 3 -23 5 -26 5z"/>
<!-- <path d="M905 1150 c-3 0 -5 -2 -5 -5 0 -3 2 -5 5 -5 3 0 5 2 5 5 0 3 -2 5 -5
5z"/> -->
<!-- <path d="M897 1130 c-2 0 -12 -10 -23 -22 l-19 -23 23 19 c12 11 22 21 22 23
0 1 -2 3 -3 3z"/>
<path d="M2845 1130 c-3 0 -5 -2 -5 -5 0 -3 2 -5 5 -5 3 0 5 2 5 5 0 3 -2 5
-5 5z"/> -->
<path d="M3481 1129 c-3 0 -17 -11 -31 -24 -13 -14 -40 -33 -60 -42 -26 -13
-30 -18 -17 -21 9 -2 17 -10 17 -18 0 -8 -9 -14 -20 -14 -11 0 -23 7 -26 15
-5 12 -10 13 -20 4 -10 -8 -11 -15 -1 -30 8 -12 23 -19 44 -19 18 0 33 4 33 9
0 5 21 13 47 17 46 9 48 10 55 53 5 29 4 49 -3 58 -6 7 -14 13 -18 12z"/>
<!-- <path d="M2760 1120 c-7 0 -10 -3 -7 -7 4 -3 10 -3 14 0 3 4 0 7 -7 7z"/> -->
<!-- <path d="M2844 1100 c-2 0 -4 -4 -4 -10 0 -5 5 -10 11 -10 5 0 7 5 4 10 -3 6
-8 10 -11 10z"/>
<path d="M445 1090 c-3 0 -5 -2 -5 -5 0 -3 2 -5 5 -5 3 0 5 2 5 5 0 3 -2 5 -5
5z"/>
<path d="M855 1080 c-3 0 -5 -2 -5 -5 0 -3 2 -5 5 -5 3 0 5 2 5 5 0 3 -2 5 -5
5z"/>
<path d="M2765 1080 c-3 0 -5 -2 -5 -5 0 -3 2 -5 5 -5 3 0 5 2 5 5 0 3 -2 5
-5 5z"/>
<path d="M2817 1067 c-4 3 -7 0 -7 -7 0 -7 3 -10 7 -7 3 4 3 10 0 14z"/>
<path d="M2861 1053 c-10 9 -11 8 -5 -6 3 -10 9 -15 12 -12 3 3 0 11 -7 18z"/> -->
<path d="M3537 1060 c-1 0 -11 -15 -21 -32 -11 -18 -41 -54 -68 -81 -26 -26
-48 -51 -48 -57 0 -5 -8 -14 -18 -19 -13 -7 -19 -22 -20 -47 -1 -20 -7 -42
-13 -50 -6 -7 -14 -13 -17 -13 -4 1 -17 -2 -29 -6 -13 -4 -23 -13 -23 -21 0
-7 -9 -12 -19 -11 -12 1 -22 11 -26 26 -4 15 -1 27 7 32 8 6 14 3 16 -6 2 -8
10 -15 18 -15 8 0 18 8 21 17 4 9 1 19 -5 21 -7 2 -12 9 -12 15 0 7 -7 20 -15
31 -13 17 -14 16 -24 -15 -7 -25 -9 -28 -10 -12 -1 13 -13 30 -27 40 -25 16
-27 16 -40 -2 -8 -10 -14 -25 -14 -32 0 -7 -4 -13 -8 -13 -4 0 -14 6 -21 13
-10 10 -14 8 -22 -6 -6 -10 -15 -14 -22 -10 -7 4 -4 -6 7 -21 14 -22 15 -30 6
-36 -7 -5 -10 -15 -7 -25 5 -13 3 -15 -12 -10 -12 3 -21 0 -24 -9 -4 -9 -2
-18 3 -21 5 -3 12 0 15 5 5 7 12 5 20 -7 9 -12 10 -22 4 -30 -6 -6 -7 -23 -3
-37 3 -14 12 -26 19 -26 7 0 15 4 17 9 2 4 12 5 23 0 18 -7 18 -8 2 -8 -11 -1
-17 -7 -15 -17 2 -9 -5 -21 -14 -27 -13 -9 -21 -7 -36 6 -10 9 -21 17 -25 17
-3 0 -5 -13 -4 -29 1 -16 6 -29 12 -28 5 1 9 -6 10 -15 0 -10 5 -17 10 -16 6
1 18 3 28 6 10 3 16 10 13 18 -3 7 1 17 8 24 11 8 15 4 18 -22 3 -18 1 -46 -3
-62 -5 -16 -13 -33 -19 -36 -7 -5 -8 -15 -1 -33 7 -17 7 -27 1 -27 -6 0 -10
-8 -11 -17 0 -14 -2 -15 -6 -3 -3 8 -11 18 -17 22 -7 5 -4 8 7 8 9 0 17 3 17
6 0 4 -7 12 -16 19 -15 10 -14 14 10 40 14 15 26 32 26 36 0 5 -4 9 -10 9 -5
0 -10 -5 -10 -10 0 -6 -10 -9 -23 -6 -13 2 -33 -4 -46 -15 -14 -11 -21 -25
-17 -34 3 -9 -1 -18 -8 -21 -12 -5 -12 -10 -1 -38 12 -29 12 -34 -4 -46 -11
-8 -17 -21 -14 -34 4 -19 3 -19 -9 -5 -7 9 -23 21 -35 28 -21 11 -23 10 -23
-13 0 -18 -4 -24 -15 -20 -8 4 -15 1 -15 -4 0 -7 58 -11 173 -10 115 0 174 4
179 12 6 8 8 7 8 -1 0 -9 19 -13 60 -13 59 0 60 1 60 28 0 20 3 23 9 13 5 -8
7 -20 4 -28 -4 -9 4 -13 26 -13 20 0 31 5 31 14 0 7 9 16 20 19 15 4 20 0 20
-14 0 -12 7 -19 20 -19 18 0 20 7 20 55 0 36 -4 55 -12 55 -9 0 -9 3 0 12 7 7
12 31 12 55 0 24 -1 43 -2 43 -2 0 -31 -11 -65 -23 -34 -12 -74 -33 -88 -45
-14 -12 -25 -26 -25 -32 0 -5 -7 -7 -15 -4 -8 3 -24 -5 -37 -18 -13 -13 -33
-37 -45 -53 -19 -26 -24 -28 -33 -15 -7 9 -9 37 -5 70 3 30 12 61 20 70 8 9
15 25 15 36 0 11 19 58 43 104 26 51 52 89 66 96 13 7 50 38 82 70 33 32 59
65 59 74 0 8 -7 24 -15 34 -8 11 -15 33 -15 49 0 16 8 42 17 58 10 16 23 29
30 29 9 0 13 16 13 50 0 28 -1 50 -3 50z"/>
<!-- <path d="M835 1050 c-3 0 -5 -2 -5 -5 0 -3 2 -5 5 -5 3 0 5 2 5 5 0 3 -2 5 -5
5z"/> -->
<!-- <path d="M2906 1037 c-3 4 -6 -2 -5 -13 0 -11 3 -14 6 -6 3 7 2 16 -1 19z"/>
<path d="M2770 1030 c-5 0 -10 -4 -10 -10 0 -5 5 -10 10 -10 6 0 10 5 10 10 0
6 -4 10 -10 10z"/>
<path d="M826 1020 c-2 0 -10 -8 -17 -17 -13 -16 -12 -17 4 -4 9 7 17 15 17
17 0 2 -2 4 -4 4z"/>
<path d="M2815 1010 c-3 0 -5 -2 -5 -5 0 -3 2 -5 5 -5 3 0 5 2 5 5 0 3 -2 5
-5 5z"/> -->
<path d="M2862 985 l-9 30 -4 -37 c-3 -22 -1 -36 6 -35 5 1 9 -4 7 -11 -1 -8
2 -11 8 -7 6 4 10 -5 10 -20 0 -14 7 -39 15 -55 9 -17 23 -30 31 -30 11 0 14
5 10 16 -5 13 -2 15 14 11 11 -3 20 -1 20 4 0 5 -4 9 -10 9 -5 0 -10 8 -10 18
0 10 3 22 7 25 3 4 12 -5 19 -19 8 -14 11 -30 8 -35 -3 -5 0 -9 5 -10 6 -1 22
-1 35 -2 13 -1 30 6 37 14 8 7 19 26 26 40 10 24 10 26 -8 22 -13 -4 -19 0
-19 11 0 9 -11 22 -25 28 -14 6 -25 17 -25 23 0 7 -12 11 -27 9 -16 -1 -34 -2
-41 -3 -7 -1 -11 -5 -7 -10 3 -5 -5 -21 -18 -35 l-24 -26 -11 23 c-6 12 -15
36 -20 52z"/>
<!-- <path d="M1290 980 c-11 0 -20 -6 -20 -14 0 -8 4 -17 8 -20 4 -2 13 4 20 15
11 16 9 19 -8 19z"/> -->
<!-- <path d="M2815 980 c-3 0 -5 -2 -5 -5 0 -3 2 -5 5 -5 3 0 5 2 5 5 0 3 -2 5 -5
5z"/>
<path d="M2906 970 c-2 0 -6 -7 -10 -15 -3 -8 -1 -15 4 -15 6 0 10 7 10 15 0
8 -2 15 -4 15z"/>
<path d="M786 960 c-2 0 -10 -8 -17 -17 -13 -16 -12 -17 4 -4 9 7 17 15 17 17
0 2 -2 4 -4 4z"/>
<path d="M2827 957 c-4 3 -7 0 -7 -7 0 -7 3 -10 7 -7 3 4 3 10 0 14z"/>
<path d="M2774 940 c-3 0 -2 -4 1 -10 3 -5 8 -10 11 -10 3 0 2 5 -1 10 -3 6
-8 10 -11 10z"/>
<path d="M3117 937 c-4 3 -7 0 -7 -7 0 -7 3 -10 7 -7 3 4 3 10 0 14z"/> -->
<path d="M2775 908 c-4 4 -6 -6 -4 -23 1 -16 1 -38 1 -49 -2 -15 -5 -16 -17
-6 -9 7 -18 10 -22 6 -3 -3 -1 -6 5 -6 7 0 12 -7 12 -15 0 -8 -4 -15 -9 -15
-5 0 -12 6 -15 13 -3 6 -4 0 -1 -14 2 -14 1 -29 -3 -33 -4 -4 -12 -31 -19 -59
-8 -39 -8 -54 0 -59 9 -6 9 -10 0 -16 -7 -4 -19 -47 -28 -96 -8 -49 -15 -94
-15 -100 0 -7 9 -12 20 -13 11 -1 22 3 26 9 3 5 1 15 -4 20 -6 6 -8 24 -5 39
3 16 1 29 -4 29 -6 0 -8 12 -6 28 3 15 7 34 10 42 4 11 8 8 12 -9 4 -13 14
-25 24 -27 11 -1 17 4 17 17 0 10 -3 19 -7 19 -5 0 -9 41 -10 90 -1 52 2 90 7
90 6 0 10 -14 10 -31 0 -20 4 -29 13 -26 6 2 10 14 9 27 -2 12 2 27 10 32 10
7 10 11 1 15 -7 2 -13 9 -13 14 0 6 3 8 8 5 4 -2 7 18 5 46 -1 27 -5 53 -8 56z"/>
<!-- <path d="M2857 903 c-3 6 -5 1 -5 -13 0 -14 2 -19 5 -12 2 6 2 18 0 25z"/> -->
<path d="M758 875 c-15 17 -17 18 -18 3 0 -10 7 -23 16 -30 8 -7 24 -21 35
-30 10 -10 21 -18 24 -18 3 0 16 -11 29 -25 13 -14 32 -25 42 -25 11 0 33 -13
49 -30 17 -16 37 -38 45 -48 8 -10 21 -27 28 -38 6 -10 16 -29 21 -41 6 -11
15 -24 20 -28 6 -3 11 -14 11 -23 0 -9 14 -44 32 -77 17 -33 42 -81 55 -107
14 -27 32 -48 41 -48 8 0 23 -7 33 -16 11 -10 25 -13 38 -9 17 5 21 15 21 46
0 27 4 39 14 39 8 0 36 -20 62 -45 25 -25 50 -45 55 -45 5 0 9 -4 9 -10 0 -5
7 -10 15 -10 8 0 15 -4 15 -10 0 -6 27 -10 61 -10 52 0 60 2 57 17 -2 14 -15
19 -48 21 -25 1 -54 7 -65 12 -11 5 -32 14 -47 20 -16 5 -28 14 -28 20 0 5 -7
10 -15 10 -11 0 -15 12 -15 48 0 43 -4 52 -35 79 -29 26 -35 38 -35 73 0 33
-4 43 -20 47 -11 3 -20 11 -20 18 0 7 -7 18 -15 25 -8 7 -15 24 -15 39 0 22
-8 30 -51 49 -31 13 -53 30 -56 42 -3 11 -11 20 -18 20 -8 0 -16 8 -19 18 -3
9 -3 -1 1 -23 3 -22 6 -46 7 -54 0 -8 -10 -20 -23 -27 -22 -11 -28 -10 -57 14
-18 15 -33 35 -33 45 -1 9 -6 17 -13 17 -7 0 -24 12 -40 27 -23 22 -30 24 -43
13 -12 -10 -21 -8 -52 16 -21 16 -46 38 -55 49z"/>
<!-- <path d="M2734 890 c-2 0 -4 -4 -4 -9 0 -6 4 -13 10 -16 6 -3 7 1 4 9 -3 9 -8
16 -10 16z"/> -->
<!-- <path d="M2821 890 c-5 0 -12 -7 -15 -16 -5 -14 -4 -15 9 -4 8 7 15 14 15 16
0 2 -4 4 -9 4z"/>
<path d="M1102 870 c-4 0 -13 -5 -20 -12 -7 -7 -12 -17 -12 -22 0 -6 5 -3 11
8 9 15 13 16 20 5 7 -11 9 -10 9 4 0 9 -4 17 -8 17z"/>
<path d="M1295 850 c-3 0 -5 -2 -5 -5 0 -3 2 -5 5 -5 3 0 5 2 5 5 0 3 -2 5 -5
5z"/> -->
<path d="M737 818 c-9 2 -17 2 -17 0 0 -2 9 -21 20 -43 11 -22 20 -47 20 -56
0 -9 7 -19 15 -23 8 -3 15 -12 15 -21 0 -8 -7 -15 -15 -15 -8 0 -15 -7 -15
-16 0 -8 5 -12 11 -9 6 4 13 -2 16 -13 3 -13 11 -18 19 -15 8 3 14 -1 14 -11
0 -9 7 -16 15 -16 8 0 15 -4 15 -9 0 -5 -5 -11 -10 -13 -6 -2 -12 -30 -14 -64
-2 -33 -8 -70 -15 -82 -6 -12 -15 -23 -19 -23 -4 -1 -22 -3 -39 -5 -21 -2 -33
1 -33 8 0 6 -3 8 -7 4 -4 -3 -8 -16 -10 -28 -2 -12 -9 -25 -15 -29 -7 -4 -16
-5 -20 -3 -4 3 -8 -4 -8 -15 0 -11 9 -25 20 -31 15 -8 19 -17 15 -33 -5 -18
-4 -19 5 -7 9 11 13 12 17 3 3 -10 50 -13 179 -12 139 0 174 2 174 13 0 8 -11
21 -25 30 -13 9 -31 16 -39 16 -9 0 -12 7 -9 20 3 11 1 20 -5 20 -5 0 -16 29
-23 65 -7 36 -17 65 -23 65 -6 0 -5 4 2 9 10 6 8 16 -10 45 -13 21 -35 52 -50
71 -16 18 -28 40 -28 49 0 9 -4 16 -9 16 -5 0 -12 12 -15 28 -4 15 -23 50 -44
77 -21 27 -45 51 -55 53z"/>
<!-- <path d="M695 810 c-3 0 -5 -2 -5 -5 0 -3 2 -5 5 -5 3 0 5 2 5 5 0 3 -2 5 -5
5z"/> -->
<!-- <path d="M2805 810 c-3 0 -5 -2 -5 -5 0 -3 2 -5 5 -5 3 0 5 2 5 5 0 3 -2 5 -5
5z"/>
<path d="M656 800 c-3 0 -8 -5 -12 -12 -4 -7 -3 -8 4 -4 7 4 12 9 12 12 0 2
-2 4 -4 4z"/>
<path d="M3005 800 c-5 0 -17 -5 -25 -10 -8 -5 -10 -10 -5 -10 6 0 17 5 25 10
8 5 11 10 5 10z"/>
<path d="M1295 790 c-3 0 -5 -2 -5 -5 0 -3 2 -5 5 -5 3 0 5 2 5 5 0 3 -2 5 -5
5z"/>
<path d="M625 780 c-3 0 -5 -2 -5 -5 0 -3 2 -5 5 -5 3 0 5 2 5 5 0 3 -2 5 -5
5z"/> -->
<path d="M351 770 c-20 0 -34 -7 -41 -20 -9 -17 -8 -20 10 -20 11 0 20 -7 20
-15 0 -8 -8 -16 -17 -16 -10 -1 -21 -1 -25 0 -5 0 -8 -12 -8 -29 0 -25 -4 -30
-25 -30 -24 0 -25 -2 -25 -65 0 -36 2 -65 4 -65 3 0 25 17 50 38 25 20 56 46
69 57 13 11 16 14 7 8 -9 -7 -20 -13 -23 -13 -4 0 -7 19 -7 42 0 23 6 49 14
57 7 9 16 28 20 44 6 25 4 27 -23 27z"/>
<!-- <path d="M1294 770 c-3 0 -2 -4 1 -10 3 -5 8 -10 11 -10 3 0 2 5 -1 10 -3 6
-8 10 -11 10z"/> -->
<!-- <path d="M2985 770 c-3 0 -5 -2 -5 -5 0 -3 2 -5 5 -5 3 0 5 2 5 5 0 3 -2 5 -5
5z"/>
<path d="M586 760 c-3 0 -8 -5 -12 -12 -4 -7 -3 -8 4 -4 7 4 12 9 12 12 0 2
-2 4 -4 4z"/>
<path d="M2795 760 c-3 0 -5 -2 -5 -5 0 -3 2 -5 5 -5 3 0 5 2 5 5 0 3 -2 5 -5
5z"/>
<path d="M2817 757 c-4 3 -7 0 -7 -7 0 -7 3 -10 7 -7 3 4 3 10 0 14z"/>
<path d="M555 740 c-3 0 -5 -2 -5 -5 0 -3 2 -5 5 -5 3 0 5 2 5 5 0 3 -2 5 -5
5z"/>
<path d="M535 730 c-3 0 -5 -2 -5 -5 0 -3 2 -5 5 -5 3 0 5 2 5 5 0 3 -2 5 -5
5z"/>
<path d="M1341 723 c-10 9 -11 8 -5 -6 3 -10 9 -15 12 -12 3 3 0 11 -7 18z"/> -->
<path d="M1616 730 c-32 0 -48 -6 -65 -24 -12 -13 -24 -40 -28 -60 -4 -25 -13
-41 -30 -49 l-24 -13 21 -19 c19 -18 21 -18 41 1 18 16 36 19 119 18 l97 0 51
-43 c28 -24 56 -41 62 -39 7 2 -13 29 -44 61 -31 31 -56 61 -56 66 0 5 -7 14
-15 21 -8 7 -15 20 -15 29 0 10 -15 25 -35 34 -20 9 -55 17 -79 17z"/>
<!-- <path d="M2985 730 c-3 0 -5 -2 -5 -5 0 -3 2 -5 5 -5 3 0 5 2 5 5 0 3 -2 5 -5
5z"/> -->
<!-- <path d="M515 720 c-3 0 -5 -2 -5 -5 0 -3 2 -5 5 -5 3 0 5 2 5 5 0 3 -2 5 -5
5z"/>
<path d="M610 710 c-5 0 -10 -5 -10 -11 0 -5 5 -7 10 -4 6 3 10 8 10 11 0 2
-4 4 -10 4z"/> -->
<path d="M678 691 c-2 6 -12 1 -22 -10 -11 -12 -28 -21 -39 -21 -15 0 -18 -5
-13 -24 4 -18 1 -29 -14 -39 -20 -14 -20 -15 17 -30 26 -10 44 -12 56 -6 9 6
17 14 17 19 0 5 7 7 15 4 9 -4 15 0 15 9 0 9 -5 19 -11 23 -7 4 -8 20 -4 41 4
22 3 33 -4 29 -5 -3 -11 -1 -13 5z"/>
<path d="M2937 700 c-7 0 -18 -5 -24 -11 -7 -7 -9 -25 -6 -41 5 -23 3 -27 -11
-22 -13 5 -16 -1 -16 -31 0 -21 4 -34 10 -30 6 3 10 13 10 21 0 8 7 14 15 14
8 0 19 8 24 18 6 11 6 24 0 35 -7 11 -6 17 1 17 5 0 10 7 10 15 0 8 -6 15 -13
15z"/>
<!-- <path d="M475 690 c-3 0 -5 -2 -5 -5 0 -3 2 -5 5 -5 3 0 5 2 5 5 0 3 -2 5 -5
5z"/> -->
<!-- <path d="M1354 690 c-2 0 -4 -2 -4 -4 0 -2 8 -10 18 -17 15 -13 16 -12 3 4 -7
9 -15 17 -17 17z"/> -->
<path d="M2779 671 c-17 17 -18 16 -13 -34 2 -29 10 -83 16 -122 6 -38 15 -74
20 -80 6 -6 9 10 6 43 -1 28 0 52 3 52 3 0 10 -17 16 -37 l10 -38 2 33 c0 17
6 32 11 32 6 0 10 -13 10 -29 0 -17 4 -32 9 -35 5 -3 11 0 14 8 3 7 -1 44 -9
82 -8 38 -16 80 -19 93 -5 19 -11 22 -32 18 -16 -3 -32 2 -44 14z"/>
<!-- <path d="M2886 690 c-3 0 -8 -4 -11 -10 -3 -5 -1 -18 4 -27 9 -16 10 -14 11
10 0 15 -2 27 -4 27z"/> -->
<!-- <path d="M445 670 c-3 0 -5 -2 -5 -5 0 -3 2 -5 5 -5 3 0 5 2 5 5 0 3 -2 5 -5
5z"/>
<path d="M2985 670 c-2 0 -7 -5 -10 -11 -4 -6 -5 -12 -2 -15 2 -3 7 2 10 11 4
8 5 15 2 15z"/>
<path d="M425 660 c-3 0 -5 -2 -5 -5 0 -3 2 -5 5 -5 3 0 5 2 5 5 0 3 -2 5 -5
5z"/>
<path d="M405 640 c-3 0 -5 -2 -5 -5 0 -3 2 -5 5 -5 3 0 5 2 5 5 0 3 -2 5 -5
5z"/>
<path d="M555 640 c-3 0 -5 -2 -5 -5 0 -3 2 -5 5 -5 3 0 5 2 5 5 0 3 -2 5 -5
5z"/>
<path d="M1445 610 c-3 0 -5 -2 -5 -5 0 -3 2 -5 5 -5 3 0 5 2 5 5 0 3 -2 5 -5
5z"/>
<path d="M2990 570 c-7 0 -10 -3 -7 -7 4 -3 10 -3 14 0 3 4 0 7 -7 7z"/> -->
<path d="M2975 550 c-3 0 -8 -7 -11 -15 -4 -8 -14 -15 -23 -15 -9 0 -22 5 -28
11 -8 8 -10 -8 -6 -58 2 -37 7 -75 10 -83 3 -8 7 -19 8 -25 1 -5 3 -13 3 -18
1 -4 13 0 26 8 20 13 23 23 21 63 -2 26 -1 41 2 35 3 -7 9 -13 14 -13 5 0 3
12 -3 26 -10 21 -9 27 3 35 11 7 10 9 -6 9 -17 0 -17 2 -5 10 11 7 11 10 2 10
-7 0 -10 5 -7 10 3 6 4 10 0 10z"/>
<!-- <path d="M3000 550 c-7 0 -10 -3 -7 -7 4 -3 10 -3 14 0 3 4 0 7 -7 7z"/> -->
<!-- <path d="M704 520 c-3 0 -2 -4 1 -10 3 -5 8 -10 11 -10 3 0 2 5 -1 10 -3 6 -8
10 -11 10z"/>
<path d="M2745 520 c-8 0 -15 -4 -15 -10 0 -5 7 -10 15 -10 8 0 15 5 15 10 0
6 -7 10 -15 10z"/>
<path d="M3035 520 c-3 0 -5 -2 -5 -5 0 -3 2 -5 5 -5 3 0 5 2 5 5 0 3 -2 5 -5
5z"/>
<path d="M770 500 c-7 0 -10 -3 -7 -7 4 -3 10 -3 14 0 3 4 0 7 -7 7z"/>
<path d="M1884 490 c-3 0 -2 -4 1 -10 3 -5 8 -10 11 -10 3 0 2 5 -1 10 -3 6
-8 10 -11 10z"/>
<path d="M440 475 c-5 3 -10 2 -10 -4 0 -5 5 -13 10 -16 6 -3 10 -2 10 4 0 5
-4 13 -10 16z"/>
<path d="M591 473 c-11 3 -26 -2 -32 -9 -10 -13 -6 -14 24 -12 20 1 34 5 32 9
-3 4 -14 9 -24 12z"/>
<path d="M520 470 c-5 0 -10 -4 -10 -10 0 -5 5 -10 10 -10 6 0 10 5 10 10 0 6
-4 10 -10 10z"/> -->
<!-- <path d="M423 441 c-11 11 -13 10 -13 -3 0 -9 -9 -20 -20 -23 -11 -3 -20 -15
-20 -26 0 -10 7 -19 15 -19 8 0 15 -4 15 -9 0 -4 9 -8 20 -7 11 0 20 4 20 9 0
4 0 11 0 17 0 5 -7 7 -15 4 -10 -4 -15 0 -15 14 0 11 6 22 13 25 10 4 10 7 0
18z"/> -->
<path d="M2841 448 c-9 3 -11 -2 -8 -14 3 -11 11 -39 18 -64 7 -25 16 -49 21
-54 4 -6 8 -1 8 12 0 13 6 22 15 22 8 0 15 5 15 10 0 6 -11 15 -24 20 -16 6
-26 18 -28 36 -2 15 -9 29 -17 32z"/>
<!-- <path d="M350 440 c-5 0 -10 -5 -10 -11 0 -5 5 -7 10 -4 6 3 10 8 10 11 0 2
-4 4 -10 4z"/> -->
<!-- <path d="M1925 440 c-3 0 -5 -2 -5 -5 0 -3 2 -5 5 -5 3 0 5 2 5 5 0 3 -2 5 -5
5z"/> -->
<path d="M1067 420 c-13 0 -30 -6 -36 -13 -8 -11 -5 -19 14 -37 14 -13 25 -31
25 -41 0 -9 9 -19 19 -22 11 -3 22 -2 25 1 3 3 6 16 6 29 0 12 -8 28 -19 34
-11 7 -16 19 -13 31 3 14 -1 18 -21 18z"/>
<!-- <path d="M1945 410 c-3 0 -5 -2 -5 -5 0 -3 2 -5 5 -5 3 0 5 2 5 5 0 3 -2 5 -5
5z"/> -->
<!-- <path d="M2820 405 c-5 3 -10 -1 -10 -9 0 -9 5 -16 10 -16 6 0 10 4 10 9 0 6
-4 13 -10 16z"/> -->
<path d="M2659 396 c-5 3 -9 4 -9 2 0 -2 -4 -18 -9 -36 -6 -18 -6 -30 -2 -27
5 2 11 -14 15 -37 4 -22 4 -43 2 -46 -3 -2 -19 9 -35 27 -19 21 -38 31 -58 31
-18 0 -35 9 -47 25 -10 14 -24 25 -30 25 -6 0 -30 -19 -53 -41 -24 -22 -43
-49 -43 -59 0 -19 8 -20 151 -20 l152 0 -7 33 c-4 17 -9 51 -13 75 -3 23 -10
45 -14 48z"/>
<!-- <path d="M1954 390 c-3 0 -2 -4 1 -10 3 -5 8 -10 11 -10 3 0 2 5 -1 10 -3 6
-8 10 -11 10z"/> -->
<!-- <path d="M549 365 c-3 3 -9 2 -12 -2 -4 -3 -7 -11 -7 -17 0 -6 5 -5 12 2 6 6
9 14 7 17z"/>
<path d="M595 350 c-3 0 -5 -2 -5 -5 0 -3 2 -5 5 -5 3 0 5 2 5 5 0 3 -2 5 -5
5z"/>
<path d="M625 350 c-3 0 -5 -2 -5 -5 0 -3 2 -5 5 -5 3 0 5 2 5 5 0 3 -2 5 -5
5z"/>
<path d="M347 337 c-4 3 -7 0 -7 -7 0 -7 3 -10 7 -7 3 4 3 10 0 14z"/>
<path d="M515 340 c-3 0 -5 -2 -5 -5 0 -3 2 -5 5 -5 3 0 5 2 5 5 0 3 -2 5 -5
5z"/>
<path d="M1987 337 c-4 3 -7 0 -7 -7 0 -7 3 -10 7 -7 3 4 3 10 0 14z"/>
<path d="M547 327 c-4 3 -7 0 -7 -7 0 -7 3 -10 7 -7 3 4 3 10 0 14z"/>
<path d="M587 307 c-4 3 -7 0 -7 -7 0 -7 3 -10 7 -7 3 4 3 10 0 14z"/>
<path d="M610 310 c-5 0 -10 -5 -10 -11 0 -5 5 -7 10 -4 6 3 10 8 10 11 0 2
-4 4 -10 4z"/>
<path d="M2002 304 c-4 2 -13 -7 -20 -22 -6 -14 -12 -30 -12 -34 0 -4 9 -8 20
-8 15 0 20 7 20 29 0 17 -3 32 -8 35z"/>
<path d="M275 280 c-3 0 -5 -2 -5 -5 0 -3 2 -5 5 -5 3 0 5 2 5 5 0 3 -2 5 -5
5z"/>
<path d="M2886 277 c-3 4 -6 -2 -5 -13 0 -11 3 -14 6 -6 3 7 2 16 -1 19z"/>
<path d="M360 270 c-5 0 -10 -5 -10 -11 0 -5 5 -7 10 -4 6 3 10 8 10 11 0 2
-4 4 -10 4z"/>
<path d="M375 250 c-3 0 -5 -2 -5 -5 0 -3 2 -5 5 -5 3 0 5 2 5 5 0 3 -2 5 -5
5z"/>
<path d="M1085 250 c-3 0 -5 -2 -5 -5 0 -3 2 -5 5 -5 3 0 5 2 5 5 0 3 -2 5 -5
5z"/> -->
</g>
</svg>
