<?xml version="1.0" standalone="no"?>
<!DOCTYPE svg PUBLIC "-//W3C//DTD SVG 20010904//EN"
 "http://www.w3.org/TR/2001/REC-SVG-20010904/DTD/svg10.dtd">
<svg version="1.0" xmlns="http://www.w3.org/2000/svg"
 width="100%" height="100%" viewBox="0 0 353.000000 448.000000"
 preserveAspectRatio="xMidYMid meet">
<!-- <g transform="translate(0.000000,448.000000) scale(0.100000,-0.100000)"
fill="#bfbfbf" stroke="none">
<path d="M1765 4240 l-1525 0 0 -2000 0 -2000 1525 0 1525 0 0 2000 0 2000
-1525 0z"/>
</g> -->
<g transform="translate(0.000000,448.000000) scale(0.100000,-0.100000)"
fill="#6c6c6c" stroke="none">
<path d="M521 4240 c-45 -1 -70 -5 -79 -15 -7 -8 -28 -15 -46 -15 -21 0 -40
-8 -54 -23 -12 -13 -22 -30 -22 -38 0 -8 9 -25 20 -37 12 -12 27 -22 34 -22 7
0 21 -9 31 -20 13 -14 29 -20 49 -18 27 3 32 8 40 46 8 34 14 42 33 42 12 0
27 -9 33 -20 6 -11 10 -41 8 -67 -3 -45 -2 -47 30 -56 29 -9 36 -7 61 17 28
27 32 28 120 25 74 -2 94 0 107 13 9 9 14 24 11 32 -4 10 -19 16 -39 16 -18 0
-42 3 -53 6 -11 3 -36 27 -56 53 -34 45 -38 46 -80 43 -35 -3 -48 1 -63 17
-16 17 -31 21 -85 21z"/>
<path d="M3183 4239 l-108 0 -55 -45 c-30 -24 -69 -61 -87 -81 -20 -24 -32
-49 -33 -67 0 -16 -7 -37 -16 -47 -14 -16 -15 -34 -9 -124 4 -58 11 -108 16
-111 5 -3 9 -38 9 -78 0 -46 6 -85 15 -102 10 -20 15 -58 15 -119 0 -49 -5
-131 -10 -182 -5 -50 -17 -107 -26 -125 -15 -33 -15 -35 15 -93 17 -33 31 -66
31 -74 0 -8 8 -23 17 -33 10 -11 18 -38 19 -61 1 -23 5 -59 9 -79 4 -21 11
-38 16 -38 5 0 9 -29 9 -64 0 -36 5 -68 10 -71 6 -3 10 -46 10 -95 0 -49 5
-92 10 -95 6 -3 10 -20 10 -37 0 -19 9 -41 23 -56 19 -21 22 -33 19 -95 -1
-40 -7 -98 -13 -130 -5 -32 -7 -72 -4 -89 6 -26 0 -36 -49 -87 -30 -32 -58
-71 -61 -87 -4 -16 -11 -40 -17 -54 -6 -14 -14 -33 -19 -42 -5 -10 -15 -28
-21 -40 -7 -13 -24 -35 -37 -51 -14 -15 -30 -27 -37 -27 -7 0 -15 -18 -19 -40
-4 -21 -4 -43 -1 -48 3 -5 28 -12 56 -16 27 -4 50 -11 50 -16 0 -6 -13 -10
-28 -10 -15 0 -33 -5 -39 -11 -6 -6 -81 -15 -167 -21 -85 -6 -167 -8 -180 -4
-14 3 -30 15 -36 26 -9 16 -7 26 10 49 11 16 20 35 20 42 0 7 6 20 14 28 7 9
21 41 29 71 9 30 21 89 27 130 6 41 16 78 23 82 7 4 26 8 43 8 18 0 38 8 48
19 10 10 33 61 52 113 19 51 38 102 44 113 5 11 25 55 45 99 20 43 39 93 42
110 4 17 16 44 27 59 17 23 21 43 21 106 0 66 -4 83 -25 114 -14 20 -33 39
-42 42 -9 3 -33 -3 -53 -14 -21 -11 -50 -31 -66 -45 -16 -14 -34 -26 -40 -26
-7 0 -9 8 -4 23 4 12 11 54 16 93 5 40 13 84 19 99 5 14 10 43 10 64 0 21 -6
44 -14 50 -8 7 -17 28 -20 47 -5 24 -14 38 -32 44 -23 9 -24 14 -25 102 -1 51
-3 109 -4 129 -1 20 -16 67 -34 105 -17 37 -50 88 -73 113 -23 25 -53 53 -67
62 -14 8 -48 37 -76 63 -27 26 -59 52 -70 57 -11 5 -27 13 -35 19 -8 5 -49 25
-90 44 -41 19 -95 40 -120 47 -25 7 -49 16 -55 20 -5 3 -34 12 -63 18 -29 6
-92 11 -140 11 -48 0 -97 -3 -109 -6 -14 -4 -23 -14 -23 -25 0 -10 -13 -25
-30 -34 -17 -9 -35 -27 -40 -41 -6 -14 -10 -52 -10 -85 0 -39 -6 -69 -17 -85
-13 -21 -17 -54 -19 -153 -2 -69 -7 -190 -12 -268 -9 -127 -13 -145 -36 -179
-14 -21 -26 -46 -26 -55 0 -9 -7 -22 -15 -29 -8 -7 -15 -25 -15 -40 0 -15 -9
-35 -21 -46 -15 -14 -19 -26 -15 -47 4 -20 0 -37 -14 -54 -11 -14 -20 -30 -20
-34 0 -5 16 -9 35 -9 l36 0 -7 -37 c-3 -21 -9 -41 -13 -45 -3 -3 -15 -8 -26
-10 -16 -3 -20 -11 -20 -48 0 -42 -2 -46 -32 -55 -25 -7 -33 -15 -33 -31 0
-13 5 -26 10 -29 6 -3 10 -19 10 -36 0 -16 -4 -29 -9 -29 -5 0 -16 -3 -25 -6
-13 -5 -16 1 -16 32 0 22 -3 63 -6 92 -4 28 -10 52 -14 52 -4 0 -11 -32 -16
-72 l-9 -72 -40 -9 c-22 -4 -50 -5 -63 -2 -12 3 -22 12 -22 20 0 8 -8 15 -17
15 -10 0 -35 3 -56 6 -30 5 -37 4 -37 -10 0 -9 -4 -24 -9 -34 -4 -9 -13 -32
-19 -50 -6 -19 -6 -30 -1 -26 6 3 16 1 24 -6 9 -7 15 -8 20 0 3 5 15 10 26 10
11 0 27 -6 34 -14 8 -8 11 -23 8 -37 -4 -13 -11 -27 -17 -31 -6 -4 -33 -8 -59
-8 -27 0 -57 -5 -68 -11 -16 -8 -18 -13 -8 -25 6 -8 20 -14 30 -14 11 0 19 4
19 9 0 5 12 9 26 9 14 0 28 -6 30 -13 3 -6 20 -18 40 -25 19 -8 33 -19 31 -24
-2 -6 -18 -12 -36 -14 -24 -3 -31 -7 -27 -19 3 -8 6 -19 6 -24 0 -4 14 -16 31
-25 27 -14 40 -14 98 -4 59 11 71 18 114 62 27 27 56 66 64 86 10 24 13 50 8
79 -5 35 -3 43 9 43 9 0 16 8 16 18 0 9 5 34 11 55 5 21 16 37 24 37 8 0 15
-6 15 -14 0 -7 6 -18 13 -25 10 -8 17 -7 25 1 7 7 12 23 12 37 0 13 7 32 15
41 12 14 12 21 -1 59 -8 24 -13 50 -10 58 4 9 17 13 38 11 l33 -3 -3 -105 c-3
-90 -6 -107 -23 -119 -10 -7 -19 -21 -19 -30 0 -10 -10 -27 -23 -39 -13 -12
-29 -22 -35 -22 -7 0 -12 -4 -12 -10 0 -5 5 -10 11 -10 6 0 8 -7 5 -16 -4 -9
-1 -23 5 -30 6 -8 9 -20 6 -28 -3 -7 0 -19 6 -25 6 -6 11 -41 10 -81 -1 -39
-6 -77 -12 -84 -7 -8 -9 -40 -7 -80 2 -44 10 -73 20 -85 13 -14 14 -24 7 -42
-5 -13 -13 -50 -16 -82 -6 -53 -9 -59 -40 -74 -31 -15 -33 -18 -32 -67 2 -41
7 -55 27 -73 21 -20 23 -26 12 -43 -6 -11 -12 -29 -12 -39 0 -11 -5 -23 -12
-27 -7 -5 -31 -7 -53 -5 l-40 2 27 -27 c21 -21 37 -28 72 -28 25 -1 50 -6 56
-12 6 -6 10 -24 8 -40 -2 -21 -9 -30 -24 -32 -16 -2 -24 -13 -28 -38 -4 -19
-4 -39 -1 -44 3 -6 19 -10 35 -10 16 0 32 -4 35 -10 3 -5 17 -10 31 -10 14 0
27 -7 30 -15 3 -8 -4 -26 -15 -41 -12 -15 -21 -34 -21 -43 0 -9 -6 -23 -13
-31 -7 -8 -25 -16 -42 -17 -16 0 -31 -7 -33 -13 -3 -7 -13 -21 -23 -31 -17
-17 -17 -18 10 -24 15 -3 47 -26 71 -50 l44 -45 104 0 c57 0 101 -4 98 -8 -3
-5 51 -64 119 -132 l124 -124 52 3 c29 1 64 7 78 13 14 6 85 22 156 34 72 13
150 24 176 24 25 0 49 4 55 9 5 5 54 16 109 25 55 10 109 21 120 26 11 5 56
14 100 19 44 6 118 17 165 25 47 8 118 23 158 33 l72 18 0 162 c0 97 -4 163
-10 163 -5 0 -33 -5 -62 -11 -29 -6 -58 -15 -64 -20 -6 -5 -78 -20 -160 -33
-82 -14 -204 -28 -271 -32 -117 -7 -123 -6 -123 13 0 10 5 24 12 31 6 6 17 28
25 49 7 21 13 50 13 64 0 15 3 41 6 58 5 24 12 31 31 31 13 0 45 5 71 11 26 7
52 15 57 19 6 5 46 13 90 19 44 7 121 21 170 32 50 12 118 30 153 42 l62 20 0
622 c0 541 2 624 15 635 13 11 15 115 15 826 l0 814 -107 -1z"/>
<path d="M505 3970 c-7 0 -17 -6 -23 -12 -5 -7 -12 -47 -16 -88 -3 -41 -8
-106 -12 -145 -4 -38 -13 -79 -20 -90 -8 -11 -14 -29 -14 -41 0 -12 -6 -27
-14 -33 -8 -7 -18 -41 -22 -79 -3 -37 -13 -80 -21 -97 -9 -16 -26 -45 -40 -62
-18 -24 -32 -33 -54 -33 l-29 0 0 -115 c0 -63 3 -115 6 -115 3 0 21 12 40 26
19 15 34 33 34 40 0 8 8 14 18 14 9 0 32 9 50 20 17 11 32 25 32 31 0 6 17 31
39 55 24 28 41 58 45 82 3 22 16 48 31 62 14 13 25 28 25 33 0 6 8 19 17 29
10 12 20 45 24 86 4 37 4 72 -1 77 -4 6 -11 76 -15 157 l-7 148 -30 25 c-16
14 -35 25 -43 25z"/>
<path d="M568 2790 c-20 -1 -44 -10 -61 -25 -15 -14 -40 -25 -55 -25 -15 0
-69 -5 -119 -12 l-93 -12 0 -808 c0 -754 1 -808 17 -808 9 0 31 -14 49 -31
l31 -30 34 18 c19 11 91 75 160 144 69 68 142 147 162 174 20 28 67 80 105
117 39 37 82 70 97 74 22 6 26 4 20 -7 -8 -12 -6 -12 8 0 9 7 17 21 17 30 0 9
-9 41 -20 71 -11 30 -25 89 -31 130 -5 41 -12 87 -15 102 -5 23 -9 27 -29 22
-18 -4 -27 0 -39 18 -9 14 -23 71 -32 129 -9 57 -24 122 -34 144 -10 22 -24
81 -31 130 -7 50 -18 97 -24 105 -6 8 -17 28 -23 44 -8 16 -13 78 -13 148 -1
116 -2 120 -25 128 -13 5 -24 14 -24 20 0 5 -15 10 -32 10z"/>
<path d="M680 2550 c-13 17 -20 20 -20 10 0 -8 6 -32 13 -52 7 -21 16 -41 20
-44 4 -4 7 8 7 27 0 19 -9 45 -20 59z"/>
<path d="M750 2350 c-11 0 -20 -2 -20 -5 0 -3 4 -13 9 -23 5 -9 12 -25 15 -34
3 -10 9 -18 15 -18 5 0 11 10 15 23 3 12 1 24 -4 25 -6 2 -10 10 -10 18 0 8
-9 14 -20 14z"/>
<!-- <path d="M966 2240 c-2 0 -10 -8 -17 -17 -13 -16 -12 -17 4 -4 9 7 17 15 17
17 0 2 -2 4 -4 4z"/> -->
<path d="M1281 1840 c-4 0 -17 -13 -29 -30 -12 -16 -22 -34 -22 -39 0 -5 -8
-16 -18 -23 -10 -7 -27 -26 -37 -43 -10 -16 -27 -40 -38 -52 -10 -12 -16 -26
-13 -32 4 -6 2 -18 -3 -28 -5 -10 -14 -43 -20 -73 -6 -30 -8 -80 -5 -110 3
-30 9 -59 13 -65 5 -5 11 -26 14 -45 3 -20 18 -58 34 -85 19 -33 36 -50 49
-50 10 0 23 10 29 23 5 12 13 22 17 22 5 0 8 11 8 24 0 13 -7 29 -15 36 -10 8
-13 20 -9 33 4 12 13 27 20 35 8 7 14 18 14 23 0 5 -11 11 -24 15 -14 3 -32
14 -42 25 -9 10 -23 19 -31 19 -7 0 -13 11 -13 25 0 13 5 48 11 77 10 43 20
60 60 97 35 32 49 52 49 71 0 14 9 43 20 65 11 22 20 47 20 56 0 9 -7 20 -16
23 -9 3 -19 6 -23 6z"/>
<!-- <path d="M878 1520 c-2 0 -14 -10 -25 -22 -11 -13 -24 -30 -28 -38 -5 -9 -4
-11 1 -5 5 6 20 22 33 38 14 15 22 27 19 27z"/> -->
<!-- <path d="M953 1488 c-4 18 -12 30 -16 26 -4 -4 -7 -23 -7 -42 0 -25 4 -33 14
-29 7 3 20 0 27 -6 10 -10 11 -9 2 3 -6 8 -15 30 -20 48z"/> -->
<!-- <path d="M815 1440 c-3 0 -5 -2 -5 -5 0 -3 2 -5 5 -5 3 0 5 2 5 5 0 3 -2 5 -5
5z"/> -->
<!-- <path d="M795 1420 c-3 0 -5 -2 -5 -5 0 -3 2 -5 5 -5 3 0 5 2 5 5 0 3 -2 5 -5
5z"/>
<path d="M785 1390 c-3 0 -5 -2 -5 -5 0 -3 2 -5 5 -5 3 0 5 2 5 5 0 3 -2 5 -5
5z"/>
<path d="M995 1390 c-3 0 -5 -2 -5 -5 0 -3 2 -5 5 -5 3 0 5 2 5 5 0 3 -2 5 -5
5z"/>
<path d="M776 1357 c-3 4 -6 -2 -5 -13 0 -11 3 -14 6 -6 3 7 2 16 -1 19z"/>
<path d="M1065 1270 c-3 0 -5 -2 -5 -5 0 -3 2 -5 5 -5 3 0 5 2 5 5 0 3 -2 5
-5 5z"/>
<path d="M787 1225 l-4 40 -1 -41 c-2 -31 3 -45 21 -60 22 -19 22 -19 5 1 -9
11 -18 38 -21 60z"/>
<path d="M1074 1250 c-3 0 -2 -4 1 -10 3 -5 8 -10 11 -10 3 0 2 5 -1 10 -3 6
-8 10 -11 10z"/>
<path d="M1105 1210 c-3 0 -5 -2 -5 -5 0 -3 2 -5 5 -5 3 0 5 2 5 5 0 3 -2 5
-5 5z"/>
<path d="M1153 1130 c-2 0 -3 -1 -3 -3 0 -2 15 -16 33 -33 l32 -29 -29 33
c-17 17 -31 32 -33 32z"/>
<path d="M867 1107 c-4 3 -7 0 -7 -7 0 -7 3 -10 7 -7 3 4 3 10 0 14z"/>
<path d="M765 1060 c-3 0 -5 -2 -5 -5 0 -3 2 -5 5 -5 3 0 5 2 5 5 0 3 -2 5 -5
5z"/>
<path d="M690 1030 c-7 0 -10 -3 -7 -7 4 -3 10 -3 14 0 3 4 0 7 -7 7z"/>
<path d="M645 1010 c-3 0 -5 -2 -5 -5 0 -3 2 -5 5 -5 3 0 5 2 5 5 0 3 -2 5 -5
5z"/>
<path d="M615 1000 c-3 0 -5 -2 -5 -5 0 -3 2 -5 5 -5 3 0 5 2 5 5 0 3 -2 5 -5
5z"/>
<path d="M256 990 c-3 0 -8 -5 -12 -12 -4 -7 -3 -8 4 -4 7 4 12 9 12 12 0 2
-2 4 -4 4z"/>
<path d="M590 990 c-7 0 -10 -3 -7 -7 4 -3 10 -3 14 0 3 4 0 7 -7 7z"/>
<path d="M555 980 c-3 0 -5 -2 -5 -5 0 -3 2 -5 5 -5 3 0 5 2 5 5 0 3 -2 5 -5
5z"/>
<path d="M375 960 c-3 0 -5 -2 -5 -5 0 -3 2 -5 5 -5 3 0 5 2 5 5 0 3 -2 5 -5
5z"/>
<path d="M1354 920 c-2 0 -4 -2 -4 -4 0 -2 8 -10 18 -17 15 -13 16 -12 3 4 -7
9 -15 17 -17 17z"/>
<path d="M1080 900 c-7 0 -10 -3 -7 -7 4 -3 10 -3 14 0 3 4 0 7 -7 7z"/>
<path d="M1175 900 c-3 0 -5 -2 -5 -5 0 -3 2 -5 5 -5 3 0 5 2 5 5 0 3 -2 5 -5
5z"/>
<path d="M1395 890 c-3 0 -5 -2 -5 -5 0 -3 2 -5 5 -5 3 0 5 2 5 5 0 3 -2 5 -5
5z"/>
<path d="M1045 880 c-3 0 -5 -2 -5 -5 0 -3 2 -5 5 -5 3 0 5 2 5 5 0 3 -2 5 -5
5z"/>
<path d="M1243 864 c-14 6 -15 5 -6 -5 7 -7 15 -10 18 -7 3 3 -2 9 -12 12z"/>
<path d="M1310 830 c-7 0 -10 -3 -7 -7 4 -3 10 -3 14 0 3 4 0 7 -7 7z"/>
<path d="M910 820 c-7 0 -10 -3 -7 -7 4 -3 10 -3 14 0 3 4 0 7 -7 7z"/>
<path d="M1359 810 c-5 0 -9 -2 -9 -4 0 -2 7 -7 16 -10 8 -3 12 -2 9 4 -3 6
-10 10 -16 10z"/>
<path d="M835 790 c-3 0 -5 -2 -5 -5 0 -3 2 -5 5 -5 3 0 5 2 5 5 0 3 -2 5 -5
5z"/>
<path d="M1414 789 c-11 0 -14 -3 -6 -6 7 -3 16 -2 19 1 4 3 -2 6 -13 5z"/>
<path d="M775 770 c-3 0 -5 -2 -5 -5 0 -3 2 -5 5 -5 3 0 5 2 5 5 0 3 -2 5 -5
5z"/>
<path d="M730 750 c-7 0 -10 -3 -7 -7 4 -3 10 -3 14 0 3 4 0 7 -7 7z"/>
<path d="M695 740 c-3 0 -5 -2 -5 -5 0 -3 2 -5 5 -5 3 0 5 2 5 5 0 3 -2 5 -5
5z"/>
<path d="M1725 740 c-3 0 -5 -2 -5 -5 0 -3 2 -5 5 -5 3 0 5 2 5 5 0 3 -2 5 -5
5z"/>
<path d="M645 730 c-3 0 -5 -2 -5 -5 0 -3 2 -5 5 -5 3 0 5 2 5 5 0 3 -2 5 -5
5z"/>
<path d="M1625 720 c-3 0 -5 -2 -5 -5 0 -3 2 -5 5 -5 3 0 5 2 5 5 0 3 -2 5 -5
5z"/>
<path d="M474 709 c-11 0 -14 -3 -6 -6 7 -3 16 -2 19 1 4 3 -2 6 -13 5z"/>
<path d="M1580 710 c-7 0 -10 -3 -7 -7 4 -3 10 -3 14 0 3 4 0 7 -7 7z"/>
<path d="M425 700 c-5 0 -17 -5 -25 -10 -8 -5 -10 -10 -5 -10 6 0 17 5 25 10
8 5 11 10 5 10z"/>
<path d="M1510 690 c-7 0 -10 -3 -7 -7 4 -3 10 -3 14 0 3 4 0 7 -7 7z"/>
<path d="M295 678 c-16 0 -22 -2 -12 -5 9 -2 23 -2 30 0 6 3 -1 5 -18 5z"/>
<path d="M1385 650 c-3 0 -5 -2 -5 -5 0 -3 2 -5 5 -5 3 0 5 2 5 5 0 3 -2 5 -5
5z"/>
<path d="M1356 640 c-3 0 -8 -5 -12 -12 -4 -7 -3 -8 4 -4 7 4 12 9 12 12 0 2
-2 4 -4 4z"/>
<path d="M1280 610 c-7 0 -10 -3 -7 -7 4 -3 10 -3 14 0 3 4 0 7 -7 7z"/>
<path d="M1205 590 c-3 0 -5 -2 -5 -5 0 -3 2 -5 5 -5 3 0 5 2 5 5 0 3 -2 5 -5
5z"/>
<path d="M1155 570 c-3 0 -5 -2 -5 -5 0 -3 2 -5 5 -5 3 0 5 2 5 5 0 3 -2 5 -5
5z"/>
<path d="M1074 549 c-11 0 -14 -3 -6 -6 7 -3 16 -2 19 1 4 3 -2 6 -13 5z"/>
<path d="M1008 530 c-2 0 -10 -5 -18 -10 -9 -6 -10 -10 -3 -10 6 0 15 5 18 10
3 6 5 10 3 10z"/>
<path d="M925 500 c-3 0 -5 -2 -5 -5 0 -3 2 -5 5 -5 3 0 5 2 5 5 0 3 -2 5 -5
5z"/>
<path d="M830 490 c-7 0 -10 -3 -7 -7 4 -3 10 -3 14 0 3 4 0 7 -7 7z"/>
<path d="M785 480 c-5 0 -17 -5 -25 -10 -8 -5 -10 -10 -5 -10 6 0 17 5 25 10
8 5 11 10 5 10z"/>
<path d="M1930 470 c-7 0 -10 -3 -7 -7 4 -3 10 -3 14 0 3 4 0 7 -7 7z"/>
<path d="M250 450 c-7 0 -10 -3 -7 -7 4 -3 10 -3 14 0 3 4 0 7 -7 7z"/>
<path d="M695 450 c-3 0 -5 -2 -5 -5 0 -3 2 -5 5 -5 3 0 5 2 5 5 0 3 -2 5 -5
5z"/>
<path d="M1860 450 c-7 0 -10 -3 -7 -7 4 -3 10 -3 14 0 3 4 0 7 -7 7z"/>
<path d="M285 440 c-3 0 -5 -2 -5 -5 0 -3 2 -5 5 -5 3 0 5 2 5 5 0 3 -2 5 -5
5z"/>
<path d="M650 440 c-7 0 -10 -3 -7 -7 4 -3 10 -3 14 0 3 4 0 7 -7 7z"/>
<path d="M605 430 c-3 0 -5 -2 -5 -5 0 -3 2 -5 5 -5 3 0 5 2 5 5 0 3 -2 5 -5
5z"/>
<path d="M400 420 c-7 0 -10 -3 -7 -7 4 -3 10 -3 14 0 3 4 0 7 -7 7z"/>
<path d="M1765 420 c-3 0 -5 -2 -5 -5 0 -3 2 -5 5 -5 3 0 5 2 5 5 0 3 -2 5 -5
5z"/>
<path d="M485 407 c-38 0 -55 -2 -38 -4 18 -2 50 -2 70 0 21 2 7 4 -32 4z"/>
<path d="M3274 409 c-11 0 -14 -3 -6 -6 7 -3 16 -2 19 1 4 3 -2 6 -13 5z"/>
<path d="M1670 390 c-7 0 -10 -3 -7 -7 4 -3 10 -3 14 0 3 4 0 7 -7 7z"/>
<path d="M3114 379 c-11 0 -14 -3 -6 -6 7 -3 16 -2 19 1 4 3 -2 6 -13 5z"/>
<path d="M1595 370 c-5 0 -17 -5 -25 -10 -8 -5 -10 -10 -5 -10 6 0 17 5 25 10
8 5 11 10 5 10z"/>
<path d="M3053 369 c-17 1 -35 -3 -38 -9 -3 -5 0 -10 7 -9 7 1 24 5 38 9 24 8
24 8 -7 9z"/>
<path d="M1524 349 c-11 0 -14 -3 -6 -6 7 -3 16 -2 19 1 4 3 -2 6 -13 5z"/>
<path d="M2960 350 c-7 0 -10 -3 -7 -7 4 -3 10 -3 14 0 3 4 0 7 -7 7z"/>
<path d="M1475 340 c-3 0 -5 -2 -5 -5 0 -3 2 -5 5 -5 3 0 5 2 5 5 0 3 -2 5 -5
5z"/>
<path d="M2890 340 c-7 0 -10 -3 -7 -7 4 -3 10 -3 14 0 3 4 0 7 -7 7z"/>
<path d="M1435 330 c-3 0 -5 -2 -5 -5 0 -3 2 -5 5 -5 3 0 5 2 5 5 0 3 -2 5 -5
5z"/>
<path d="M2850 330 c-7 0 -10 -3 -7 -7 4 -3 10 -3 14 0 3 4 0 7 -7 7z"/>
<path d="M1380 320 c-7 0 -10 -3 -7 -7 4 -3 10 -3 14 0 3 4 0 7 -7 7z"/>
<path d="M2800 320 c-7 0 -10 -3 -7 -7 4 -3 10 -3 14 0 3 4 0 7 -7 7z"/>
<path d="M2755 309 c-5 0 -19 -4 -30 -9 -13 -6 -15 -9 -5 -9 8 0 22 4 30 9 8
5 11 9 5 9z"/>
<path d="M1310 300 c-7 0 -10 -3 -7 -7 4 -3 10 -3 14 0 3 4 0 7 -7 7z"/>
<path d="M1215 280 c-3 0 -5 -2 -5 -5 0 -3 2 -5 5 -5 3 0 5 2 5 5 0 3 -2 5 -5
5z"/>
<path d="M1134 269 c-11 0 -14 -3 -6 -6 7 -3 16 -2 19 1 4 3 -2 6 -13 5z"/>
<path d="M2570 270 c-7 0 -10 -3 -7 -7 4 -3 10 -3 14 0 3 4 0 7 -7 7z"/>
<path d="M1070 260 c-7 0 -10 -3 -7 -7 4 -3 10 -3 14 0 3 4 0 7 -7 7z"/>
<path d="M2518 259 c-2 -1 -14 -5 -28 -9 -23 -7 -23 -8 -3 -9 12 -1 25 4 28 9
3 6 5 10 3 9z"/>
<path d="M1040 250 c-7 0 -10 -3 -7 -7 4 -3 10 -3 14 0 3 4 0 7 -7 7z"/> -->
</g>
<g transform="translate(0.000000,448.000000) scale(0.100000,-0.100000)"
fill="#2e2e2e" stroke="none">
<path d="M521 4239 c-14 0 -34 -8 -43 -17 -9 -10 -36 -23 -60 -29 -24 -7 -51
-18 -62 -26 -18 -13 -18 -14 4 -40 13 -15 28 -27 34 -27 5 0 20 -10 34 -22 23
-23 24 -23 38 -4 8 11 14 28 14 38 0 9 18 34 41 55 29 27 38 43 34 56 -5 10
-17 17 -34 16z"/>
<path d="M665 4140 c-28 0 -56 -5 -63 -12 -7 -7 -12 -26 -12 -44 0 -17 7 -37
15 -44 12 -10 25 -9 64 4 28 9 61 16 75 16 14 0 28 5 32 11 3 6 -9 24 -27 39
-28 24 -44 29 -84 30z"/>
<path d="M3205 3828 c-5 0 -24 -3 -41 -7 -23 -4 -58 -34 -128 -107 -84 -90
-96 -106 -96 -137 0 -20 4 -38 9 -41 5 -3 12 -23 16 -43 3 -21 16 -48 28 -60
14 -16 32 -23 57 -23 28 0 43 -8 68 -33 32 -33 32 -34 26 -105 -5 -50 -3 -76
5 -86 7 -8 30 -24 52 -35 22 -12 51 -21 64 -21 l25 0 0 315 0 315 -37 35 c-21
19 -42 34 -48 33z"/>
<path d="M2177 3660 c-23 -1 -46 -13 -79 -41 -27 -23 -48 -46 -48 -52 0 -6
-32 -44 -72 -84 -68 -69 -72 -75 -79 -130 -5 -32 -11 -85 -15 -119 -4 -42 -3
-63 5 -68 6 -4 11 -25 11 -46 0 -27 -9 -53 -30 -83 -16 -24 -36 -50 -45 -57
-8 -7 -15 -21 -15 -32 0 -11 -9 -31 -20 -45 -12 -15 -20 -41 -20 -63 0 -22 -7
-43 -16 -51 -12 -10 -14 -23 -9 -57 4 -30 15 -52 33 -67 24 -20 25 -25 14 -49
-7 -15 -12 -36 -12 -46 0 -16 7 -20 35 -20 23 0 35 -5 35 -14 0 -7 -6 -18 -12
-24 -7 -6 -26 -12 -42 -14 -16 -1 -34 -12 -40 -22 -6 -11 -26 -33 -44 -49 -30
-27 -33 -35 -30 -75 3 -44 2 -46 -41 -69 -24 -12 -52 -23 -61 -23 -9 0 -21 5
-28 12 -7 7 -12 40 -12 78 0 39 -5 71 -12 79 -11 10 -15 -8 -24 -86 -8 -74 -8
-104 1 -123 6 -14 10 -42 7 -61 -2 -24 1 -39 12 -48 10 -9 16 -29 16 -57 0
-24 -4 -44 -10 -44 -6 0 -10 -37 -10 -90 0 -67 4 -97 16 -116 14 -20 16 -39
10 -101 -3 -43 -11 -82 -16 -87 -6 -6 -10 -17 -10 -25 0 -8 -8 -24 -19 -35
-15 -17 -18 -32 -13 -83 3 -45 8 -63 18 -63 10 0 14 13 14 45 0 42 2 45 28 45
15 0 32 -4 38 -8 6 -4 14 -42 18 -86 6 -66 4 -81 -10 -97 -9 -11 -23 -19 -30
-19 -7 0 -16 -4 -19 -10 -3 -5 2 -21 11 -35 9 -13 20 -22 25 -19 5 3 18 0 29
-6 11 -6 20 -17 20 -25 0 -8 -11 -17 -25 -21 -24 -6 -26 -10 -23 -53 l3 -46
50 -3 c27 -2 58 -10 67 -19 10 -9 18 -27 18 -41 0 -14 -10 -32 -25 -44 -14
-11 -25 -26 -25 -33 0 -8 -9 -19 -19 -25 -11 -5 -21 -20 -23 -32 -3 -21 -9
-23 -78 -26 -52 -2 -88 2 -118 14 -24 9 -60 31 -80 48 -19 17 -48 50 -63 74
-15 23 -48 59 -73 78 -26 19 -68 68 -94 107 -26 40 -65 104 -87 142 -22 39
-46 84 -55 100 -10 20 -21 29 -34 27 -17 -3 -18 2 -11 63 7 66 7 66 -15 53
-12 -7 -46 -45 -75 -84 -30 -39 -57 -83 -61 -98 -3 -15 -3 -64 1 -111 6 -79 9
-86 46 -126 21 -23 39 -44 39 -46 0 -1 -9 -3 -19 -3 -11 0 -36 -9 -58 -20 -21
-10 -64 -30 -95 -44 -31 -14 -84 -34 -119 -45 -35 -12 -89 -21 -123 -21 -34 0
-95 -9 -136 -19 l-75 -18 -3 -125 -3 -125 73 5 c40 2 80 8 89 13 9 4 74 15
145 23 86 10 160 26 219 46 50 17 99 36 109 42 11 5 43 18 71 28 29 10 71 30
93 44 29 18 55 26 88 26 34 0 68 -11 137 -46 51 -26 101 -50 112 -54 11 -4 39
-13 61 -19 23 -6 106 -11 185 -11 79 0 150 -4 158 -9 7 -5 9 -11 5 -14 -5 -2
-29 -8 -54 -12 -25 -4 -79 -15 -120 -25 -41 -10 -101 -26 -133 -34 -32 -9 -77
-25 -100 -36 -23 -12 -73 -30 -112 -41 -38 -11 -92 -27 -120 -36 -27 -8 -67
-19 -88 -24 -21 -5 -45 -13 -55 -18 -9 -5 -35 -14 -57 -19 -22 -6 -67 -15
-100 -20 -33 -6 -76 -15 -95 -21 -19 -5 -71 -20 -115 -32 -44 -12 -103 -23
-132 -26 -30 -3 -80 2 -115 10 -35 9 -82 18 -106 22 l-42 7 0 -101 0 -101 389
0 c214 0 400 4 413 9 14 5 67 14 119 21 52 6 126 20 164 30 39 11 108 28 155
39 47 11 123 29 170 41 47 11 92 24 100 29 8 4 42 16 75 26 33 9 78 23 100 30
22 7 56 17 75 23 19 6 58 14 85 18 28 3 55 10 60 14 6 5 48 14 95 20 46 6 88
14 92 16 4 3 38 9 75 15 37 5 97 14 133 19 36 6 97 16 135 24 39 8 89 20 112
25 23 6 90 18 149 26 59 8 121 19 138 24 17 5 61 16 98 25 36 9 78 16 92 16
l26 0 0 161 0 161 -27 -6 c-16 -3 -46 -8 -68 -12 -22 -4 -44 -10 -50 -14 -5
-4 -21 -10 -35 -14 -14 -4 -65 -14 -115 -22 -49 -8 -189 -24 -310 -34 -121
-11 -231 -25 -245 -31 -14 -6 -45 -17 -70 -25 -25 -8 -51 -14 -58 -14 -7 0
-15 7 -18 14 -3 9 13 34 41 63 25 26 61 71 79 98 19 28 42 57 52 67 11 9 51
32 89 52 42 22 84 36 107 36 20 0 65 9 100 21 34 11 108 26 164 34 55 8 120
20 145 28 24 8 83 25 132 38 l87 24 0 625 0 625 -83 83 c-57 57 -90 82 -106
82 -14 0 -32 -7 -42 -16 -16 -15 -18 -29 -12 -133 3 -64 11 -135 19 -159 8
-23 25 -60 39 -82 19 -30 25 -53 25 -94 0 -49 3 -57 35 -85 33 -29 35 -33 35
-97 0 -56 -4 -71 -25 -96 -22 -26 -25 -39 -25 -112 l0 -82 -43 -42 c-23 -23
-46 -42 -51 -42 -4 0 -26 -16 -49 -35 -22 -19 -47 -35 -54 -35 -7 0 -31 -16
-53 -36 -22 -20 -40 -42 -40 -49 0 -7 16 -16 35 -19 19 -4 35 -11 35 -15 0 -5
-10 -11 -22 -14 -13 -3 -41 -11 -63 -16 -22 -6 -111 -16 -199 -21 -144 -10
-161 -9 -177 6 -11 10 -19 21 -19 27 0 5 16 34 35 65 19 32 43 91 55 132 11
41 23 105 27 143 l6 67 34 -6 c29 -5 39 -2 63 21 16 15 32 42 36 59 4 17 7 39
5 49 -1 9 4 17 13 17 8 0 17 14 22 33 3 17 30 82 58 142 29 61 58 126 65 145
7 19 19 49 26 65 7 17 16 51 20 77 4 27 2 60 -4 80 -7 18 -23 45 -36 61 -13
15 -31 27 -40 27 -9 0 -26 -5 -38 -11 -12 -6 -36 -25 -54 -42 -27 -25 -37 -29
-68 -24 -21 4 -46 1 -58 -6 -12 -7 -32 -20 -44 -30 -11 -11 -29 -17 -40 -15
-13 2 -20 16 -24 49 -4 25 -13 56 -20 67 -12 18 -12 26 -1 43 10 15 11 24 3
32 -6 6 -11 39 -11 73 0 35 -4 66 -10 69 -5 3 -10 23 -10 43 0 20 -9 51 -20
67 -11 17 -20 40 -20 51 0 12 -7 27 -15 34 -8 7 -15 22 -15 34 0 12 -9 41 -20
64 -11 22 -20 45 -20 50 0 5 -11 19 -26 32 -19 19 -24 31 -19 50 4 14 14 34
24 45 10 11 26 37 35 59 14 29 16 43 7 60 -5 11 -12 34 -13 50 -2 16 -11 34
-22 40 -10 6 -30 21 -44 34 -14 12 -35 22 -48 22 -12 0 -26 5 -29 10 -3 6 -21
10 -38 10z"/>
<path d="M531 3540 c-10 0 -30 -10 -44 -23 -15 -12 -27 -29 -27 -37 0 -8 8
-25 18 -38 15 -19 22 -22 44 -13 20 7 28 19 33 50 4 22 4 45 0 51 -3 5 -14 10
-24 10z"/>
<path d="M404 3400 c-8 0 -19 -12 -24 -26 -6 -14 -10 -35 -10 -48 0 -12 -6
-30 -12 -39 -8 -11 -33 -20 -65 -24 l-53 -6 0 -85 0 -84 38 36 c20 20 46 39
57 42 11 3 46 37 78 74 46 56 57 75 57 104 0 30 -5 38 -26 46 -14 6 -32 10
-40 10z"/>
<path d="M702 2310 c-4 0 -33 -29 -65 -65 -32 -36 -63 -65 -70 -65 -6 0 -37
-25 -69 -57 l-57 -56 -100 -10 -101 -10 0 -298 0 -297 92 -7 92 -7 51 -49 c29
-27 60 -49 69 -49 10 0 32 11 50 25 18 14 40 25 49 25 9 0 19 5 22 11 4 5 17
15 28 20 12 5 31 15 42 22 11 7 40 32 65 55 25 24 64 55 88 70 40 25 43 29 37
62 -4 19 -10 40 -14 45 -5 6 -13 37 -19 70 -6 33 -14 81 -17 108 -5 40 -10 47
-28 47 -12 0 -29 11 -38 23 -8 12 -21 42 -27 67 -6 25 -14 74 -18 110 -3 36
-12 75 -20 87 -8 12 -19 45 -25 73 -6 27 -14 50 -17 50z"/>
<path d="M1018 2270 c-8 0 -28 -15 -46 -33 -18 -18 -32 -38 -32 -45 0 -7 6
-12 13 -12 6 0 24 15 38 33 14 17 29 38 33 45 4 7 2 12 -6 12z"/>
<path d="M1270 2264 c-39 3 -72 2 -82 -5 -10 -5 -18 -16 -18 -24 0 -7 -14 -25
-31 -39 -17 -14 -43 -26 -57 -26 -15 0 -37 -3 -49 -6 -13 -4 -23 -10 -23 -15
0 -5 9 -9 19 -9 11 0 26 -8 33 -19 8 -12 32 -21 66 -26 33 -4 52 -11 49 -19
-2 -6 -17 -13 -33 -16 -16 -3 -28 -9 -28 -13 1 -4 4 -16 7 -27 4 -16 13 -20
49 -19 23 1 53 4 65 7 12 4 40 24 62 44 33 30 41 43 41 72 0 24 5 36 14 36 7
0 19 7 26 15 6 8 9 23 5 34 -3 10 -16 26 -28 34 -12 8 -51 17 -87 21z"/>
<path d="M1289 1828 c-11 2 -21 -7 -28 -25 -6 -15 -19 -40 -29 -54 -9 -15 -32
-47 -49 -72 -18 -25 -33 -56 -33 -68 0 -12 -7 -30 -16 -40 -11 -12 -18 -45
-21 -102 -4 -57 -2 -86 6 -91 6 -4 11 -18 11 -31 0 -13 4 -26 9 -29 4 -3 14
-26 21 -51 7 -26 19 -45 27 -45 7 0 18 12 24 27 8 23 5 37 -20 87 -26 49 -31
70 -31 128 0 55 5 76 24 106 13 20 36 51 52 67 16 17 37 57 47 90 10 33 19 69
20 80 1 11 -5 21 -14 23z"/>
<path d="M619 1319 c-13 0 -33 -4 -44 -9 -11 -4 -40 -29 -65 -54 -27 -28 -53
-46 -67 -46 -12 0 -41 -10 -63 -21 -23 -12 -51 -34 -62 -49 -11 -16 -33 -31
-49 -34 -28 -5 -29 -7 -29 -67 l0 -61 28 17 c15 10 36 26 47 36 11 9 32 21 47
24 15 4 57 39 95 79 37 39 79 81 93 92 14 11 41 37 59 57 34 36 35 37 10 36z"/>
<path d="M3248 399 c-24 -1 -56 -5 -73 -9 -16 -5 -57 -15 -90 -23 -33 -8 -85
-18 -115 -22 -30 -4 -93 -16 -140 -27 -47 -10 -119 -26 -160 -34 -41 -8 -92
-18 -113 -21 -21 -3 -40 -10 -43 -14 -3 -5 168 -9 385 -9 l391 0 0 80 0 80
-42 -1z"/>
</g>
</svg>
